<?xml version="1.0" encoding="UTF-8"?>
<svg id="Camada_1" xmlns="http://www.w3.org/2000/svg" viewBox="0 0 1318.95 1304.38">
  <defs>
    <style>
      .cls-1 {
        fill: #a840f1;
      }
    </style>
  </defs>
  <path class="cls-1" d="M1034.19,715.29l-.35,304.33H358.19c-40.55,0-73.42-32.55-73.42-72.73V401.64h101.48v-116.88h546.25v150.05c0,28.05-22.95,50.78-51.25,50.78-14.15,0-26.98-5.68-36.25-14.88-9.3-9.18-15.03-21.88-15.03-35.9v-48.52h-341.17v99.3h-101.5v359.77c0,40.15,32.9,72.73,73.45,72.73h470.68l.22-202.85-.27-229.6,102.55-.12.27,229.77Z"/>
  <path class="cls-1" d="M659.47,874.16c-25.73,0-50.73-5-74.28-14.87-22.73-9.52-43.12-23.13-60.63-40.47-17.51-17.33-31.26-37.53-40.87-60.03-9.96-23.32-15.01-48.07-15.01-73.55s5.05-50.23,15.01-73.55c9.61-22.5,23.36-42.7,40.87-60.03,17.51-17.33,37.9-30.95,60.63-40.47,23.56-9.86,48.55-14.87,74.28-14.87s50.73,5,74.28,14.87c22.73,9.52,43.12,23.13,60.63,40.47,17.51,17.33,31.26,37.53,40.87,60.03,9.96,23.32,15.01,48.07,15.01,73.55s-5.05,50.23-15.01,73.55c-9.61,22.5-23.36,42.7-40.87,60.03-17.51,17.33-37.9,30.95-60.63,40.47-23.56,9.86-48.55,14.87-74.28,14.87ZM660.7,597.87c-49.63-.67-90.15,39.45-89.47,88.59.65,47.13,39.41,85.51,87.01,86.16,49.63.67,90.15-39.45,89.47-88.59-.65-47.13-39.41-85.51-87.01-86.16Z"/>
</svg>