<?xml version="1.0" encoding="UTF-8"?>
<svg id="Camada_1" xmlns="http://www.w3.org/2000/svg" viewBox="0 0 1774.67 1816.05">
  <defs>
    <style>
      .cls-1 {
        fill: #fff6eb;
      }

      .cls-2 {
        fill: #bf7513;
      }

      .cls-3 {
        fill: #ff9c19;
      }
    </style>
  </defs>
  <g>
    <path class="cls-1" d="M855.43,338.69c-.12-.3-.28-.57-.45-.74.1.21.19.43.27.64.06.04.12.07.17.1Z"/>
    <path class="cls-1" d="M953.08,309.68c.88-9.15,1.75-18.31,2.63-27.46.29-3.08.54-9.96-2.91-11.64-3.47-1.69-4.92,4.47-5.12,6.61-.88,9.15-1.75,18.31-2.63,27.46-.29,3.08-.54,9.95,2.91,11.64,3.47,1.69,4.92-4.47,5.12-6.61Z"/>
    <path class="cls-1" d="M996.27,318.21c3.47,1.69,4.92-4.47,5.12-6.61.88-9.15,1.75-18.31,2.63-27.46.29-3.08.54-9.95-2.91-11.64-3.47-1.69-4.92,4.47-5.12,6.61-.88,9.15-1.75,18.31-2.63,27.46-.29,3.08-.54,9.95,2.91,11.64Z"/>
    <path class="cls-1" d="M964.18,371.63c-5.23-2.94-7.33,15.37-2.21,18.25,6.37,3.58,18.84,7.39,25.45,3.22,7.34-4.63,8.5-15.37,6.93-23.11-1.83-9.05-5.75-18.11-8.93-26.77-3.31-9-6.76-18.06-11.43-26.45-4.98-8.94-8.52,8.65-5.89,13.38,6.17,11.07,10.42,23.27,14.56,35.21.98,2.82,1.93,5.65,2.86,8.48.02.06.07.22.14.44-.34.33-.82.74-1.56,1.06-4.89,2.13-15.49-1.23-19.91-3.72Z"/>
    <path class="cls-1" d="M921.91,384.7c-1.63-3.26-4.28-3.55-5.89,0-7.88,17.46-7.12,45.16,10.98,55.92,22.36,13.29,52.9,9.04,75.82-.09,5.15-2.05,3.87-20.67-2.21-18.25-19.05,7.59-41.9,10.7-61.81,4.33-13.64-4.37-23.61-13.67-16.89-28.53,1.73-3.82,1.9-9.58,0-13.38Z"/>
    <path class="cls-1" d="M1609.5,987.65c-17.91-27.86-45.4-48.83-74.52-63.88-37.97-19.62-80.31-30.41-122.58-35.43-12.17-1.44-24.37-2.39-36.62-2.92h-.12c-58.15-2.43-116.72-3.13-174.81,1.11-1.45.1-2.89.21-4.35.33-1.34.1-2.69.21-4.02.33-62.8,5.03-125.6,14.23-187.87,23.45-14.06,2.08-28.11,4.22-42.17,6.44-36.76,5.79-73.5,12.1-110.07,19.13-42.82,8.25-85.43,17.51-127.69,28.14-27.04-9.63-54.2-18.94-81.5-27.73-11.1-3.59-22.23-7.08-33.38-10.48-7.36-2.24-14.75-4.38-22.16-6.44-2.29-.64-4.59-1.26-6.87-1.87-.5-.15-1.02-.28-1.53-.42-49.53-13.3-100.19-22.92-150.63-31.33-45.49-7.5-92.47-9.28-137.97-.92-34.36,6.31-68.87,18.4-96.65,40.07-23.04,17.96-40.71,42.63-46.69,71.52-6.63,31.97.04,64.99,15.51,93.46,20.54,37.76,53.15,67.77,87.87,92.39,52.23,37.05,111.54,63.7,171.58,85.27,13.19,4.75,26.48,9.32,39.85,13.68,1.75,30.44,3.46,60.87,5.09,91.31,1.97,37.05,3.81,74.09,5.45,111.15-.45,5.43,1.14,11.64,4.23,11.16.21-.03.4-.06.61-.07h.01c11.21-1.57,22.43.52,33.59,1.47,12.79,1.1,25.54.59,37.61-4.19,21.85-8.64,37.89-29.77,48.89-49.72,20.38-36.91,28.29-80.18,32.07-122.29,54.44,7.12,109.34,10.98,164.13,14.07,58.18,3.28,116.44,5.34,174.69,6.68,5.33.12,10.66.24,15.99.36,8.79,5.83,17.94,11.16,27.12,16.36,9.45,5.36,20.11,12.65,31.2,13.79,15.78,1.62,30.03-6.87,45.42-5.61-10.54,48.99-19.61,98.82-19.67,149.05-.03,25.2,2.21,50.92,9.6,75.13,6.68,21.91,17.84,45.55,36.96,59.25,10.37,7.45,22.78,10.89,35.3,12.6,11.73,1.6,24.13,1.45,35.34,5.69,2.78,1.04,4.57-2.23,5.21-6.29,31.93-124.51,66.57-248.3,99.67-372.48,2.39-8.96,4.78-17.94,7.15-26.92,57.53-7.44,114.82-19.28,169.26-39.35,42.09-15.51,83.71-36.38,116.33-67.74,23.23-22.34,40.8-50.46,45.43-82.76,4.24-29.6-3.19-59.55-19.27-84.56ZM616.2,1355.22c-7.38,40.87-22.68,91.78-60.84,114.55-12.97,7.73-27.44,9.17-42.23,8.07-10.82-.82-21.7-2.91-32.55-1.99-2.86-63.88-6.41-127.73-10.06-191.57,12.07,3.84,24.19,7.48,36.39,10.91,1.6,35.1,3.22,70.2,4.84,105.31.88,19.26,1.77,38.52,2.64,57.78.12,2.43.45,9.45,4.17,9.45s4.26-7.26,4.16-9.45c-2.42-52.79-4.84-105.59-7.27-158.37-.03-.8-.07-1.6-.1-2.4,33.05,8.98,66.55,16.24,100.41,21.02,1.83.25,3.65.5,5.48.74-1.23,12.04-2.88,24.03-5.03,35.95ZM977.38,1317.25c-.43,1.71-.83,3.43-1.13,5.14-42.82-.91-85.61-2.24-128.4-4.14-60.27-2.66-120.58-6.2-180.6-12.42-12.07-1.25-24.12-2.6-36.16-4.16-2.75-.33-5.49-.68-8.24-1.07-11.19-1.5-22.37-3.18-33.5-5.09-25.31-4.35-50.2-10.61-74.92-17.48-2.82-.79-5.63-1.59-8.43-2.39-1.97-.55-3.93-1.11-5.89-1.68-10.26-2.94-20.51-6-30.72-9.17-2.81-.88-5.61-1.77-8.42-2.67-55.27-17.66-109.51-39.32-160.13-67.62-41.57-23.26-82.21-51.47-112.46-88.76-10.89-13.43-20.35-28.07-26.95-44.08-2.79-6.74-4.73-12.84-6.37-20.22-.73-3.3-1.04-5.09-1.53-9.38-.19-1.63-.34-3.27-.46-4.91,0-.03,0-.06-.01-.09v-.07c0-.09,0-.27-.01-.58-.03-.94-.06-1.89-.07-2.84-.03-1.6,0-3.21.04-4.81,0-.24.04-1.22.06-1.65.01-.04.01-.09.01-.15v-.03h0c.06-.65.15-1.68.18-2,.15-1.57.33-3.13.55-4.7.28-1.94.53-3.35.58-3.53,1.41-6.98,2.95-11.87,5.48-17.78,5.21-12.22,12.88-23.09,22.22-32.82,22.29-23.2,53.09-37.82,83.74-46.32,40.95-11.38,84.26-13.21,126.44-9.43,12.17,1.08,24.28,2.67,36.33,4.66,39.78,6.63,79.57,14.13,118.89,23.47,1.78.42,3.55.83,5.31,1.28,2.06.49,4.13.99,6.17,1.5,6.98,1.72,13.94,3.52,20.88,5.37.16.03.31.07.47.12,2.64.71,5.28,1.42,7.93,2.17,4.94,1.35,9.87,2.75,14.8,4.17,29.89,8.68,60.29,18.72,90.66,29.31-6.47,1.74-12.94,3.49-19.37,5.36-6.16,1.77-12.29,3.62-18.36,5.63-3.22,1.05-3.46,6.4-2.92,10.73.09.74.21,1.44.31,2.09.21,1.02.43,1.91.64,2.57.01.04.03.1.04.15.01.07.04.13.06.19.01.07.03.15.06.22.16.55.33,1.1.5,1.66.36,1.19.7,2.37,1.02,3.56.97,3.53,1.83,7.08,2.58,10.66.36,1.59.68,3.18.98,4.76.98.01,1.97.01,2.95.03,2,.03,4.01.04,6.01.07-.27-1.57-.53-3.13-.83-4.69-.4-2.23-.83-4.45-1.29-6.68-.52-2.54-1.05-5.08-1.65-7.6-.01-.05-.03-.1-.04-.15-.09-.42-.19-.83-.28-1.25.16-.04.31-.09.47-.15,2.95-.91,6.01-1.81,9.11-2.7.31-.1.53-.19.85-.28h.1c6.37-1.81,12.94-3.61,19.43-5.36,10.11-2.73,20.25-5.37,30.41-7.91,13.71,4.94,27.38,9.94,40.93,14.93,3.76,1.38,7.51,2.76,11.24,4.14,2.64.96,5.27,1.94,7.9,2.91,11.47,4.23,22.93,8.5,34.37,12.84h.09c3.31,1.26,6.55,2.52,9.86,3.79,81.62,31.14,162.39,65.02,240.45,104.21,8.55,4.29,17.11,8.59,25.56,13.11-.65,10-1.57,19.98-2.76,29.94-2.64,7.54-4.99,15.17-7.18,22.66-2.88,9.8-5.45,19.71-7.64,29.73-15.97-2.21-32.01-4.08-48.1-5.08-4.38-.27-10.35-1.44-14.66-.24-3.29.91-4.45,4.05-5.89,6.99-2.78,5.66-5.05,11.59-7.17,17.56-1.22,3.44-2.39,6.89-3.58,10.3-.91,2.6-1.8,5.18-2.69,7.79-6.62,19.21-12.96,38.65-17.84,58.36ZM1292.8,1243.77c-1.71,6.52-3.43,13.03-5.17,19.55-24.99,94.1-50.94,187.92-76.01,281.99-9.14,34.32-18.17,68.66-27,103.06-17.56-5.49-36.75-3.18-54.06-9.96-21.82-8.55-34.88-29.36-42.79-50.45-16.59-44.22-11.99-95.21-5.49-140.94,4.04-28.41,9.78-56.52,15.94-84.54.86-3.9,1.54-12.81-3.59-14.23-13.25-3.65-24.18,1.34-37.03,3.76-11.06,2.06-19.4.39-29.14-4.48-3.5-1.75-7.08-3.55-10.66-5.42-11.06-5.71-22.25-12.02-32.21-19.28.01-.07.03-.15.06-.22.25-.94.5-1.87.76-2.81,2-7.21,4.16-14.4,6.37-21.55,3.93-12.75,8.01-25.47,12.5-38.04,1.2-3.38,2.43-6.74,3.7-10.09.96-2.57,2.32-5.22,3.58-7.88,1.1-2.35,2.12-4.72,2.75-7.03.45-.09,1.11-.25,1.74-.18,3.96.45,8.16.15,12.17.4,11.92.74,23.82,1.99,35.7,3.44,2.86.36,5.79.85,8.76,1.37,2.91.49,5.85,1.01,8.77,1.4,5.03.65,10.05.95,14.89.22,8.74-1.32,13-6.26,12.44-15.44-.59-9.41-7.51-12.62-15.29-14.53,1.93-10.81,3.59-21.64,4.96-32.52,1.51-11.89,2.69-23.81,3.52-35.77.03-.22.04-.43.04-.65.12-1.51.21-3.04.31-4.56.61.13,1.22.27,1.83.4,1.72.37,3.44.76,5.17,1.14,1.87.4,3.76.82,5.63,1.23,49.05,10.8,98.09,21.64,147.13,32.44-6.52,25.2-13.03,50.42-19.55,75.62-1.65,6.4-3.29,12.79-4.96,19.19-4.39,17.02-8.8,34.03-13.19,51.06-20.94,80.98-41.88,161.96-62.81,242.94-4.82,18.67-9.66,37.33-14.49,56-.88,3.4-1.42,10.26,1.5,12.94,2.95,2.7,4.9-.31,5.7-3.4,13.22-51.16,26.45-102.32,39.67-153.48,17.84-68.99,35.68-137.99,53.51-206.98h.01c1.65-6.4,3.31-12.81,4.96-19.21,1.44-5.58,2.89-11.18,4.33-16.76,4.84-18.64,9.65-37.28,14.47-55.93,12.1,2.67,24.21,5.34,36.3,8.01-5.18,20.07-10.42,40.12-15.72,60.16ZM1621.54,1059.49v.22c0,.06,0,.15-.01.25v.06c-.07.86-.15,1.75-.24,2.61-.15,1.65-.36,3.3-.59,4.93-.36,2.45-.36,2.35-.58,3.43-1.5,7.15-3.13,12.39-5.7,18.55-5.85,14-14.47,26.61-24.52,37.94-27.59,31.08-65.42,52.33-103.27,68.35-57.34,24.28-119.04,37.63-180.51,46.16-1.07.15-2.15.3-3.22.43,5.43-20.65,10.79-41.31,16.09-61.98.95-3.65,1.51-13.12-3.59-14.23-61-13.46-122.02-26.91-183.04-40.36-10.88-2.4-21.77-4.81-32.67-7.2-1.25-.28-2.14.67-2.75,2.06-38.13-20.84-78.2-38.68-117.82-56.19-33.08-14.63-66.46-28.62-100.07-42.03-2.85-1.14-5.71-2.29-8.56-3.4h-.09c-13.74-5.46-27.43-10.82-41.23-16.1-3.28-1.26-6.47-2.51-9.75-3.75h-.09c-3.41-1.29-6.84-2.58-10.27-3.87-17.59-6.6-35.22-13.18-52.9-19.64,15.3-3.56,30.63-6.95,46-10.2,53.24-11.3,106.79-20.99,160.53-29.54,6.22-.99,12.45-1.96,18.67-2.92,37.8-5.82,75.73-11.38,113.74-16.25,31.67-4.07,63.38-7.64,95.12-10.51.42-.04.83-.07,1.25-.1,2.79-.25,5.58-.49,8.37-.71,58.4-4.63,117.52-3.58,175.94-1.14h.1c44.57,1.97,89.4,9.41,130.98,25.91,31.41,12.47,62.03,30.28,84.69,55.73,9.35,10.49,17.14,21.95,22.62,34.75,2.73,6.38,4.05,10.63,5.67,17.72.61,2.73.34,1.38.64,3.3.24,1.62.47,3.22.65,4.85.15,1.4.28,2.82.39,4.23v.07c0,.45.09,3,.1,3.67,0,1.63-.03,3.26-.09,4.91Z"/>
    <path class="cls-1" d="M600.51,876.53c12.63,9.9,25.64,19.23,38.95,27.85,2.55,1.66,5.1,3.29,7.68,4.88l-.24-9.56c-.11-4.5-.23-9-.34-13.5-2.57-1.63-5.13-3.27-7.68-4.95-5.95-3.93-11.85-7.96-17.7-12.1-33.98-24.08-71.34-53.84-92.11-97.38-3.97-8.33-7.3-17.59-8.75-27.25-1.31-8.69-.93-14.63.4-21.57,3.31-17.36,11.46-32.58,20.71-45.69,24-34.07,57.21-57.2,90.38-74.6,2.49-1.32,4.98-2.6,7.46-3.84-.19-7.36-.38-14.71-.57-22.07-2.49,1.23-4.98,2.49-7.46,3.77-32.94,17.14-64.86,39.83-89.67,72.28-23.07,30.16-36.43,71.26-25.53,113.15,12.92,49.72,51.2,84.48,84.46,110.57Z"/>
    <path class="cls-1" d="M707.51,568.98c.17-.04.33-.1.51-.15h.01c25.06-7.28,58.59-12.08,88.81-15.01,1.02.31,2.06.59,3.14.83,17.19,3.86,35.83-.19,52.51-4.6,10.86-2.88,22.22-5.71,32.88-9.08,4.44-1.41,6.93-6.17,9.51-9.78,3.38-4.75,6.49-9.75,9.14-14.95,5.54-10.82,8.79-22.75,9.2-34.92.71-21.49-6.19-42.86-18.75-60.26-5.73-7.94-12.65-15.61-20.13-21.95-4.94-4.19-10.14.89-16.39.13-5.92-.73-11.34-4.41-16.73-6.75-4.39-1.91-8.67-3.84-12.66-6.55-8.24-5.58-14.56-13.55-17.66-23.04-2.58-7.87-3.27-15.63-.43-23.51,2.86-7.98,8.96-15.27,18.51-11.7,7.24,2.72,12.42,9.62,16.21,16.06,2.03,3.46,3.19,8.49,5.86,11.53,5.8,6.62,16.71,1.54,22.14-2.67,10.06-7.82,17.37-19.1,23.69-30,12.2-21,21.48-43.58,30.13-66.24,4.56-11.92,8.74-23.99,12.57-36.16,1.19-3.78,3.19-8.16,4.02-12.26.33,0,.64-.01.73.03,1.93.92,5.79.74,7.87,1.2,23.84,5.25,44.01,23.02,58.76,41.66,30.25,38.2,42.18,87.14,38.87,135.26-1.77,25.68-10.75,49.71-28.9,68.35-3.81,3.92-8.03,7.47-12.45,10.7-5.03,3.68-11.49,6-16.25,9.84-6.17,4.97-5.24,18.02-5.48,25.05-.43,12.69.82,25.44,3.49,37.85.43,1.99,1.44,4.21,3.59,4.69,8.69,1.85,17.42,4.25,26.19,6.36.08.61.18,1.2.31,1.75.49,2.27,1.35,3.86,2.55,3.8,11.95-.52,24.78-.67,37.85-.1,3.07.13,6.15.3,9.25.52,21.27,1.45,42.81,4.94,61.96,11.77.03,0,.03.01.05.01,1.62-.01,3.24-.01,4.86-.03.75,0,1.5-.01,2.25-.01,1.06,0,2.19.04,3.33.12,2.19.15,4.47.37,6.72.46h.06c.54.03,1.1.04,1.66.04,1.18,0,2.33-.06,3.46-.21-.12,2.92-.23,5.86-.34,8.79.75.37,1.51.73,2.27,1.11,1.18.58,2.36,1.17,3.54,1.78,8.29,4.27,16.42,9.11,24.32,14.59,2.36,1.62,4.7,3.29,7.03,5.05,7.82,5.88,15.42,12.39,22.71,19.61,17.22,16.99,33.59,38.71,42.67,65.9,3.26,9.8,5.66,21.4,5.72,30.99.13,18.86-6.05,36.73-13.61,51.81-16.12,32.1-42.33,57.22-68.91,76.85-2.51,1.87-5.02,3.68-7.52,5.43-8.91,6.26-17.77,11.92-26.18,17.04-.16.09-.3.21-.43.36-2.29,2.45-2.33,12.22-.6,16.3.63,1.51,1.51,2.24,2.59,1.59,7.67-4.66,15.65-9.75,23.7-15.33,2.5-1.72,5.01-3.5,7.51-5.33,25.65-18.66,51.1-42.2,68.06-71.72,16.76-29.18,26.03-66.36,18.58-103.5-5.92-29.52-20.15-54.17-36.44-73.84-11.28-13.62-23.79-25.13-36.98-34.82-2.32-1.71-4.66-3.35-7.03-4.94-4.16-2.81-8.38-5.45-12.63-7.93-3.94-2.29-7.89-4.44-11.87-6.46-1.18-.61-2.36-1.19-3.54-1.77-1.27-.62-2.52-1.22-3.79-1.81-7.17-3.35-14.44-6.32-21.77-8.92-.12-.04-.25-.09-.36-.13h-.01s-.03-.01-.05-.01c-11.27-3.98-23.31-6.83-35.65-8.79-4.79-.79-9.62-1.41-14.48-1.93,0,0,0,0,0,0,23.6-22.92,23.08-64.12,15.99-95.32,35.43-26.89,51.77-72.37,42.39-116.14-5.82-27.07-23.12-52.3-46.22-67.83,3.01-30.53-4.42-63.18-27.01-84.88-31.9-30.63-80.98-30.98-118.63-11.34-34.42-6.38-74.83-7.81-107.41,7.38-28.44,13.22-43.61,46.63-50.02,75.56-2.09,9.42-3.61,19.07-4.23,28.75-34,15.57-57.96,48.43-61,86.03-2.82,34.72,11.58,66.76,38.89,88.13,4.6,3.59,9.53,7.01,14.69,9.88-9.45,23.93-16.06,58.32-3.65,79.58.1.17.2.33.3.49-2.52.31-5.03.63-7.56.98-21.11,2.86-41.99,6.66-58.99,11.59h-.03c-.15.04-.3.09-.46.13-17.36,5.06-34.53,11.29-51.39,18.88-.11.04-.22.1-.32.15-.15.07-.3.13-.46.21,9.7-.06,19.42-.1,29.11-.18,7.56-.04,15.1-.09,22.66-.13ZM776.83,495.63c1.81-13.09,6.78-25.5,12.84-37.17,1.68-3.22,2.6-13.92-1.83-15.81-22.58-9.59-43.43-29.51-51.56-52.75-14.71-42.08,16.77-83.71,54.37-99.64,2.67-1.14,3.03-6.86,3.06-9.13,0-.95.03-1.9.07-2.87.01-.3.03-.64.04-.9.07-1.11.16-2.23.25-3.34.49-5.54,1.23-11.06,2.29-16.52,3.15-16.09,8.76-32.04,18.15-45.58,14.49-20.87,33.68-29.49,57.94-33.4,24.61-3.95,50.09-2.63,74.54,1.86.22.07.45.12.68.13h.1c.73,0,1.37-.3,1.9-.8,33.19-17.25,75.65-18.57,106.42,4.79,14.6,11.1,24.52,27.31,27.84,45.36,1.26,6.83,1.65,13.88,1.23,20.81-.1,1.91-.31,3.83-.55,5.73-.07.59-.52,3.35-.59,4.01.01-.03.01-.07.03-.1-.61,3.86-1.08,10.82,2.64,13.08,19.68,11.9,36.21,31.58,43.18,53.57,12.23,38.66-8.15,78.47-40.4,100.23-3.71,2.51-3.55,10.29-2.48,13.89,7.66,26.23,10.97,64.31-14.23,82.69-9.99,6.62-22.46,11.98-34.7,9.93-13.86-2.33-27.64-6.31-41.41-9.39-1.84-10.36-2.33-21.3-1.08-31.78,3.35-3.01,9.71-5.27,13.19-7.7,4.19-2.92,8.13-6.14,11.87-9.62,8.19-7.61,15.09-16.28,20.66-25.99,11.86-20.69,16.21-44.1,17.11-67.68,1.77-47.02-7.9-94-33.78-133.83-11.44-17.57-26.09-33.77-43.81-45.17-9.59-6.19-20.32-10.92-31.63-12.85-2.55-.43-5.7-1.32-8.18-.15-3.19,1.51-3.95,5.64-4.85,8.77-6.9,23.7-15.42,46.9-24.98,69.66-7.64,18.17-16,36.54-27.62,52.57-5,6.89-11.04,14.49-19.16,17.87-1.6.67-3.35,1.08-5.55,1.07-2.26,0-1.97-.55-3.03-.58-.04-.01-.19-.09-.39-.21.4.98.5,2.14-.04.27-.04-.12-.09-.24-.13-.36-.45-.27-.96-.59-.96-.59.24-.31.48-.27.68-.06-.22-.49-.49-.96-.7-1.42-1.29-2.72-2.69-5.37-4.2-7.96-5.76-9.87-20.17-27.35-33.37-19.04-13.92,8.79-17.17,30.29-16.21,45.19,1.28,19.95,10,39.45,27.25,50.39,7.73,4.91,17.45,9.62,26.2,12.16,3.32.96,6.74,1.34,10.17.65,1.53-.3,2.79-.83,4.24-1.37,1.83-.7,1.68-.85,2.36-.53,3.9,1.8,7.88,7.57,10.78,10.69,3.38,3.67,6.56,7.53,9.42,11.59,6.11,8.67,10.86,18.52,12.88,28.97,2.03,10.57.99,20.65-3.29,30.55-2.06,4.81-4.62,9.32-7.51,13.67-2.39,3.58-5.22,9.17-9.13,10.76-3.81,1.56-8.56,2.17-12.54,3.38-7.04,2.15-14.07,4.3-21.21,6.11-5.05,1.29-10.27,2.54-15.58,3.52-6.28,1.16-12.67,1.95-19,2.02-4.41-.04-8.78-.5-13.05-1.54-1.19-.28-2.32-.64-3.39-1.02-.7.07-1.4.14-2.1.2-.22-.07-.45-.13-.66-.2-16.59-5.67-21.89-21.97-19.5-39.08Z"/>
  </g>
  <g>
    <path class="cls-2" d="M578.02,624.06c-.1-3.01-.19-6.03-.3-9.04-.13-4.35-.28-8.71-.42-13.08-.07-2.09-.13-4.17-.21-6.26-.61.24-1.22.48-1.84.73-2.12.83-4.24,1.69-6.38,2.57.03.77.04,1.54.07,2.32.06,2.03.13,4.08.19,6.11.25,7.38.49,14.74.73,22.12.88,27.07,1.77,54.14,2.64,81.22,1.38,42.36,2.76,84.72,4.14,127.08,2.81,1.44,5.63,2.85,8.46,4.24-2.36-72.67-4.72-145.34-7.09-218ZM578.02,624.06c-.1-3.01-.19-6.03-.3-9.04-.13-4.35-.28-8.71-.42-13.08-.07-2.09-.13-4.17-.21-6.26-.61.24-1.22.48-1.84.73-2.12.83-4.24,1.69-6.38,2.57.03.77.04,1.54.07,2.32.06,2.03.13,4.08.19,6.11.25,7.38.49,14.74.73,22.12.88,27.07,1.77,54.14,2.64,81.22,1.38,42.36,2.76,84.72,4.14,127.08,2.81,1.44,5.63,2.85,8.46,4.24-2.36-72.67-4.72-145.34-7.09-218ZM1223.05,916.55c-7.94.02-15.88.03-23.81.04.19-3.71.4-7.41.59-11.12.34-6.32.67-12.63,1.01-18.95.07-1.28.13-2.57.21-3.84.28-5.43.58-10.86.86-16.3.04-.92.1-1.86.15-2.78.06-.99.1-1.99.16-3,.3-5.68.61-11.37.91-17.05,4.1-76.59,8.18-153.17,12.27-229.76.27-5.14.55-10.27.82-15.41.34-6.22.67-12.44.99-18.66.03-.33.04-.65.06-.98.03-.59.06-1.19.09-1.78.3-5.52.59-11.04.89-16.56.03-.59.06-1.17.09-1.77.03-.52.06-1.04.09-1.56.12-2.33-.64-9.48-4.17-9.47-11.16.06-22.35.1-33.53.15-1.35,0-2.69.01-4.04.01h-.01c-8.82.04-17.6.09-26.42.12-.85,0-1.69.01-2.54.01-17.88.09-35.76.16-53.64.24-21.83.1-43.68.19-65.51.28-2.83.02-5.67.03-8.5.04h-.06c-7.81.04-15.58.07-23.39.1-.88,0-1.77.01-2.64.01-53.36.24-106.69.48-160.03.71h-.33c-4.94.03-9.88.04-14.83.07h-.01c-1.31,0-2.61.01-3.92.01-.99,0-2,.01-3,.01h-.33c-6.32.03-12.65.06-18.97.09-31.29.13-62.58.27-93.86.42h-.03c-10.78.04-21.57.09-32.34.13-5.15.03-10.32.04-15.47.07-17.63.07-35.28.15-52.93.24-8.04.03-17.04-1.07-25.02.1-.36.06-.77,0-1.14,0-3.59.03-4.23,7.29-4.17,9.47.21,6.4.43,12.82.62,19.22h0c.01.3.01.55.03.83.21,6.32.42,12.66.62,18.98.03.77.04,1.54.07,2.32.06,2.03.13,4.08.19,6.11.25,7.38.49,14.74.73,22.12.88,27.07,1.77,54.14,2.64,81.22,1.38,42.36,2.76,84.72,4.14,127.08.12,4.01.25,8.03.39,12.04.09,2.6.16,5.19.25,7.79.16,5.11.33,10.2.49,15.3h0c.12,3.31.22,6.62.33,9.93.25,7.7.5,15.41.76,23.11.13,3.95.25,7.9.39,11.84h-.4c-8.42.01-17.8-1.14-26.15.04-.37.06-.79,0-1.17,0-3.81.01-4.42,5.82-4.04,10.6.21,2.4.67,4.54,1.1,5.55,5.97,14.01,11.93,28.02,17.91,42.03,2.67,6.28,5.34,12.56,8.03,18.84,2.7,6.34,5.4,12.66,8.1,19,.61,2.97,1.94,5.24,3.99,5.25,20.01.22,40.01.46,60.04.68,4.2.04,8.4.1,12.6.15.98.01,1.97.01,2.95.03,2,.03,4.01.04,6.01.07.85,0,1.71.02,2.55.03,39.75.45,79.5.91,119.23,1.37,12.96.15,25.93.3,38.89.45,16.73.18,33.44.37,50.15.56,28.1.31,56.18.64,84.27.96,49.96.56,99.93,1.14,149.89,1.71,16.55.19,33.08.39,49.63.56,7.42.09,16.1,1.45,23.45.27.34-.04.74.02,1.08.02.76.01,1.42-.49,1.96-1.13.16.02.31.02.46.03,3.7.06,4.05-7.35,4.16-9.47.03-.55.06-1.11.09-1.66,10.64-27.03,21.3-54.04,31.94-81.07,1.19-2.98,2.85-16.16-2.94-16.15ZM578.04,975.94c-5.57-13.05-11.12-26.11-16.7-39.15,6.17-.01,12.35-.03,18.52-.04.15,4.21.28,8.42.42,12.63.39,11.44.76,22.9,1.11,34.36-1.11-2.63-2.23-5.17-3.35-7.79ZM1192.48,887.18c-.34,6.34-.68,12.68-1.01,19.01-.19,3.47-.37,6.95-.56,10.42-.33,6.31-.67,12.63-1.01,18.94-.4,7.72-.82,15.45-1.23,23.17-.83,15.6-1.66,31.18-2.49,46.77v.07h-.01c-.04.13-.1.21-.15.34-18.82-.34-37.63-.7-56.43-1.02-47.96-.88-95.91-1.75-143.87-2.63-58.24-1.05-116.48-2.12-174.71-3.18-45.45-.83-90.88-1.66-136.33-2.49h-.1c-.27,0-.53,0-.8-.01-4.39-.07-8.79-.16-13.18-.24-2.4-.04-4.81-.09-7.21-.13-14.13-.25-28.27-.52-42.4-.77-6.55-.12-14.13-1.28-20.88-.76-.64-19.31-1.26-38.62-1.9-57.94-.19-6.29-.4-12.6-.61-18.91-.42-12.87-.85-25.75-1.26-38.63-.19-5.79-.37-11.56-.56-17.35-.06-1.94-.13-3.87-.19-5.82-.03-.79-.04-1.59-.07-2.37-.12-3.86-.25-7.72-.37-11.58-2.36-72.67-4.72-145.34-7.09-218-.1-3.01-.19-6.03-.3-9.04-.13-4.35-.28-8.71-.42-13.08-.07-2.09-.13-4.17-.21-6.26-.21-6.31-.42-12.62-.62-18.92-.07-2.46-.16-4.91-.24-7.38,6.98-.03,13.94-.06,20.91-.09,12.87-.06,25.75-.1,38.62-.18,2.26-.01,4.51-.01,6.77-.03,7.76-.03,15.51-.07,23.27-.1,10.83-.04,21.67-.09,32.5-.15h.01c30.37-.12,60.72-.25,91.09-.4,61.7-.27,123.4-.55,185.08-.82,53.55-.24,107.12-.48,160.67-.71,8.42-.03,16.82-.07,25.22-.12,5.89-.03,11.8-.04,17.69-.07,1.37,0,2.72-.01,4.08-.01,1.97-.01,3.96-.01,5.94-.03.39,0,.77,0,1.17.01,1.74.01,3.56.1,5.42.19,4.08.22,8.36.52,12.38.37h.09c.82-.03,1.63-.09,2.42-.16,0,.07-.01.13-.01.21-.13,2.49-.27,5.02-.4,7.51-.01.36-.04.71-.06,1.07-.31,5.83-.62,11.65-.94,17.48-2.11,39.52-4.22,79.04-6.32,118.56-2.45,45.68-4.88,91.38-7.33,137.08-.36,6.65-.71,13.3-1.05,19.95-.33,6.09-.65,12.16-.98,18.24ZM1195.8,981.04c.8-15.17,1.62-30.32,2.42-45.49,4.99.1,10.23.47,15.33.44-5.92,15.02-11.84,30.03-17.75,45.05ZM578.02,624.06c-.1-3.01-.19-6.03-.3-9.04-.13-4.35-.28-8.71-.42-13.08-.07-2.09-.13-4.17-.21-6.26-.61.24-1.22.48-1.84.73-2.12.83-4.24,1.69-6.38,2.57.03.77.04,1.54.07,2.32.06,2.03.13,4.08.19,6.11.25,7.38.49,14.74.73,22.12.88,27.07,1.77,54.14,2.64,81.22,1.38,42.36,2.76,84.72,4.14,127.08,2.81,1.44,5.63,2.85,8.46,4.24-2.36-72.67-4.72-145.34-7.09-218Z"/>
    <path class="cls-2" d="M1213.55,936c-5.92,15.02-11.84,30.03-17.75,45.05.8-15.17,1.62-30.32,2.42-45.49,4.99.1,10.23.47,15.33.44Z"/>
    <path class="cls-2" d="M581.39,983.73c-1.11-2.63-2.23-5.17-3.35-7.79-5.57-13.05-11.12-26.11-16.7-39.15,6.17-.01,12.35-.03,18.52-.04.15,4.21.28,8.42.42,12.63.39,11.44.76,22.9,1.11,34.36Z"/>
    <path class="cls-3" d="M1207.16,567.24h-.09c-4.02.15-8.3-.15-12.38-.37-1.86-.09-3.68-.18-5.42-.19-.4-.01-.79-.01-1.17-.01-1.97.01-3.96.01-5.94.03-1.37,0-2.72.01-4.08.01-5.89.03-11.8.04-17.69.07-8.4.04-16.8.09-25.22.12-53.55.24-107.12.48-160.67.71-61.68.27-123.38.55-185.08.82-30.37.15-60.72.28-91.09.4h-.01c-10.83.06-21.67.1-32.5.15-7.76.03-15.51.07-23.27.1-2.26.01-4.51.01-6.77.03-12.87.07-25.75.12-38.62.18-6.98.03-13.94.06-20.91.09.07,2.46.16,4.91.24,7.38.21,6.31.42,12.62.62,18.92.07,2.09.13,4.17.21,6.26.13,4.36.28,8.73.42,13.08.1,3.01.19,6.03.3,9.04,2.37,72.67,4.73,145.34,7.09,218,.12,3.86.25,7.72.37,11.58.03.79.04,1.59.07,2.37.06,1.94.13,3.87.19,5.82.19,5.79.37,11.56.56,17.35.42,12.88.85,25.77,1.26,38.63.21,6.31.42,12.62.61,18.91.64,19.33,1.26,38.63,1.9,57.94,6.75-.52,14.34.64,20.88.76,14.13.25,28.27.52,42.4.77,2.4.04,4.81.09,7.21.13,4.39.07,8.79.16,13.18.24.27.01.53.01.8.01h.1c45.45.83,90.88,1.66,136.33,2.49,58.23,1.05,116.47,2.12,174.71,3.18,47.96.88,95.91,1.75,143.87,2.63,18.81.33,37.61.68,56.43,1.02.04-.13.1-.21.15-.33h.01v-.09c.83-15.58,1.66-31.17,2.49-46.77.42-7.72.83-15.45,1.23-23.17.34-6.31.68-12.63,1.01-18.94.19-3.47.37-6.95.56-10.42.33-6.34.67-12.68,1.01-19.01.33-6.09.65-12.16.98-18.24.34-6.65.7-13.3,1.05-19.95,2.45-45.7,4.88-91.4,7.33-137.08,2.11-39.52,4.22-79.04,6.32-118.56.31-5.83.62-11.65.94-17.48.01-.36.04-.71.06-1.07.13-2.49.27-5.02.4-7.51,0-.07.01-.13.01-.21-.79.07-1.6.13-2.42.16ZM969.53,768.44c-4.7,17.87-18.92,30.17-31.14,43.1-16.09,17.02-32.15,34.06-48.31,51-5.42,5.7-7.9-12.47-4.2-16.34,16.99-17.81,33.88-35.74,50.79-53.64,6.32-6.66,13.21-13.12,18.76-20.47,2.98-3.95,5.65-8.36,6.92-13.2,1.07-4.13,1.07-4.14.76-6.98-1.11-9.94-8.39-16.76-18.26-18.23-9.8-1.45-18.75,1.68-26.76,7.2-9.93,6.86-19.35,14.81-28.44,23.14-.64,1.04-1.45,1.96-2.35,2.15-7.23,6.71-14.25,13.61-21.15,20.32-1.59,1.56-2.61,1.59-4.2,0-6.44-6.43-12.87-12.87-19.29-19.29-3.84-3.84-1.37-21.91,4.2-16.34,5.73,5.73,11.49,11.49,17.22,17.22,4.57-4.44,9.2-8.96,13.89-13.45-10.26-13.74-24.71-28.33-41.42-25.5-11.68,1.97-22.09,10.76-24.76,22.43-.1.49-.21,3.1-.27,2.69.03,1.02.13,2,.39,3.03,1.5,6.04,6.03,11.71,9.47,16.74,6.12,8.94,13.46,16.12,21.91,22.81,7.61,6.01,17.57,16.95,28.38,14.25,9.32-2.35,16.82-12.13,23.15-18.84,8.96-9.5,17.38-19.5,25.42-29.8,2.66-3.4,5,.92,5.68,3.4,1.08,3.84,1.08,9.65-1.48,12.94-8.45,10.82-17.31,21.3-26.79,31.23-6.78,7.12-14.26,16.4-23.94,19.4-10.79,3.32-18.75-3.65-26.83-9.84-8.28-6.35-16.58-12.84-23.38-20.81-12.73-14.93-22.89-32.85-19.62-53,3.32-20.5,21.82-40.68,44.35-35.18,7.58,1.86,13.85,7.32,19.47,12.45,7.48,6.81,14.01,14.44,19.73,22.74,9.1-8.3,18.52-16.24,28.45-23.12,13.91-9.63,34.36-12.53,46.65,1.47,9.99,11.37,10.7,30.29,7.01,44.32Z"/>
    <path class="cls-2" d="M969.53,768.44c-4.7,17.87-18.92,30.17-31.14,43.1-16.09,17.02-32.15,34.06-48.31,51-5.42,5.7-7.9-12.47-4.2-16.34,16.99-17.81,33.88-35.74,50.79-53.64,6.32-6.66,13.21-13.12,18.76-20.47,2.98-3.95,5.65-8.36,6.92-13.2,1.07-4.13,1.07-4.14.76-6.98-1.11-9.94-8.39-16.76-18.26-18.23-9.8-1.45-18.75,1.68-26.76,7.2-9.93,6.86-19.35,14.81-28.44,23.14-.64,1.04-1.45,1.96-2.35,2.15-7.23,6.71-14.25,13.61-21.15,20.32-1.59,1.56-2.61,1.59-4.2,0-6.44-6.43-12.87-12.87-19.29-19.29-3.84-3.84-1.37-21.91,4.2-16.34,5.73,5.73,11.49,11.49,17.22,17.22,4.57-4.44,9.2-8.96,13.89-13.45-10.26-13.74-24.71-28.33-41.42-25.5-11.68,1.97-22.09,10.76-24.76,22.43-.1.49-.21,3.1-.27,2.69.03,1.02.13,2,.39,3.03,1.5,6.04,6.03,11.71,9.47,16.74,6.12,8.94,13.46,16.12,21.91,22.81,7.61,6.01,17.57,16.95,28.38,14.25,9.32-2.35,16.82-12.13,23.15-18.84,8.96-9.5,17.38-19.5,25.42-29.8,2.66-3.4,5,.92,5.68,3.4,1.08,3.84,1.08,9.65-1.48,12.94-8.45,10.82-17.31,21.3-26.79,31.23-6.78,7.12-14.26,16.4-23.94,19.4-10.79,3.32-18.75-3.65-26.83-9.84-8.28-6.35-16.58-12.84-23.38-20.81-12.73-14.93-22.89-32.85-19.62-53,3.32-20.5,21.82-40.68,44.35-35.18,7.58,1.86,13.85,7.32,19.47,12.45,7.48,6.81,14.01,14.44,19.73,22.74,9.1-8.3,18.52-16.24,28.45-23.12,13.91-9.63,34.36-12.53,46.65,1.47,9.99,11.37,10.7,30.29,7.01,44.32Z"/>
  </g>
</svg>