<?xml version="1.0" encoding="UTF-8"?>
<svg id="Camada_1" xmlns="http://www.w3.org/2000/svg" viewBox="0 0 1485.34 1777.02">
  <defs>
    <style>
      .cls-1 {
        fill: #01debb;
      }
    </style>
  </defs>
  <path class="cls-1" d="M830.26,524.42c-23.13-16.14-48.49-28.88-75.92-38.2-1.37-11.32-4.31-22.35-8.79-32.94-6.2-14.65-15.06-27.8-26.34-39.08-11.28-11.28-24.43-20.14-39.08-26.34-15.2-6.42-31.31-9.69-47.89-9.69s-32.69,3.26-47.89,9.69c-14.65,6.2-27.8,15.06-39.08,26.34-11.28,11.28-20.14,24.43-26.34,39.08-4.43,10.47-7.36,21.38-8.75,32.58-6.89,2.3-13.64,4.8-20.25,7.52-38.3,15.73-72.19,38.64-100.73,68.08-25.74,26.55-47.25,58.55-63.93,95.11-12.94,28.35-23.02,59.51-29.95,92.63-10.93,52.14-10.68,92.32-10.5,100.28v262.28c0,15.28,6.19,29.12,16.21,39.13,9.93,9.93,23.61,16.1,38.74,16.21,30.65.21,55.72-25.34,55.72-55.99v-263s-.02-.95-.02-.95c-.07-4.08-1.49-132.11,73.63-209.09,17.87-18.32,39.15-32.6,63.24-42.45,28.61-11.7,62.23-17.63,99.93-17.63s69.81,5.83,97.98,17.32c23.8,9.72,44.93,23.82,62.79,41.92,71.79,72.78,75.81,191.96,76.01,208.67v321.2h-418.92c-10.98,0-20.66,7.2-23.81,17.71l-6.52,21.69c-6.22,20.67-9.37,42.18-9.37,63.93,0,2.45.04,4.9.12,7.35.88,27.34,6.7,53.88,17.34,79.02,11.18,26.42,27.16,50.14,47.52,70.49,20.36,20.36,44.07,36.34,70.5,47.52,27.38,11.58,56.44,17.45,86.36,17.45s58.98-5.87,86.36-17.45c26.42-11.18,50.14-27.16,70.5-47.52,20.36-20.36,36.34-44.07,47.52-70.5,10.63-25.14,16.45-51.68,17.33-79.02h125.75v-428.84c0-.41,0-1.01,0-1.82,0-17.21-2.13-107.53-44.17-195.51-25.56-53.5-60.98-96.28-105.28-127.18ZM710.84,1349.02c-20.99,21-48.91,32.56-78.6,32.56s-57.61-11.56-78.6-32.56c-10.79-10.79-19.09-23.41-24.61-37.16-6.56-16.32,5.5-34.1,23.09-34.1h191.04c-1.75,26.93-13.07,52-32.33,71.26Z"/>
  <path class="cls-1" d="M987.98,458.95c-28.57-30.12-60.46-56.97-95.05-80.06-12.25-8.18-28.85-4.46-36.42,8.17l-30.46,50.77c-7.04,11.73-3.69,26.93,7.65,34.59,26.89,18.18,51.71,39.2,74,62.7,29.76,31.37,54.69,66.73,74.33,105.36,6.2,12.2,20.87,17.39,33.38,11.85l54.14-23.97c13.44-5.95,19.21-21.93,12.63-35.07-24.69-49.3-56.29-94.4-94.19-134.35Z"/>
  <path class="cls-1" d="M1197.27,501.72c-26.19-46.8-57.52-90.51-93.35-130.22-26.44-29.3-55.44-56.51-86.45-81.12-11.46-9.1-28.18-6.91-36.84,4.89l-35.03,47.69c-8.19,11.15-6.11,26.76,4.7,35.4,25.61,20.47,49.57,43.03,71.46,67.29,29.84,33.06,55.98,69.41,77.92,108.32,6.8,12.05,21.88,16.6,34.19,10.3l52.68-26.96c13.03-6.67,17.86-22.81,10.72-35.59Z"/>
</svg>