<?xml version="1.0" encoding="UTF-8"?>
<svg id="Camada_1" xmlns="http://www.w3.org/2000/svg" viewBox="0 0 1399.28 1438.16">
  <defs>
    <style>
      .cls-1 {
        fill: #01debb;
      }
    </style>
  </defs>
  <path class="cls-1" d="M1083.55,905.26c-20.22-52.94-49.36-101.78-86.61-145.14-67.59-78.68-143.03-114.35-151.16-118.44-1.78-.89-2.15-3.27-.74-4.68h0c18.93-18.93,33.8-40.99,44.2-65.57,10.78-25.47,16.24-52.5,16.24-80.33s-5.46-54.86-16.24-80.33c-10.39-24.58-25.26-46.64-44.2-65.57-18.94-18.94-40.99-33.8-65.57-44.2-25.47-10.78-52.5-16.24-80.33-16.24s-54.86,5.46-80.33,16.24c-24.58,10.39-46.64,25.26-65.57,44.2-18.94,18.93-33.8,40.99-44.2,65.57-10.78,25.47-16.24,52.5-16.24,80.33s5.46,54.86,16.24,80.33c10.39,24.58,25.26,46.64,44.2,65.57,99.21,99.2,226.99,28.81,365.62,190.2,55.62,64.74,75.28,129.91,82.54,159.64,7.91,32.39-16.68,63.61-50.02,63.61H390.62c25.8-139.69,126.95-219.63,187.66-257.57,33.17-20.73,23.93-56.41,18.46-67.08-13.78-26.88-47.59-36.12-73.2-20.1-21.21,13.27-83.63,53.31-138.04,120.04-133.53,163.76-95.81,327.66-95.81,327.66h772.04c13.37,0,25.63-5.12,34.82-13.56,9.2-8.45,15.33-20.22,16.47-33.55,1-11.75,1.51-23.72,1.51-35.57,0-55.99-10.42-111.66-30.96-165.45ZM595.74,491.1c0-27.62,10.75-53.58,30.29-73.11,19.53-19.53,45.49-30.29,73.11-30.29s53.58,10.75,73.11,30.29c19.53,19.53,30.29,45.49,30.29,73.11s-10.75,53.58-30.29,73.11c-19.53,19.53-45.49,30.29-73.11,30.29-2.34,0-4.66-.08-6.98-.23-.61-.04-1.22-.08-1.82-.14-24.3-2.03-46.88-12.48-64.31-29.92-19.53-19.53-30.29-45.49-30.29-73.11Z"/>
</svg>