<?xml version="1.0" encoding="UTF-8"?>
<svg id="Camada_1" xmlns="http://www.w3.org/2000/svg" viewBox="0 0 1640.23 1657.05">
  <defs>
    <style>
      .cls-1 {
        fill: #ff9c19;
      }
    </style>
  </defs>
  <path class="cls-1" d="M754.83,792.64c-10.09-2.22-20.43-3.33-30.94-3.33-19.4,0-38.24,3.81-56,11.32-17.13,7.25-32.51,17.61-45.71,30.81-13.2,13.2-23.56,28.58-30.81,45.71-7.51,17.76-11.32,36.6-11.32,56s3.81,38.24,11.32,56c7.25,17.13,17.61,32.51,30.81,45.71,13.2,13.2,28.58,23.56,45.71,30.81,17.76,7.51,36.6,11.32,56,11.32s38.24-3.81,56-11.32c17.13-7.25,32.51-17.61,45.71-30.81,13.2-13.2,23.56-28.58,30.81-45.71,7.51-17.76,11.32-36.6,11.32-56,0-10.5-1.11-20.85-3.33-30.94l-60.35,60.35c-7.13,7.14-48.7,42.67-80.15,42.67-19.25,0-37.35-7.5-50.97-21.11-13.62-13.61-21.11-31.71-21.11-50.97,0-30.78,34.25-71.74,42.67-80.15l60.35-60.35Z"/>
  <path class="cls-1" d="M1242.46,408.11l14.25-123.35c-12.5,12.5-198.7,192.45-198.72,192.45l34.7,36.37-84.7,84.73c-12.25-10.4-25.08-20.12-38.35-29.1-23.47-15.87-48.62-29.52-74.7-40.55-26.65-11.28-54.55-19.93-82.9-25.73-28.9-5.92-58.58-8.92-88.15-8.92s-59.23,3-88.15,8.92c-28.35,5.8-56.22,14.45-82.88,25.73-26.1,11.02-51.22,24.67-74.72,40.55-23.18,15.65-44.97,33.63-64.75,53.42-19.8,19.78-37.77,41.58-53.42,64.75-15.88,23.5-29.53,48.63-40.55,74.73-11.28,26.65-19.93,54.52-25.73,82.87-5.93,28.93-8.93,58.57-8.93,88.15s3,59.25,8.93,88.15c5.8,28.35,14.45,56.25,25.73,82.9,11.02,26.08,24.67,51.23,40.55,74.73,15.65,23.18,33.62,44.95,53.42,64.75,19.78,19.77,41.58,37.75,64.75,53.42,23.5,15.87,48.62,29.5,74.72,40.55,26.65,11.28,54.53,19.93,82.88,25.73,28.92,5.92,58.58,8.93,88.15,8.93s59.25-3,88.15-8.93c28.35-5.8,56.25-14.45,82.9-25.73,26.07-11.05,51.22-24.67,74.7-40.55,23.2-15.68,44.97-33.65,64.78-53.42,19.77-19.8,37.75-41.58,53.42-64.75,15.88-23.5,29.5-48.65,40.55-74.73,11.28-26.65,19.93-54.55,25.73-82.9,5.93-28.9,8.93-58.55,8.93-88.15s-3-59.23-8.93-88.15c-5.8-28.35-14.45-56.22-25.73-82.87-11.05-26.1-24.67-51.22-40.55-74.73-8.97-13.27-18.7-26.1-29.1-38.35l83.5-83.5,14.48,15.18c6.7,7.02,17.83,7.3,24.85.6l173.9-165.85-113-7.35ZM1062.29,790.06c9.43,22.3,16.68,45.62,21.53,69.32,4.95,24.17,7.45,49,7.45,73.75s-2.5,49.58-7.45,73.78c-4.85,23.7-12.1,47.02-21.53,69.3-9.22,21.83-20.65,42.88-33.93,62.53-13.1,19.38-28.12,37.63-44.7,54.18-16.55,16.55-34.8,31.6-54.18,44.7-19.65,13.27-40.7,24.7-62.53,33.92-22.28,9.43-45.6,16.68-69.3,21.53-24.2,4.95-49,7.45-73.78,7.45s-49.57-2.5-73.75-7.45c-23.72-4.85-47.02-12.1-69.32-21.53-21.83-9.23-42.85-20.65-62.5-33.92-19.4-13.1-37.62-28.15-54.2-44.7-16.55-16.55-31.6-34.8-44.7-54.18-13.28-19.65-24.68-40.7-33.93-62.53-9.43-22.27-16.65-45.6-21.5-69.3-4.95-24.2-7.47-49-7.47-73.78s2.53-49.58,7.47-73.75c4.85-23.7,12.08-47.02,21.5-69.32,9.25-21.82,20.65-42.85,33.93-62.5,13.1-19.4,28.15-37.62,44.7-54.2,16.58-16.55,34.8-31.6,54.2-44.7,19.65-13.27,40.67-24.67,62.5-33.9,22.3-9.45,45.6-16.68,69.32-21.52,24.18-4.95,49-7.48,73.75-7.48s49.57,2.53,73.78,7.48c23.7,4.85,47.02,12.07,69.3,21.52,21.83,9.23,42.88,20.62,62.53,33.9,9.48,6.43,18.7,13.3,27.58,20.57l-61.9,61.9c-19-14.67-39.78-26.82-62.07-36.25-34.68-14.67-71.43-22.12-109.2-22.12s-74.5,7.45-109.18,22.12c-33.4,14.13-63.37,34.32-89.07,60-25.7,25.7-45.88,55.68-60,89.08-14.68,34.67-22.13,71.4-22.13,109.17s7.45,74.52,22.13,109.2c14.12,33.4,34.3,63.38,60,89.05,25.7,25.7,55.68,45.9,89.07,60.03,34.68,14.67,71.4,22.1,109.18,22.1s74.52-7.43,109.2-22.1c33.4-14.12,63.37-34.32,89.05-60.03,25.7-25.67,45.9-55.65,60.03-89.05,14.68-34.67,22.1-71.43,22.1-109.2s-7.42-74.5-22.1-109.17c-9.43-22.32-21.57-43.1-36.25-62.08l61.88-61.9c7.3,8.88,14.18,18.1,20.57,27.58,13.28,19.65,24.7,40.68,33.93,62.5ZM723.89,933.14c14.02,14.02,36.75,14.02,50.75,0l119.95-119.95c8.5,12.05,15.67,25,21.47,38.72,10.9,25.77,16.45,53.12,16.45,81.22s-5.55,55.45-16.45,81.25c-10.5,24.85-25.52,47.15-44.65,66.28-19.13,19.13-41.42,34.15-66.28,44.65-25.8,10.92-53.12,16.45-81.25,16.45s-55.45-5.53-81.22-16.45c-24.85-10.5-47.15-25.52-66.28-44.65-19.13-19.13-34.15-41.43-44.67-66.28-10.9-25.8-16.43-53.12-16.43-81.25s5.53-55.45,16.43-81.22c10.52-24.85,25.55-47.15,44.67-66.28,19.13-19.12,41.42-34.15,66.28-44.67,25.77-10.9,53.12-16.43,81.22-16.43s55.45,5.53,81.25,16.43c13.7,5.8,26.65,13,38.72,21.48l-119.97,119.97c-14,14-14,36.73,0,50.72Z"/>
</svg>