<?xml version="1.0" encoding="UTF-8"?>
<svg id="Camada_1" xmlns="http://www.w3.org/2000/svg" viewBox="0 0 3043.04 3349.95">
  <defs>
    <style>
      .cls-1 {
        fill: #fff6eb;
      }

      .cls-2 {
        fill: #bf7513;
      }

      .cls-3 {
        fill: #ff9c19;
      }

      .cls-4 {
        fill: #01debb;
      }

      .cls-5 {
        fill: #a840f1;
      }

      .cls-6 {
        fill: #b2363a;
      }

      .cls-7 {
        fill: #01a78c;
      }

      .cls-8 {
        fill: #7e30b5;
      }

      .cls-9 {
        fill: #ff5459;
      }

      .cls-10 {
        fill: #bfb9b0;
      }
    </style>
  </defs>
  <g>
    <path class="cls-7" d="M1832.61,1702.18c-38.68,6.43-77.54-2.56-109.43-25.31-22.07-15.74-99.37-70.9-120.99-86.32l-255.04-181.96c-32.53-23.21-59.57-52.16-80.38-86.04-20.06-32.67-33.42-68.44-39.72-106.31-6.3-37.88-5.23-76.05,3.17-113.45,8.72-38.8,24.94-74.94,48.21-107.43,23.27-32.49,52.29-59.51,86.24-80.29,32.73-20.04,68.57-33.4,106.52-39.71,37.97-6.31,76.21-5.27,113.65,3.1,38.84,8.68,75.04,24.85,107.57,48.06l12.71,9.07,9.09-12.69c23.27-32.49,52.29-59.51,86.24-80.29,32.71-20.03,68.55-33.4,106.52-39.71,37.97-6.31,76.21-5.27,113.65,3.1,38.84,8.68,75.04,24.85,107.57,48.06,32.53,23.21,59.58,52.16,80.38,86.04,20.06,32.67,33.42,68.44,39.72,106.32s5.23,76.05-3.17,113.44c-8.72,38.8-24.94,74.94-48.21,107.43l-268.95,375.54c-22.81,31.85-56.68,52.93-95.36,59.37Z"/>
    <path class="cls-4" d="M1831.52,1696.92c-38.28,6.32-76.73-2.65-108.27-25.25-21.82-15.64-98.26-70.43-119.64-85.75l-252.2-180.76c-32.17-23.06-58.9-51.79-79.46-85.41-19.81-32.41-33-67.89-39.2-105.44-6.2-37.56-5.11-75.39,3.24-112.45,8.67-38.44,24.75-74.25,47.81-106.42,23.06-32.17,51.8-58.91,85.42-79.46,32.41-19.81,67.89-33,105.44-39.2,37.58-6.2,75.42-5.11,112.46,3.25,38.43,8.66,74.23,24.75,106.4,47.8l12.57,9.01,9.01-12.57c23.06-32.17,51.8-58.9,85.41-79.46,32.39-19.81,67.87-33,105.44-39.2,37.58-6.2,75.42-5.11,112.46,3.25,38.43,8.66,74.23,24.75,106.4,47.8,32.17,23.06,58.9,51.79,79.46,85.41,19.82,32.41,33,67.89,39.2,105.45,6.2,37.56,5.11,75.39-3.25,112.44-8.67,38.45-24.75,74.25-47.81,106.42l-266.5,371.84c-22.6,31.54-56.13,52.38-94.42,58.7Z"/>
    <path class="cls-1" d="M2156.83,1061.82c4.35,26.34,3.58,52.87-2.27,78.84-6.07,26.91-17.34,52-33.51,74.56l-266.5,371.84c-18.48,25.78-54.35,31.7-80.13,13.22h0c-25.78-18.48-31.7-54.35-13.22-80.13l266.5-371.84c14.16-19.75,19.77-43.82,15.81-67.79-3.96-23.97-17.01-44.97-36.76-59.12-40.76-29.22-97.7-19.83-126.91,20.94l-145.17,202.55c-17.63,24.6-44.31,41.18-74.17,46.11h0c-30.05,4.96-60.23-2.07-84.99-19.8-17.98-12.88-38.75-27.69-56.94-40.67-25.81-18.4-31.82-54.22-13.45-80.04h0c18.4-25.86,54.28-31.9,80.12-13.48,18.05,12.87,38.61,27.54,56.52,40.36l17.65-24.63-83.96-60.17c-40.76-29.21-97.7-19.82-126.92,20.94-14.15,19.75-19.76,43.82-15.81,67.8,3.95,23.97,17,44.96,36.75,59.12l112.17,80.39c51.22,36.71,122.5,24.95,159.21-26.27l110.1-153.61c18.48-25.78,54.35-31.7,80.13-13.22h0c25.78,18.48,31.7,54.35,13.22,80.13l-210.45,293.64c-18.24,25.44-53.64,31.28-79.09,13.05l-252.19-180.75c-22.56-16.17-41.3-36.3-55.69-59.84-13.88-22.71-23.13-47.58-27.48-73.93-4.35-26.35-3.58-52.87,2.27-78.84,6.07-26.91,17.34-52,33.51-74.56,16.17-22.56,36.3-41.3,59.84-55.69,22.71-13.88,47.58-23.13,73.93-27.48,26.35-4.35,52.87-3.59,78.84,2.27,26.91,6.07,52,17.34,74.56,33.51l83.96,60.17,60.17-83.96c16.17-22.56,36.3-41.3,59.84-55.69,22.71-13.89,47.58-23.13,73.93-27.48,26.35-4.35,52.87-3.59,78.84,2.27,26.91,6.07,52,17.34,74.56,33.51,22.56,16.17,41.3,36.3,55.69,59.84,13.88,22.71,23.13,47.58,27.48,73.93Z"/>
  </g>
  <g>
    <path class="cls-10" d="M2392.6,861.45c39.21-.54,76.28,14.19,104.38,41.48,19.45,18.88,87.57,85.04,106.63,103.54l224.77,218.25c28.67,27.84,51.05,60.53,66.52,97.16,14.91,35.31,22.74,72.68,23.27,111.08.53,38.4-6.26,75.97-20.2,111.68-14.46,37.04-35.93,70.34-63.82,98.96-27.89,28.62-60.64,50.97-97.34,66.41-35.38,14.89-72.82,22.71-111.28,23.24-38.49.53-76.13-6.25-111.89-20.16-37.1-14.42-70.45-35.85-99.12-63.69l-11.2-10.88-10.9,11.18c-27.89,28.62-60.64,50.96-97.33,66.41-35.35,14.89-72.8,22.71-111.28,23.24-38.49.53-76.13-6.25-111.89-20.16-37.1-14.42-70.45-35.85-99.12-63.69-28.67-27.84-51.05-60.53-66.53-97.16-14.91-35.31-22.74-72.69-23.27-111.08-.53-38.4,6.26-75.97,20.2-111.67,14.46-37.05,35.93-70.34,63.82-98.96l322.37-330.82c27.34-28.06,63.99-43.81,103.2-44.35Z"/>
    <path class="cls-1" d="M2392.88,866.82c38.8-.49,75.46,14.16,103.24,41.25,19.22,18.74,86.55,84.41,105.39,102.77l222.14,216.63c28.34,27.63,50.44,60.06,65.71,96.39,14.71,35.02,22.42,72.08,22.89,110.14s-6.29,75.3-20.12,110.68c-14.35,36.7-35.63,69.68-63.27,98.01-27.64,28.34-60.07,50.45-96.39,65.71-35.02,14.71-72.08,22.42-110.14,22.89-38.08.48-75.33-6.29-110.7-20.13-36.69-14.34-69.66-35.63-98-63.26l-11.07-10.8-10.8,11.07c-27.63,28.34-60.07,50.44-96.39,65.71-35,14.71-72.06,22.42-110.14,22.9-38.08.48-75.33-6.29-110.7-20.13-36.69-14.34-69.66-35.63-98-63.26-28.34-27.63-50.44-60.06-65.71-96.39-14.71-35.02-22.42-72.08-22.9-110.15-.48-38.06,6.29-75.3,20.12-110.68,14.35-36.7,35.64-69.68,63.27-98.02l319.39-327.53c27.09-27.78,63.37-43.34,102.17-43.83Z"/>
    <path class="cls-3" d="M1975.75,1445.77c-.34-26.7,4.41-52.81,14.1-77.6,10.05-25.7,24.97-48.8,44.35-68.67l319.39-327.53c22.14-22.71,58.5-23.16,81.21-1.02h0c22.71,22.14,23.16,58.5,1.02,81.21l-319.39,327.52c-16.97,17.4-26.14,40.35-25.83,64.64.31,24.3,10.05,47.01,27.45,63.97,35.91,35.02,93.6,34.3,128.62-1.61l173.98-178.41c21.13-21.67,50-34.05,80.26-34.43h0c30.45-.38,59.23,11.11,81.05,32.36,15.84,15.43,34.14,33.21,50.18,48.77,22.75,22.07,23.3,58.39,1.26,81.16h0c-22.08,22.8-58.46,23.37-81.24,1.27-15.91-15.43-34.03-33.04-49.81-48.4l-21.16,21.69,73.95,72.12c35.91,35.01,93.61,34.29,128.62-1.62,16.96-17.4,26.13-40.35,25.83-64.65-.31-24.29-10.05-47.01-27.44-63.97l-98.8-96.35c-45.12-44-117.36-43.09-161.35,2.03l-131.95,135.3c-22.14,22.71-58.5,23.16-81.21,1.02h0c-22.71-22.14-23.16-58.5-1.02-81.21l252.22-258.64c21.86-22.41,57.74-22.86,80.15-1.01l222.14,216.63c19.87,19.38,35.37,42.1,46.06,67.54,10.31,24.54,15.71,50.52,16.04,77.22.34,26.7-4.41,52.81-14.1,77.6-10.05,25.7-24.97,48.8-44.35,68.67-19.38,19.87-42.1,35.37-67.54,46.06-24.54,10.31-50.52,15.71-77.22,16.04-26.7.34-52.81-4.4-77.6-14.1-25.7-10.05-48.8-24.97-68.67-44.35l-73.95-72.12-72.12,73.95c-19.38,19.87-42.1,35.37-67.54,46.06-24.54,10.32-50.52,15.71-77.22,16.04-26.7.34-52.81-4.4-77.6-14.1-25.7-10.05-48.8-24.97-68.67-44.35-19.87-19.38-35.37-42.1-46.06-67.54-10.31-24.54-15.71-50.52-16.04-77.22Z"/>
  </g>
  <g>
    <path class="cls-8" d="M2266.04,974.58c-39.21.05-76.09-15.15-103.85-42.79-19.21-19.13-86.5-86.13-105.32-104.87l-222.01-221.06c-28.32-28.2-50.29-61.16-65.3-97.98-14.47-35.5-21.83-72.96-21.88-111.36-.05-38.4,7.22-75.89,21.6-111.42,14.92-36.86,36.81-69.88,65.05-98.15,28.25-28.27,61.28-50.2,98.16-65.18,35.56-14.44,73.09-21.79,111.56-21.84,38.49-.05,76.05,7.21,111.63,21.56,36.91,14.89,69.99,36.73,98.31,64.93l11.07,11.02,11.04-11.05c28.25-28.27,61.28-50.2,98.16-65.18,35.54-14.44,73.08-21.79,111.56-21.84,38.49-.05,76.05,7.21,111.63,21.56,36.91,14.89,69.99,36.73,98.31,64.93,28.32,28.2,50.29,61.16,65.3,97.98,14.47,35.5,21.83,72.97,21.88,111.37.05,38.4-7.22,75.88-21.6,111.41-14.92,36.86-36.81,69.88-65.05,98.15l-326.5,326.74c-27.69,27.71-64.54,43-103.75,43.05Z"/>
    <path class="cls-5" d="M2265.83,969.21c-38.8,0-75.28-15.11-102.71-42.54-18.98-18.98-85.48-85.49-104.09-104.09l-219.41-219.4c-27.99-27.99-49.68-60.69-64.49-97.21-14.27-35.21-21.51-72.35-21.51-110.42s7.24-75.22,21.51-110.42c14.81-36.52,36.51-69.23,64.49-97.21,27.99-27.99,60.7-49.69,97.21-64.49,35.21-14.27,72.35-21.51,110.42-21.51s75.24,7.24,110.43,21.51c36.51,14.8,69.21,36.5,97.2,64.49l10.94,10.94,10.93-10.94c27.99-27.99,60.69-49.69,97.21-64.49,35.18-14.27,72.34-21.51,110.42-21.51s75.24,7.24,110.43,21.51c36.51,14.8,69.21,36.5,97.2,64.49,27.99,27.99,49.69,60.69,64.49,97.21,14.27,35.21,21.51,72.36,21.51,110.42s-7.24,75.21-21.51,110.41c-14.81,36.52-36.51,69.23-64.49,97.21l-323.48,323.49c-27.44,27.44-63.91,42.55-102.71,42.55Z"/>
    <path class="cls-1" d="M2690.19,395.55c0,26.7-5.07,52.75-15.07,77.42-10.37,25.57-25.58,48.48-45.21,68.11l-323.48,323.49c-22.43,22.43-58.79,22.43-81.22,0h0c-22.43-22.43-22.43-58.79,0-81.22l323.48-323.49c17.18-17.18,26.64-40.02,26.64-64.31s-9.46-47.14-26.64-64.31c-35.46-35.47-93.16-35.47-128.63,0l-176.21,176.21c-21.4,21.4-50.42,33.42-80.68,33.42h0c-30.45,0-59.09-11.85-80.64-33.37-15.65-15.63-33.72-33.63-49.56-49.4-22.47-22.35-22.57-58.68-.24-81.17h0c22.36-22.52,58.75-22.64,81.25-.25,15.71,15.63,33.61,33.46,49.19,49.03l21.43-21.43-73.04-73.04c-35.46-35.46-93.17-35.46-128.63,0-17.18,17.18-26.64,40.02-26.64,64.32s9.46,47.13,26.64,64.31l97.58,97.58c44.56,44.56,116.8,44.56,161.36,0l133.64-133.64c22.43-22.43,58.79-22.43,81.21,0h0c22.43,22.43,22.43,58.79,0,81.21l-255.45,255.46c-22.14,22.13-58.02,22.13-80.16,0l-219.4-219.4c-19.63-19.63-34.84-42.54-45.21-68.11-10-24.67-15.07-50.71-15.07-77.42s5.07-52.75,15.07-77.42c10.37-25.57,25.58-48.48,45.21-68.11,19.63-19.63,42.54-34.84,68.11-45.21,24.67-10,50.71-15.07,77.42-15.07s52.75,5.07,77.42,15.07c25.57,10.37,48.48,25.58,68.11,45.21l73.04,73.04,73.04-73.04c19.63-19.63,42.54-34.84,68.11-45.21,24.67-10.01,50.71-15.07,77.42-15.07s52.75,5.07,77.42,15.07c25.57,10.37,48.48,25.58,68.11,45.21,19.63,19.63,34.84,42.54,45.21,68.11,10,24.67,15.07,50.71,15.07,77.42Z"/>
  </g>
  <g>
    <path class="cls-2" d="M1622.75,863.56c9.29,38.09,3.21,77.52-17.11,111.01-14.06,23.18-63.33,104.36-77.1,127.07l-162.52,267.84c-20.73,34.17-47.59,63.28-79.84,86.55-31.09,22.43-65.77,38.41-103.07,47.5-37.31,9.1-75.45,10.87-113.37,5.26-39.34-5.82-76.59-19.31-110.71-40.1-34.13-20.8-63.22-47.72-86.48-80.04-22.42-31.16-38.4-65.9-47.51-103.28-9.12-37.39-10.91-75.61-5.35-113.57,5.77-39.38,19.21-76.68,39.94-110.84l8.1-13.35-13.33-8.12c-34.13-20.79-63.22-47.72-86.48-80.04-22.41-31.13-38.4-65.88-47.51-103.28-9.12-37.39-10.91-75.61-5.35-113.57,5.77-39.38,19.21-76.68,39.94-110.84,20.73-34.17,47.59-63.28,79.84-86.55,31.09-22.43,65.77-38.41,103.08-47.5,37.31-9.09,75.45-10.86,113.36-5.26,39.34,5.82,76.59,19.31,110.71,40.1l394.47,240.32c33.46,20.38,57,52.59,66.28,90.68Z"/>
    <path class="cls-3" d="M1617.58,865.04c9.14,37.71,3.05,76.72-17.15,109.84-13.98,22.92-62.94,103.22-76.63,125.68l-161.53,264.92c-20.61,33.79-47.28,62.59-79.28,85.58-30.85,22.17-65.25,37.95-102.24,46.92-37,8.97-74.81,10.69-112.38,5.11-38.98-5.79-75.88-19.17-109.67-39.77-33.8-20.61-62.59-47.28-85.58-79.28-22.17-30.85-37.95-65.25-46.92-102.24-8.97-37.01-10.69-74.83-5.11-112.39,5.78-38.97,19.17-75.86,39.77-109.66l8.05-13.21-13.2-8.05c-33.79-20.61-62.59-47.28-85.58-79.28-22.16-30.83-37.95-65.23-46.92-102.24-8.97-37.01-10.69-74.83-5.11-112.39,5.78-38.97,19.17-75.86,39.77-109.66,20.61-33.79,47.28-62.59,79.28-85.58,30.85-22.17,65.25-37.95,102.25-46.92,36.99-8.97,74.8-10.69,112.37-5.11,38.98,5.79,75.88,19.17,109.67,39.77l390.6,238.15c33.13,20.2,56.41,52.09,65.55,89.8Z"/>
    <path class="cls-1" d="M960.08,587.78c25.95-6.29,52.46-7.5,78.79-3.59,27.29,4.05,53.14,13.43,76.84,27.88l390.6,238.15c27.08,16.51,35.65,51.85,19.14,78.93h0c-16.51,27.08-51.85,35.65-78.93,19.14l-390.6-238.16c-20.75-12.65-45.17-16.46-68.78-10.74s-43.58,20.3-56.23,41.04c-26.11,42.82-12.52,98.9,30.3,125.01l212.77,129.73c25.84,15.75,44.36,41.13,51.49,70.54h0c7.17,29.59,2.4,60.22-13.43,86.23-11.51,18.89-24.74,40.69-36.33,59.81-16.43,27.1-51.71,35.76-78.82,19.36h0c-27.16-16.43-35.84-51.76-19.39-78.9,11.49-18.95,24.6-40.55,36.05-59.36l-25.87-15.77-53.77,88.19c-26.1,42.82-12.51,98.9,30.31,125.01,20.75,12.65,45.17,16.46,68.78,10.73,23.61-5.72,43.58-20.3,56.23-41.04l71.84-117.83c32.81-53.8,15.78-124.02-38.02-156.82l-161.36-98.39c-27.08-16.51-35.65-51.85-19.13-78.93h0c16.51-27.08,51.85-35.65,78.93-19.14l308.45,188.07c26.73,16.3,35.18,51.17,18.89,77.9l-161.53,264.92c-14.45,23.7-33.14,43.88-55.54,59.98-21.62,15.53-45.73,26.6-71.68,32.89-25.95,6.29-52.46,7.5-78.79,3.59-27.29-4.05-53.14-13.43-76.84-27.88-23.7-14.45-43.88-33.14-59.98-55.54-15.53-21.62-26.6-45.73-32.89-71.68-6.29-25.95-7.51-52.46-3.59-78.79,4.05-27.29,13.43-53.14,27.88-76.84l53.77-88.19-88.19-53.77c-23.7-14.45-43.88-33.14-59.98-55.54-15.54-21.62-26.6-45.73-32.89-71.68-6.29-25.95-7.51-52.46-3.59-78.79,4.05-27.29,13.43-53.14,27.88-76.84,14.45-23.7,33.14-43.88,55.54-59.98,21.62-15.53,45.73-26.6,71.69-32.89Z"/>
  </g>
  <g>
    <path class="cls-10" d="M654.85,1114.84c-39.21.05-76.09-15.15-103.85-42.79-19.21-19.13-86.5-86.13-105.32-104.87l-222.01-221.06c-28.32-28.2-50.29-61.16-65.3-97.98-14.47-35.5-21.83-72.96-21.88-111.36-.05-38.4,7.22-75.89,21.6-111.42,14.92-36.86,36.81-69.88,65.05-98.15,28.25-28.27,61.28-50.2,98.16-65.18,35.56-14.44,73.09-21.79,111.56-21.84,38.49-.05,76.05,7.21,111.63,21.56,36.91,14.89,69.99,36.73,98.31,64.93l11.07,11.02,11.04-11.05c28.25-28.27,61.28-50.2,98.16-65.18,35.54-14.44,73.08-21.79,111.56-21.84,38.49-.05,76.05,7.21,111.63,21.56,36.91,14.89,69.99,36.73,98.31,64.93,28.32,28.2,50.29,61.16,65.3,97.98,14.47,35.5,21.83,72.97,21.88,111.37.05,38.4-7.22,75.88-21.6,111.41-14.92,36.86-36.81,69.88-65.05,98.15l-326.5,326.74c-27.69,27.71-64.54,43-103.75,43.05Z"/>
    <path class="cls-1" d="M654.63,1109.46c-38.8,0-75.28-15.11-102.71-42.54-18.98-18.98-85.48-85.49-104.09-104.09l-219.41-219.4c-27.99-27.99-49.68-60.69-64.49-97.21-14.27-35.21-21.51-72.35-21.51-110.42s7.24-75.22,21.51-110.42c14.81-36.52,36.51-69.23,64.49-97.21,27.99-27.99,60.7-49.69,97.21-64.49,35.21-14.27,72.35-21.51,110.42-21.51s75.24,7.24,110.43,21.51c36.51,14.8,69.21,36.5,97.2,64.49l10.94,10.94,10.93-10.94c27.99-27.99,60.69-49.69,97.21-64.49,35.18-14.27,72.34-21.51,110.42-21.51s75.24,7.24,110.43,21.51c36.51,14.8,69.21,36.5,97.2,64.49,27.99,27.99,49.69,60.69,64.49,97.21,14.27,35.21,21.51,72.36,21.51,110.42s-7.24,75.21-21.51,110.41c-14.81,36.52-36.51,69.23-64.49,97.21l-323.48,323.49c-27.44,27.44-63.91,42.55-102.71,42.55Z"/>
    <path class="cls-9" d="M1079,535.8c0,26.7-5.07,52.75-15.07,77.42-10.37,25.57-25.58,48.48-45.21,68.11l-323.48,323.49c-22.43,22.43-58.79,22.43-81.22,0h0c-22.43-22.43-22.43-58.79,0-81.22l323.48-323.49c17.18-17.18,26.64-40.02,26.64-64.31s-9.46-47.14-26.64-64.31c-35.46-35.47-93.16-35.47-128.63,0l-176.21,176.21c-21.4,21.4-50.42,33.42-80.68,33.42h0c-30.45,0-59.09-11.85-80.64-33.37-15.65-15.63-33.72-33.63-49.56-49.4-22.47-22.35-22.57-58.68-.24-81.17h0c22.36-22.52,58.75-22.64,81.25-.25,15.71,15.63,33.61,33.46,49.19,49.03l21.43-21.43-73.04-73.04c-35.46-35.46-93.17-35.46-128.63,0-17.18,17.18-26.64,40.02-26.64,64.32s9.46,47.13,26.64,64.31l97.58,97.58c44.56,44.56,116.8,44.56,161.36,0l133.64-133.64c22.43-22.43,58.79-22.43,81.21,0h0c22.43,22.43,22.43,58.79,0,81.21l-255.45,255.46c-22.14,22.13-58.02,22.13-80.16,0l-219.4-219.4c-19.63-19.63-34.84-42.54-45.21-68.11-10-24.67-15.07-50.71-15.07-77.42s5.07-52.75,15.07-77.42c10.37-25.57,25.58-48.48,45.21-68.11,19.63-19.63,42.54-34.84,68.11-45.21,24.67-10,50.71-15.07,77.42-15.07s52.75,5.07,77.42,15.07c25.57,10.37,48.48,25.58,68.11,45.21l73.04,73.04,73.04-73.04c19.63-19.63,42.54-34.84,68.11-45.21,24.67-10.01,50.71-15.07,77.42-15.07s52.75,5.07,77.42,15.07c25.57,10.37,48.48,25.58,68.11,45.21,19.63,19.63,34.84,42.54,45.21,68.11,10,24.67,15.07,50.71,15.07,77.42Z"/>
  </g>
  <g>
    <path class="cls-10" d="M1336.79,102.65c38.09-9.3,77.52-3.23,111.02,17.08,23.18,14.06,104.38,63.29,127.09,77.06l267.89,162.44c34.17,20.72,63.3,47.57,86.57,79.81,22.44,31.08,38.43,65.75,47.53,103.06,9.11,37.31,10.89,75.45,5.3,113.37-5.8,39.34-19.28,76.59-40.06,110.73-20.78,34.14-47.7,63.24-80.01,86.5-31.15,22.43-65.89,38.42-103.26,47.54-37.39,9.13-75.6,10.94-113.57,5.38-39.38-5.76-76.68-19.18-110.85-39.9l-13.35-8.1-8.12,13.34c-20.78,34.14-47.7,63.24-80.01,86.5-31.13,22.42-65.87,38.42-103.26,47.54-37.39,9.13-75.6,10.94-113.57,5.38-39.38-5.76-76.68-19.18-110.85-39.9-34.17-20.72-63.3-47.57-86.57-79.81-22.44-31.08-38.43-65.76-47.53-103.06-9.11-37.3-10.89-75.44-5.3-113.36,5.8-39.34,19.28-76.59,40.06-110.73l240.2-394.55c20.37-33.46,52.57-57.01,90.66-66.31Z"/>
    <path class="cls-1" d="M1338.27,107.82c37.7-9.15,76.72-3.08,109.85,17.11,22.93,13.97,103.24,62.91,125.71,76.59l264.98,161.45c33.8,20.59,62.6,47.26,85.61,79.25,22.18,30.84,37.97,65.24,46.95,102.23,8.98,36.99,10.71,74.8,5.15,112.38-5.77,38.98-19.14,75.89-39.74,109.68-20.6,33.8-47.26,62.6-79.25,85.61-30.84,22.18-65.24,37.97-102.23,46.95-37.01,8.99-74.83,10.72-112.39,5.15-38.97-5.77-75.87-19.14-109.67-39.73l-13.21-8.05-8.05,13.21c-20.6,33.8-47.26,62.6-79.25,85.61-30.82,22.17-65.22,37.97-102.23,46.95-37.01,8.99-74.83,10.72-112.39,5.15-38.97-5.77-75.87-19.14-109.67-39.73-33.8-20.59-62.6-47.26-85.61-79.25-22.18-30.84-37.97-65.24-46.96-102.23-8.98-36.99-10.71-74.8-5.15-112.37,5.78-38.98,19.14-75.89,39.74-109.69l238.03-390.68c20.19-33.13,52.07-56.42,89.78-65.58Z"/>
    <path class="cls-4" d="M1061.22,765.41c-6.3-25.95-7.52-52.45-3.62-78.79,4.04-27.29,13.42-53.15,27.86-76.85l238.03-390.68c16.5-27.09,51.84-35.67,78.92-19.16h0c27.09,16.5,35.66,51.84,19.16,78.92l-238.03,390.67c-12.64,20.75-16.45,45.18-10.71,68.78,5.73,23.61,20.31,43.57,41.06,56.21,42.83,26.1,98.9,12.49,125-30.34l129.66-212.81c15.75-25.84,41.11-44.37,70.52-51.51h0c29.59-7.18,60.22-2.42,86.23,13.41,18.89,11.5,40.7,24.73,59.82,36.31,27.11,16.42,35.78,51.69,19.38,78.82h0c-16.42,27.16-51.75,35.86-78.9,19.41-18.96-11.48-40.56-24.59-59.37-36.03l-15.77,25.88,88.21,53.75c42.83,26.09,98.91,12.48,125-30.35,12.64-20.75,16.44-45.18,10.71-68.79-5.73-23.61-20.31-43.57-41.06-56.21l-117.85-71.8c-53.81-32.79-124.02-15.74-156.81,38.07l-98.34,161.39c-16.5,27.08-51.84,35.66-78.92,19.16h0c-27.08-16.5-35.66-51.84-19.16-78.92l187.97-308.51c16.29-26.73,51.16-35.2,77.9-18.91l264.97,161.44c23.7,14.44,43.89,33.12,60,55.52,15.54,21.61,26.61,45.73,32.91,71.67,6.3,25.95,7.52,52.46,3.62,78.79-4.04,27.29-13.42,53.15-27.86,76.85-14.44,23.7-33.12,43.89-55.52,60-21.61,15.54-45.73,26.61-71.67,32.91-25.95,6.3-52.46,7.52-78.79,3.62-27.29-4.04-53.15-13.42-76.85-27.86l-88.21-53.75-53.75,88.21c-14.44,23.7-33.12,43.89-55.52,60-21.61,15.54-45.73,26.61-71.67,32.91-25.95,6.3-52.46,7.52-78.79,3.62-27.29-4.04-53.15-13.42-76.85-27.86-23.7-14.44-43.89-33.12-60-55.52-15.54-21.61-26.61-45.73-32.91-71.68Z"/>
  </g>
  <g>
    <path class="cls-6" d="M1763.02,1433.24c-38.99-4.15-74.03-23.21-98.67-53.67-17.05-21.08-76.77-94.9-93.48-115.55l-197.05-243.57c-25.14-31.07-43.45-66.2-54.43-104.41-10.58-36.84-13.89-74.88-9.82-113.07,4.07-38.19,15.31-74.68,33.41-108.46,18.78-35.05,44.08-65.54,75.19-90.62,31.12-25.08,66.3-43.35,104.58-54.29,36.9-10.55,75.01-13.84,113.26-9.76,38.27,4.08,74.84,15.31,108.68,33.4,35.1,18.75,65.65,44.02,90.79,75.09l9.82,12.14,12.16-9.8c31.12-25.08,66.3-43.35,104.58-54.29,36.88-10.55,74.99-13.84,113.26-9.76,38.27,4.08,74.84,15.31,108.68,33.4,35.1,18.75,65.65,44.02,90.79,75.09,25.14,31.07,43.45,66.2,54.43,104.41,10.58,36.84,13.89,74.88,9.82,113.07-4.07,38.18-15.31,74.67-33.41,108.46-18.78,35.05-44.08,65.54-75.19,90.62l-359.63,289.89c-30.5,24.59-68.77,35.84-107.76,31.69Z"/>
    <path class="cls-9" d="M1763.38,1427.88c-38.58-4.16-73.22-23.09-97.56-53.3-16.84-20.91-75.83-94.15-92.34-114.64l-194.64-241.65c-24.83-30.82-42.9-65.67-53.71-103.56-10.42-36.53-13.64-74.24-9.56-112.09,4.08-37.85,15.25-74.01,33.21-107.48,18.64-34.72,43.71-64.92,74.54-89.74,30.83-24.83,65.67-42.9,103.56-53.71,36.53-10.42,74.24-13.64,112.09-9.56s74.03,15.26,107.49,33.22c34.71,18.63,64.9,43.7,89.73,74.53l9.7,12.05,12.04-9.7c30.83-24.83,65.67-42.9,103.56-53.71,36.51-10.42,74.22-13.64,112.09-9.56,37.87,4.08,74.03,15.26,107.49,33.22,34.71,18.63,64.9,43.7,89.73,74.53,24.83,30.82,42.9,65.67,53.71,103.56,10.42,36.53,13.64,74.24,9.56,112.09-4.08,37.85-15.25,74.01-33.21,107.48-18.64,34.72-43.71,64.92-74.54,89.75l-356.27,286.98c-30.22,24.34-68.1,35.45-106.68,31.3Z"/>
    <path class="cls-1" d="M2246.76,902.97c-2.86,26.55-10.69,51.9-23.28,75.36-13.05,24.31-30.62,45.46-52.24,62.88l-356.27,286.98c-24.7,19.9-60.85,16-80.75-8.7h0c-19.9-24.7-16-60.85,8.7-80.75l356.27-286.97c18.92-15.24,30.77-36.94,33.38-61.09,2.6-24.16-4.35-47.88-19.6-66.8-31.46-39.06-88.83-45.24-127.89-13.78l-194.07,156.32c-23.57,18.98-53.71,27.83-83.8,24.58h0c-30.28-3.26-57.48-18.11-76.6-41.82-13.88-17.22-29.92-37.05-43.99-54.42-19.94-24.63-16.15-60.76,8.46-80.72h0c24.65-20,60.84-16.21,80.81,8.45,13.95,17.23,29.84,36.87,43.66,54.01l23.6-19.01-64.8-80.44c-31.46-39.05-88.83-45.24-127.89-13.78-18.92,15.24-30.77,36.94-33.37,61.1-2.6,24.15,4.35,47.87,19.59,66.8l86.57,107.47c39.53,49.08,111.36,56.81,160.44,17.29l147.19-118.55c24.7-19.89,60.85-16,80.74,8.7h0c19.89,24.7,16,60.85-8.7,80.74l-281.35,226.62c-24.38,19.63-60.06,15.79-79.7-8.59l-194.63-241.64c-17.41-21.62-30.08-46.03-37.65-72.56-7.3-25.6-9.55-52.04-6.69-78.58,2.86-26.55,10.69-51.91,23.28-75.36,13.05-24.31,30.62-45.46,52.24-62.88,21.62-17.41,46.03-30.08,72.56-37.65,25.6-7.3,52.04-9.55,78.58-6.69,26.55,2.86,51.91,10.69,75.36,23.28,24.31,13.05,45.46,30.62,62.88,52.24l64.8,80.44,80.44-64.8c21.62-17.41,46.03-30.08,72.56-37.65,25.6-7.31,52.04-9.55,78.58-6.69,26.55,2.86,51.91,10.69,75.36,23.28,24.31,13.05,45.46,30.62,62.88,52.24,17.41,21.62,30.08,46.03,37.65,72.56,7.3,25.6,9.55,52.04,6.69,78.59Z"/>
  </g>
  <g>
    <path class="cls-7" d="M1868.07,3086.56c-38.68,6.43-77.54-2.56-109.43-25.31-22.07-15.74-99.37-70.9-120.99-86.32l-255.04-181.96c-32.53-23.21-59.57-52.16-80.38-86.04-20.06-32.67-33.42-68.44-39.72-106.31-6.3-37.88-5.23-76.05,3.17-113.45,8.72-38.8,24.94-74.94,48.21-107.43,23.27-32.49,52.29-59.51,86.24-80.29,32.73-20.04,68.57-33.4,106.52-39.71,37.97-6.31,76.21-5.27,113.65,3.1,38.84,8.68,75.04,24.85,107.57,48.06l12.71,9.07,9.09-12.69c23.27-32.49,52.29-59.51,86.24-80.29,32.71-20.03,68.55-33.4,106.52-39.71,37.97-6.31,76.21-5.27,113.65,3.1,38.84,8.68,75.04,24.85,107.57,48.06,32.53,23.21,59.58,52.16,80.38,86.04,20.06,32.67,33.42,68.44,39.72,106.32,6.3,37.88,5.23,76.05-3.17,113.44-8.72,38.8-24.94,74.94-48.21,107.43l-268.95,375.54c-22.81,31.85-56.68,52.93-95.36,59.37Z"/>
    <path class="cls-4" d="M1866.98,3081.29c-38.28,6.32-76.73-2.65-108.27-25.25-21.82-15.64-98.26-70.43-119.64-85.75l-252.2-180.76c-32.17-23.06-58.9-51.79-79.46-85.41-19.81-32.41-33-67.89-39.2-105.44-6.2-37.56-5.11-75.39,3.24-112.45,8.67-38.44,24.75-74.25,47.81-106.42,23.06-32.17,51.8-58.91,85.42-79.46,32.41-19.81,67.89-33,105.44-39.2,37.58-6.2,75.42-5.11,112.46,3.25,38.43,8.66,74.23,24.75,106.4,47.8l12.57,9.01,9.01-12.57c23.06-32.17,51.8-58.9,85.41-79.46,32.39-19.81,67.87-33,105.44-39.2,37.58-6.2,75.42-5.11,112.46,3.25,38.43,8.66,74.23,24.75,106.4,47.8,32.17,23.06,58.9,51.79,79.46,85.41,19.82,32.41,33,67.89,39.2,105.45,6.2,37.56,5.11,75.39-3.25,112.44-8.67,38.45-24.75,74.25-47.81,106.42l-266.5,371.84c-22.6,31.54-56.13,52.38-94.42,58.7Z"/>
    <path class="cls-1" d="M2192.29,2446.19c4.35,26.34,3.58,52.87-2.27,78.84-6.07,26.91-17.34,52-33.51,74.56l-266.5,371.84c-18.48,25.78-54.35,31.7-80.13,13.22h0c-25.78-18.48-31.7-54.35-13.22-80.13l266.5-371.84c14.16-19.75,19.77-43.82,15.81-67.79-3.96-23.97-17.01-44.97-36.76-59.12-40.76-29.22-97.7-19.83-126.91,20.94l-145.17,202.55c-17.63,24.6-44.31,41.18-74.17,46.11h0c-30.05,4.96-60.23-2.07-84.99-19.8-17.98-12.88-38.75-27.69-56.94-40.67-25.81-18.4-31.82-54.22-13.45-80.04h0c18.4-25.86,54.28-31.9,80.12-13.48,18.05,12.87,38.61,27.54,56.52,40.36l17.65-24.63-83.96-60.17c-40.76-29.21-97.7-19.82-126.92,20.94-14.15,19.75-19.76,43.82-15.81,67.8,3.95,23.97,17,44.96,36.75,59.12l112.17,80.39c51.22,36.71,122.5,24.95,159.21-26.27l110.1-153.61c18.48-25.78,54.35-31.7,80.13-13.22h0c25.78,18.48,31.7,54.35,13.22,80.13l-210.45,293.64c-18.24,25.44-53.64,31.28-79.09,13.05l-252.19-180.75c-22.56-16.17-41.3-36.3-55.69-59.84-13.88-22.71-23.13-47.58-27.48-73.93-4.35-26.35-3.58-52.87,2.27-78.84,6.07-26.91,17.34-52,33.51-74.56,16.17-22.56,36.3-41.3,59.84-55.69,22.71-13.88,47.58-23.13,73.93-27.48,26.35-4.35,52.87-3.59,78.84,2.27,26.91,6.07,52,17.34,74.56,33.51l83.96,60.17,60.17-83.96c16.17-22.56,36.3-41.3,59.84-55.69,22.71-13.89,47.58-23.13,73.93-27.48,26.35-4.35,52.87-3.59,78.84,2.27,26.91,6.07,52,17.34,74.56,33.51,22.56,16.17,41.3,36.3,55.69,59.84,13.88,22.71,23.13,47.58,27.48,73.93Z"/>
  </g>
  <g>
    <path class="cls-7" d="M698.98,3246.02c-38.68,6.43-77.54-2.56-109.43-25.31-22.07-15.74-99.37-70.9-120.99-86.32l-255.04-181.96c-32.53-23.21-59.57-52.16-80.38-86.04-20.06-32.67-33.42-68.44-39.72-106.31-6.3-37.88-5.23-76.05,3.17-113.45,8.72-38.8,24.94-74.94,48.21-107.43,23.27-32.49,52.29-59.51,86.24-80.29,32.73-20.04,68.57-33.4,106.52-39.71,37.97-6.31,76.21-5.27,113.65,3.1,38.84,8.68,75.04,24.85,107.57,48.06l12.71,9.07,9.09-12.69c23.27-32.49,52.29-59.51,86.24-80.29,32.71-20.03,68.55-33.4,106.52-39.71,37.97-6.31,76.21-5.27,113.65,3.1,38.84,8.68,75.04,24.85,107.57,48.06,32.53,23.21,59.58,52.16,80.38,86.04,20.06,32.67,33.42,68.44,39.72,106.32,6.3,37.88,5.23,76.05-3.17,113.44-8.72,38.8-24.94,74.94-48.21,107.43l-268.95,375.54c-22.81,31.85-56.68,52.93-95.36,59.37Z"/>
    <path class="cls-4" d="M697.89,3240.76c-38.28,6.32-76.73-2.65-108.27-25.25-21.82-15.64-98.26-70.43-119.64-85.75l-252.2-180.76c-32.17-23.06-58.9-51.79-79.46-85.41-19.81-32.41-33-67.89-39.2-105.44-6.2-37.56-5.11-75.39,3.24-112.45,8.67-38.44,24.75-74.25,47.81-106.42,23.06-32.17,51.8-58.91,85.42-79.46,32.41-19.81,67.89-33,105.44-39.2,37.58-6.2,75.42-5.11,112.46,3.25,38.43,8.66,74.23,24.75,106.4,47.8l12.57,9.01,9.01-12.57c23.06-32.17,51.8-58.9,85.41-79.46,32.39-19.81,67.87-33,105.44-39.2,37.58-6.2,75.42-5.11,112.46,3.25,38.43,8.66,74.23,24.75,106.4,47.8,32.17,23.06,58.9,51.79,79.46,85.41,19.82,32.41,33,67.89,39.2,105.45,6.2,37.56,5.11,75.39-3.25,112.44-8.67,38.45-24.75,74.25-47.81,106.42l-266.5,371.84c-22.6,31.54-56.13,52.38-94.42,58.7Z"/>
    <path class="cls-1" d="M1023.21,2605.65c4.35,26.34,3.58,52.87-2.27,78.84-6.07,26.91-17.34,52-33.51,74.56l-266.5,371.84c-18.48,25.78-54.35,31.7-80.13,13.22h0c-25.78-18.48-31.7-54.35-13.22-80.13l266.5-371.84c14.16-19.75,19.77-43.82,15.81-67.79-3.96-23.97-17.01-44.97-36.76-59.12-40.76-29.22-97.7-19.83-126.91,20.94l-145.17,202.55c-17.63,24.6-44.31,41.18-74.17,46.11h0c-30.05,4.96-60.23-2.07-84.99-19.8-17.98-12.88-38.75-27.69-56.94-40.67-25.81-18.4-31.82-54.22-13.45-80.04h0c18.4-25.86,54.28-31.9,80.12-13.48,18.05,12.87,38.61,27.54,56.52,40.36l17.65-24.63-83.96-60.17c-40.76-29.21-97.7-19.82-126.92,20.94-14.15,19.75-19.76,43.82-15.81,67.8,3.95,23.97,17,44.96,36.75,59.12l112.17,80.39c51.22,36.71,122.5,24.95,159.21-26.27l110.1-153.61c18.48-25.78,54.35-31.7,80.13-13.22h0c25.78,18.48,31.7,54.35,13.22,80.13l-210.45,293.64c-18.24,25.44-53.64,31.28-79.09,13.05l-252.19-180.75c-22.56-16.17-41.3-36.3-55.69-59.84-13.88-22.71-23.13-47.58-27.48-73.93-4.35-26.35-3.58-52.87,2.27-78.84,6.07-26.91,17.34-52,33.51-74.56,16.17-22.56,36.3-41.3,59.84-55.69,22.71-13.88,47.58-23.13,73.93-27.48,26.35-4.35,52.87-3.59,78.84,2.27,26.91,6.07,52,17.34,74.56,33.51l83.96,60.17,60.17-83.96c16.17-22.56,36.3-41.3,59.84-55.69,22.71-13.89,47.58-23.13,73.93-27.48,26.35-4.35,52.87-3.59,78.84,2.27,26.91,6.07,52,17.34,74.56,33.51,22.56,16.17,41.3,36.3,55.69,59.84,13.88,22.71,23.13,47.58,27.48,73.93Z"/>
  </g>
  <g>
    <path class="cls-2" d="M1658.21,2247.93c9.29,38.09,3.21,77.52-17.11,111.01-14.06,23.18-63.33,104.36-77.1,127.07l-162.52,267.84c-20.73,34.17-47.59,63.28-79.84,86.55-31.09,22.43-65.77,38.41-103.07,47.5-37.31,9.1-75.45,10.87-113.37,5.26-39.34-5.82-76.59-19.31-110.71-40.1-34.13-20.8-63.22-47.72-86.48-80.04-22.42-31.16-38.4-65.9-47.51-103.28-9.12-37.39-10.91-75.61-5.35-113.57,5.77-39.38,19.21-76.68,39.94-110.84l8.1-13.35-13.33-8.12c-34.13-20.79-63.22-47.72-86.48-80.04-22.41-31.13-38.4-65.88-47.51-103.28-9.12-37.39-10.91-75.61-5.35-113.57,5.77-39.38,19.21-76.68,39.94-110.84,20.73-34.17,47.59-63.28,79.84-86.55,31.09-22.43,65.77-38.41,103.08-47.5,37.31-9.09,75.45-10.86,113.36-5.26,39.34,5.82,76.59,19.31,110.71,40.1l394.47,240.32c33.46,20.38,57,52.59,66.28,90.68Z"/>
    <path class="cls-3" d="M1653.04,2249.41c9.14,37.71,3.05,76.72-17.15,109.84-13.98,22.92-62.94,103.22-76.63,125.68l-161.53,264.92c-20.61,33.79-47.28,62.59-79.28,85.58-30.85,22.17-65.25,37.95-102.24,46.92-37,8.97-74.81,10.69-112.38,5.11-38.98-5.79-75.88-19.17-109.67-39.77-33.8-20.61-62.59-47.28-85.58-79.28-22.17-30.85-37.95-65.25-46.92-102.24-8.97-37.01-10.69-74.83-5.11-112.39,5.78-38.97,19.17-75.86,39.77-109.66l8.05-13.21-13.2-8.05c-33.79-20.61-62.59-47.28-85.58-79.28-22.16-30.83-37.95-65.23-46.92-102.24-8.97-37.01-10.69-74.83-5.11-112.39,5.78-38.97,19.17-75.86,39.77-109.66,20.61-33.79,47.28-62.59,79.28-85.58,30.85-22.17,65.25-37.95,102.25-46.92,36.99-8.97,74.8-10.69,112.37-5.11,38.98,5.79,75.88,19.17,109.67,39.77l390.6,238.15c33.13,20.2,56.41,52.09,65.55,89.8Z"/>
    <path class="cls-1" d="M995.53,1972.16c25.95-6.29,52.46-7.5,78.79-3.59,27.29,4.05,53.14,13.43,76.84,27.88l390.6,238.15c27.08,16.51,35.65,51.85,19.14,78.93h0c-16.51,27.08-51.85,35.65-78.93,19.14l-390.6-238.16c-20.75-12.65-45.17-16.46-68.78-10.74-23.61,5.72-43.58,20.3-56.23,41.04-26.11,42.82-12.52,98.9,30.3,125.01l212.77,129.73c25.84,15.75,44.36,41.13,51.49,70.54h0c7.17,29.59,2.4,60.22-13.43,86.23-11.51,18.89-24.74,40.69-36.33,59.81-16.43,27.1-51.71,35.76-78.82,19.36h0c-27.16-16.43-35.84-51.76-19.39-78.9,11.49-18.95,24.6-40.55,36.05-59.36l-25.87-15.77-53.77,88.19c-26.1,42.82-12.51,98.9,30.31,125.01,20.75,12.65,45.17,16.46,68.78,10.73,23.61-5.72,43.58-20.3,56.23-41.04l71.84-117.83c32.81-53.8,15.78-124.02-38.02-156.82l-161.36-98.39c-27.08-16.51-35.65-51.85-19.13-78.93h0c16.51-27.08,51.85-35.65,78.93-19.14l308.45,188.07c26.73,16.3,35.18,51.17,18.89,77.9l-161.53,264.92c-14.45,23.7-33.14,43.88-55.54,59.98-21.62,15.53-45.73,26.6-71.68,32.89-25.95,6.29-52.46,7.5-78.79,3.59-27.29-4.05-53.14-13.43-76.84-27.88-23.7-14.45-43.88-33.14-59.98-55.54-15.53-21.62-26.6-45.73-32.89-71.68s-7.51-52.46-3.59-78.79c4.05-27.29,13.43-53.14,27.88-76.84l53.77-88.19-88.19-53.77c-23.7-14.45-43.88-33.14-59.98-55.54-15.54-21.62-26.6-45.73-32.89-71.68-6.29-25.95-7.51-52.46-3.59-78.79,4.05-27.29,13.43-53.14,27.88-76.84,14.45-23.7,33.14-43.88,55.54-59.98,21.62-15.53,45.73-26.6,71.69-32.89Z"/>
  </g>
  <g>
    <g>
      <path class="cls-10" d="M492.52,1748.7c-37.13-12.6-67.14-38.87-84.51-73.99-12.02-24.3-54.1-109.42-65.88-133.23l-138.87-280.84c-17.71-35.82-27.88-74.11-30.21-113.81-2.25-38.27,2.86-76.1,15.2-112.47,12.34-36.37,31.3-69.51,56.37-98.5,26.01-30.08,57.37-54.28,93.23-71.93,35.86-17.65,74.19-27.76,113.94-30.05,38.32-2.21,76.22,2.94,112.64,15.3,36.45,12.37,69.66,31.34,98.72,56.41,30.14,25.99,54.41,57.34,72.12,93.16l6.92,14,14.01-6.9c35.86-17.65,74.19-27.76,113.94-30.05,38.3-2.21,76.2,2.94,112.64,15.3,36.45,12.37,69.66,31.34,98.72,56.41,30.14,25.99,54.41,57.34,72.12,93.16,17.71,35.82,27.88,74.11,30.22,113.81,2.25,38.27-2.87,76.11-15.2,112.47-12.34,36.36-31.3,69.5-56.37,98.5-26.01,30.08-57.38,54.28-93.23,71.93l-414.42,204.01c-35.15,17.3-74.96,19.89-112.09,7.29Z"/>
      <path class="cls-1" d="M494.05,1743.54c-36.73-12.51-66.38-38.58-83.51-73.39-11.85-24.09-53.35-108.49-64.96-132.09l-136.94-278.43c-17.47-35.52-27.46-73.47-29.7-112.81-2.16-37.93,2.97-75.43,15.24-111.46,12.28-36.04,31.11-68.87,55.97-97.59,25.79-29.79,56.88-53.76,92.4-71.22,35.52-17.47,73.48-27.46,112.82-29.7,37.93-2.16,75.43,2.97,111.46,15.24,36.05,12.28,68.89,31.11,97.6,55.98,29.78,25.78,53.74,56.87,71.21,92.38l6.83,13.88,13.88-6.83c35.52-17.47,73.47-27.46,112.81-29.7,37.9-2.16,75.41,2.96,111.46,15.24,36.05,12.28,68.89,31.11,97.6,55.98,29.78,25.78,53.74,56.87,71.21,92.38,17.47,35.52,27.46,73.47,29.7,112.81,2.16,37.93-2.97,75.43-15.25,111.46-12.27,36.03-31.1,68.86-55.96,97.58-25.8,29.8-56.88,53.76-92.4,71.22l-410.51,201.9c-34.82,17.12-74.22,19.66-110.95,7.15Z"/>
      <path class="cls-5" d="M1080.73,1337.36c-8.61,25.27-21.81,48.29-39.23,68.42-18.06,20.86-39.85,37.65-64.75,49.89l-410.52,201.9c-28.46,14-62.88,2.27-76.88-26.19h0c-14-28.46-2.27-62.88,26.19-76.88l410.51-201.9c21.81-10.72,38.12-29.29,45.96-52.29,7.83-23,6.25-47.67-4.48-69.47-22.13-45.01-76.75-63.62-121.75-41.48l-223.62,109.98c-27.16,13.36-58.5,15.38-87.15,5.62h0c-28.83-9.82-52.11-30.27-65.57-57.59-9.77-19.84-21.07-42.71-30.99-62.74-14.06-28.41-2.44-62.82,25.95-76.91h0c28.43-14.11,62.91-2.48,76.99,25.96,9.83,19.86,21.03,42.51,30.76,62.27l27.19-13.37-45.59-92.69c-22.13-45-76.76-63.61-121.76-41.48-21.8,10.73-38.12,29.29-45.95,52.29-7.83,22.99-6.25,47.66,4.47,69.47l60.9,123.83c27.81,56.55,96.2,79.84,152.75,52.03l169.59-83.4c28.46-14,62.88-2.27,76.87,26.19h0c14,28.46,2.27,62.88-26.19,76.87l-324.18,159.44c-28.09,13.81-62.06,2.24-75.88-25.85l-136.93-278.43c-12.25-24.91-19.26-51.5-20.83-79.05-1.51-26.58,2.09-52.87,10.7-78.14,8.61-25.28,21.81-48.3,39.23-68.42,18.06-20.86,39.85-37.65,64.75-49.89,24.91-12.25,51.5-19.26,79.05-20.83,26.58-1.51,52.87,2.09,78.14,10.7,25.28,8.61,48.3,21.81,68.42,39.23,20.86,18.06,37.65,39.85,49.89,64.75l45.59,92.69,92.69-45.59c24.91-12.25,51.5-19.26,79.05-20.83,26.58-1.52,52.87,2.09,78.14,10.7,25.28,8.61,48.3,21.81,68.42,39.23,20.86,18.06,37.65,39.85,49.89,64.75,12.25,24.91,19.26,51.5,20.83,79.05,1.51,26.58-2.09,52.87-10.7,78.15Z"/>
    </g>
    <g>
      <path class="cls-10" d="M538.69,3140.46c-37.13-12.6-67.14-38.87-84.51-73.99-12.02-24.3-54.1-109.42-65.88-133.23l-138.87-280.84c-17.71-35.82-27.88-74.11-30.21-113.81-2.25-38.27,2.86-76.1,15.2-112.47,12.34-36.37,31.3-69.51,56.37-98.5,26.01-30.08,57.37-54.28,93.23-71.93,35.86-17.65,74.19-27.76,113.94-30.05,38.32-2.21,76.22,2.94,112.64,15.3,36.45,12.37,69.66,31.34,98.72,56.41,30.14,25.99,54.41,57.34,72.12,93.16l6.92,14,14.01-6.9c35.86-17.65,74.19-27.76,113.94-30.05,38.3-2.21,76.2,2.94,112.64,15.3,36.45,12.37,69.66,31.34,98.72,56.41,30.14,25.99,54.41,57.34,72.12,93.16,17.71,35.82,27.88,74.11,30.22,113.81,2.25,38.27-2.87,76.11-15.2,112.47-12.34,36.36-31.3,69.5-56.37,98.5-26.01,30.08-57.38,54.28-93.23,71.93l-414.42,204.01c-35.15,17.3-74.96,19.89-112.09,7.29Z"/>
      <path class="cls-1" d="M540.22,3135.3c-36.73-12.51-66.38-38.58-83.51-73.39-11.85-24.09-53.35-108.49-64.96-132.09l-136.94-278.43c-17.47-35.52-27.46-73.47-29.7-112.81-2.16-37.93,2.97-75.43,15.24-111.46,12.28-36.04,31.11-68.87,55.97-97.59,25.79-29.79,56.88-53.76,92.4-71.22,35.52-17.47,73.48-27.46,112.82-29.7,37.93-2.16,75.43,2.97,111.46,15.24,36.05,12.28,68.89,31.11,97.6,55.98,29.78,25.78,53.74,56.87,71.21,92.38l6.83,13.88,13.88-6.83c35.52-17.47,73.47-27.46,112.81-29.7,37.9-2.16,75.41,2.96,111.46,15.24,36.05,12.28,68.89,31.11,97.6,55.98,29.78,25.78,53.74,56.87,71.21,92.38,17.47,35.52,27.46,73.47,29.7,112.81,2.16,37.93-2.97,75.43-15.25,111.46-12.27,36.03-31.1,68.86-55.96,97.58-25.8,29.8-56.88,53.76-92.4,71.22l-410.51,201.9c-34.82,17.12-74.22,19.66-110.95,7.15Z"/>
      <path class="cls-5" d="M1126.9,2729.12c-8.61,25.27-21.81,48.29-39.23,68.42-18.06,20.86-39.85,37.65-64.75,49.89l-410.52,201.9c-28.46,14-62.88,2.27-76.88-26.19h0c-14-28.46-2.27-62.88,26.19-76.88l410.51-201.9c21.81-10.72,38.12-29.29,45.96-52.29,7.83-23,6.25-47.67-4.48-69.47-22.13-45.01-76.75-63.62-121.75-41.48l-223.62,109.98c-27.16,13.36-58.5,15.38-87.15,5.62h0c-28.83-9.82-52.11-30.27-65.57-57.59-9.77-19.84-21.07-42.71-30.99-62.74-14.06-28.41-2.44-62.82,25.95-76.91h0c28.43-14.11,62.91-2.48,76.99,25.96,9.83,19.86,21.03,42.51,30.76,62.27l27.19-13.37-45.59-92.69c-22.13-45-76.76-63.61-121.76-41.48-21.8,10.73-38.12,29.29-45.95,52.29-7.83,22.99-6.25,47.66,4.47,69.47l60.9,123.83c27.81,56.55,96.2,79.84,152.75,52.03l169.59-83.4c28.46-14,62.88-2.27,76.87,26.19h0c14,28.46,2.27,62.88-26.19,76.87l-324.18,159.44c-28.09,13.81-62.06,2.24-75.88-25.85l-136.93-278.43c-12.25-24.91-19.26-51.5-20.83-79.05-1.51-26.58,2.09-52.87,10.7-78.14,8.61-25.28,21.81-48.3,39.23-68.42,18.06-20.86,39.85-37.65,64.75-49.89,24.91-12.25,51.5-19.26,79.05-20.83,26.58-1.51,52.87,2.09,78.14,10.7,25.28,8.61,48.3,21.81,68.42,39.23,20.86,18.06,37.65,39.85,49.89,64.75l45.59,92.69,92.69-45.59c24.91-12.25,51.5-19.26,79.05-20.83,26.58-1.52,52.87,2.09,78.14,10.7,25.28,8.61,48.3,21.81,68.42,39.23,20.86,18.06,37.65,39.85,49.89,64.75,12.25,24.91,19.26,51.5,20.83,79.05,1.51,26.58-2.09,52.87-10.7,78.15Z"/>
    </g>
    <g>
      <path class="cls-10" d="M2428.05,2245.83c39.21-.54,76.28,14.19,104.38,41.48,19.45,18.88,87.57,85.04,106.63,103.54l224.77,218.25c28.67,27.84,51.05,60.53,66.52,97.16,14.91,35.31,22.74,72.68,23.27,111.08s-6.26,75.97-20.2,111.68c-14.46,37.04-35.93,70.34-63.82,98.96-27.89,28.62-60.64,50.97-97.34,66.41-35.38,14.89-72.82,22.71-111.28,23.24-38.49.53-76.13-6.25-111.89-20.16-37.1-14.42-70.45-35.85-99.12-63.69l-11.2-10.88-10.9,11.18c-27.89,28.62-60.64,50.96-97.33,66.41-35.35,14.89-72.8,22.71-111.28,23.24-38.49.53-76.13-6.25-111.89-20.16-37.1-14.42-70.45-35.85-99.12-63.69-28.67-27.84-51.05-60.53-66.53-97.16-14.91-35.31-22.74-72.69-23.27-111.08-.53-38.4,6.26-75.97,20.2-111.67,14.46-37.05,35.93-70.34,63.82-98.96l322.37-330.82c27.34-28.06,63.99-43.81,103.2-44.35Z"/>
      <path class="cls-1" d="M2428.34,2251.2c38.8-.49,75.46,14.16,103.24,41.25,19.22,18.74,86.55,84.41,105.39,102.77l222.14,216.63c28.34,27.63,50.44,60.06,65.71,96.39,14.71,35.02,22.42,72.08,22.89,110.14.48,38.07-6.29,75.3-20.12,110.68-14.35,36.7-35.63,69.68-63.27,98.01-27.64,28.34-60.07,50.45-96.39,65.71-35.02,14.71-72.08,22.42-110.14,22.89-38.08.48-75.33-6.29-110.7-20.13-36.69-14.34-69.66-35.63-98-63.26l-11.07-10.8-10.8,11.07c-27.63,28.34-60.07,50.44-96.39,65.71-35,14.71-72.06,22.42-110.14,22.9-38.08.48-75.33-6.29-110.7-20.13-36.69-14.34-69.66-35.63-98-63.26-28.34-27.63-50.44-60.06-65.71-96.39-14.71-35.02-22.42-72.08-22.9-110.15-.48-38.06,6.29-75.3,20.12-110.68,14.35-36.7,35.64-69.68,63.27-98.02l319.39-327.53c27.09-27.78,63.37-43.34,102.17-43.83Z"/>
      <path class="cls-3" d="M2011.21,2830.15c-.34-26.7,4.41-52.81,14.1-77.6,10.05-25.7,24.97-48.8,44.35-68.67l319.39-327.53c22.14-22.71,58.5-23.16,81.21-1.02h0c22.71,22.14,23.16,58.5,1.02,81.21l-319.39,327.52c-16.97,17.4-26.14,40.35-25.83,64.64.31,24.3,10.05,47.01,27.45,63.97,35.91,35.02,93.6,34.3,128.62-1.61l173.98-178.41c21.13-21.67,50-34.05,80.26-34.43h0c30.45-.38,59.23,11.11,81.05,32.36,15.84,15.43,34.14,33.21,50.18,48.77,22.75,22.07,23.3,58.39,1.26,81.16h0c-22.08,22.8-58.46,23.37-81.24,1.27-15.91-15.43-34.03-33.04-49.81-48.4l-21.16,21.69,73.95,72.12c35.91,35.01,93.61,34.29,128.62-1.62,16.96-17.4,26.13-40.35,25.83-64.65-.31-24.29-10.05-47.01-27.44-63.97l-98.8-96.35c-45.12-44-117.36-43.09-161.35,2.03l-131.95,135.3c-22.14,22.71-58.5,23.16-81.21,1.02h0c-22.71-22.14-23.16-58.5-1.02-81.21l252.22-258.64c21.86-22.41,57.74-22.86,80.15-1.01l222.14,216.63c19.87,19.38,35.37,42.1,46.06,67.54,10.31,24.54,15.71,50.52,16.04,77.22.34,26.7-4.41,52.81-14.1,77.6-10.05,25.7-24.97,48.8-44.35,68.67-19.38,19.87-42.1,35.37-67.54,46.06-24.54,10.31-50.52,15.71-77.22,16.04-26.7.34-52.81-4.4-77.6-14.1-25.7-10.05-48.8-24.97-68.67-44.35l-73.95-72.12-72.12,73.95c-19.38,19.87-42.1,35.37-67.54,46.06-24.54,10.32-50.52,15.71-77.22,16.04-26.7.34-52.81-4.4-77.6-14.1-25.7-10.05-48.8-24.97-68.67-44.35-19.87-19.38-35.37-42.1-46.06-67.54-10.31-24.54-15.71-50.52-16.04-77.22Z"/>
    </g>
    <g>
      <path class="cls-8" d="M2301.5,2358.96c-39.21.05-76.09-15.15-103.85-42.79-19.21-19.13-86.5-86.13-105.32-104.87l-222.01-221.06c-28.32-28.2-50.29-61.16-65.3-97.98-14.47-35.5-21.83-72.96-21.88-111.36-.05-38.4,7.22-75.89,21.6-111.42,14.92-36.86,36.81-69.88,65.05-98.15,28.25-28.27,61.28-50.2,98.16-65.18,35.56-14.44,73.09-21.79,111.56-21.84,38.49-.05,76.05,7.21,111.63,21.56,36.91,14.89,69.99,36.73,98.31,64.93l11.07,11.02,11.04-11.05c28.25-28.27,61.28-50.2,98.16-65.18,35.54-14.44,73.08-21.79,111.56-21.84,38.49-.05,76.05,7.21,111.63,21.56,36.91,14.89,69.99,36.73,98.31,64.93,28.32,28.2,50.29,61.16,65.3,97.98,14.47,35.5,21.83,72.97,21.88,111.37.05,38.4-7.22,75.88-21.6,111.41-14.92,36.86-36.81,69.88-65.05,98.15l-326.5,326.74c-27.69,27.71-64.54,43-103.75,43.05Z"/>
      <path class="cls-5" d="M2301.28,2353.58c-38.8,0-75.28-15.11-102.71-42.54-18.98-18.98-85.48-85.49-104.09-104.09l-219.41-219.4c-27.99-27.99-49.68-60.69-64.49-97.21-14.27-35.21-21.51-72.35-21.51-110.42s7.24-75.22,21.51-110.42c14.81-36.52,36.51-69.23,64.49-97.21,27.99-27.99,60.7-49.69,97.21-64.49,35.21-14.27,72.35-21.51,110.42-21.51s75.24,7.24,110.43,21.51c36.51,14.8,69.21,36.5,97.2,64.49l10.94,10.94,10.93-10.94c27.99-27.99,60.69-49.69,97.21-64.49,35.18-14.27,72.34-21.51,110.42-21.51s75.24,7.24,110.43,21.51c36.51,14.8,69.21,36.5,97.2,64.49,27.99,27.99,49.69,60.69,64.49,97.21,14.27,35.21,21.51,72.36,21.51,110.42s-7.24,75.21-21.51,110.41c-14.81,36.52-36.51,69.23-64.49,97.21l-323.48,323.49c-27.44,27.44-63.91,42.55-102.71,42.55Z"/>
      <path class="cls-1" d="M2725.65,1779.92c0,26.7-5.07,52.75-15.07,77.42-10.37,25.57-25.58,48.48-45.21,68.11l-323.48,323.49c-22.43,22.43-58.79,22.43-81.22,0h0c-22.43-22.43-22.43-58.79,0-81.22l323.48-323.49c17.18-17.18,26.64-40.02,26.64-64.31s-9.46-47.14-26.64-64.31c-35.46-35.47-93.16-35.47-128.63,0l-176.21,176.21c-21.4,21.4-50.42,33.42-80.68,33.42h0c-30.45,0-59.09-11.85-80.64-33.37-15.65-15.63-33.72-33.63-49.56-49.4-22.47-22.35-22.57-58.68-.24-81.17h0c22.36-22.52,58.75-22.64,81.25-.25,15.71,15.63,33.61,33.46,49.19,49.03l21.43-21.43-73.04-73.04c-35.46-35.46-93.17-35.46-128.63,0-17.18,17.18-26.64,40.02-26.64,64.32s9.46,47.13,26.64,64.31l97.58,97.58c44.56,44.56,116.8,44.56,161.36,0l133.64-133.64c22.43-22.43,58.79-22.43,81.21,0h0c22.43,22.43,22.43,58.79,0,81.21l-255.45,255.46c-22.14,22.13-58.02,22.13-80.16,0l-219.4-219.4c-19.63-19.63-34.84-42.54-45.21-68.11-10-24.67-15.07-50.71-15.07-77.42s5.07-52.75,15.07-77.42c10.37-25.57,25.58-48.48,45.21-68.11,19.63-19.63,42.54-34.84,68.11-45.21,24.67-10,50.71-15.07,77.42-15.07s52.75,5.07,77.42,15.07c25.57,10.37,48.48,25.58,68.11,45.21l73.04,73.04,73.04-73.04c19.63-19.63,42.54-34.84,68.11-45.21,24.67-10.01,50.71-15.07,77.42-15.07s52.75,5.07,77.42,15.07c25.57,10.37,48.48,25.58,68.11,45.21,19.63,19.63,34.84,42.54,45.21,68.11,10,24.67,15.07,50.71,15.07,77.42Z"/>
    </g>
    <g>
      <path class="cls-10" d="M690.31,2499.21c-39.21.05-76.09-15.15-103.85-42.79-19.21-19.13-86.5-86.13-105.32-104.87l-222.01-221.06c-28.32-28.2-50.29-61.16-65.3-97.98-14.47-35.5-21.83-72.96-21.88-111.36-.05-38.4,7.22-75.89,21.6-111.42,14.92-36.86,36.81-69.88,65.05-98.15,28.25-28.27,61.28-50.2,98.16-65.18,35.56-14.44,73.09-21.79,111.56-21.84,38.49-.05,76.05,7.21,111.63,21.56,36.91,14.89,69.99,36.73,98.31,64.93l11.07,11.02,11.04-11.05c28.25-28.27,61.28-50.2,98.16-65.18,35.54-14.44,73.08-21.79,111.56-21.84,38.49-.05,76.05,7.21,111.63,21.56,36.91,14.89,69.99,36.73,98.31,64.93,28.32,28.2,50.29,61.16,65.3,97.98,14.47,35.5,21.83,72.97,21.88,111.37.05,38.4-7.22,75.88-21.6,111.41-14.92,36.86-36.81,69.88-65.05,98.15l-326.5,326.74c-27.69,27.71-64.54,43-103.75,43.05Z"/>
      <path class="cls-1" d="M690.09,2493.84c-38.8,0-75.28-15.11-102.71-42.54-18.98-18.98-85.48-85.49-104.09-104.09l-219.41-219.4c-27.99-27.99-49.68-60.69-64.49-97.21-14.27-35.21-21.51-72.35-21.51-110.42s7.24-75.22,21.51-110.42c14.81-36.52,36.51-69.23,64.49-97.21,27.99-27.99,60.7-49.69,97.21-64.49,35.21-14.27,72.35-21.51,110.42-21.51s75.24,7.24,110.43,21.51c36.51,14.8,69.21,36.5,97.2,64.49l10.94,10.94,10.93-10.94c27.99-27.99,60.69-49.69,97.21-64.49,35.18-14.27,72.34-21.51,110.42-21.51s75.24,7.24,110.43,21.51c36.51,14.8,69.21,36.5,97.2,64.49,27.99,27.99,49.69,60.69,64.49,97.21,14.27,35.21,21.51,72.36,21.51,110.42s-7.24,75.21-21.51,110.41c-14.81,36.52-36.51,69.23-64.49,97.21l-323.48,323.49c-27.44,27.44-63.91,42.55-102.71,42.55Z"/>
      <path class="cls-9" d="M1114.46,1920.17c0,26.7-5.07,52.75-15.07,77.42-10.37,25.57-25.58,48.48-45.21,68.11l-323.48,323.49c-22.43,22.43-58.79,22.43-81.22,0h0c-22.43-22.43-22.43-58.79,0-81.22l323.48-323.49c17.18-17.18,26.64-40.02,26.64-64.31s-9.46-47.14-26.64-64.31c-35.46-35.47-93.16-35.47-128.63,0l-176.21,176.21c-21.4,21.4-50.42,33.42-80.68,33.42h0c-30.45,0-59.09-11.85-80.64-33.37-15.65-15.63-33.72-33.63-49.56-49.4-22.47-22.35-22.57-58.68-.24-81.17h0c22.36-22.52,58.75-22.64,81.25-.25,15.71,15.63,33.61,33.46,49.19,49.03l21.43-21.43-73.04-73.04c-35.46-35.46-93.17-35.46-128.63,0-17.18,17.18-26.64,40.02-26.64,64.32s9.46,47.13,26.64,64.31l97.58,97.58c44.56,44.56,116.8,44.56,161.36,0l133.64-133.64c22.43-22.43,58.79-22.43,81.21,0h0c22.43,22.43,22.43,58.79,0,81.21l-255.45,255.46c-22.14,22.13-58.02,22.13-80.16,0l-219.4-219.4c-19.63-19.63-34.84-42.54-45.21-68.11-10-24.67-15.07-50.71-15.07-77.42s5.07-52.75,15.07-77.42c10.37-25.57,25.58-48.48,45.21-68.11,19.63-19.63,42.54-34.84,68.11-45.21,24.67-10,50.71-15.07,77.42-15.07s52.75,5.07,77.42,15.07c25.57,10.37,48.48,25.58,68.11,45.21l73.04,73.04,73.04-73.04c19.63-19.63,42.54-34.84,68.11-45.21,24.67-10.01,50.71-15.07,77.42-15.07s52.75,5.07,77.42,15.07c25.57,10.37,48.48,25.58,68.11,45.21,19.63,19.63,34.84,42.54,45.21,68.11,10,24.67,15.07,50.71,15.07,77.42Z"/>
    </g>
    <g>
      <path class="cls-10" d="M1372.24,1487.03c38.09-9.3,77.52-3.23,111.02,17.08,23.18,14.06,104.38,63.29,127.09,77.06l267.89,162.44c34.17,20.72,63.3,47.57,86.57,79.81,22.44,31.08,38.43,65.75,47.53,103.06,9.11,37.31,10.89,75.45,5.3,113.37-5.8,39.34-19.28,76.59-40.06,110.73-20.78,34.14-47.7,63.24-80.01,86.5-31.15,22.43-65.89,38.42-103.26,47.54-37.39,9.13-75.6,10.94-113.57,5.38-39.38-5.76-76.68-19.18-110.85-39.9l-13.35-8.1-8.12,13.34c-20.78,34.14-47.7,63.24-80.01,86.5-31.13,22.42-65.87,38.42-103.26,47.54-37.39,9.13-75.6,10.94-113.57,5.38-39.38-5.76-76.68-19.18-110.85-39.9-34.17-20.72-63.3-47.57-86.57-79.81-22.44-31.08-38.43-65.76-47.53-103.06-9.11-37.3-10.89-75.44-5.3-113.36,5.8-39.34,19.28-76.59,40.06-110.73l240.2-394.55c20.37-33.46,52.57-57.01,90.66-66.31Z"/>
      <path class="cls-1" d="M1373.72,1492.2c37.7-9.15,76.72-3.08,109.85,17.11,22.93,13.97,103.24,62.91,125.71,76.59l264.98,161.45c33.8,20.59,62.6,47.26,85.61,79.25,22.18,30.84,37.97,65.24,46.95,102.23,8.98,36.99,10.71,74.8,5.15,112.38-5.77,38.98-19.14,75.89-39.74,109.68-20.6,33.8-47.26,62.6-79.25,85.61-30.84,22.18-65.24,37.97-102.23,46.95-37.01,8.99-74.83,10.72-112.39,5.15-38.97-5.77-75.87-19.14-109.67-39.73l-13.21-8.05-8.05,13.21c-20.6,33.8-47.26,62.6-79.25,85.61-30.82,22.17-65.22,37.97-102.23,46.95-37.01,8.99-74.83,10.72-112.39,5.15-38.97-5.77-75.87-19.14-109.67-39.73-33.8-20.59-62.6-47.26-85.61-79.25-22.18-30.84-37.97-65.24-46.96-102.23-8.98-36.99-10.71-74.8-5.15-112.37,5.78-38.98,19.14-75.89,39.74-109.69l238.03-390.68c20.19-33.13,52.07-56.42,89.78-65.58Z"/>
      <path class="cls-4" d="M1096.68,2149.79c-6.3-25.95-7.52-52.45-3.62-78.79,4.04-27.29,13.42-53.15,27.86-76.85l238.03-390.68c16.5-27.09,51.84-35.67,78.92-19.16h0c27.09,16.5,35.66,51.84,19.16,78.92l-238.03,390.67c-12.64,20.75-16.45,45.18-10.71,68.78,5.73,23.61,20.31,43.57,41.06,56.21,42.83,26.1,98.9,12.49,125-30.34l129.66-212.81c15.75-25.84,41.11-44.37,70.52-51.51h0c29.59-7.18,60.22-2.42,86.23,13.41,18.89,11.5,40.7,24.73,59.82,36.31,27.11,16.42,35.78,51.69,19.38,78.82h0c-16.42,27.16-51.75,35.86-78.9,19.41-18.96-11.48-40.56-24.59-59.37-36.03l-15.77,25.88,88.21,53.75c42.83,26.09,98.91,12.48,125-30.35,12.64-20.75,16.44-45.18,10.71-68.79-5.73-23.61-20.31-43.57-41.06-56.21l-117.85-71.8c-53.81-32.79-124.02-15.74-156.81,38.07l-98.34,161.39c-16.5,27.08-51.84,35.66-78.92,19.16h0c-27.08-16.5-35.66-51.84-19.16-78.92l187.97-308.51c16.29-26.73,51.16-35.2,77.9-18.91l264.97,161.44c23.7,14.44,43.89,33.12,60,55.52,15.54,21.61,26.61,45.73,32.91,71.67,6.3,25.95,7.52,52.46,3.62,78.79-4.04,27.29-13.42,53.15-27.86,76.85-14.44,23.7-33.12,43.89-55.52,60-21.61,15.54-45.73,26.61-71.67,32.91-25.95,6.3-52.46,7.52-78.79,3.62-27.29-4.04-53.15-13.42-76.85-27.86l-88.21-53.75-53.75,88.21c-14.44,23.7-33.12,43.89-55.52,60-21.61,15.54-45.73,26.61-71.67,32.91-25.95,6.3-52.46,7.52-78.79,3.62-27.29-4.04-53.15-13.42-76.85-27.86-23.7-14.44-43.89-33.12-60-55.52-15.54-21.61-26.61-45.73-32.91-71.68Z"/>
    </g>
    <g>
      <path class="cls-6" d="M1798.48,2817.62c-38.99-4.15-74.03-23.21-98.67-53.67-17.05-21.08-76.77-94.9-93.48-115.55l-197.05-243.57c-25.14-31.07-43.45-66.2-54.43-104.41-10.58-36.84-13.89-74.88-9.82-113.07,4.07-38.19,15.31-74.68,33.41-108.46,18.78-35.05,44.08-65.54,75.19-90.62,31.12-25.08,66.3-43.35,104.58-54.29,36.9-10.55,75.01-13.84,113.26-9.76,38.27,4.08,74.84,15.31,108.68,33.4,35.1,18.75,65.65,44.02,90.79,75.09l9.82,12.14,12.16-9.8c31.12-25.08,66.3-43.35,104.58-54.29,36.88-10.55,74.99-13.84,113.26-9.76,38.27,4.08,74.84,15.31,108.68,33.4,35.1,18.75,65.65,44.02,90.79,75.09,25.14,31.07,43.45,66.2,54.43,104.41,10.58,36.84,13.89,74.88,9.82,113.07-4.07,38.18-15.31,74.67-33.41,108.46-18.78,35.05-44.08,65.54-75.19,90.62l-359.63,289.89c-30.5,24.59-68.77,35.84-107.76,31.69Z"/>
      <path class="cls-9" d="M1798.83,2812.25c-38.58-4.16-73.22-23.09-97.56-53.3-16.84-20.91-75.83-94.15-92.34-114.64l-194.64-241.65c-24.83-30.82-42.9-65.67-53.71-103.56-10.42-36.53-13.64-74.24-9.56-112.09,4.08-37.85,15.25-74.01,33.21-107.48,18.64-34.72,43.71-64.92,74.54-89.74,30.83-24.83,65.67-42.9,103.56-53.71,36.53-10.42,74.24-13.64,112.09-9.56,37.87,4.08,74.03,15.26,107.49,33.22,34.71,18.63,64.9,43.7,89.73,74.53l9.7,12.05,12.04-9.7c30.83-24.83,65.67-42.9,103.56-53.71,36.51-10.42,74.22-13.64,112.09-9.56,37.87,4.08,74.03,15.26,107.49,33.22,34.71,18.63,64.9,43.7,89.73,74.53,24.83,30.82,42.9,65.67,53.71,103.56,10.42,36.53,13.64,74.24,9.56,112.09-4.08,37.85-15.25,74.01-33.21,107.48-18.64,34.72-43.71,64.92-74.54,89.75l-356.27,286.98c-30.22,24.34-68.1,35.45-106.68,31.3Z"/>
      <path class="cls-1" d="M2282.21,2287.35c-2.86,26.55-10.69,51.9-23.28,75.36-13.05,24.31-30.62,45.46-52.24,62.88l-356.27,286.98c-24.7,19.9-60.85,16-80.75-8.7h0c-19.9-24.7-16-60.85,8.7-80.75l356.27-286.97c18.92-15.24,30.77-36.94,33.38-61.09,2.6-24.16-4.35-47.88-19.6-66.8-31.46-39.06-88.83-45.24-127.89-13.78l-194.07,156.32c-23.57,18.98-53.71,27.83-83.8,24.58h0c-30.28-3.26-57.48-18.11-76.6-41.82-13.88-17.22-29.92-37.05-43.99-54.42-19.94-24.63-16.15-60.76,8.46-80.72h0c24.65-20,60.84-16.21,80.81,8.45,13.95,17.23,29.84,36.87,43.66,54.01l23.6-19.01-64.8-80.44c-31.46-39.05-88.83-45.24-127.89-13.78-18.92,15.24-30.77,36.94-33.37,61.1-2.6,24.15,4.35,47.87,19.59,66.8l86.57,107.47c39.53,49.08,111.36,56.81,160.44,17.29l147.19-118.55c24.7-19.89,60.85-16,80.74,8.7h0c19.89,24.7,16,60.85-8.7,80.74l-281.35,226.62c-24.38,19.63-60.06,15.79-79.7-8.59l-194.63-241.64c-17.41-21.62-30.08-46.03-37.65-72.56-7.3-25.6-9.55-52.04-6.69-78.58,2.86-26.55,10.69-51.91,23.28-75.36,13.05-24.31,30.62-45.46,52.24-62.88,21.62-17.41,46.03-30.08,72.56-37.65,25.6-7.3,52.04-9.55,78.58-6.69,26.55,2.86,51.91,10.69,75.36,23.28,24.31,13.05,45.46,30.62,62.88,52.24l64.8,80.44,80.44-64.8c21.62-17.41,46.03-30.08,72.56-37.65,25.6-7.31,52.04-9.55,78.58-6.69,26.55,2.86,51.91,10.69,75.36,23.28,24.31,13.05,45.46,30.62,62.88,52.24,17.41,21.62,30.08,46.03,37.65,72.56,7.3,25.6,9.55,52.04,6.69,78.59Z"/>
    </g>
    <g>
      <path class="cls-2" d="M1048.63,1902.52c-36.55-14.19-65.4-41.74-81.24-77.57-10.95-24.8-49.33-111.66-60.06-135.95l-126.61-286.57c-16.15-36.56-24.65-75.25-25.27-115-.6-38.33,6.15-75.91,20.04-111.71,13.9-35.8,34.28-68.09,60.57-95.98,27.28-28.93,59.67-51.75,96.25-67.83,36.59-16.08,75.32-24.53,115.13-25.1,38.38-.55,76.02,6.23,111.88,20.15,35.88,13.93,68.24,34.32,96.19,60.62,28.99,27.27,51.88,59.64,68.03,96.19l6.31,14.28,14.29-6.28c36.59-16.08,75.32-24.53,115.13-25.1,38.36-.56,76,6.23,111.88,20.15,35.88,13.93,68.24,34.32,96.19,60.62,28.99,27.27,51.88,59.64,68.03,96.19,16.15,36.56,24.65,75.25,25.27,115,.6,38.33-6.15,75.91-20.05,111.71-13.9,35.8-34.27,68.09-60.57,95.97-27.28,28.93-59.67,51.75-96.25,67.84l-422.85,185.92c-35.86,15.77-75.75,16.64-112.3,2.45Z"/>
      <path class="cls-3" d="M1050.37,1897.43c-36.15-14.09-64.65-41.41-80.26-76.93-10.8-24.58-48.62-110.69-59.2-134.77l-124.78-284.09c-15.92-36.24-24.26-74.59-24.8-113.99-.52-37.99,6.22-75.23,20.04-110.69,13.82-35.47,34.05-67.46,60.13-95.08,27.06-28.65,59.15-51.25,95.38-67.17,36.24-15.92,74.59-24.26,113.99-24.8,37.98-.52,75.23,6.23,110.69,20.04,35.49,13.83,67.48,34.06,95.09,60.14,28.64,27.05,51.24,59.14,67.16,95.37l6.22,14.16,14.16-6.22c36.24-15.92,74.59-24.26,113.99-24.8,37.96-.53,75.21,6.22,110.69,20.04,35.49,13.83,67.48,34.06,95.09,60.14,28.64,27.05,51.24,59.14,67.16,95.37,15.92,36.24,24.26,74.59,24.8,113.99.52,37.99-6.23,75.23-20.05,110.7-13.82,35.47-34.05,67.45-60.13,95.07-27.06,28.65-59.15,51.25-95.39,67.17l-418.85,183.98c-35.52,15.6-75,16.44-111.15,2.35Z"/>
      <path class="cls-1" d="M1654.05,1516.97c-9.69,24.88-23.88,47.31-42.15,66.66-18.94,20.06-41.43,35.89-66.85,47.05l-418.85,183.98c-29.04,12.76-62.92-.45-75.68-29.48h0c-12.75-29.04.45-62.92,29.48-75.68l418.85-183.98c22.25-9.77,39.35-27.62,48.17-50.25,8.82-22.64,8.3-47.35-1.47-69.6-20.17-45.92-73.93-66.87-119.85-46.7l-228.16,100.22c-27.71,12.17-59.11,12.83-87.31,1.85h0c-28.37-11.06-50.76-32.49-63.02-60.37-8.9-20.25-19.21-43.58-28.25-64.02-12.82-28.99.27-62.87,29.24-75.71h0c29.01-12.87,62.96.23,75.8,29.26,8.96,20.27,19.17,43.38,28.04,63.54l27.74-12.19-41.54-94.57c-20.17-45.91-73.94-66.87-119.86-46.7-22.24,9.77-39.35,27.62-48.17,50.26-8.82,22.63-8.3,47.35,1.47,69.6l55.5,126.35c25.34,57.7,92.66,83.92,150.36,58.58l173.04-76c29.04-12.75,62.92.45,75.67,29.48h0c12.75,29.04-.45,62.92-29.48,75.67l-330.76,145.29c-28.66,12.59-62.1-.44-74.69-29.1l-124.78-284.08c-11.16-25.41-17.02-52.29-17.39-79.87-.36-26.62,4.37-52.73,14.06-77.61,9.7-24.88,23.88-47.31,42.15-66.67,18.94-20.06,41.43-35.89,66.85-47.05,25.41-11.16,52.29-17.02,79.87-17.39,26.62-.36,52.73,4.37,77.61,14.06,24.88,9.7,47.31,23.87,66.67,42.15,20.06,18.94,35.89,41.43,47.05,66.85l41.54,94.57,94.57-41.54c25.41-11.16,52.29-17.02,79.87-17.39,26.62-.37,52.73,4.37,77.61,14.06,24.88,9.7,47.31,23.87,66.67,42.15,20.06,18.94,35.89,41.43,47.05,66.85,11.16,25.41,17.02,52.29,17.39,79.87.36,26.62-4.37,52.73-14.06,77.61Z"/>
    </g>
    <g>
      <path class="cls-2" d="M1048.63,3241.51c-36.55-14.19-65.4-41.74-81.24-77.57-10.95-24.8-49.33-111.66-60.06-135.95l-126.61-286.57c-16.15-36.56-24.65-75.25-25.27-115-.6-38.33,6.15-75.91,20.04-111.71,13.9-35.8,34.28-68.09,60.57-95.98,27.28-28.93,59.67-51.75,96.25-67.83,36.59-16.08,75.32-24.53,115.13-25.1,38.38-.55,76.02,6.23,111.88,20.15,35.88,13.93,68.24,34.32,96.19,60.62,28.99,27.27,51.88,59.64,68.03,96.19l6.31,14.28,14.29-6.28c36.59-16.08,75.32-24.53,115.13-25.1,38.36-.56,76,6.23,111.88,20.15,35.88,13.93,68.24,34.32,96.19,60.62,28.99,27.27,51.88,59.64,68.03,96.19,16.15,36.56,24.65,75.25,25.27,115,.6,38.33-6.15,75.91-20.05,111.71-13.9,35.8-34.27,68.09-60.57,95.97-27.28,28.93-59.67,51.75-96.25,67.84l-422.85,185.92c-35.86,15.77-75.75,16.64-112.3,2.45Z"/>
      <path class="cls-3" d="M1050.37,3236.42c-36.15-14.09-64.65-41.41-80.26-76.93-10.8-24.58-48.62-110.69-59.2-134.77l-124.78-284.09c-15.92-36.24-24.26-74.59-24.8-113.99-.52-37.99,6.22-75.23,20.04-110.69,13.82-35.47,34.05-67.46,60.13-95.08,27.06-28.65,59.15-51.25,95.38-67.17,36.24-15.92,74.59-24.26,113.99-24.8,37.98-.52,75.23,6.23,110.69,20.04,35.49,13.83,67.48,34.06,95.09,60.14,28.64,27.05,51.24,59.14,67.16,95.37l6.22,14.16,14.16-6.22c36.24-15.92,74.59-24.26,113.99-24.8,37.96-.53,75.21,6.22,110.69,20.04,35.49,13.83,67.48,34.06,95.09,60.14,28.64,27.05,51.24,59.14,67.16,95.37,15.92,36.24,24.26,74.59,24.8,113.99.52,37.99-6.23,75.23-20.05,110.7-13.82,35.47-34.05,67.45-60.13,95.07-27.06,28.65-59.15,51.25-95.39,67.17l-418.85,183.98c-35.52,15.6-75,16.44-111.15,2.35Z"/>
      <path class="cls-1" d="M1654.05,2855.96c-9.69,24.88-23.88,47.31-42.15,66.66-18.94,20.06-41.43,35.89-66.85,47.05l-418.85,183.98c-29.04,12.76-62.92-.45-75.68-29.48h0c-12.75-29.04.45-62.92,29.48-75.68l418.85-183.98c22.25-9.77,39.35-27.62,48.17-50.25,8.82-22.64,8.3-47.35-1.47-69.6-20.17-45.92-73.93-66.87-119.85-46.7l-228.16,100.22c-27.71,12.17-59.11,12.83-87.31,1.85h0c-28.37-11.06-50.76-32.49-63.02-60.37-8.9-20.25-19.21-43.58-28.25-64.02-12.82-28.99.27-62.87,29.24-75.71h0c29.01-12.87,62.96.23,75.8,29.26,8.96,20.27,19.17,43.38,28.04,63.54l27.74-12.19-41.54-94.57c-20.17-45.91-73.94-66.87-119.86-46.7-22.24,9.77-39.35,27.62-48.17,50.26-8.82,22.63-8.3,47.35,1.47,69.6l55.5,126.35c25.34,57.7,92.66,83.92,150.36,58.58l173.04-76c29.04-12.75,62.92.45,75.67,29.48h0c12.75,29.04-.45,62.92-29.48,75.67l-330.76,145.29c-28.66,12.59-62.1-.44-74.69-29.1l-124.78-284.08c-11.16-25.41-17.02-52.29-17.39-79.87-.36-26.62,4.37-52.73,14.06-77.61,9.7-24.88,23.88-47.31,42.15-66.67,18.94-20.06,41.43-35.89,66.85-47.05,25.41-11.16,52.29-17.02,79.87-17.39,26.62-.36,52.73,4.37,77.61,14.06,24.88,9.7,47.31,23.87,66.67,42.15,20.06,18.94,35.89,41.43,47.05,66.85l41.54,94.57,94.57-41.54c25.41-11.16,52.29-17.02,79.87-17.39,26.62-.37,52.73,4.37,77.61,14.06,24.88,9.7,47.31,23.87,66.67,42.15,20.06,18.94,35.89,41.43,47.05,66.85,11.16,25.41,17.02,52.29,17.39,79.87.36,26.62-4.37,52.73-14.06,77.61Z"/>
    </g>
  </g>
</svg>