<?xml version="1.0" encoding="UTF-8"?>
<svg id="Camada_1" xmlns="http://www.w3.org/2000/svg" viewBox="0 0 2023.54 1384.57">
  <defs>
    <style>
      .cls-1 {
        fill: #a840f1;
      }
    </style>
  </defs>
  <g>
    <path class="cls-1" d="M667.26,717.46h28.21c12.7,0,24.97,4.62,34.53,13l76.09,66.73c4.38,3.84,11.24.73,11.24-5.09v-74.63h125.63v339.05c0,23.91-19.39,43.3-43.3,43.3h-27.32c-13.24,0-25.98-5.01-35.67-14.03l-75.68-70.42c-4.33-4.03-11.39-.96-11.39,4.96v79.49h-125.63v-339.05c0-23.91,19.39-43.3,43.3-43.3Z"/>
    <path class="cls-1" d="M1001.6,717.46h73.88c14.29,0,25.88,11.59,25.88,25.88v330.6c0,14.29-11.59,25.88-25.88,25.88h-73.88c-14.29,0-25.88-11.59-25.88-25.88v-330.6c0-14.29,11.59-25.88,25.88-25.88Z"/>
    <path class="cls-1" d="M1145.88,717.46c-9.51,0-17.21,7.71-17.21,17.21v135.73l153.41-18.97s-153.41,74.6-153.41,213.96v34.42h269c9.51,0,17.21-7.71,17.21-17.21v-135.73l-146.86,18.97s150.13-74.54,150.13-211.99v-36.39h-272.28Z"/>
    <path class="cls-1" d="M1445.46,717.46h293.32v117.98h-159.5c-6.03,0-10.92,4.89-10.92,10.92h0c0,6.03,4.89,10.92,10.92,10.92h102.42c27.9,0,50.53,22.62,50.53,50.53h0c0,27.9-22.62,50.53-50.53,50.53h-102.42c-6.03,0-10.92,4.89-10.92,10.92v1.64c0,6.03,4.89,10.92,10.92,10.92h158.4v117.98h-292.23v-382.35Z"/>
  </g>
  <g>
    <path class="cls-1" d="M448.63,578.63h0c-21.12,0-38.24,17.12-38.24,38.24v55.71h-125.63v-382.35h125.63v65c0,21.12,17.12,38.24,38.24,38.24h0c21.12,0,38.24-17.12,38.24-38.24v-65h125.63v382.35h-125.63v-55.71c0-21.12-17.12-38.24-38.24-38.24Z"/>
    <path class="cls-1" d="M967.53,530.56c0,26.22-3,48.61-9.01,67.19-6.01,18.57-15.57,33.87-28.68,45.88-13.11,12.02-29.96,20.76-50.53,26.22-20.58,5.46-45.43,8.19-74.56,8.19s-53.99-2.73-74.56-8.19c-20.58-5.46-37.33-14.11-50.25-25.95-12.93-11.83-22.39-27.12-28.4-45.88-6.01-18.75-9.01-41.24-9.01-67.46v-240.33h125.63v164.68c0,20.36,16.51,36.87,36.87,36.87h0c20.36,0,36.87-16.51,36.87-36.87v-164.68h125.63v240.33Z"/>
    <path class="cls-1" d="M1738.78,432.24v240.34h-107.51c-10.01,0-18.12-8.11-18.12-18.12v-21.75h-73.74v21.75c0,10.01-8.11,18.12-18.12,18.12h-107.51v-240.34c0-26.22,3.01-48.7,9.01-67.46,6.01-18.75,15.47-34.04,28.4-45.88,12.92-11.83,29.67-20.48,50.25-25.95,20.57-5.46,45.42-8.19,74.56-8.19s53.98,2.73,74.56,8.19c20.57,5.46,37.42,14.2,50.52,26.22,13.11,12.02,22.67,27.31,28.68,45.88,6.01,18.57,9.01,40.97,9.01,67.18ZM1559.62,490.69h33.32c11.16,0,20.21-9.05,20.21-20.21h0c0-11.16-9.05-20.21-20.21-20.21h-33.32c-11.16,0-20.21,9.05-20.21,20.21h0c0,11.16,9.05,20.21,20.21,20.21Z"/>
    <path class="cls-1" d="M1383.74,290.23v382.36h-125.64v-130.01l-39.6,56.32c-5.98,8.53-15.76,13.6-26.18,13.6h-6.07c-10.43,0-20.2-5.08-26.19-13.61l-36.87-52.48v126.18h-125.62v-382.36h127.39c6.76,12.71,36.57,65.93,61.3,65.93h6.07c23.62,0,54.94-51.11,63.51-65.93h127.9Z"/>
  </g>
  <path class="cls-1" d="M591.26,858.07c0,9.64-1.83,19.05-5.44,27.96-3.74,9.23-9.24,17.51-16.32,24.6l-116.82,116.82c-8.1,8.1-21.23,8.1-29.33,0h0c-8.1-8.1-8.1-21.23,0-29.33l116.82-116.82c6.2-6.2,9.62-14.45,9.62-23.22s-3.42-17.02-9.62-23.22c-12.81-12.81-33.64-12.81-46.45,0l-63.63,63.63c-7.73,7.73-18.21,12.07-29.14,12.07h0c-11,0-21.34-4.28-29.12-12.05-5.65-5.64-12.18-12.15-17.9-17.84-8.11-8.07-8.15-21.19-.09-29.31h0c8.08-8.13,21.22-8.18,29.34-.09,5.67,5.65,12.14,12.08,17.77,17.7l7.74-7.74-26.38-26.38c-12.81-12.8-33.65-12.81-46.45,0-6.2,6.2-9.62,14.45-9.62,23.23s3.42,17.02,9.62,23.22l35.24,35.24c16.09,16.09,42.18,16.09,58.27,0l48.26-48.26c8.1-8.1,21.23-8.1,29.33,0h0c8.1,8.1,8.1,21.23,0,29.33l-92.25,92.25c-7.99,7.99-20.95,7.99-28.95,0l-79.23-79.23c-7.09-7.09-12.58-15.36-16.32-24.6-3.61-8.91-5.44-18.31-5.44-27.96s1.83-19.05,5.44-27.96c3.74-9.23,9.24-17.51,16.32-24.6,7.09-7.09,15.36-12.58,24.6-16.32,8.91-3.61,18.31-5.44,27.96-5.44s19.05,1.83,27.96,5.44c9.23,3.74,17.51,9.24,24.6,16.32l26.38,26.38,26.38-26.38c7.09-7.09,15.36-12.58,24.6-16.32,8.91-3.61,18.31-5.44,27.96-5.44s19.05,1.83,27.96,5.44c9.23,3.74,17.51,9.24,24.6,16.32,7.09,7.09,12.58,15.36,16.32,24.6,3.61,8.91,5.44,18.31,5.44,27.96Z"/>
</svg>