<?xml version="1.0" encoding="UTF-8"?>
<svg id="Camada_1" xmlns="http://www.w3.org/2000/svg" viewBox="0 0 1406.8 1251.82">
  <defs>
    <style>
      .cls-1 {
        fill: #a840f1;
      }
    </style>
  </defs>
  <path class="cls-1" d="M1122.03,487.79c0,26.34-5,52.03-14.87,76.37-10.23,25.22-25.23,47.83-44.59,67.19l-319.11,319.12c-22.12,22.12-57.99,22.12-80.12,0h0c-22.12-22.12-22.12-57.99,0-80.12l319.11-319.11c16.95-16.95,26.28-39.48,26.28-63.44s-9.33-46.5-26.28-63.44c-34.98-34.99-91.9-34.99-126.89,0l-173.83,173.83c-21.11,21.11-49.74,32.97-79.59,32.97h0c-30.04,0-58.29-11.69-79.55-32.92-15.44-15.42-33.26-33.18-48.89-48.73-22.16-22.05-22.26-57.88-.24-80.07h0c22.06-22.22,57.96-22.33,80.15-.25,15.5,15.42,33.16,33.01,48.53,48.36l21.14-21.14-72.05-72.05c-34.98-34.98-91.91-34.98-126.89,0-16.95,16.95-26.27,39.48-26.27,63.45s9.33,46.49,26.27,63.44l96.26,96.26c43.96,43.96,115.23,43.96,159.18,0l131.83-131.83c22.12-22.12,57.99-22.12,80.11,0h0c22.12,22.12,22.12,57.99,0,80.11l-252,252c-21.84,21.83-57.24,21.83-79.08,0l-216.43-216.43c-19.36-19.36-34.37-41.97-44.59-67.19-9.87-24.33-14.87-50.03-14.87-76.37s5-52.04,14.87-76.37c10.23-25.22,25.23-47.83,44.59-67.19,19.36-19.36,41.97-34.37,67.19-44.59,24.33-9.87,50.03-14.87,76.37-14.87s52.04,5,76.37,14.87c25.22,10.23,47.83,25.23,67.19,44.59l72.05,72.05,72.05-72.05c19.36-19.36,41.97-34.37,67.19-44.59,24.33-9.87,50.03-14.87,76.37-14.87s52.04,5,76.37,14.87c25.22,10.23,47.83,25.23,67.19,44.59,19.36,19.36,34.37,41.97,44.59,67.19,9.87,24.33,14.87,50.03,14.87,76.37Z"/>
</svg>