<?xml version="1.0" encoding="UTF-8"?>
<svg id="Camada_1" xmlns="http://www.w3.org/2000/svg" viewBox="0 0 1576.92 1205.29">
  <defs>
    <style>
      .cls-1 {
        fill: #ff5459;
      }
    </style>
  </defs>
  <path class="cls-1" d="M1259.78,365.38c-17.02-8.2-37.21-4.67-50.44,8.55l-211.35,211.35c-4.48,4.49-17.17,20.28-17.17,43.77v122.98c0,32.09-26.02,58.11-58.11,58.11h-469.45c-32.09,0-58.11-26.02-58.11-58.11v-356.88h559.7c7.25,0,13.82,2.93,18.58,7.67,4.77,4.74,7.73,11.29,7.76,18.54.14,30.4,24.82,54.94,55.19,54.94h.25c30.48-.14,55.08-24.96,54.94-55.44l-.5-109.89c-.06-14.5-11.83-26.21-26.34-26.21H284.76v577.65c0,32.09,26.02,58.11,58.11,58.11h690.22c32.09,0,58.11-26.02,58.11-58.11v-121.98l118.23,117.55c8.44,8.4,19.71,12.85,31.16,12.85,5.71,0,11.47-1.11,16.95-3.39,16.48-6.85,27.22-22.94,27.22-40.79v-420.91c0-17.1-9.57-32.95-24.98-40.37ZM1196.41,720.44l-104.6-104,104.6-104.61v208.61Z"/>
</svg>