<?xml version="1.0" encoding="UTF-8"?>
<svg id="Camada_1" xmlns="http://www.w3.org/2000/svg" viewBox="0 0 1384.43 1384.43">
  <defs>
    <style>
      .cls-1 {
        fill: #ff9c19;
      }
    </style>
  </defs>
  <path class="cls-1" d="M1049.41,641.95h-235.84l183.43-183.43-71.08-71.08-183.43,183.43v-286.1h-100.53v286.1l-147.89-147.89c-19.63-19.63-51.46-19.63-71.08,0h0c-19.63,19.63-19.63,51.46,0,71.08l147.89,147.89h-235.84c-27.76,0-50.26,22.5-50.26,50.26h0c0,27.76,22.5,50.26,50.26,50.26h235.84l-183.43,183.43,71.08,71.08,183.43-183.43v286.1h100.53v-286.1l147.89,147.89c19.63,19.63,51.46,19.63,71.08,0h0c19.63-19.63,19.63-51.46,0-71.08l-147.89-147.89h235.84c27.76,0,50.26-22.5,50.26-50.26h0c0-27.76-22.5-50.26-50.26-50.26Z"/>
</svg>