<?xml version="1.0" encoding="UTF-8"?>
<svg id="Camada_1" xmlns="http://www.w3.org/2000/svg" viewBox="0 0 1407.49 2713.78">
  <defs>
    <style>
      .cls-1 {
        fill: #bf7513;
      }

      .cls-2 {
        fill: #ff9c19;
      }
    </style>
  </defs>
  <g>
    <path class="cls-1" d="M986.52,2026.44c-16.5,8.83-35.33,18.41-56.24,28.19-2.51,1.18-5.05,2.35-7.62,3.53-31.76,14.57-68.05,29.45-108.1,42.83-2.55.85-5.12,1.7-7.7,2.54-78.81,25.61-171.63,45.13-272.74,45.28-2.63,0-5.27-.01-7.9-.03-38.07-.32-77.26-3.42-117.31-9.99-2.61-.42-5.23-.86-7.85-1.32-10.95-1.92-21.96-4.09-33.03-6.54-40.61-8.99-78.35-20.89-113.21-34.59,186.94,47.46,303.74,17.63,377.7-22.37,60.77-32.85,101.78-77.69,150.14-102.13.2-.34.43-.65.7-.93,1-1.04,1.94-1.17,2.75-.77,22.73-10.94,47.19-17.28,76.15-15.72,62,3.34,92.24,38.79,124.26,72.02Z"/>
    <path class="cls-2" d="M986.52,2026.44c-32.02-33.23-62.26-68.68-124.26-72.02-28.96-1.56-53.42,4.78-76.15,15.72-.81-.4-1.75-.27-2.75.77-.27.28-.5.59-.7.93-48.36,24.44-89.37,69.28-150.14,102.13-73.96,40-190.76,69.83-377.7,22.37,32.07-151.86,48.61-275.31,57.64-355.8,29.6-264.03,15.12-394.81,87.59-579.09,30.21-76.81,65.5-137.46,92.88-179.13,6.97-3.5,12.57-8.94,17.3-15.46,77.04,25.41,159.33,33.01,239.68,21.37,17.68-2.57,35.21-6.05,52.55-10.39,4.04,9.72,9.25,18.82,15.6,27.11,38.85,102.88,59.36,191.54,71.06,258.69,33.31,191.27,8.3,284.44,41.37,476.9,20.8,121.07,29.11,218.09,56.03,285.9Z"/>
  </g>
  <g>
    <path class="cls-2" d="M786.11,1970.14c-1.15.55-2.3,1.12-3.45,1.7.2-.34.43-.65.7-.93,1-1.04,1.94-1.17,2.75-.77Z"/>
    <path class="cls-2" d="M818.06,1004.95c-6.35-8.29-11.56-17.39-15.6-27.11-17.34,4.34-34.87,7.82-52.55,10.39-80.35,11.64-162.64,4.04-239.68-21.37-4.73,6.52-10.33,11.96-17.3,15.46,5.89-8.98,11.42-17.07,16.45-24.26,32.24,10.26,73.2,20.05,121.21,24.04,71.39,5.94,131.35-3.16,173.36-13.13,4.96,12.17,9.66,24.17,14.11,35.98Z"/>
    <g>
      <path class="cls-1" d="M408.72,2121.15c2.6,2.84,2,8.22,1.34,11.63-1.85,9.72-3.71,19.44-5.57,29.16-8,41.83-16,83.67-23.99,125.5-1.79,9.38-3.59,18.77-5.38,28.15-.81,4.22-1.62,8.43-2.42,12.65-2.67-.16-5.35-.31-8.02-.44.81-4.24,1.62-8.48,2.44-12.72,7.09-37.16,14.2-74.33,21.31-111.5,5.06-26.46,10.12-52.92,15.17-79.38.5-2.58,2.7-5.71,5.12-3.05Z"/>
      <path class="cls-1" d="M423.72,2378.77c.4,2.38,1.05,5.03,2.61,6.93-2.5-.07-4.99-.2-7.49-.39-1.24-5.59-1.58-11.46-2.21-17.15,1.86.18,3.73.33,5.6.43.45,3.4.93,6.79,1.49,10.18Z"/>
      <path class="cls-1" d="M500.13,2364.06c-.84,1.95-2.13,3.59-4.25,4.63-2.86,1.41-5.69,2.89-8.55,4.31-9.17,4.53-18.71,7.77-28.46,9.84-8.41,1.79-16.97,2.73-25.58,2.89-1.83.04-3.67.04-5.52,0,.33-2.02-.29-5.35-.37-6.72-.09-1.59.4-6.24,2.8-6.37,23.06-1.32,45.94-4.38,68.53-9.17.57-.12,1.03.13,1.4.59Z"/>
    </g>
    <g>
      <path class="cls-1" d="M934,2370.71c-.03.5-.17,1.51-.29,2.67-1.23.34-2.47.67-3.71.99-.61.16-1.23.32-1.84.47-2.36.58-4.73,1.1-7.12,1.55-18.75-1.49-37.38-4.14-55.82-7.94-.03.84-.07,1.68-.1,2.52-.34-.1-.69-.2-1.03-.29-1.92-.52-2.85-2.33-3.23-4.21-.05-.21-.08-.43-.13-.64-.3-1.22-.6-2.44-.88-3.67h0c-3.35-14.22-5.78-28.73-8.71-43.02-6.58-32.04-13.16-64.09-19.74-96.14-7.58-36.88-15.15-73.77-22.73-110.65-.6-2.94-1.21-5.88-1.81-8.82-5.66-27.56-11.31-55.12-16.98-82.68-2.62-12.77-5.24-25.54-7.86-38.31-.59-2.88-1.1-7.79.64-10.7.2-.34.43-.65.7-.93,1-1.04,1.94-1.17,2.75-.77,1.18.58,2.05,2.27,2.37,3.82.04.21.08.43.13.64,3.81,15.38,6.4,31.17,9.58,46.69,5.46,26.56,10.92,53.13,16.37,79.7,1.13,5.48,2.25,10.96,3.38,16.44,7.57,36.88,15.15,73.77,22.72,110.65,6.26,30.5,12.53,61,18.79,91.5,2.38,11.6,4.76,23.2,7.15,34.8,5.73,1.64,11.39,3.48,17.21,4.75.04.01.08.02.12.02.5.12,1.01.22,1.51.32,3.11.62,6.25,1.06,9.4,1.32.01.01.03.01.05.01,12.05,1.66,24.16,2.84,36.31,3.54,2.39.13,2.9,4.69,2.8,6.37Z"/>
      <path class="cls-1" d="M945.68,2352.82c-.71,5.01-1.35,10.04-1.93,15.07-.1.88-.2,1.76-.3,2.64-2.09.63-4.18,1.26-6.27,1.86.5-1.97.74-4.04.98-6.24.42-3.82.87-7.66,1.37-11.48,2.05-.61,4.1-1.23,6.15-1.85Z"/>
      <path class="cls-1" d="M990.06,2319.2c-2.7.12-5.4.26-8.09.44-.85-4.17-1.7-8.35-2.57-12.52-2.59-12.51-5.28-25.01-8.03-37.49-15.56-70.63-33.19-140.83-48.71-211.47-5.85-26.63-11.4-53.33-16.42-80.14-.61-3.24-1.25-8.93,1.34-11.63,2.44-2.54,4.63.41,5.12,3.05,5.06,26.98,10.67,53.87,16.58,80.68.33,1.5.66,3.01,1,4.51,18.63,84.08,40.07,167.57,57.25,251.97.86,4.2,1.7,8.39,2.53,12.6Z"/>
    </g>
    <path class="cls-1" d="M1055.23,838.2c-.05-2.68-.59-5.3-1.22-6.52-17.02-32.93-38.87-63.34-64.98-89.69-32.83-33.13-71.84-59.27-114.73-76.9-1.97-.82-3.96-1.61-5.95-2.39-.76,2.83-1.55,5.65-2.35,8.46-.67,2.34-1.35,4.68-2.06,7.01,2.03.75,4.05,1.53,6.07,2.34,14.58,5.78,28.78,12.59,42.47,20.41,43.47,24.8,80.9,59.21,109.96,99.89,7.29,10.19,14.04,20.76,20.21,31.66-34.22,13.66-66.06,33.21-93.67,57.62-20.38,18.02-38,38.82-54.83,60.13-10.38,13.15-20.71,26.84-27.87,42.08-4.37,9.3-6.85,19.08-8.79,29.06-8.2-5.28-16.21-10.77-23.4-17.43-12.27-11.36-21.45-25.42-27.49-40.97-.27-.68-1.51-2.77-2.65-2.49-76.76,19.41-157.52,21.38-235.07,5.21-19.79-4.13-39.33-9.41-58.5-15.81-1.19-.4-2.1-.29-2.88.85-6.1,8.84-13.81,15.82-24.58,18.03-7.38,1.51-15.01,1.46-22.56,1.61.09-.31.19-.61.28-.92,2.07-6.86,3.32-13.89,3.65-21.05,1.07-22.69-7.25-45.02-16.99-65.1-13.39-27.58-30.6-52.61-52.92-73.72-16.76-15.85-35.84-29.18-56.36-39.69-3.91-2-7.87-3.9-11.88-5.69-.74-.34-1.48-.66-2.23-.98-4.14-1.8-8.33-3.49-12.56-5.04,27.9-22.85,58.18-42.78,90.27-59.28,49.31-25.34,102.71-42.29,157.58-50.03,1.88-.27,3.75-.52,5.63-.76-.26-5.1-.45-10.18-.58-15.22-.02-.56-.03-1.11-.04-1.67-1.87.24-3.73.49-5.6.76-22.17,3.13-44.13,7.74-65.71,13.85-52.36,14.81-102.14,38.07-147.12,68.7-17.41,11.86-34.07,24.79-49.9,38.68-1.03.14-1.87,1.49-2.41,3.38-.87,2.34-.89,5.13-.6,7.43.03.27.14.79.31,1.43,0,.01,0,.02.01.04.21,1,.52,1.92.95,2.69.01.02.02.04.03.06.66,1.39,1.55,2.48,2.62,2.12,4,1.18,8.01,2.5,12.02,3.96,5.22,1.89,10.42,4,15.59,6.32,20.18,9.05,39.67,21.19,56.48,35.13,20.76,17.23,38.45,38.23,51.76,61.7,7.31,12.9,14.06,26.39,18.91,40.43,1.67,4.85,3.09,9.82,4.1,14.86.3,1.5.58,3.27.8,5.04.13,1.02.23,2.04.32,3.06.05.5.07.6.08.6,0,.08,0,.3.02.86.03,1.04.05,2.08.04,3.12,0,.31-.04,1.12-.06,1.71,0,.2-.01.37-.01.49-.05.5-.16,1.72-.18,1.97-.09.77-.19,1.54-.3,2.31-.04.31-.16.97-.23,1.38-.01.04-.01.06-.02.08,0,.02,0,.03-.01.05,0,.03,0,.05-.01.07-.01.03-.02.06-.02.09-.12.6-.25,1.19-.39,1.78-.33,1.4-.71,2.79-1.11,4.17-1.02,3.52-2.26,6.99-3.28,10.52-.45,1.57-.86,3.17-1.18,4.78-.45,2.31-1.45,13.07,3.23,12.79,10.5-.64,21.44.26,31.72-2.36,2.81-.72,5.42-1.71,7.87-2.94,6.97-3.5,12.57-8.94,17.3-15.46,77.04,25.41,159.33,33.01,239.68,21.37,17.68-2.57,35.21-6.05,52.55-10.39,4.04,9.72,9.25,18.82,15.6,27.11,3.7,4.86,7.8,9.43,12.27,13.7,8.61,8.21,18.33,14.75,28.32,21.12,3.05,1.94,4.35-4.46,4.6-5.94.24-1.38.48-2.77.73-4.15.08-.43.15-.86.23-1.28v-.02s0-.03,0-.05c.01-.03.02-.08.03-.15.01-.04.02-.09.03-.13.04-.23.09-.49.12-.63.49-2.52,1.02-5.04,1.64-7.53.68-2.74,1.22-4.74,1.88-6.69.66-2,1.45-3.94,2.6-6.57,6.12-13.95,15.47-26.4,24.77-38.36,16.3-20.98,33.43-41.71,53.18-59.55,17.04-15.4,35.76-28.93,55.7-40.33,4.7-2.69,9.47-5.26,14.31-7.71,3.07-1.56,6.17-3.07,9.29-4.53,7.15-3.33,14.42-6.41,21.8-9.21.93-.36,1.86-.71,2.79-1.05,2.25-.83,2.95-4.31,2.87-7.69ZM663.54,712.31c28.86,8.86,59.89-3.19,78.71-25.92.7-.84,1.37-1.69,2.04-2.56h0c2-2.62,3.84-5.34,5.52-8.16-.09-7.21-.17-14.42-.26-21.63-1.57,3.44-3.43,6.88-5.49,10.07h0c-.26.42-.53.82-.8,1.22-6.85,10.12-15.86,18.23-26.51,24.17-11.73,6.55-24.79,9.71-38.22,8.51-4.66-.42-9.88-1.11-14.69-2.66-1.91-.61-3.76-1.36-5.48-2.28-.1,5.67-.21,11.34-.35,17.01,1.7.87,3.53,1.61,5.49,2.22.01,0,.03.01.04.01ZM658.96,627.81h-.04c-.01,2.7-.03,5.39-.05,8.09-.03,3.52-.05,7.03-.07,10.55.69-.98,1.38-1.91,2.05-2.8,2.1-2.78,3.63-15.52-1.89-15.84ZM749.55,654.04c-1.57,3.44-3.43,6.88-5.49,10.07h0c-.26.42-.53.82-.8,1.22-6.85,10.12-15.86,18.23-26.51,24.17-11.73,6.55-24.79,9.71-38.22,8.51-4.66-.42-9.88-1.11-14.69-2.66-.09,5.34-.19,10.68-.32,16.02-.01.31-.01.62-.02.93.01,0,.03.01.04.01,28.86,8.86,59.89-3.19,78.71-25.92.7-.84,1.37-1.69,2.04-2.56h0c2-2.62,3.84-5.34,5.52-8.16-.09-7.21-.17-14.42-.26-21.63Z"/>
    <path class="cls-1" d="M458.44,945.74c-42.24,37.61-92.74,67.97-148.13,81.18-43.34,10.33-91.62,10.36-131.7-11.19-40.2-21.61-62.6-61.9-72.74-105.12-9.04-38.5-9.36-78.43-8.54-117.77,1.14-54.77,13.63-108.9,34.82-159.33,17.44-41.5,40.51-80.46,67.59-116.38,10.27-13.63,21.12-26.82,32.48-39.56,4.47-5.01,9.03-9.95,13.66-14.82.96-1.01,2.15-1.99,2.98-3.11,2.36-3.19,2.86-8.04,3.89-11.84,2.23-8.15,4.47-16.3,6.75-24.43,12.39-44.37,25.01-88.92,41.07-132.13,4.18-11.26,8.59-22.51,13.98-33.26.9-1.79,1.83-3.56,2.81-5.31-.53.95.33-.58.77-1.29s.89-1.45,1.36-2.16c.77-1.17,1.58-2.33,2.46-3.42.48-.59,2.21-2.44,1.81-2.07-.48.45,1.2-.9,1.69-1.26.93-.68,1.59-.56.94-.52,3.38-.19,4.64,2.97,5.72,6.04,3.88,11.05,3.86,24.08,3,35.6-1.12,14.92-4.78,29.34-11.38,42.78-4.81,9.78-11.09,18.76-18.25,26.97,1.26,4.89,2.52,9.79,3.78,14.68,18.63-24.97,44.04-48.63,76.14-53.1,3.54-.49,7.74-.96,11.21.2,1.11.37,3.76,2.84,3.16.66.27.98-.77,3.18-.97,3.76-1.87,5.43-5.8,10.86-9.57,15.52-10.61,13.12-23.65,24.24-36.79,34.74-11.4,9.11-23.2,17.71-35.24,25.94.66,5.46,1.33,10.93,1.99,16.39,16.9-13.32,34.09-26.42,52.28-37.95,7.12-4.51,14.43-8.85,22.12-12.32,4.98-2.24,10.63-4.65,16.23-4.3,1.77.11,3.07.57,4.46,1.69-.7-.56-.05.17-.13-.3.28,1.55.12,2.64-.13,4.22-.97,6.09-4.05,11.77-7.55,16.78-8.25,11.81-19.6,21.18-31.38,29.29-8.59,5.91-17.62,11.25-26.99,15.85.66,5.46,1.33,10.93,1.99,16.39,12.49-7.54,25.22-14.75,38.45-20.91,8.58-4,17.8-8.28,27.28-9.51,2.21-.29,4.89-.53,6.89.29.15.06,1.03.74,1.12.72-.13.03-.33.13-.44-.54-.2-1.18-.58-2.15-.63-3.39.11-1.42.11-1.65,0-.7.22-1.1.23-1.21.03-.33-.41,1.46-.17.85-.99,2.76-.63,1.47-1.34,2.9-2.1,4.3-1.83,3.39-3.99,6.62-6.18,9.79-8.48,12.25-18.19,23.7-28.2,34.73-.83.91-1.87,1.8-2.58,2.81-2.33,3.32-2.05,7.87-1.34,11.63.1.53.27,1.75-.09-.54.12.8.26,1.59.37,2.4.43,3.31.58,5.58.3,9.54-.43,6-2.02,11.84-4.56,17.29-8.86,19.04-29.18,31.57-49.96,32.7-1.94.11-2.87,2.68-3.23,4.21-7.39,31.12-14.77,62.24-22.16,93.36-11.67,49.17-23.34,98.34-35.01,147.52-2.68,11.28-5.36,22.57-8.03,33.85-.42,1.78-.29,15.83,4.22,12.49,20.7-15.34,41.41-30.68,62.11-46.02,2.9-2.15,3.01-7.23,2.61-10.46-.19-1.51-1.74-8.06-4.6-5.94-20.7,15.34-41.41,30.68-62.11,46.02,1.41,4.16,2.82,8.32,4.22,12.49,7.39-31.12,14.77-62.24,22.16-93.36,11.67-49.17,23.34-98.34,35.01-147.52,2.68-11.28,5.36-22.57,8.03-33.85l-3.23,4.21c17.68-.96,34.99-9.75,46.25-23.35,14.41-17.4,18.64-41.8,14.15-63.61-.45,3.88-.89,7.75-1.34,11.63,13.1-14.05,26.16-29.04,35.98-45.6,5.25-8.85,10.7-20.54,6.24-30.87-4.04-9.34-16.24-5.37-23.54-3.03-20.18,6.46-39.06,17.51-57.1,28.41-4.2,2.54-3.22,18.95,1.99,16.39,23.21-11.4,48.02-27.42,62.02-49.67,4.46-7.09,7.63-14.78,8.95-23.07,1.2-7.55,1.82-18.64-3.67-24.8-8.45-9.49-27.33,1.94-35.41,6.4-23.06,12.71-44.15,29.15-64.78,45.4-3.89,3.07-2.45,19.43,1.99,16.39,12.21-8.36,24.18-17.08,35.73-26.34,14.51-11.63,29.23-24.12,40.44-39.07,4.44-5.92,8.05-12.31,10.15-19.43,2.62-8.85,3.73-24.44-6.91-28.58-7.69-2.98-16.91-.42-24.49,1.7-5.45,1.53-10.74,3.43-15.84,5.89-21.45,10.36-38.7,28.16-52.78,47.02-2.27,3.04-2.32,8.11-1.34,11.63.67,2.4,2.62,5.91,5.12,3.05,18.38-21.07,29.46-47.05,32.58-74.81,1.67-14.85,1.62-30.14-1.12-44.86-1.29-6.93-3.53-20.01-11.23-23.03-4.36-1.7-8.22,2.14-10.79,5.17-5.07,5.97-8.59,13.46-11.87,20.51-15.16,32.56-25.49,67.63-35.87,101.92-9.04,29.89-17.5,59.96-25.71,90.09-.23.86-.36,2.08-.78,2.86.14-.26.85-1.35-.08-.2-.41.51-.92.96-1.37,1.43-1.2,1.25-2.39,2.51-3.58,3.78-2.33,2.48-4.64,4.97-6.93,7.49-5.46,6-10.8,12.1-16.02,18.3-27.77,33.01-52.12,68.93-72,107.22-25.38,48.89-42.99,101.86-50.54,156.47-3.49,25.25-4.35,50.66-4.38,76.12-.03,21.35.72,42.75,3.16,63.97,5.28,45.77,18.66,94.32,52.08,127.85,32.98,33.08,79.84,44.98,125.51,41.84,55.38-3.81,108.61-27.21,153.58-58.91,12.73-8.97,24.88-18.72,36.51-29.08,2.77-2.46,3.04-6.99,2.61-10.46-.16-1.27-1.93-8.32-4.6-5.94h0Z"/>
    <path class="cls-1" d="M861.61,1024.5c24.25,32.75,53.63,63.48,88.21,85.35,20.48,12.96,43.73,22.87,68.12,24.69,16.74,1.25,33.43-1.7,49.18-7.33,33.89-12.12,62.4-36.67,85.05-64.1,29.48-35.69,50.27-78.02,64.82-121.77,18.1-54.43,26.12-112.07,26.6-169.32.07-7.92-.03-15.83-.25-23.75-.92,2.73-1.83,5.46-2.75,8.2,18.09-6.79,34.12-18.9,45.67-34.39,11.86-15.91,19.72-35.02,25.22-53.97,4.62-15.92,8.92-34.87,4.66-51.34-1.18-4.57-3.71-10.58-8.91-11.68-2.75-.58-5.63.67-8.04,1.94-6.13,3.24-11.22,8.7-15.53,14.02-8.27,10.2-14.55,22.01-20.09,33.85l5.87,10.3c4.68-14.43,10.06-28.64,14.47-43.16,2.98-9.8,6.31-21.32,3.06-31.46-5.93-18.49-29.68,4.15-36.5,10.55-5.69,5.33-11.32,10.88-16.33,16.87,1.26,4.89,2.52,9.79,3.78,14.68,27.89-33.93,48.35-73.1,58.11-116.01,2.07-9.1,3.94-18.57,3.54-27.94-.25-5.87-1.68-17.52-10.03-16.53-7.96.95-15.25,9.84-20.32,15.22-5.49,5.83-10.7,11.97-15.57,18.33-16.64,21.74-28.52,46.55-36.88,72.54,2.32,1.43,4.65,2.86,6.97,4.29-.46-28.49-1.81-57.53-8.27-85.38-2.66-11.45-6.47-28.07-16.93-35.28-7.18-4.95-14.08.53-17.92,6.81-6.91,11.3-9.16,25.45-10.02,38.44-1.91,28.83,3.8,58.17,9.59,86.26,1.08-4.26,2.15-8.53,3.23-12.79-24.88,4.56-46.74,19.37-61.13,40.1-17.1,24.63-15.88,57.35,2.46,80.93,5.18,6.66,11.51,12.86,18.53,17.58l-.89-15.54c-36.52,56.36-73.05,112.72-109.57,169.07,1.51.44,3.02.89,4.53,1.33-4.75-8.91-9.5-17.82-14.25-26.73-1.56-2.92-3.76-3.04-5.29,0-1.59,3.15-1.69,8.85,0,12.02,4.75,8.91,9.5,17.82,14.25,26.73.91,1.7,2.95,3.78,4.53,1.33,36.52-56.36,73.05-112.72,109.57-169.07,2.35-3.62,3.35-12.69-.89-15.54-12.33-8.28-23.69-21.53-26.99-36.23-5.15-22.88,16.31-45.34,33.92-56.64,9.51-6.11,20.12-10.32,31.23-12.35,4.71-.86,3.89-9.6,3.23-12.79-3.06-14.82-5.52-29.75-7.38-44.77-1.13-9.13-1.72-15.24-1.57-24.22.07-4.34.07-4.67.53-9.13.16-1.57.35-3.14.58-4.71.1-.7.21-1.39.32-2.08.05-.34.11-.68.17-1.02.22-1.25-.38,1.81.06-.29.54-2.66,1.2-5.28,1.97-7.88.35-1.2.23-.74.22-.72.18-.52.37-1.03.57-1.54.44-1.12.9-2.23,1.41-3.31.24-.51,1.61-2.96.88-1.77.51-.84,1.04-1.67,1.64-2.45,1.46-1.91,1.13-1.73,2.77-2.78,2.1-1.34,4.34-1.66,6.03-.85,3.27,1.56,5.06,4.12,6.75,7.07,2.71,4.74,4.68,10.79,6.18,16.39,7.06,26.43,8.05,54.61,8.49,81.8.04,2.17.29,7,2.75,8.2s3.66-2.16,4.22-3.91c6.7-20.83,16.14-40.82,28.63-58.81,8.59-12.37,18.73-25.72,30.75-34.94,2.08-1.59,5.11-4.1,7.93-4.02.77.02,1.4.46,1.59.49,0,0-.07-.71.03.53-.14-1.66,0,1.4,0,1.38-.1,3.22.08-.65-.05,1.3-.12,1.83-.37,3.66-.64,5.47-.53,3.67-1.3,7.29-2.14,10.89-3.37,14.48-7.88,28.66-13.78,42.31-10.43,24.12-24.73,46.24-41.4,66.52-2.37,2.88-2.28,8.23-1.34,11.63.65,2.33,2.66,5.99,5.12,3.05,4.59-5.49,9.71-10.64,14.94-15.52,6.4-5.97,14.42-14.04,23.15-16.38,1.35-.36,2.65-.39,4.02-.31.35.02,1.09.79,1.35.76-.4.05-.34-.29-.41-.62-.16-.5-.23-1-.22-1.52-.02.98-.01,1.05.03.21-.19.91-.2,1.87-.36,2.79-.43,2.51-1.14,5.02-1.83,7.49-4.45,15.9-10.52,31.34-15.61,47.04-1.03,3.18-.85,8.09.96,10.97,1.6,2.53,3.65,2.02,4.91-.66,6.83-14.6,15.21-31.33,28.6-41.12,2.39-1.75,5.57-3.82,7.81-3.88,2.78-.07,3.77,1.29,4.41,3.29-.54-1.68.51,2.9.19.93.08.51.16,1.03.2,1.54.2,2.58,0-.98.07.64.18,3.64.02,5.37-.37,8.82-.86,7.6-2.61,15.05-4.74,22.39-4.68,16.12-11.43,32.25-21.17,46-11.2,15.8-27.15,27.76-45.25,34.56-2.34.88-2.8,6.28-2.75,8.2,1.57,56.4-4.24,113.06-20,167.34-12.68,43.7-31.9,86.07-59.35,122.52-21.31,28.3-48.13,53.7-80.74,68.38-13.69,6.16-28.31,10.18-43.32,11.12-23.3,1.46-46-5.26-66.49-15.98-37.64-19.71-68.95-51.04-94.86-84.29-1.94-2.49-3.85-5-5.72-7.54-2.29-3.09-4.52.92-5.12,3.05-.97,3.46-.9,8.6,1.34,11.63h0Z"/>
    <path class="cls-1" d="M1208.56,2485.17c-11.5-.02-23-.04-34.51-.06-27.8-.05-55.61-.1-83.41-.14-33.5-.06-67-.12-100.5-.17-29.12-.05-58.25-.1-87.37-.15-9.56-.02-19.13-.03-28.69-.05-4.3,0-9.45-.79-13.71-.02-.2.04-.43,0-.63,0-3.93,0-3.97,12.74,0,12.75,11.5.02,23,.04,34.51.06,27.8.05,55.61.1,83.41.14,33.5.06,67,.12,100.5.17,29.12.05,58.25.1,87.37.15l28.69.05c4.3,0,9.45.79,13.71.02.2-.04.43,0,.63,0,3.93,0,3.97-12.74,0-12.75h0Z"/>
    <path class="cls-1" d="M150.88,2506.89c11.5-.02,23-.04,34.51-.06,27.8-.05,55.61-.1,83.41-.14,33.5-.06,67-.12,100.5-.17,29.12-.05,58.25-.1,87.37-.15,9.56-.02,19.13-.03,28.69-.05,4.31,0,9.45.76,13.71-.02.2-.04.43,0,.63,0,3.94,0,3.97-12.76,0-12.75-11.5.02-23,.04-34.51.06-27.8.05-55.61.1-83.41.14-33.5.06-67,.12-100.5.17-29.12.05-58.25.1-87.37.15-9.56.02-19.13.03-28.69.05-4.31,0-9.45-.76-13.71.02-.2.04-.43,0-.63,0-3.94,0-3.97,12.76,0,12.75h0Z"/>
    <path class="cls-1" d="M1232.32,2467.35c-5.65-16.3-19.55-29.06-33.81-38.08-30.7-19.42-68.69-26.17-104.21-30.16-20.29-2.28-40.69-3.44-61.09-4.25,2.3-7.71,8.31-14.69,10.59-22.36,2.6-8.71,1.52-16.68-.43-25.35-2.03-9.05-4.59-17.99-7.34-26.85-1.27-4.08-2.52-13.74-7.58-14.33-6.42-.75-13.18-.28-19.62-.15-7.1.13-14.21.39-21.3.78-2.5.14-4.99.3-7.48.47-.22.02-.43.03-.65.05-8.16.56-16.44,1.19-24.45,2.88-2.41.51-5.79.89-7.28,2.99-1.86,2.61-2.31,7.12-2.94,10.15-2.17,10.42-3.84,20.96-5.2,31.53-.5,3.82-.95,7.66-1.37,11.48-.24,2.2-.48,4.27-.98,6.24-.47,1.85-1.17,3.61-2.34,5.35-.38.56-.87.5-.95.59-.48-1.01-.36-3.15-.18-4.95.12-1.16.26-2.17.29-2.67.1-1.68-.41-6.24-2.8-6.37-12.15-.7-24.26-1.88-36.31-3.54-.02,0-.04,0-.05-.01-3.64-.5-7.28-1.04-10.91-1.64-.04,0-.08-.01-.12-.02-7.07-1.15-14.12-2.47-21.14-3.96-2.36-.5-2.77,5.38-2.8,6.38-.01.2-.02.4-.02.6h0c-1.63,42.94-3.24,85.86-4.86,128.78-.45,11.8-.9,23.59-1.34,35.38-.06,1.59.4,6.37,2.8,6.37,96.06.37,192.1-1.36,288.15-1.92,28.31-.17,56.62-.22,84.92-.11.62,0,1.14-.31,1.56-.84,0-.01.01-.01.01-.02.07-.09.15-.19.22-.3.05-.08.1-.16.14-.25.02-.02.03-.05.04-.08.07-.11.12-.23.17-.35.92-2.04,1.07-5.38.44-7.82-.43-7.89,1.94-15.97,2.78-23.75,1.09-10.04.78-20.28-2.56-29.89ZM1229.04,2497.36c-.94,6.87-2.21,13.66-2.46,20.53-95.07-.31-190.14,1.39-285.21,1.94-27.28.15-54.58.21-81.87.11,1.68-44.44,3.36-88.88,5.03-133.32.2-5.22.4-10.44.59-15.65.03-.84.07-1.68.1-2.52,18.44,3.8,37.07,6.45,55.82,7.94,2.35.19,4.71.36,7.07.51-.05,4.81.5,10.15,3.51,12.97,3.01,2.83,5.88-.57,7.45-3.23,2.9-4.91,3.74-10.53,4.38-16.11.1-.88.2-1.76.3-2.64.58-5.03,1.22-10.06,1.93-15.07.59-4.17,1.23-8.33,1.92-12.49.91-5.51,1.68-11.27,3.34-16.65.15-.05.37-.1.68-.11.68-.02,1.63-.44,2.3-.6,2.32-.53,4.67-.91,7.02-1.25,6.96-1,13.99-1.64,21.03-2.08,2.69-.18,5.39-.32,8.09-.44,2.81-.13,5.61-.24,8.41-.34,9.85-.36,20.24-1.23,30.11-.14,1.75,4.35,2.94,9.01,4.26,13.47,2.32,7.85,4.56,15.76,6.21,23.78.26,1.29.51,2.58.69,3.88.07.52.08,1.06.19,1.57-.13.74-.36,2.35-.41,2.57-.31,1.37-.73,2.69-1.24,4-.83,2.16-1.92,4.23-3.04,6.25-4.87,8.75-8.74,16.53-8.56,26.84.03,1.66.33,6.28,2.8,6.38,36.21,1.38,72.74,3.51,108.21,11.42,31.02,6.92,66.63,19.25,85.38,46.79,6.66,9.79,7.52,20.29,5.97,31.69Z"/>
    <g>
      <path class="cls-1" d="M507.75,2534.61c-1.76-46.56-3.51-93.13-5.27-139.69-.32-8.36-.63-16.72-.95-25.07-.03-.89-.27-4.36-1.4-5.79-.37-.46-.83-.71-1.4-.59-22.59,4.79-45.47,7.85-68.53,9.17-2.4.13-2.89,4.78-2.8,6.37.08,1.37.7,4.7.37,6.72,1.85.04,3.69.04,5.52,0,0-.18,0-.36-.01-.53,8.56-.54,17.09-1.33,25.59-2.36,12.51-1.51,24.95-3.54,37.31-6.09,1.54,40.83,3.08,81.66,4.62,122.48.37,9.68.74,19.34,1.1,29.01-95.04.32-190.07-1.38-285.1-1.93-27.36-.16-54.7-.22-82.06-.12-.74-14.99-6.42-30.23-.54-44.61,6.14-15.02,20.83-26.43,34.48-34.31,30.69-17.72,67.33-23.84,102.1-27.51,20.32-2.15,40.73-3.23,61.14-4,2.47-.1,2.77-4.82,2.8-6.38.18-10.03-3.44-17.78-8.24-26.28-2.36-4.17-4.25-8.35-4.98-13.09.1.34.06-.53-.03-.21v-.02h0c.06-.55.12-1.09.19-1.63.18-1.3.43-2.59.7-3.88,1.61-7.84,3.79-15.58,6.05-23.26,1.36-4.63,2.6-9.47,4.41-13.99,8.14-.82,16.76.1,24.88.45,2.33.1,4.65.21,6.98.33,2.67.13,5.35.28,8.02.44,7.77.46,15.53,1.04,23.27,1.82,4.36.45,8.8.85,13.09,1.78.13.03.67.21,1.11.32.3,2.2,1.52,4.96,1.89,6.82,1.76,8.72,3.05,17.54,4.23,26.35.13.94.24,1.88.34,2.83.63,5.69.97,11.56,2.21,17.15,2.5.19,4.99.32,7.49.39-1.56-1.9-2.21-4.55-2.61-6.93-.56-3.39-1.04-6.78-1.49-10.18-1.38-10.35-2.47-20.75-4.37-31.04-1-5.42-1.25-16.59-7.65-18.21-6.47-1.63-13.4-1.99-20.03-2.56-5.01-.43-10.03-.83-15.06-1.19-2.67-.18-5.33-.35-8-.51-9.78-.56-19.56-.91-29.32-.9-1.78,0-4.39-.39-6.1.21-2.48.87-3.1,4.39-3.89,6.69-2.92,8.56-5.45,17.26-7.73,26.01-2.26,8.63-5.21,18.14-3.89,27.14.99,6.79,3.48,12.91,6.86,18.83,1.9,3.34,3.91,6.57,5.06,10.1-36.84,1.46-74.05,3.83-109.96,12.57-31.63,7.69-69.14,21.77-85.66,52.16-5.56,10.24-7.11,21.84-6.34,33.36.62,9.23,3.7,18.8,3.15,28.1-.58,2.28-.5,5.3.25,7.34.04.1.07.19.11.28.06.15.12.29.19.42.07.14.15.27.22.39.01.02.03.03.03.05.07.11.14.2.22.29.42.52.94.83,1.56.83,96.06-.36,192.1,1.37,288.15,1.93,28.31.16,56.61.21,84.92.1,2.41,0,2.86-4.9,2.8-6.37Z"/>
      <path class="cls-1" d="M538.38,2120.98c-5.03,33.26-10.26,66.48-15.54,99.69-4.59,28.9-9.22,57.8-13.75,86.7-2.32,14.82-4.61,29.63-6.87,44.45-.59,3.9-.54,8.61-2.09,12.24-.37-.46-.83-.71-1.4-.59-22.59,4.79-45.47,7.85-68.53,9.17-2.4.13-2.89,4.78-2.8,6.37.08,1.37.7,4.7.37,6.72,1.85.04,3.69.04,5.52,0,0,5.41-.76,11.76-4.64,13.31-4.51,1.8-7.45-5.96-8.49-8.97-.53-1.56-.97-3.15-1.32-4.76,2.5.19,4.99.32,7.49.39-1.56-1.9-2.21-4.55-2.61-6.93-.56-3.39-1.04-6.78-1.49-10.18,7.21.44,14.43.4,21.62-.17,10.61-.83,21.03-3.05,30.92-7.02,6.7-2.69,13.03-6.12,19.51-9.29,11.94-78.6,24.99-157.03,36.89-235.65.29-1.88,1.42-7.49,4.6-5.93,3.01,1.46,3.02,7.74,2.61,10.45Z"/>
    </g>
    <path class="cls-1" d="M338.31,241.3c3.07-11.86,6.15-23.72,9.22-35.58.99-3.8,1.41-8.94,3.23-12.45,2.61-5.04,8.68-3.43,13.02-2.41,26.89,6.31,53.78,12.63,80.67,18.94,2.59.61,5.42.97,7.92,1.87,1.21.44,2.04,1.17,3.09,1.84.12.07,1.13,1.4,1.16,1.4-.02,0,.13-3.68.11-3.64-.07.12-.02.3-.09.41-.34.57-.38,1.66-.52,2.31-1.96,8.67-3.92,17.34-5.88,26.02-6.86,30.35-13.73,60.71-20.59,91.06-4.76,21.06-9.71,42.08-14.29,63.18-.08.35-.16.69-.24,1.04-.76,3.35-1.2,8.85,1.34,11.63,2.47,2.7,4.55-.53,5.12-3.05,4.29-18.96,8.57-37.91,12.86-56.87,7.25-32.06,14.5-64.13,21.75-96.19,2.11-9.32,4.22-18.64,6.32-27.97,2.62-11.6,1.56-25.31-11.87-28.58-27.3-6.64-54.71-12.84-82.06-19.27-2.85-.67-5.72-1.51-8.61-2.02-9.21-1.65-14.21,6.03-16.23,13.84-3.64,14.03-7.27,28.06-10.91,42.09-.33,1.28-.66,2.55-.99,3.83-.85,3.29-1.15,8.9,1.34,11.63s4.48-.58,5.12-3.05h0Z"/>
    <path class="cls-1" d="M433.83,235.56c-3.57,2.03-7.98,2.07-11.29-.56-3.87-3.07-3.19-6.92.81-9.49,3.42-2.2,8.11-1.96,11.29.56,3.99,3.16,3.08,6.79-.81,9.49-2.18,1.51-1.1,9.65.99,8.2,6.28-4.36,8.02-13.34,5.09-20.23-2.9-6.83-10.97-10.33-17.57-6.21-6.45,4.03-7.9,13.6-5.09,20.23,2.99,7.05,10.83,10.04,17.57,6.21,2.27-1.29,1.37-9.54-.99-8.2Z"/>
    <path class="cls-1" d="M404.57,222.89c-.06.03-.56.23-.25.15-.19.05-.39.05-.58.04-.08,0-.55-.14-.26-.02-.19-.08-.33-.2-.51-.29.17.19.2.21.09.08-.13-.17-.1-.09.09.24-.17-.39-.14-.24.08.46.25.75.31,1.53.17,2.33,0,.55-.14,1.05-.43,1.47-.14.21-.13.21.01,0,.15-.18.17-.2.05-.07-.13.12-.09.11.1-.04.07-.03.57-.23.25-.15.19-.04.39-.05.58-.04.1,0,.57.15.26.02.18.08.34.18.51.29l-.15-.16c.19.25.18.2-.03-.16l.08.19c-.29-.69-.4-1.4-.34-2.14-.07-.74.04-1.46.33-2.15.22-.34.27-.42.14-.24-.05.08-.12.16-.18.23.21-.19.2-.21-.02-.04-1.45,1-1.53,3.67-1.31,5.23.11.79.83,3.99,2.3,2.97,1.15-.8,1.79-2.04,2.12-3.37.52-2.06.47-4.53-.4-6.5-.88-1.99-3.04-3.48-5.14-2.17-1.15.72-1.83,2.1-2.12,3.37-.48,2.07-.5,4.53.4,6.5s2.98,3.4,5.14,2.17c.61-.35.96-1.34,1.12-1.95.27-1.01.34-2.24.19-3.27-.13-.92-.76-3.84-2.3-2.97Z"/>
    <path class="cls-1" d="M1184.56,597.57c7.13-.58,14.27-1.39,21.41-1.75,5.65-.28,10.79,1.73,13.83,6.69,1.39,2.26.04,3.72-2.39,6.16-5.54,5.56-11.8,10.49-17.61,15.77-10.75,9.76-14.59,22.11-15.25,36.29-.1,2.18.53,8.5,3.74,8.5s3.65-6.51,3.74-8.5c.38-8.09,4.99-15.63,11.8-21.73,5.22-4.67,10.51-9.27,15.66-14.02,14.57-13.44,10.16-47.49-13.68-46.14-7.09.4-14.17,1.16-21.24,1.73-5.44.44-5.02,17.41,0,17h0Z"/>
    <path class="cls-1" d="M843.97,451.81c-7.77-4.2-17.6,1.33-23.29,6.49-3.01,2.74-5.7,5.78-8.15,9.03-.76,1.01-1.43,2.15-2.25,3.12-1.25,1.49-.42.72-1.64.93-7.81,1.34-12.24-2.55-16.1-8.31-9.85-14.71-14.01-33.74-17.79-50.7-3.29-14.77-5.86-29.71-7.9-44.69-.99-7.33-1.85-14.67-2.54-22.03-.48-5.11.17-11.83-2.05-16.57-2.23-4.79-9.13-3.84-13.58-3.68-6.4.24-12.69,1.5-18.8,3.37-13.34,4.06-25.66,11.07-36.65,19.57-21.84,16.88-38.97,39.52-50.62,64.46-11.33,24.24-18.3,52.29-19.03,79.12-.78,29.1,9.39,57.82,30.57,78.16,1.54,1.48,3.79,4.4,5.93,5.69-.11.89-.23,1.78-.32,2.67-.14,1.33-.2,2.67-.27,4.01-.17,3.82-.21,7.65-.26,11.47-.16,11.29-.23,22.59-.31,33.89-.01,2.7-.03,5.39-.05,8.09-.03,3.52-.05,7.03-.07,10.55-.1,15.54-.2,31.08-.44,46.62-.1,5.67-.21,11.34-.35,17.01,1.7.87,3.53,1.61,5.49,2.22.01-.31.01-.62.02-.93.13-5.34.23-10.68.32-16.02.4-22.72.54-45.44.7-68.16.08-10.89.14-21.77.29-32.66.05-3.44.09-6.88.21-10.31.03-.78.26-2.95.13-2.1.22-1.84.44-3.68.61-5.53.37-3.73.85-8.31-1.76-11.41-3.13-3.73-7.67-6.53-11.04-10.14-8.14-8.75-14.56-18.96-18.71-30.18-7.91-21.4-5.08-43.73-.34-65.46,9.85-45.07,37.89-88.85,79.37-110.82,9.6-5.09,20.02-8.93,30.86-10.1,3.03-.33,6.07-.45,9.12-.33,1.14.04,3.97.35,4.73.35,0,.04.01.08.01.12.07.9.14,1.8.21,2.7.25,3.15.53,6.3.84,9.45,2.34,23.9,6.13,47.77,11.55,71.17,3.5,15.16,7.62,30.75,14.76,44.66,2.05,4,4.34,7.98,7.28,11.4,4.01,4.66,9.03,6.67,15.35,6.2,5.01-.38,6.47-4.92,9.44-8.51,4.25-5.15,9.81-10.53,16.57-12.01,3.47-.76,7.76-.67,10.19,1.85,3.12,3.24,4.52,7.85,4.84,12.26.6,8.1-2.47,16.45-6.76,23.19-4.62,7.26-11.18,12.84-19.05,16.31-3.42,1.5-6.91,2.37-10.52,3.23-4.31,1.03-7.47,2.79-11.61,3.3-3.86.47-8.51.35-11.87-1.14-2.53-1.11-4.47-3.49-7.37-2.88-3.7.77-8.01,4.68-11.09,6.79-4.36,2.97-8.51,6.23-12.38,9.82-14.86,13.81-24.98,33.06-25.75,53.54-.42,11.29,2.06,22.45,6.09,32.94,1.16,3.03,2.48,5.99,3.89,8.91.34.69.66,1.41,1.02,2.12.17,10.06.3,20.13.41,30.19,2.06-3.19,3.92-6.63,5.49-10.07-.04-3.61-.09-7.22-.14-10.83-.05-3.7-.07-7.4-.19-11.1-.28-8.11-5.67-15.06-8.1-22.76-4.28-13.62-3.26-26.52,2.9-39.32,5.79-12.06,15.25-21.88,26.05-29.6,2.44-1.75,4.96-3.39,7.52-4.99,1.51-.93,3.96-3.23,5.82-2.98,1.45.2,2.96,1.91,4.34,2.52,1.29.57,2.77.99,4.14,1.3,5.31,1.19,11.05.46,16.14-1.33,4.66-1.64,9.51-2.6,14.14-4.33,20-7.48,31.86-28.38,32.52-49.14.29-9.3-1.53-24.7-10.72-29.67ZM660.49,571.88s-.08.58-.13,1.14c-.28-.57-.33-1.02.13-1.14ZM744.35,635.25c.83,1.42.6,1.96,0,0h0ZM743.47,631.58c-.13-.64-.07-.47,0,0h0ZM889.73,398.7c-4.01-20.64-9.94-43.53-23.62-60.1-20.09-24.34-54.84-33.6-84.99-36.4-5.06-.47-10.14-.76-15.22-.85-1.45-.02-2.95-.12-4.4-.02-.68.04-2.34-.32-1,.23l.21.36c-1.52-1.44-3.81-1.73-6.2-2.24-6.05-1.3-12.28-1.88-18.46-2.12-20.63-.78-41.44,2.97-60.57,10.75-19.4,7.88-38.27,20.08-51.57,36.48-9.44,11.63-16.67,25.07-22.8,38.68-15.99,35.46-25.34,73.9-32.03,112.09-7.49,42.78-11.19,86.42-10.59,129.85.03,2.18.07,4.37.12,6.56.12,5.61.31,11.25.59,16.89,1.47,30.01,5.39,60.27,14.8,88.66,1.03,3.09,2.1,6.16,3.27,9.19.39,2.16,1.3,3.85,2.75,3.86,17.8.11,35.6,4.87,52.56,9.86,6.43,1.9,12.82,3.96,19.17,6.1,2.89.97,6.02,3.23,7.76-.28,2.76-5.6,2.33-13.85,2.7-19.9.69-11.33,1.02-22.69,1.29-34.05.01-.31.01-.62.02-.93.13-5.34.23-10.68.32-16.02.4-22.72.54-45.44.7-68.16.08-10.89.14-21.77.29-32.66.05-3.44.09-6.88.21-10.31.03-.78.26-2.95.13-2.1.22-1.84.44-3.68.61-5.53.37-3.73.85-8.31-1.76-11.41-3.13-3.73-7.67-6.53-11.04-10.14-8.14-8.75-14.56-18.96-18.71-30.18-7.91-21.4-5.08-43.73-.34-65.46,9.85-45.07,37.89-88.85,79.37-110.82,9.6-5.09,20.02-8.93,30.86-10.1,3.03-.33,6.07-.45,9.12-.33,1.14.04,3.97.35,4.73.35,0,.04.01.08.01.12.07.9.14,1.8.21,2.7.25,3.15.53,6.3.84,9.45,2.34,23.9,6.13,47.77,11.55,71.17,3.5,15.16,7.62,30.75,14.76,44.66,2.05,4,4.34,7.98,7.28,11.4,4.01,4.66,9.03,6.67,15.35,6.2,5.01-.38,6.47-4.92,9.44-8.51,4.25-5.15,9.81-10.53,16.57-12.01,3.47-.76,7.76-.67,10.19,1.85,3.12,3.24,4.52,7.85,4.84,12.26.6,8.1-2.47,16.45-6.76,23.19-4.62,7.26-11.18,12.84-19.05,16.31-3.42,1.5-6.91,2.37-10.52,3.23-4.31,1.03-7.47,2.79-11.61,3.3-3.86.47-8.51.35-11.87-1.14-2.53-1.11-4.47-3.49-7.37-2.88-3.7.77-8.01,4.68-11.09,6.79-4.36,2.97-8.51,6.23-12.38,9.82-14.86,13.81-24.98,33.06-25.75,53.54-.42,11.29,2.06,22.45,6.09,32.94,1.16,3.03,2.48,5.99,3.89,8.91.34.69.66,1.41,1.02,2.12.17,10.06.3,20.13.41,30.19h0c.08,6.58.15,13.14.23,19.71h0c.04,4.18.08,8.36.13,12.53.15,12.53.3,25.06.5,37.59.11,7.14-.22,14.51.56,21.63.15,1.4.32,3.42,1.36,4.48,2.31,2.34,9.05,1.83,12.3,2.36,9.87,1.58,19.65,3.69,29.38,5.94,8.44,1.95,16.85,4.06,25.29,6.03,3.66.86,9.66,3.32,13.49,2.34,2.23-.56,3.15-3.14,4.26-4.95,1.92-3.13,3.76-6.3,5.56-9.5,3.71-6.64,7.14-13.43,10.33-20.33,6.74-14.58,12.41-29.62,17.43-44.88,1.8-5.49,3.52-11,5.13-16.55,1.51-5.12,2.93-10.26,4.29-15.42,6.05-23.08,10.69-46.53,14.29-70.09,5.29-34.64,8.22-69.71,8.49-104.75.22-30.61-1.5-61.46-7.35-91.55ZM655.45,757.47c-.03.83-.31.76,0,0h0ZM655.46,757.25c-.07.12-.01-1.13,0,0h0ZM660.49,571.88s-.08.58-.13,1.14c-.28-.57-.33-1.02.13-1.14ZM743.47,631.58c-.13-.64-.07-.47,0,0h0ZM744.35,635.25c.83,1.42.6,1.96,0,0h0ZM750.91,752.26c.34,1.46.03,1.21,0,0h0ZM889.01,542.55c-3.46,40.51-10.06,80.88-20.66,120.15-.76,2.83-1.55,5.65-2.35,8.46-.67,2.34-1.35,4.68-2.06,7.01-5.12,17.06-11.13,33.86-18.37,50.15-3.77,8.48-7.87,16.83-12.42,24.93-2.02,3.6-4.66,7.05-6.48,10.75-.26,0-.54.04-.79,0-1.29-.25-2.62-.35-3.92-.59-21.08-3.96-41.6-10.34-62.82-13.75-1.81-.29-6.17-1.75-8.34-1.4-.13-4.52-.19-9.04-.26-13.56-.31-19.68-.52-39.35-.73-59.03-.09-7.21-.17-14.42-.26-21.63-.04-3.61-.09-7.22-.14-10.83-.05-3.7-.07-7.4-.19-11.1-.28-8.11-5.67-15.06-8.1-22.76-4.28-13.62-3.26-26.52,2.9-39.32,5.79-12.06,15.25-21.88,26.05-29.6,2.44-1.75,4.96-3.39,7.52-4.99,1.51-.93,3.96-3.23,5.82-2.98,1.45.2,2.96,1.91,4.34,2.52,1.29.57,2.77.99,4.14,1.3,5.31,1.19,11.05.46,16.14-1.33,4.66-1.64,9.51-2.6,14.14-4.33,20-7.48,31.86-28.38,32.52-49.14.29-9.3-1.53-24.7-10.72-29.67-7.77-4.2-17.6,1.33-23.29,6.49-3.01,2.74-5.7,5.78-8.15,9.03-.76,1.01-1.43,2.15-2.25,3.12-1.25,1.49-.42.72-1.64.93-7.81,1.34-12.24-2.55-16.1-8.31-9.85-14.71-14.01-33.74-17.79-50.7-3.29-14.77-5.86-29.71-7.9-44.69-.99-7.33-1.85-14.67-2.54-22.03-.48-5.11.17-11.83-2.05-16.57-2.23-4.79-9.13-3.84-13.58-3.68-6.4.24-12.69,1.5-18.8,3.37-13.34,4.06-25.66,11.07-36.65,19.57-21.84,16.88-38.97,39.52-50.62,64.46-11.33,24.24-18.3,52.29-19.03,79.12-.78,29.1,9.39,57.82,30.57,78.16,1.54,1.48,3.79,4.4,5.93,5.69-.11.89-.23,1.78-.32,2.67-.14,1.33-.2,2.67-.27,4.01-.17,3.82-.21,7.65-.26,11.47-.16,11.29-.23,22.59-.31,33.89-.01,2.7-.03,5.39-.05,8.09-.03,3.52-.05,7.03-.07,10.55-.1,15.54-.2,31.08-.44,46.62-.1,5.67-.21,11.34-.35,17.01-.22,8.77-.51,17.54-.89,26.3-.25,5.7-.4,9.17-.92,14.84-.12,1.29-.27,2.58-.43,3.86-.11-.03-.22-.06-.33-.1-2.04-.68-4.07-1.38-6.11-2.05-6.53-2.16-13.1-4.21-19.72-6.11-15.63-4.48-31.95-8.68-48.32-8.98-10.9-28.33-14.95-59.35-16.46-89.74-.26-5.1-.45-10.18-.58-15.22-.02-.56-.03-1.11-.04-1.67-1.03-42.99,2.45-86.12,9.63-128.49,6.46-38.18,15.82-76.74,32.06-112.04,6.13-13.33,13.38-26.4,23.05-37.52,14.8-17.03,36.36-29.18,57.62-36.07,18.45-5.97,38.39-8.17,57.69-6.21,4.29.43,9.63,1.93,13.27,2.28.17.02.97.48,1.19.49.09.08.19.15.3.21.81.46,2.11.22,2.98.22,34.12-.12,75.47,7.23,99.55,33.53,7.78,8.51,12.67,19.42,16.33,30.23,4.94,14.55,7.82,29.79,9.83,44.99,5.24,39.59,4.69,80,1.3,119.72Z"/>
    <path class="cls-1" d="M724.02,417.24c-.59.75-.53,1.63-.52,1.77.26,3.48,8.02,5.91,13.79,6.29,6.12.41,14.04-1.23,14.78-4.58.05-.23.16-.73-.07-1.25-.97-2.18-6.14-.48-13.32-1-8.08-.59-12.84-3.55-14.66-1.23Z"/>
    <path class="cls-1" d="M688.21,428.38c-.16-6.79,1.2-13,4.14-19.13,1.01-2.1,1.92-6.76.29-8.78-1.74-2.15-3.22-.2-4.13,1.7-4.28,8.93-6.38,18.87-6.15,28.76.04,1.62.19,5.59,2.76,4.91,2.31-.61,3.13-5.67,3.09-7.47h0Z"/>
    <path class="cls-1" d="M710.52,431.84c-11.41,12.62-28.91,28-26.59,46.91,1.54,12.53,13.36,14.63,23.89,12.12,2.81-.67,2.18-9.02,0-8.5-5.97,1.42-19.16,2.66-20.28-5.9-.95-7.27,6.07-15.66,10.26-20.92,4.56-5.73,9.7-10.95,14.61-16.38,1.61-1.78.46-9.93-1.89-7.34h0Z"/>
    <path class="cls-1" d="M742.49,506.1c.48,1.83.65,4.03-.02,6.71-1.09,4.37-3.96,8.13-7.69,10.77-6.43,4.55-14.54,6.02-22.26,6.45-13.84.77-27.76-1.72-41.18-4.83-2.17-.5-2.83,7.84,0,8.5,22.2,5.14,70.77,13.94,75.03-20.22.48-3.86.34-7.9-.65-11.67-.4-1.53-1.17-2.52-2.56-1.52s-1.01,4.53-.67,5.81h0Z"/>
  </g>
</svg>