<?xml version="1.0" encoding="UTF-8"?>
<svg id="Camada_1" xmlns="http://www.w3.org/2000/svg" viewBox="0 0 4024.05 1469.53">
  <defs>
    <style>
      .cls-1 {
        fill: #fff6eb;
      }
    </style>
  </defs>
  <path class="cls-1" d="M1122.03,596.64c0,26.34-5,52.03-14.87,76.37-10.23,25.22-25.23,47.83-44.59,67.19l-319.11,319.12c-22.12,22.12-57.99,22.12-80.12,0h0c-22.12-22.12-22.12-57.99,0-80.12l319.11-319.11c16.95-16.95,26.28-39.48,26.28-63.44s-9.33-46.5-26.28-63.44c-34.98-34.99-91.9-34.99-126.89,0l-173.83,173.83c-21.11,21.11-49.74,32.97-79.59,32.97h0c-30.04,0-58.29-11.69-79.55-32.92-15.44-15.42-33.26-33.18-48.89-48.73-22.16-22.05-22.26-57.88-.24-80.07h0c22.06-22.22,57.96-22.33,80.15-.25,15.5,15.42,33.16,33.01,48.53,48.36l21.14-21.14-72.05-72.05c-34.98-34.98-91.91-34.98-126.89,0-16.95,16.95-26.27,39.48-26.27,63.45s9.33,46.49,26.27,63.44l96.26,96.26c43.96,43.96,115.23,43.96,159.18,0l131.83-131.83c22.12-22.12,57.99-22.12,80.11,0h0c22.12,22.12,22.12,57.99,0,80.11l-252,252c-21.84,21.83-57.24,21.83-79.08,0l-216.43-216.43c-19.36-19.36-34.37-41.97-44.59-67.19-9.87-24.33-14.87-50.03-14.87-76.37s5-52.04,14.87-76.37c10.23-25.22,25.23-47.83,44.59-67.19,19.36-19.36,41.97-34.37,67.19-44.59,24.33-9.87,50.03-14.87,76.37-14.87s52.04,5,76.37,14.87c25.22,10.23,47.83,25.23,67.19,44.59l72.05,72.05,72.05-72.05c19.36-19.36,41.97-34.37,67.19-44.59,24.33-9.87,50.03-14.87,76.37-14.87s52.04,5,76.37,14.87c25.22,10.23,47.83,25.23,67.19,44.59,19.36,19.36,34.37,41.97,44.59,67.19,9.87,24.33,14.87,50.03,14.87,76.37Z"/>
  <g>
    <g>
      <path class="cls-1" d="M1344.07,1086.98h0c-20.77,0-37.61,16.84-37.61,37.61v54.8h-123.58v-376.1h123.58v63.94c0,20.77,16.84,37.61,37.61,37.61h0c20.77,0,37.61-16.84,37.61-37.61v-63.94h123.58v376.1h-123.58v-54.8c0-20.77-16.84-37.61-37.61-37.61Z"/>
      <path class="cls-1" d="M1854.49,1039.7c0,25.79-2.95,47.82-8.86,66.09-5.91,18.27-15.31,33.31-28.21,45.13-12.89,11.82-29.47,20.42-49.7,25.79-20.24,5.37-44.69,8.06-73.34,8.06s-53.11-2.69-73.34-8.06c-20.24-5.37-36.72-13.88-49.43-25.52-12.72-11.64-22.03-26.68-27.94-45.13-5.91-18.44-8.86-40.57-8.86-66.36v-236.41h123.58v161.99c0,20.03,16.24,36.27,36.27,36.27h0c20.03,0,36.27-16.24,36.27-36.27v-161.99h123.58v236.41Z"/>
      <path class="cls-1" d="M2613.14,942.98v236.41h-105.75c-9.84,0-17.83-7.98-17.83-17.83v-21.4h-72.53v21.4c0,9.84-7.98,17.83-17.83,17.83h-105.75v-236.41c0-25.79,2.96-47.9,8.87-66.36,5.91-18.44,15.22-33.49,27.94-45.13,12.71-11.64,29.19-20.15,49.43-25.52,20.23-5.37,44.68-8.06,73.34-8.06s53.1,2.69,73.34,8.06c20.23,5.37,36.8,13.97,49.7,25.79,12.9,11.82,22.3,26.86,28.21,45.13,5.91,18.27,8.87,40.3,8.87,66.09ZM2436.91,1000.47h32.77c10.98,0,19.88-8.9,19.88-19.88h0c0-10.98-8.9-19.88-19.88-19.88h-32.77c-10.98,0-19.88,8.9-19.88,19.88h0c0,10.98,8.9,19.88,19.88,19.88Z"/>
      <path class="cls-1" d="M2685.28,803.29h27.75c12.5,0,24.57,4.54,33.96,12.78l74.84,65.64c4.31,3.78,11.06.72,11.06-5.01v-73.41h123.58v333.51c0,23.52-19.07,42.59-42.59,42.59h-26.88c-13.02,0-25.56-4.93-35.09-13.8l-74.44-69.27c-4.26-3.97-11.2-.94-11.2,4.88v78.19h-123.58v-333.51c0-23.52,19.07-42.59,42.59-42.59Z"/>
      <path class="cls-1" d="M3014.15,803.29h72.67c14.06,0,25.45,11.4,25.45,25.45v325.2c0,14.06-11.4,25.45-25.45,25.45h-72.67c-14.06,0-25.45-11.4-25.45-25.45v-325.2c0-14.06,11.4-25.45,25.45-25.45Z"/>
      <path class="cls-1" d="M3156.07,803.29c-9.35,0-16.93,7.58-16.93,16.93v133.51l150.9-18.66s-150.9,73.38-150.9,210.47v33.86h264.61c9.35,0,16.93-7.58,16.93-16.93v-133.51l-144.46,18.66s147.68-73.33,147.68-208.53v-35.79h-267.83Z"/>
      <path class="cls-1" d="M3450.76,803.29h288.53v116.05h-156.89c-5.93,0-10.75,4.81-10.75,10.75h0c0,5.93,4.81,10.75,10.75,10.75h100.74c27.45,0,49.7,22.25,49.7,49.7h0c0,27.45-22.25,49.7-49.7,49.7h-100.74c-5.93,0-10.75,4.81-10.75,10.75v1.61c0,5.93,4.81,10.75,10.75,10.75h155.82v116.05h-287.45v-376.1Z"/>
      <path class="cls-1" d="M2263.9,803.29v376.11h-123.58v-127.89l-38.95,55.4c-5.88,8.39-15.51,13.38-25.75,13.38h-5.97c-10.26,0-19.87-5-25.77-13.39l-36.27-51.62v124.12h-123.57v-376.11h125.31c6.65,12.51,35.97,64.85,60.3,64.85h5.97c23.23,0,54.04-50.27,62.47-64.85h125.81Z"/>
    </g>
    <g>
      <path class="cls-1" d="M2864.9,723.39c-23.09,25.23-82.68,39.73-148.18,39.73-132.61,0-171.8-59.59-171.26-143.88l.54-99.86c.54-84.29,40.8-141.73,175.02-141.73,60.67,0,117.04,11.81,141.2,30.6l.54,144.42h-178.51c-10.23,0-18.52,8.29-18.52,18.52h0c0,10.23,8.29,18.52,18.52,18.52h180.66v133.68Z"/>
      <path class="cls-1" d="M1673.04,548.25c0-15.65,12.69-28.33,28.33-28.33h74.75c28.99,0,51.09,6.63,66.3,19.86,15.21,13.25,22.82,32.57,22.82,57.98v52.08c0,36.87-14.05,65.15-42.14,84.83-28.1,19.69-71.67,29.53-130.73,29.53s-99.24-10.02-125.9-30.07c-26.67-20.04-40-51.18-40-93.42v-141.73c0-40.44,15.03-71.14,45.1-92.07,30.07-20.94,78.74-31.41,146.03-31.41,27.56,0,51.72,1.8,72.48,5.37.21.04.41.07.62.11,32.55,5.69,55.79,34.73,54.89,67.75l-1.29,47.03h-166.01c-15.65,0-28.33,12.69-28.33,28.33v93.12c0,15.65,12.69,28.33,28.33,28.33h72.6v-23.62h-49.51c-15.65,0-28.33-12.69-28.33-28.33v-45.34Z"/>
      <path class="cls-1" d="M2047.94,288.47l78.23,74.14h-69.26l-9.66-23.32c-4.59-11.09-20.28-11.16-24.96-.11l-9.94,23.43h-69.79l78.77-74.17c2.51-2.36,5.83-3.68,9.28-3.68h8.03c3.46,0,6.8,1.33,9.31,3.71Z"/>
      <path class="cls-1" d="M3361.5,522.6v236.22h-105.67c-9.84,0-17.81-7.97-17.81-17.81v-21.38h-72.48v21.38c0,9.84-7.97,17.81-17.81,17.81h-105.67v-236.22c0-25.77,2.95-47.87,8.86-66.3,5.91-18.43,15.21-33.46,27.92-45.1,12.7-11.63,29.17-20.13,49.39-25.5,20.22-5.37,44.64-8.05,73.28-8.05s53.06,2.68,73.28,8.05c20.22,5.37,36.78,13.96,49.66,25.77,12.89,11.81,22.28,26.84,28.19,45.1,5.91,18.25,8.86,40.27,8.86,66.04ZM3185.41,580.04h32.75c10.97,0,19.86-8.89,19.86-19.86h0c0-10.97-8.89-19.86-19.86-19.86h-32.75c-10.97,0-19.86,8.89-19.86,19.86h0c0,10.97,8.89,19.86,19.86,19.86Z"/>
      <path class="cls-1" d="M1502.32,522.6v236.22h-105.67c-9.84,0-17.81-7.97-17.81-17.81v-21.38h-72.48v21.38c0,9.84-7.97,17.81-17.81,17.81h-105.67v-236.22c0-25.77,2.95-47.87,8.86-66.3,5.91-18.43,15.21-33.46,27.92-45.1,12.7-11.63,29.17-20.13,49.39-25.5,20.22-5.37,44.64-8.05,73.28-8.05s53.06,2.68,73.28,8.05c20.22,5.37,36.78,13.96,49.66,25.77,12.89,11.81,22.28,26.84,28.19,45.1,5.91,18.25,8.86,40.27,8.86,66.04ZM1326.23,580.04h32.75c10.97,0,19.86-8.89,19.86-19.86h0c0-10.97-8.89-19.86-19.86-19.86h-32.75c-10.97,0-19.86,8.89-19.86,19.86h0c0,10.97,8.89,19.86,19.86,19.86Z"/>
      <path class="cls-1" d="M2247.1,383.01h27.73c12.49,0,24.55,4.54,33.94,12.77l74.78,65.59c4.3,3.77,11.05.72,11.05-5.01v-73.35h123.48v333.25c0,23.51-19.05,42.56-42.56,42.56h-26.86c-13.01,0-25.54-4.93-35.06-13.79l-74.38-69.21c-4.26-3.96-11.19-.94-11.19,4.87v78.13h-123.48v-333.25c0-23.51,19.05-42.56,42.56-42.56Z"/>
      <path class="cls-1" d="M2914.49,383.01h72.61c14.05,0,25.43,11.39,25.43,25.43v324.94c0,14.05-11.39,25.43-25.43,25.43h-72.61c-14.05,0-25.43-11.39-25.43-25.43v-324.94c0-14.05,11.39-25.43,25.43-25.43Z"/>
      <path class="cls-1" d="M1886.72,383.01h288.3v115.96h-156.77c-5.93,0-10.74,4.81-10.74,10.74h0c0,5.93,4.81,10.74,10.74,10.74h100.66c27.43,0,49.66,22.23,49.66,49.66h0c0,27.43-22.23,49.66-49.66,49.66h-100.66c-5.93,0-10.74,4.81-10.74,10.74v1.61c0,5.93,4.81,10.74,10.74,10.74h155.69v115.96h-287.23v-375.81Z"/>
    </g>
  </g>
</svg>