<?xml version="1.0" encoding="UTF-8"?>
<svg id="Camada_1" xmlns="http://www.w3.org/2000/svg" viewBox="0 0 1464.41 2538.45">
  <defs>
    <style>
      .cls-1 {
        fill: #a840f1;
      }

      .cls-2 {
        fill: #7e30b5;
      }
    </style>
  </defs>
  <g>
    <path class="cls-2" d="M773.1,832.36s0,.08.01.12v-.05s-.01-.05-.01-.07ZM773.08,831.99v-.06s-.01-.08-.01-.12c0,.06,0,.12.01.18ZM1065.65,1572.81c-13.8-109.05-38.84-216.52-74.8-320.4-34.55-99.83-79.34-195.99-133.11-286.91-23.66-40-49.11-78.93-76.16-116.72-.22-3.64-.44-7.28-.66-10.91-.39-6.4-.77-12.8-1.16-19.19-.1-1.6-1.14-6.41-3.61-6.24-.12,0-.23.02-.35.02-.14.02-.28.03-.42.04-27.73,1.98-55.48,3.96-83.21,5.94-29.74,2.13-59.47,4.25-89.2,6.38-17.49,1.24-34.99,2.49-52.48,3.74-.64.05-1.18.25-1.64.56-15.14-11.52-31.25-21.73-48.18-30.43-2.19-1.12-4.39-2.22-6.6-3.3-2.62-1.28-5.25-2.52-7.9-3.74-15.72-7.25-31.92-13.55-48.09-19.62-10.27-3.85-20.63-7.5-31.07-10.86-6.94-2.25-13.92-4.35-20.95-6.31-17.38-4.85-35.33-9.11-53.42-10.66,3.01-1.14,6.07-2.35,8.53-4.01,2.87-1.94,3.61-6.41,2.61-10.01-.35-1.29-.93-2.46-1.72-3.37-2.64-3.05-7.42-4.7-10.97-6.3-7.18-3.24-14.54-6.07-21.92-8.81-17.16-6.37-34.55-12.13-52.05-17.47-3.26-1-6.52-1.98-9.78-2.95-5.77-1.71-11.55-3.38-17.35-5-17.87-4.99-35.87-9.59-53.89-13.96-15.3-3.71-31.28-7.91-47.14-7.91-7.27,0-13.53,1.47-19.11,5.03-2.13,1.37-4.15,3.04-6.1,5.04-7.83,8.06-12.86,18.74-16.5,29.25-9.93,28.71-11.22,61.05-5.95,90.83,5.29,29.9,17.94,60.17,42.61,79.15,21.27,16.37,49.57,23.42,75.4,28.61,32.22,6.48,65.13,9.46,97.92,11.09,31.03,1.54,62.13,1.74,93.19.91,19.67-.53,39.45-1.22,59.03-3.26.97-.1,1.94-.2,2.9-.32-.3,1.71-.71,3.43-.97,4.95-.89,5.21-1.55,10.48-1.44,15.77.26,13.38,5.41,24.52,14.55,34.14,5.56,5.85,11.71,11.12,18.34,15.69-11.29,39.12-21.12,78.68-27.14,118.99-6.95,46.53-7.67,93.02-3.05,139.81,7.84,79.25,26.69,157.36,55.61,231.55,10.68,27.38,22.78,54.18,36.19,80.33-31.95,63.72-50.88,133.18-51.85,204.59-.58,43.22,3.44,86.48,8.22,129.39,5.12,45.92,11.44,91.72,18.09,137.45-.55-.07-1.11-.13-1.68-.17-4.68-30.76-9.17-61.56-13.16-92.42-.11-.86-1.46-6.33-3.45-4.45-8.62,8.11-16.63,16.88-24.59,25.63-1.78,1.95-4.02,3.92-5.63,6.09-35.82,5.38-71.65,10.77-107.47,16.15-.72-.9-1.76-1.22-2.93-.15-.21.2-.39.43-.55.68-9.28,1.39-18.56,2.78-27.84,4.18-2.89.43-3.07,6.09-2.7,8.07,15.01,81.08,31.76,161.82,47.57,242.75,4.64,23.77,9.19,47.56,13.6,71.37.15.83.92,5.21,2.7,4.68,13.55-4.07,28.02-.48,41.38-6.12,14.17-5.98,23.51-20.45,29.37-34.09,13.07-30.47,12.97-65.6,10.72-98.09-1.16-16.87-3.27-33.66-5.69-50.4,7.74-.28,14.39,3.56,22.14,5.03,14.52,2.75,28.98-5.03,41-12.82,5.42,35.73,10.97,71.46,16.64,107.17-9.66,7.42-17.06,17.11-21.82,28.44-1.34,3.19-2.37,12.57,1.98,14.3-1.14,33.71-2.27,67.42-3.42,101.13-1.98,2.04-2.12,8.47-.37,11.04-.29,8.35-.57,16.69-.85,25.04-.05,1.58.4,6.38,2.8,6.38,82.57-.02,165.12-1.83,247.69-2.63,24.1-.23,48.21-.37,72.31-.37.73,0,1.32-.44,1.78-1.15h.01c1.22-1.91,1.49-5.74.8-8.48-.3-6.46,1.6-13.07,2.27-19.44.9-8.44.76-17.12-1.84-25.27-4.6-14.42-16.38-25.67-28.84-33.68-26.53-17.06-59.66-22.82-90.48-26.16-17.16-1.87-34.4-2.79-51.64-3.42,1.16-2.91,2.93-5.61,4.46-8.4,2.94-5.36,4.85-11.08,5.45-17.19.57-5.76.11-11.53-.97-17.2-.83-4.39-1.59-10.19-3.98-14.45-.1-.32-.21-.64-.34-.96-.02-.06-.03-.12-.05-.18-.56-1.53-1.13-3.05-1.72-4.57-.13-.31-.31-.64-.53-.93-.22-.75-.46-1.49-.73-2.23,1.72-2.57,2.12-7.53,2.58-9.96,8.56-44.39,13.89-89.58,19.62-134.4,4.37-34.14,8.12-68.31,11.41-102.53.67.95,1.56,1.28,2.74.42,29.35-21.45,55.89-46.4,82.29-71.3,28.37-26.75,57.14-53.03,84.3-81.02,47.39-48.83,90.97-101.34,130.24-156.9,17.64-24.95,34.38-50.53,50.26-76.64,1.43-1.12,1.97-3.71,2.12-6.09.18-1.64.1-3.3-.21-4.88ZM597.94,842.18c13.55-.98,27.1-1.94,40.65-2.91,28.25-2.02,56.5-4.03,84.74-6.05,9.99-.71,19.97-1.43,29.96-2.14,6.55-.47,13.1-.94,19.65-1.41.02.45.05.89.08,1.33v.02c0,.06.01.11.01.16s.01.1.01.16.01.11.01.16.01.09.01.14c0,.06.01.11.01.17s0,.12.01.18c.01.12.02.25.02.37,0,.04,0,.08.01.12,0,.16.02.32.03.48.06,1.05.13,2.18.14,2.42.01.12.01.23.02.35.25,4.04.5,8.1.74,12.14.01.13.01.26.02.4-19.7,3.35-39.39,6.71-59.09,10.07-.02-.46-.05-.93-.08-1.4-.11-1.92-.44-8.73-3.74-8.5-21.15,1.48-42.32,2.68-63.48,3.96-15.74.95-31.47,1.9-47.21,2.85-5.15.31-10.29.62-15.44.93-1.15.07-2.31.18-3.46.21-.14,0-.25.01-.34.02-.06-.08-.14-.18-.28-.31-1.69-1.66-3.4-3.3-5.13-4.92-2.46-2.32-4.94-4.61-7.43-6.89,9.85-.71,19.71-1.41,29.56-2.11ZM479.3,965.36c-10.71-8.27-23.22-19.4-23.75-33.9-.37-9.82,4.03-19.39,2.51-29.21-.16-1.04-.84-5-2.7-4.68-12.29,2.07-25.05,2.33-37.47,2.95-23.95,1.2-47.94,1.66-71.92,1.49-56.11-.4-114.11-2.87-168.55-17.54-22.31-6.01-45.52-14.64-61.72-31.81-18.5-19.61-27.64-46.31-30.61-72.71-2.74-24.25-.92-50.41,8.37-73.19,3.46-8.5,8.13-17.16,15.2-23.21,6.54-5.58,14.4-6.64,22.78-6.35,13.85.49,27.63,3.82,41.05,7.01,20.5,4.86,40.94,10.16,61.22,15.87,20.11,5.67,40.06,11.93,59.79,18.81,11.95,4.17,24.07,8.37,35.61,13.66-4.67,2.07-9.34,4.13-13.99,6.23-4.5,2.02-9.03,3.99-13.43,6.21-.41.21-.76.41-1.09.61-.48.06-.66.08-.2.13-1.5.98-2.13,2.08-2.53,4.7-.3,1.88-.24,7.75,2.7,8.07.08,0,1.38-.39,1.38-.4.72-.2,1.44-.38,2.16-.53,3.81-.79,7.72-1.09,11.6-1.21,17.95-.54,36.06,2.8,53.46,6.89,36.34,8.54,71.52,21.88,105.8,36.5,25.91,11.06,50.37,25.03,72.67,41.96.51,1.6,1.17,2.91,1.86,3.55,9.18,8.48,18.35,16.97,27.53,25.45,1.64,1.51,2.41,2.27,3.97,2.52,22.59,23.34,38.39,52.84,46.25,84.32,3.03,12.11,6.54,27.86-.02,39.49-2.08,3.68-6.54,10.71-11.53,7.95-2.77-1.54-3.26-5.73-6.32-6.77-.67-.41-1.33-.41-1.99,0-4.89,4.59-5.16,12.72-9.7,18.39-2.74,3.44-6.3,6.18-10.88,6.13-6.09-.06-5.43-4.07-6.92-8.93-.78-2.55-2.18-7.15-5.7-5.73-2.79,1.13-3.61,7-4.27,9.43-1.1,4.15-1.84,8.99-4.81,12.29-2.9,3.21-9.22,7.18-13.77,7.01-5.9-.21-7.3-6.42-7.89-9.99-.78-4.67-3.22-15.97-9.39-8.49-5,6.06-6.64,14.2-12.68,19.71-3.02,2.76-6.67,4.39-10.77,3.3-4.55-1.2-7.62-4.86-6.55-8.77,1.43-5.24,5.08-9.96,7.3-14.88,2.42-5.35,3.86-11.07,3.78-16.97-.09-6.3-1.98-12.45-5.76-17.51-4.99-6.66-13.22-9.03-20.17-13.22-1.06-.64-1.93-.23-2.6.56-2.51-1.64-4.95-3.37-7.31-5.19ZM499.57,1941.09c3.61,27.42,7.58,54.8,11.73,82.15-1.96.09-3.87.23-5.62.29-3.8.06-7.6.19-11.41.36-.12,0-.25.01-.37.02-1.17.05-2.33.11-3.5.17-1.03.05-2.06.11-3.09.17-.38.02-.76.04-1.14.06-3.75-18.99-7.5-37.99-11.25-56.99,7.98-8.94,16.04-17.89,24.65-26.23ZM490.02,2109.25c-8.73-1.83-16.07-6.43-25.3-4.42-.09.02-.18.05-.27.08-.15.03-.31.07-.47.15-1.52.65-2,3.24-2.07,5.38-.08,1.49.06,3.03.38,4.31,4.59,30.75,8.55,61.89,7.1,93.04-.67,14.42-2.66,29.11-7.48,42.77-4.64,13.15-12.41,27.36-24.79,34.61-13.36,7.83-28.41,3.83-42.61,7.41-14.77-79.35-31.13-158.38-46.6-237.6-4.16-21.28-8.22-42.59-12.2-63.91,8.05-1.21,16.09-2.42,24.14-3.63,5.9,31.52,11.81,63.05,17.71,94.57,9.9,52.88,19.81,105.76,29.71,158.64,2.26,12.09,4.53,24.17,6.79,36.25.4,2.12,1.94,4.03,3.84,2.29,2-1.84,1.43-6.44,1-8.72-6.19-33.07-12.38-66.14-18.58-99.21-9.9-52.88-19.8-105.76-29.71-158.64-1.62-8.69-3.25-17.37-4.88-26.06,28.13-4.23,56.25-8.45,84.38-12.68,6.47-.97,12.94-1.95,19.42-2.92,2.74,14.05,5.53,28.08,8.31,42.12.21,1.07.42,2.14.63,3.22-4.92,1.45-10.14,1.17-15.23.17-4.74-.92-9.44-3.04-14.25-3.51-13.54-1.35-2.74,22.3-.25,27.03.59,1.12,1.32,2.26,2.73,1.64,3.74-1.65,8.16-2.03,12.17-2.56,6.24-.82,12.53-1.35,18.82-1.77.64-.05,1.28-.09,1.93-.13,8.61-.53,17.26-.94,25.89-.94,1.66,0,3.32.02,4.98.05.02,0,.04-.01.05-.01.88.04,1.75.06,2.62.11,1.55.08,2.35,0,2.92.44l2.1,14.25c2.27,15.39,4.57,30.79,6.9,46.18-11.78,7.62-25.61,15-39.83,12ZM455.73,2027.36c-1.42.37-2.8.81-4.14,1.32-.41-.89-.82-1.8-1.22-2.71.13.02.26.04.37.06,1.68.35,3.33.87,4.99,1.33ZM448.02,2021.25c-.17-.36-.28-.67-.08-.53.03.18.06.36.08.53ZM683.16,2248.89c.37,4.46-.38,8.6-2.28,12.67-1.82,3.9-4.34,7.44-6.08,11.37-2.17,4.92-3.05,10.16-2.95,15.51.03,1.65.33,6.29,2.8,6.38,31.27,1.07,62.82,2.79,93.45,9.57,26.36,5.83,57.01,16.33,72.8,39.88,9.06,13.5,3.65,28.09,2.89,42.81-81.62.05-163.21,1.82-244.82,2.61-23.1.23-46.2.35-69.3.37.2-5.86.4-11.73.6-17.59,32.37-.07,64.73-.14,97.1-.22,53.8-.11,107.6-.23,161.4-.35,12.3-.03,24.59-.06,36.88-.08,3.94-.01,3.97-12.76,0-12.75-33.64.07-67.28.15-100.92.22-53.81.12-107.61.24-161.41.35-10.87.03-21.75.05-32.62.08.94-27.73,1.88-55.47,2.81-83.2.17-4.85.33-9.7.5-14.54,17.56,3.52,35.32,5.83,53.2,6.93.03,4.43.68,9.34,3.63,11.41,3.24,2.27,5.87-1.93,7.12-4.48,1.47-3.02,2.25-6.25,2.76-9.54,2.83-4.19,3.48-13.11,4.18-16.43,1.92-9.11,4.49-18.3,6.01-27.49,5.86-1.17,11.98-1.45,17.9-1.9,14.9-1.15,29.71-3.49,44.64-1.8,1.03,2.26,2.02,4.53,2.97,6.81-.24,2.14-.14,5.8,1.64,7.34.11.09.22.18.35.26,3.59,2.28,4.41,11.73,4.75,15.8ZM592.9,2267.89c.08.02.15.03.23.05-.06.06-.13.12-.19.17-.01-.07-.03-.15-.04-.22ZM675.22,2202.96c-.1.34-.19.67-.16.93.13,1.2-1.3-1.08.16-.93ZM698.75,2039.5c-6,49.3-12.38,98.64-20.52,147.64-.95,5.72-1.53,8.88-2.39,13.28-6.29-.91-18.49-.16-19.89-.05-13.36,1.09-27.13,1.78-40.37,3.88-4.04.64-8,.92-9.84,4.89-.42.91-.76,1.88-1.06,2.87-.82.81-1.45,1.93-1.95,3.6-3.02,9.99-4.18,20.83-5.5,31.18-.33,1.48-.65,2.95-.99,4.42-.3-.02-.54-.03-.61-.05-3.44-1.04-7.67-.96-11.24-1.42-14.98-1.91-30.24-3.26-45.23-5.59,4.1-5.42,9.13-10.11,14.99-14.01,2.86-1.91,3.07-7.56,2.61-10.46-6.11-38.38-12.15-76.75-18.02-115.14.44-.31.89-.61,1.33-.92,1.86-.76,2.27-4.9,2.2-6.25-.66-11.77-3.3-22.62-6.56-33.9-2.39-8.22-4.34-16.55-6.8-24.74-4.74-32.49-9.3-65.01-13.58-97.59-5.89-44.84-11.39-89.86-14.01-135.03-1.76-30.22-2.16-60.67,1.24-90.78,3.41-30.18,10.82-59.84,20.7-88.52,6.57-19.1,14.3-37.82,23.1-56,3.44-7.12,9.29-14.86,7.02-23.16-1.66-6.06-5.94-12.07-8.73-17.7-33.85-68.12-58.51-140.66-73.2-215.3-9.84-49.96-16.3-101.58-14.21-152.55,2.05-49.7,12-98.75,24.89-146.67,2.48-9.23,5.08-18.42,7.75-27.59,5.51,2.81,12.3,5.3,15.72,10.05,3.19,4.42,1.11,6.73-1.53,11.81-5.38,10.35-9.84,20.6-7.15,32.53,2.1,9.29,9.54,19.1,20.21,15.8,8.66-2.67,13.75-12.21,17.79-19.63.52-.96,1.32-2.07,1.89-3.17.21.77.39,1.39.46,1.7,1.38,6.03,4,13.76,10.34,16.18,8.38,3.19,19.65-5.09,23.52-11.98,2-3.56,3.22-7.46,4.29-11.38,1.62,5.2,3.48,8.85,9.35,9.78,4.97.78,9.53-1.2,13.19-4.47,5.32-4.76,8.84-11.54,11.28-18.38.45.68.96,1.34,1.49,1.94,1.53,1.73,3.3,3.36,5.62,3.87,6.3,1.39,11.48-5.66,14.35-10.23,8.62-13.71,8.58-31.42,6.29-46.93-4.87-32.91-18.81-65.52-39.42-92.02,21.18-1.57,42.37-3.27,63.57-4.73,7.9-.47,15.79-.95,23.69-1.43,2.49-.15,4.97-.31,7.46-.47,1.41-.07,2.82-.15,4.24-.22,4.25-.21,8.89.59,11.29,4.62-.02-.04.05-1.02.42.15.01.01.01.02.01.03.05.88.1,1.76.15,2.64v.08c.48,8.15.96,16.31,1.43,24.47,1.5,25.58,2.99,51.16,4.49,76.75,1.28,22.06,2.57,44.12,3.86,66.18.6,10.18,1.19,20.36,1.78,30.54,3.45,59.07,6.43,118.1,8.19,177.26,3.05,103.14,3.47,206.36,1.26,309.53-.29,13.41-.62,26.82-1,40.23-.52,18.57-1.1,37.15-1.75,55.73-.04.27-.08.52-.1.79-1.6,22.06-2.09,44.29-2.59,66.47-4.81,106.13-12.41,212.24-25.22,317.57ZM960.77,1710.63c-22.1,27.5-45.31,54.12-69.56,79.75-26.9,28.45-55.48,55.01-83.95,81.85-28.07,26.46-55.94,53.39-86.76,76.67,5.99-74.35,8.52-148.94,11.08-223.47.74-21.47,1.47-42.94,2.26-64.41,40.29-43.72,82.08-86.05,125.31-126.88,3.52-3.33,4.35-13.28,0-16.39-48.27-34.55-87.47-80.75-113.51-134.1-1.75-29.95-3.49-59.9-5.24-89.85-2.66-45.55-5.32-91.1-7.98-136.66-1.41-24.04-2.81-48.09-4.21-72.13v-.04c-.07-1.15-.14-2.3-.21-3.45-.07-1.33-.15-2.67-.23-4-1.78-30.57-3.57-61.13-5.35-91.7-.02-.25-.03-.51-.05-.77-.02-.32-.04-.64-.05-.95-.67-11.4-1.33-22.79-2-34.18-1.42-24.29-2.84-48.58-4.26-72.87-.11-2-.19-4.05-.34-6.08,20.08-3.43,40.17-6.86,60.26-10.28.87,1.58,2.02,3,3.09,4.5,3.11,4.37,6.21,8.75,9.29,13.15,12.28,17.56,24.21,35.37,35.78,53.42,26.75,41.74,51.54,84.74,74.22,128.84,54.8,106.53,97.29,219.29,126.25,335.55,14.47,58.12,25.51,117.05,33.21,176.44-29.38,48.02-61.78,94.16-97.05,138.04ZM738.11,1383.35c.17,4.12.41,8.34,2.08,12.01,20.98,46.26,54.8,87.83,93.41,120.48,4.53,3.83,9.17,7.52,13.88,11.12-19.64,18.74-39.03,37.75-58.08,57.08-11.45,11.63-22.79,23.36-34.02,35.2-5.55,5.85-11.08,11.74-16.58,17.65-1.39,1.49-2.85,2.92-4.26,4.36.49-14.1.96-28.2,1.35-42.31,2.01-71.84,2.75-143.72,2.22-215.59Z"/>
    <path class="cls-2" d="M1384.77,299.49c-18.82-18.39-37.64-36.77-56.45-55.15l-6.75-6.6c8.28-5.65,13.08-15.05,14.07-25.31.04-.43.08-.99.1-1.61v-.09c.7-15.15-7.23-30.37-22.43-34.77-15.15-4.39-30.23,4.53-35.8,18.74-13.04-12.74-26.08-25.48-39.13-38.23l-20.58-20.1c-2.5-2.44-3.97,1.72-4.12,3.81-1.11,15.84-2.23,31.69-3.34,47.53-14.98,35.05-29.95,70.1-44.93,105.14-3.97,9.3-7.94,18.59-11.91,27.89-1.22,2.84-2.43,5.68-3.64,8.52-.24.54-1.32,2.32-1.7,3.46-.45.38-.93.87-1.13,1.02-2.65,2.07-5.3,4.14-7.95,6.21-9.03,7.05-18.06,14.1-27.09,21.15-16.06,12.54-32.12,25.08-48.18,37.62-2.61,2.04-3.08,9.24-.67,11.65,18.85,18.87,37.7,37.74,56.54,56.61,2.7,2.69,5.39,5.39,8.08,8.08.93.94,1.93,1.24,2.83,0,.75-1.01,1.49-2.03,2.24-3.05-.14,3.63-.15,7.26.08,10.91,1.56,24.4,13.56,47.19,31,64.05-30.94,62.2-58.9,125.86-83.67,190.76-6.9,18.09-13.54,36.29-19.96,54.56-1.55-1.73-4.41-5.19-4.65-5.46-1.79-1.96-3.59-3.93-5.38-5.89-4.48-4.92-8.97-9.83-13.45-14.74-5.51-6.04-11.02-12.08-16.53-18.11-3.01-3.3-6.02-6.6-9.03-9.9-4.04-4.43-8.07-8.85-12.11-13.27-2.24-2.46-4.48-4.92-6.72-7.37-1.01-1.11-2.65-4.11-4.39-3.81-1.12.19-1.81,1.36-2.49,2.18-8.69,10.35-17.12,20.93-25.67,31.39-29.68,36.3-59.36,72.6-89.04,108.89-7.63,9.34-15.27,18.68-22.9,28.01-.03.03-.05.06-.07.09-.01.01-.02.03-.03.04-.01,0-.01.01-.02.02-.12.16-.23.33-.34.52-1.38,2.24-1.3,5.83-.64,8.18.17.61.47,1.36.88,1.97,1.53,3.82,4.23,7.31,6.46,10.74,3.89,5.98,8,11.81,12.32,17.49,3.9,5.14,7.97,10.14,12.2,15.02,7.64,8.83,15.8,17.22,24.4,25.14,34.53,31.8,77.3,55.92,122.25,69.42,28.83,8.67,59.93,12.55,89.66,6.25,18.07-3.84,34.38-11.74,49.42-22.41,47.52-33.74,74.24-89.13,90.37-143.6,17.3-58.41,23.91-119.81,25.83-180.52,1.29-40.76.25-81.64-3-122.3,13.23,13.31,26.45,26.62,39.68,39.93.95.95,1.91,1.2,2.83,0,10.27-13.39,20.53-26.77,30.8-40.15,2.19-2.85,2.11-9.19-.67-11.65-12.42-10.99-24.85-21.99-37.27-32.98-.84-.74-1.54-.28-2.1.58-.02.03-.04.04-.06.06-.42.41-.84.82-1.25,1.22.03-.29.06-.58.08-.86.06-.05.11-.11.17-.16.74-.56,1.39-1.39,2.02-2.06,2.05-2.18,3.97-4.48,5.75-6.9,9.19-12.5,14.34-27.61,15.28-43.05.3-4.84,1.38-11.76-2.09-15.67-2.9-3.28-7.16-4.48-11.22-3.8,0-.31.01-.62.01-.93-.05-5.49-1.3-10.96-4.17-15.66-2.28-3.72-4.64-5.94-8.88-7.02-3.91-1-7.28-.21-10.73.55-1-8.56-4.77-16.61-12.12-21.78-3.07-2.16-7.02-3.1-10.74-2.67-4.19.48-6.6,2.63-9.56,4.74-2.29-7.23-6.62-14.25-13.98-16.56-5.32-1.66-10.84-1.65-16.13.16-2.56.87-4.96,2.11-7.12,3.74-1.07-7.66-4.72-14.9-11.27-19.35-1.81-1.23-3.97-2.14-6.17-2.84,39.86-21.88,79.71-43.76,119.57-65.64,2.08-1.13,4.27-2.76,6.51-3.59.42-.01.92.06,1.28.12,2.59.42,5.37.38,7.99.56,13.1.92,26.2,1.85,39.3,2.77,3.88.27,3.16-10.18,1.42-11.88ZM1309.37,187.84c10.85,1.57,20.66,10.55,20.78,21.79-1.08,8.72-7.26,15.2-15.13,18.59-10.2-9.97-20.4-19.93-30.6-29.89,5.53-7.77,15.06-11.93,24.95-10.49ZM1312.28,538.4c10.25,9.08,20.5,18.15,30.76,27.22-8.17,10.65-16.34,21.3-24.51,31.95-10.97-11.03-21.93-22.06-32.9-33.1.77-.75,1.55-1.51,2.32-2.27,1.98-1.45,3.86-3.03,5.62-4.75,1.76-1.73,3.39-3.58,4.88-5.52,4.61-4.51,9.22-9.02,13.83-13.53ZM1213.38,392.28c3.51,2.39,6.67,6.16,7.33,10.47.52,3.45-.96,6.87.7,10.23.27.56,1.06,2.03,1.98,1.87,2.04-.37,4.43-3.48,6.23-4.57,4.28-2.61,9.25-3.73,14.24-3.25,7.83.74,14.1,6.09,15.52,14.16.23,1.26,1.14,5.87,3.45,4.46,2.02-1.23,3.5-3.18,5.7-4.28,3.54-1.78,8.24-2.06,11.87-.28,5.51,2.69,10.63,9.59,10.09,15.82-.1,1.14-.21,8.58,2.7,8.07,5.74-1.01,12.37-3.65,17.22,1.19,5.44,5.44,2.36,10.21,2.42,16.44.01,1.2.71,7.82,3.55,6.15,2.41-1.42,5.04-1.93,7.76-1.17,1.22.33,1.97.85,3.07,1.44.06.03.13.08.2.14-.19,10.54-2.89,20.8-8.09,30.09-2.47,4.42-5.5,8.55-8.86,12.33-2.89,3.25-5.3,4.86-6.1,9.28-1.31,7.25-4.19,14.05-8.57,19.89-3.2,3.13-6.4,6.25-9.6,9.38-2.95,2.13-6.15,3.93-9.47,5.36-4.74,2.05-5.64,4.29-5.21,9.84,1.24,16.05,2.3,29.93,2.97,45.4,2.47,57.32.99,115.03-6.88,171.9-8.7,62.93-25.09,129.09-63.6,180.9-16.74,22.52-38.07,41.89-63.46,54.18-18.72,9.07-39.92,12.18-60.57,11.65-45.13-1.16-89.03-19.21-127.25-42.19-26.92-16.18-51.12-36.64-71.61-60.37-7.46-8.63-14.41-17.68-20.84-27.12-2-2.95-3.95-5.94-5.84-8.96,12.52-15.31,25.04-30.63,37.56-45.94,23.73-29.03,47.47-58.06,71.21-87.09,7.48-9.15,14.96-18.29,22.43-27.44.58-.71,1.54-2.36,2.49-3.5.04.58,1.08,1.12,1.45,1.8,1.03,1.83,3.32,3.63,4.71,5.16,3.37,3.68,6.73,7.37,10.09,11.05,2.46,2.7,4.93,5.4,7.39,8.1,4.26,4.67,8.52,9.34,12.79,14.02,6.73,7.37,13.45,14.74,20.18,22.11,3.14,3.44,6.28,6.88,9.41,10.32,1.43,1.56,4.97,7.27,7.49,6.59,2.65-.73,3.8-8,4.62-10.32,1.53-4.31,3.07-8.63,4.63-12.93,3.16-8.76,6.38-17.49,9.65-26.2,13.35-35.5,27.64-70.64,42.86-105.38,14.54-33.18,29.92-65.98,46.12-98.38,1.77-3.53,3.1-6.81,2-10.84-.68-2.52-2.32-3.63-4.15-5.31-4.07-3.76-7.8-7.91-11.17-12.31-9.79-12.72-17.13-28.21-17.83-44.44-.21-4.73.17-9.41.57-14.11,8.4-11.44,17.52-22.42,26.16-33.68,6.2-8.09,12.38-16.18,18.4-24.4,2.01-2.74,4.03-5.47,5.9-8.31,1.67-2.51,2.87-5.41,4.99-7.59,5.18-5.34,13.39-3.24,19,.57ZM1348.33,296.15c-6.08-.42-12.01-2.17-17.42.8-20.93,11.49-41.85,22.98-62.78,34.47-22.3,12.23-44.59,24.47-66.89,36.71-3.77,2.07-5.5,3.28-8.03,6.73-6.72,9.16-13.45,18.33-20.17,27.49-14.7,20.02-29.39,40.05-44.08,60.07-18.31-18.32-36.61-36.65-54.91-54.97-.61-.62-1.22-1.23-1.83-1.84,11.4-8.9,22.8-17.8,34.21-26.71,9.65-7.53,19.3-15.07,28.95-22.61,4.94-3.85,10.62-7.43,15.12-11.8,2.37-2.3,3.38-6.34,4.65-9.32,3.54-8.29,7.08-16.57,10.62-24.86,9.91-23.19,19.82-46.38,29.73-69.58,6.44-15.06,12.88-30.13,19.31-45.19.36-.7.59-1.51.72-2.21.23-1.03.33-2.12.29-3.2.92-13.08,1.84-26.16,2.76-39.23,17.61,17.21,35.23,34.42,52.84,51.63,29.98,29.29,59.96,58.57,89.94,87.86,2.45,2.4,4.91,4.8,7.36,7.2-6.79-.48-13.59-.96-20.39-1.44Z"/>
  </g>
  <g>
    <path class="cls-1" d="M945.65,646.44c-32.6-27.26-64.12-48.52-92-65-19.63-7.28-43.83-14.43-72-19-11.27-1.83-22.12-3.07-32.49-3.85-23.35-1.76-44.21-1.18-61.76.32-1.96.16-3.88.34-5.75.53-2.95,14.54-9.52,20.53-13,23-15.95,11.32-46.23,4.76-74.56-19.96-3.52-3.06-7.01-6.41-10.44-10.04-3.2-.43-6.54-.86-10.01-1.27-4.62.51-9.23,1.1-13.83,1.71-10.3,1.37-20.56,3.23-30.9,4.27-1.13.11-2.51.41-3.64.24-.16-.02-.38,0-.6.01.37-.39-.92-2.88-1.09-3.27-.93-2.23-1.84-4.46-2.73-6.71-2.44-.06-4.91-.11-7.41-.14-17.78-.23-37.14.34-57.79,2.16-73.26,6.44-126.8,25.36-184,46-37.43,13.51-84.82,32.95-137.98,60.96-7.88,4.15-15.9,8.5-24.02,13.04h.2c26.62.6,64.59,3.47,108.8,14,3.87.92,7.65,1.87,11.34,2.84,9.59,2.52,18.62,5.19,27.13,7.95,27.87,9.04,50.24,19.03,69.03,27.71,5.89,2.72,11.77,5.47,17.63,8.24,21.52,10.17,42.73,20.61,63.23,30.99,26.59,13.47,51.98,26.85,75.29,39.44,1.46-3.01,2.75-6,3.87-8.96,15.02-39.72,1.03-75.69,4.48-116.21,1.67,38,12,76.61,5,114-.52,2.78-1.05,4.68-1.58,5.95-2.9,6.85-6.19-4.7-11.74,5.24,37.07,20.03,68.86,38.07,91.82,51.31.55-.25,1.1-.51,1.66-.76,6.76-3.09,14.14-6.14,22.13-9,12.05-4.34,25.48-8.26,40.21-11.24,45.22-9.13,85.27-5.79,115.14.14,7.3,1.44,14,3.04,20.01,4.65,2.68.72,5.22,1.43,7.62,2.14.08.03.15.05.23.07,25.65,31.92,51.22,66.49,76.14,103.85,5.95,8.92,11.74,17.81,17.36,26.65.68-8.67,1.89-18.86,4.03-30.16.7-3.71,1.51-7.54,2.43-11.47,4.5-19.2,11.77-40.9,23.54-63.37,30.44-58.14,75.75-92.28,107.11-110.57,2.97-1.74,5.82-3.33,8.51-4.78,5.22-2.82,9.87-5.13,13.79-6.98,1.28-.61,2.48-1.16,3.59-1.67-23.19-28.35-53.45-60.77-92-93ZM482.3,800.61c-.04.11-.1.22-.15.33.06-.11.11-.21.18-.31-.01-.01-.02-.01-.03-.02Z"/>
    <path class="cls-2" d="M495.65,789.45c-3.34,17.82-6.74-.59-13.32,11.19-.01-.01-.02-.01-.03-.02,21.08-43.34,4.64-81.62,8.35-125.17,1.67,38,12,76.61,5,114Z"/>
    <path class="cls-2" d="M779.51,770.83c.96,18.26-1.7,34.51-5.29,48.15,10.47-47.28-19.75-114.46-26.41-157.77,10.57,36.54,29.7,71.63,31.7,109.62Z"/>
  </g>
  <g>
    <path class="cls-2" d="M639,278.6c.09.07.22.02.36-.08-.14.05-.31.11-.36.08Z"/>
    <path class="cls-2" d="M531.11,420.24c-.25-2.55.08,1.25,0,0h0Z"/>
    <path class="cls-2" d="M688.15,520.64c-.08.04-.16.09-.23.13,0,.02,0,.04,0,.05,0,.05,0,.09,0,.14.1-.08.18-.19.24-.32Z"/>
    <path class="cls-2" d="M778.17,386.65c-11-53.7-45.8-101.97-100.32-116.94-9.37-2.58-19.09-4.17-28.81-4.4-2.59-.07-7.59-.71-10.54.76-2.59.36-6.23-1-8.82-1.31-7.4-.91-14.86-1.36-22.32-1.33-19.95.08-40.88,3.57-58.12,14.13-30.62,18.76-45.1,56.91-51.81,90.45-9.24,46.16-6.57,94.56,4.29,140.19,3,12.59,6.71,25,11.04,37.19.22.63.45,1.26.68,1.89,1.93,5.34,3.99,10.63,6.18,15.87,1.21,2.89,1.71,6.43,5.12,6.98,5.19.83,11.81-1.19,16.93-1.93,9.59-1.39,19.19-2.8,28.82-3.9,7.83-.89,15.71-1.65,23.6-1.82,1.81-.04,3.63-.05,5.44-.02,4.34.06,5.86-.07,8.38-3.64,3.44-4.86,6.56-9.98,9.07-15.39,9.57-20.56,7.48-44.44-3.92-63.84-5.67-9.66-13.56-17.91-22.21-24.97-2.88-2.36-4.05-1.71-7.09-.62-4.45,1.59-9.26,1.08-13.71-.51-3.68-1.32-7.03-3.47-10.61-5.05-3.87-1.7-7.55-3.92-10.74-6.7-3.37-2.94-6.18-6.56-8.19-10.55-1.33-2.63-2.32-5.4-3.01-8.26-.35-1.44-.62-2.88-.84-4.35-.02-.17-.04-.28-.06-.35-.01-.24-.02-.52-.04-.84-.2-4.41.47-8.77,2.43-12.74,2.52-5.12,6.01-8.04,11.66-6.72,7.1,1.65,12.01,8.59,15.3,14.61.87,1.59,1.52,3.36,2.46,4.9,2.04,3.33,7.29,3.55,10.86,3.08,4.83-.65,8.23-4.07,11.37-7.55,10.5-11.67,17.08-27.29,22.91-41.63,4.73-11.65,8.89-23.55,12.74-35.53,1.8-5.6,3.47-11.25,5.07-16.91,1.65-5.9,4.05-12.38,4.85-18.51.3.11,1.67.02,1.95.04,2.98.17,5.95.66,8.84,1.36,5.79,1.4,11.32,3.84,16.49,6.74,10.44,5.85,19.57,13.81,27.43,22.78,16.33,18.63,27.28,41.65,32.55,65.79,2.57,11.8,3.45,23.92,3.55,35.98.1,12.11-1.26,24.27-5.77,35.59-4.81,12.08-12.66,22.89-22.67,31.2-1.96,1.63-4.01,3.17-6.11,4.61-2.17,1.48-5.02,2.63-6.99,4.33-3.34,2.9-3,7.98-3.17,12.02-.52,11.91.75,23.99,3.83,35.51.24.88.59,1.92,1.26,2.57.31.3.7.51,1.17.59,17.96,2.93,35.92,5.85,53.87,8.78.28.12.57.13.85,0,.79-.22,1.4-1.18,1.79-2.48,1.4-2.38,2.76-4.79,4.08-7.21,28.5-52,41-113.38,29.01-171.94ZM572.04,407.62c.25.18.35.48,0,0h0ZM762.48,512.02c-5.54,15.06-12.46,29.59-20.61,43.42-17.2-2.81-34.4-5.61-51.6-8.41-1.71-7.33-2.53-14.83-2.46-22.37.01-1.23.05-2.46.1-3.7-.19.16-.45.22-.82.08.14.05.45-.07.83-.27.03-.54.14-1.15.09-1.68-.19-2.19.64.41.14,1.55,1.07-.61,2.52-1.71,2.89-1.94,1.83-1.16,3.62-2.38,5.37-3.67,12.59-9.3,22.52-22.04,28.47-36.53,5.91-14.38,7.88-29.95,7.75-45.42-.13-15.55-1.53-31.09-5.2-46.23-7.24-29.93-22.83-58.83-46.29-79.14-10.59-9.17-23.22-16.75-37.15-19.31-5.29-.97-10.29-2.24-12.28,3.83-2.41,7.36-3.75,15.21-5.89,22.67-4.46,15.55-9.62,30.93-15.64,45.94-4.42,11.01-9.23,22.1-15.66,32.11-3.11,4.85-6.86,10.62-11.95,13.66-2.11,1.27-4.53,1.42-6.97,1.22-1.01-.08-2.68-.02-3.59-.26-.06-.07-.11-.14-.18-.25-2.09-3.14-3.44-6.79-5.58-9.94-4.4-6.46-13.66-15.7-22.52-11.96-5.92,2.5-9.27,10.5-10.95,16.2-.94,3.19-1.48,6.54-1.74,9.86-.13,1.76-.2,3.53-.15,5.29.03,1.01.12,2.02.19,3.04.01.06.01.13.02.19,0,.06.01.12.01.18,0,.02,0,.03,0,.05v.07c1.22,12.35,5.89,24.5,15.22,32.96,4.16,3.78,8.89,6.31,14.03,8.46,5.89,2.48,10.65,5.9,17.41,6.01,1.85.04,3.83-.15,5.61-.7,1.53-.47,3.08-1.77,4.61-1.31,2.02.61,4.65,4.01,6.22,5.44,3.08,2.81,6,5.81,8.67,9.02,8.63,10.33,15.36,23.85,14.68,37.64-.36,7.23-3.11,14.19-6.5,20.51-1.75,3.24-3.9,8.01-6.69,10.47-1.43,1.27-.11.73-2.03.98-1.45.19-3.1-.09-4.57-.09-8.06-.01-16.11.61-24.14,1.48-4.62.51-9.23,1.1-13.83,1.71-10.3,1.37-20.56,3.23-30.9,4.27-1.13.11-2.51.41-3.64.24-.16-.02-.38,0-.6.01.37-.39-.92-2.88-1.09-3.27-.93-2.23-1.84-4.46-2.73-6.71-2.32-5.89-4.48-11.85-6.46-17.88-9.97-30.49-15.85-62.43-16.77-94.52-.78-27.8,1.92-55.95,10.23-82.58,6.49-20.77,16.99-41.86,33.91-56.1,19.78-16.65,46.69-20.88,71.81-20.08,7.58.25,15.15.96,22.63,2.17.54.09,1.42.41,1.97.34.57-.08,2.09-1.31,2.34-1.7-.13.32-.72,1.16-1.15,1.45.08-.02.15-.05.19-.04.65.14,1.78-.23,2.45-.28,16.53-1.36,34.17,2.7,49.38,8.86,26.04,10.54,47.34,29.64,61.9,53.56,31.07,51.04,29.25,116.77,9.2,171.4Z"/>
    <path class="cls-2" d="M641.23,394.45c1.94,2.01,3.3-.39,3.84-2.29,2.43-8.63,3.08-17.49,2.35-26.4-.14-1.64-1.1-5.46-3.45-4.45-2.3.99-2.11,6-1.96,7.84.47,5.63-.25,11.16-1.78,16.58-.67,2.38-.87,6.78,1.01,8.72Z"/>
    <path class="cls-2" d="M682.69,393.45c1,2,3.08,2.6,3.97,0,3.07-8.95,4.11-18.29,2.78-27.69-.23-1.61-1.05-5.49-3.45-4.45-2.23.96-2.21,6.04-1.96,7.84.73,5.17.36,10.32-1.34,15.29-.95,2.76-1.36,6.3,0,9.02Z"/>
    <path class="cls-2" d="M659.15,431.35c-2.67-1.11-3.34,7.22-.99,8.2,8.96,3.72,20.04,3.88,22.77-7.39,4.02-16.54-8.95-32.48-17.33-45.38-1.08-1.67-2.26.58-2.56,1.52-.57,1.77-.35,4.24.67,5.81,3.21,4.95,6.64,9.76,9.6,14.87,2.91,5.02,8.44,13.93,6.07,19.98-2.72,6.93-12.99,4.56-18.22,2.39Z"/>
    <path class="cls-2" d="M684.41,473.59c-11.97.81-24.25,1.03-36.05-1.47-6.55-1.39-13.57-3.77-18.49-8.53-2.71-2.62-4.65-6.24-4.93-9.5-.13-1.54.16-3.66,1.03-5.63.69-1.56,1.03-4.52,0-6.01-.86-1.25-1.86-1.78-2.64,0-3.66,8.28-2.79,19.17,2.79,26.38,4.38,5.66,11.12,8.79,17.85,10.71,13.04,3.71,27.05,3.46,40.44,2.56,2.71-.18,2.54-8.67,0-8.5Z"/>
  </g>
</svg>