<?xml version="1.0" encoding="UTF-8"?>
<svg id="Camada_1" xmlns="http://www.w3.org/2000/svg" viewBox="0 0 3125.93 956.38">
  <defs>
    <style>
      .cls-1 {
        fill: #ff9c19;
      }
    </style>
  </defs>
  <path class="cls-1" d="M445.95,573.83h0c-20.77,0-37.61,16.84-37.61,37.61v54.8h-123.58v-376.1h123.58v63.94c0,20.77,16.84,37.61,37.61,37.61h0c20.77,0,37.61-16.84,37.61-37.61v-63.94h123.58v376.1h-123.58v-54.8c0-20.77-16.84-37.61-37.61-37.61Z"/>
  <path class="cls-1" d="M956.37,526.55c0,25.79-2.95,47.82-8.86,66.09-5.91,18.27-15.31,33.31-28.21,45.13-12.89,11.82-29.47,20.42-49.7,25.79-20.24,5.37-44.69,8.06-73.34,8.06s-53.11-2.69-73.34-8.06c-20.24-5.37-36.72-13.88-49.43-25.52-12.72-11.64-22.03-26.68-27.94-45.13-5.91-18.44-8.86-40.57-8.86-66.36v-236.41h123.58v161.99c0,20.03,16.24,36.27,36.27,36.27h0c20.03,0,36.27-16.24,36.27-36.27v-161.99h123.58v236.41Z"/>
  <path class="cls-1" d="M1715.02,429.83v236.41h-105.75c-9.84,0-17.83-7.98-17.83-17.83v-21.4h-72.53v21.4c0,9.84-7.98,17.83-17.83,17.83h-105.75v-236.41c0-25.79,2.96-47.9,8.87-66.36,5.91-18.44,15.22-33.49,27.94-45.13,12.71-11.64,29.19-20.15,49.43-25.52,20.23-5.37,44.68-8.06,73.34-8.06s53.1,2.69,73.34,8.06c20.23,5.37,36.8,13.97,49.7,25.79,12.9,11.82,22.3,26.86,28.21,45.13,5.91,18.27,8.87,40.3,8.87,66.09ZM1538.79,487.32h32.77c10.98,0,19.88-8.9,19.88-19.88h0c0-10.98-8.9-19.88-19.88-19.88h-32.77c-10.98,0-19.88,8.9-19.88,19.88h0c0,10.98,8.9,19.88,19.88,19.88Z"/>
  <path class="cls-1" d="M1787.16,290.14h27.75c12.5,0,24.57,4.54,33.96,12.78l74.84,65.64c4.31,3.78,11.06.72,11.06-5.01v-73.41h123.58v333.51c0,23.52-19.07,42.59-42.59,42.59h-26.88c-13.02,0-25.56-4.93-35.09-13.8l-74.44-69.27c-4.26-3.97-11.2-.94-11.2,4.88v78.19h-123.58v-333.51c0-23.52,19.07-42.59,42.59-42.59Z"/>
  <path class="cls-1" d="M2116.03,290.14h72.67c14.06,0,25.45,11.4,25.45,25.45v325.2c0,14.06-11.4,25.45-25.45,25.45h-72.67c-14.06,0-25.45-11.4-25.45-25.45v-325.2c0-14.06,11.4-25.45,25.45-25.45Z"/>
  <path class="cls-1" d="M2257.95,290.14c-9.35,0-16.93,7.58-16.93,16.93v133.51l150.9-18.66s-150.9,73.38-150.9,210.47v33.86h264.61c9.35,0,16.93-7.58,16.93-16.93v-133.51l-144.46,18.66s147.68-73.33,147.68-208.53v-35.79h-267.83Z"/>
  <path class="cls-1" d="M2552.64,290.14h288.53v116.05h-156.89c-5.93,0-10.75,4.81-10.75,10.75h0c0,5.93,4.81,10.75,10.75,10.75h100.74c27.45,0,49.7,22.25,49.7,49.7h0c0,27.45-22.25,49.7-49.7,49.7h-100.74c-5.93,0-10.75,4.81-10.75,10.75v1.61c0,5.93,4.81,10.75,10.75,10.75h155.82v116.05h-287.45v-376.1Z"/>
  <path class="cls-1" d="M1365.78,290.14v376.11h-123.58v-127.89l-38.95,55.4c-5.88,8.39-15.51,13.38-25.75,13.38h-5.97c-10.26,0-19.87-5-25.77-13.39l-36.27-51.62v124.12h-123.57v-376.11h125.31c6.65,12.51,35.97,64.85,60.3,64.85h5.97c23.23,0,54.04-50.27,62.47-64.85h125.81Z"/>
</svg>