<?xml version="1.0" encoding="UTF-8"?>
<svg id="Camada_1" xmlns="http://www.w3.org/2000/svg" viewBox="0 0 1569.53 1384.43">
  <defs>
    <style>
      .cls-1 {
        fill: #ff5459;
      }
    </style>
  </defs>
  <path class="cls-1" d="M1284.76,527.25c0,31.46-5.97,62.15-17.76,91.21-12.21,30.12-30.14,57.12-53.26,80.25l-381.13,381.14c-26.42,26.42-69.26,26.42-95.68,0-26.42-26.42-26.43-69.27,0-95.69l381.13-381.14c20.24-20.24,31.39-47.15,31.39-75.77,0-28.47-11.34-55.8-31.51-75.9-20.23-20.17-47.09-31.26-75.66-31.26s-55.53,11.14-75.77,31.38l-86.06,86.06-.34.34-57.87,57.87c-20.7,20.7-54.26,20.7-74.97,0l-144.26-144.26c-41.78-41.78-109.77-41.78-151.55,0-41.78,41.79-41.78,109.77,0,151.56l284.93,284.93-95.69,95.69-284.93-284.93c-23.12-23.12-41.05-50.12-53.26-80.25-11.78-29.06-17.76-59.75-17.76-91.21s5.98-62.15,17.76-91.22c12.21-30.12,30.14-57.12,53.26-80.25,23.12-23.12,50.12-41.05,80.25-53.26,29.06-11.78,59.75-17.76,91.22-17.76s62.15,5.98,91.21,17.76c30.12,12.22,57.12,30.14,80.25,53.26l48.57,48.57c20.7,20.7,54.26,20.7,74.96,0l48.57-48.57c23.12-23.12,50.12-41.05,80.25-53.26,29.06-11.78,59.75-17.76,91.21-17.76s62.15,5.98,91.22,17.76c30.12,12.22,57.12,30.14,80.25,53.26,23.12,23.12,41.05,50.12,53.26,80.25,11.79,29.06,17.76,59.75,17.76,91.22Z"/>
</svg>