<?xml version="1.0" encoding="UTF-8"?>
<svg id="Camada_1" xmlns="http://www.w3.org/2000/svg" viewBox="0 0 1333.4 1374.64">
  <defs>
    <style>
      .cls-1 {
        fill: #01debb;
      }
    </style>
  </defs>
  <path class="cls-1" d="M1048.64,1019.02l-70.85,70.85-257.89-257.89c-16.81-16.81-14.61-44.7,4.67-58.61,9.32-6.72,18.12-14.22,26.35-22.45,4.97-4.97,9.67-10.15,14.09-15.52,13.11-15.92,23.79-33.55,31.86-52.63,11.16-26.4,16.83-54.47,16.83-83.43s-5.66-57.03-16.83-83.43c-10.8-25.52-26.26-48.45-45.96-68.15-19.7-19.7-42.63-35.16-68.15-45.96-26.4-11.16-54.47-16.83-83.43-16.83s-57.03,5.66-83.43,16.83c-25.52,10.8-48.45,26.26-68.15,45.96-19.7,19.7-35.16,42.63-45.96,68.15-11.16,26.4-16.83,54.47-16.83,83.43s5.66,57.03,16.83,83.43c10.8,25.52,26.26,48.45,45.96,68.15,19.7,19.7,42.63,35.16,68.15,45.96,26.4,11.16,54.47,16.83,83.43,16.83.18,0,.36,0,.54,0,13.39-.03,26.25,5.2,35.72,14.67h0c31.47,31.47,9.34,85.38-35.17,85.53-.37,0-.73,0-1.1,0-42.44,0-83.65-8.32-122.46-24.74-37.46-15.85-71.1-38.52-99.97-67.4-28.87-28.87-51.55-62.51-67.4-99.97-16.42-38.81-24.74-80.01-24.74-122.46s8.32-83.65,24.74-122.46c15.85-37.46,38.52-71.1,67.4-99.97,28.87-28.88,62.51-51.55,99.97-67.4,38.81-16.42,80.01-24.74,122.46-24.74s83.65,8.32,122.46,24.74c37.46,15.85,71.1,38.52,99.97,67.4,28.87,28.87,51.55,62.51,67.4,99.97,16.42,38.81,24.74,80.01,24.74,122.46s-8.32,83.65-24.74,122.46c-8.9,21.04-19.95,40.87-33.05,59.33-10.88,15.34-9.07,36.31,4.23,49.61l188.29,188.29Z"/>
</svg>