<?xml version="1.0" encoding="UTF-8"?>
<svg id="Camada_1" xmlns="http://www.w3.org/2000/svg" viewBox="0 0 1678.68 2731.7">
  <defs>
    <style>
      .cls-1 {
        fill: #fff6eb;
      }

      .cls-2 {
        fill: #bf7513;
      }

      .cls-3 {
        fill: #ff9c19;
      }
    </style>
  </defs>
  <g>
    <path class="cls-1" d="M918.02,1505.25c-1.27.06-2.54.12-3.81.17-1.64,4.69-3.3,9.38-4.98,14.06-3.48,9.77-7.02,19.51-10.6,29.25-1.83,4.99-3.68,9.99-5.55,14.97,2.85-.14,5.7-.27,8.55-.4,1.85-4.98,3.68-9.96,5.49-14.96,3.55-9.73,7.05-19.48,10.49-29.25,1.67-4.68,3.32-9.36,4.95-14.06-1.51.07-3.03.15-4.54.22ZM1210.07,1533.99c-5.12-9.34-10.25-18.67-15.37-28.01-2.47-4.5-4.94-8.98-7.4-13.48-3.33.16-6.68.32-10.02.48,2.47,4.49,4.92,8.97,7.39,13.47,5,9.11,10.01,18.23,15.02,27.35.11.22.24.44.36.66,2.63,4.77,5.25,9.56,7.88,14.33,3.34-.16,6.69-.32,10.02-.48-2.63-4.77-5.25-9.55-7.86-14.32Z"/>
    <path class="cls-1" d="M810.72,1782.16c-32.29,87.68-63.66,175.7-94.33,263.95-18.45,53.08-36.65,106.24-54.64,159.47-4.86,14.39-9.7,28.78-14.53,43.19-2.96,8.81-7.77,18.33-7.82,27.71-.08,13.26.2,26.54.29,39.79v.31c-24.04-21.19-48.1-42.36-72.15-63.55-40.55-35.72-81.1-71.43-121.64-107.15-7.93-7-15.88-13.99-23.83-20.99,2.21-7.46,4.44-14.92,6.65-22.4,7.99-26.85,15.98-53.69,23.96-80.55,11.82-39.71,23.63-79.42,35.44-119.13,14.42-48.46,28.83-96.91,43.25-145.35,15.72-52.86,31.45-105.72,47.17-158.58,16-53.76,31.99-107.54,47.99-161.3,14.81-49.75,29.6-99.5,44.4-149.25,12.56-42.22,25.12-84.44,37.68-126.66.56-1.88,1.12-3.77,1.68-5.65,1.26-4.26,2.53-8.5,3.79-12.75,7.21-24.22,14.4-48.45,21.62-72.67,4.06-13.65,9.17-27.44,12.41-41.34,12.92-.05,25.83-.1,38.75-.16-15.29-.61-30.58-1.45-45.86-2.53-2.1,7.08-4.2,14.16-6.31,21.23-7.99,26.85-15.97,53.71-23.96,80.55-.25.85-.51,1.71-.76,2.56-3.62-10.91-7.21-21.82-10.76-32.75-7.98-24.56-15.96-49.19-22.74-74.12-.02-.09-.05-.17-.07-.27.13,0,.25,0,.38.01,11.81.17,23.62.36,35.43.54-14.78-1.28-29.55-2.77-44.3-4.46.01.06.02.12.03.17,5.11,21.44,11.94,42.52,18.6,63.51,6.38,20.1,12.94,40.14,19.62,60.15-10.29,34.6-20.59,69.19-30.87,103.79-14.42,48.45-28.83,96.89-43.25,145.35-15.72,52.85-31.45,105.72-47.17,158.57-16,53.78-31.99,107.54-47.99,161.31-14.8,49.75-29.6,99.5-44.4,149.25-12.56,42.21-25.12,84.43-37.68,126.65-9.03,30.36-18.06,60.72-27.09,91.07-4.28,14.37-8.82,28.69-12.84,43.13-.17.62-.37,1.23-.54,1.85-.77,2.59-1.06,8.03,1.15,10.07.1.09.2.17.29.24.15.17.31.35.48.5,9.39,8.27,18.77,16.54,28.16,24.81-11.64,25.91-23.29,51.84-34.94,77.74-2.79-1.04-5.62-2.01-8.49-2.86-2.99-.88-5.99-1.67-9.02-2.36-2.73-.62-8.26-2.77-11-2.05-2.04.53-3.49,3.43-4.65,5.05-2.11,3-4.14,6.07-6.15,9.15-5.34,8.19-10.49,16.5-15.29,25.01-4.92,8.73-8.71,16.57-9.05,26.79-.24,7.13.98,14.05,2.66,20.95,1.2,4.89,2.21,9.16,1.69,13.82-45.63-11.31-92.22-21.81-139.4-22.81-21.6-.46-43.52,1.22-64.27,7.55-19.29,5.87-39.67,16.12-50.44,33.93-5.63,9.29-8.35,19.74-10.03,30.39-1.42,9-1.6,18.57-4.88,27.16-.38.65-.68,1.51-.89,2.5-.76,2.86-.75,6.32.52,8.86.25.48.53.9.84,1.2.03.06.08.09.13.13.38.4.82.68,1.33.83,109.98,31.37,219.28,65.15,328.95,97.58,32.02,9.47,64.1,18.8,96.2,27.97,1.53.44,2.58-2.78,2.79-3.64,13.83-55.55,27.65-111.09,41.48-166.64,1.95-7.82,3.9-15.65,5.85-23.48.35-1.41.7-4.87.14-7.55,10.11-19.32,20.22-38.66,30.32-57.98,8.46,7.45,16.94,14.91,25.41,22.37,9.31,8.2,18.61,16.39,27.91,24.59,2.92,2.57,4.11-6.32,4.09-7.09-.08-11.15-.16-22.3-.24-33.45-.05-5.69-.7-11.75-.13-17.41.03-.32-.03-.69-.05-1.05.38-.45,1.89-4.05,2.06-4.57,2.44-7.32,4.9-14.65,7.36-21.97,18.5-55.04,37.2-110.02,56.19-164.9,31.28-90.45,63.25-180.65,96.18-270.53,5.78-15.76,11.59-31.52,17.45-47.25,2.19-5.89,4.39-11.79,6.6-17.68.06-7.67.1-15.34.16-23.02-2.2,5.86-4.41,11.72-6.6,17.57-4.86,13.01-9.7,26.03-14.5,39.06ZM516.66,2490.75s0,0,0,0c-12.71-3.65-25.42-7.31-38.13-10.96-31.46-9.04-62.92-18.09-94.37-27.13-38.23-10.99-76.47-21.98-114.7-32.97-32.91-9.46-65.83-18.92-98.74-28.39-10.92-3.14-21.83-6.28-32.75-9.42-3.38-.97-6.76-1.94-10.13-2.91-1.6-.46-3.75-1.54-5.43-1.56-.21,0-.48-.14-.69-.2-3.52-1.01-4.9,13.3,0,14.7,13.18,3.79,26.36,7.58,39.54,11.37,31.46,9.04,62.92,18.09,94.37,27.13,38.23,10.99,76.47,21.98,114.7,32.97,32.91,9.46,65.83,18.92,98.74,28.39,10.92,3.14,21.83,6.28,32.75,9.42,3.38.97,6.76,1.94,10.13,2.91.4.11.83.27,1.28.43,0,0,0,0,0,0-.63,2.57-1.28,5.13-1.91,7.7-1.6,6.44-3.21,12.88-4.81,19.33-109.41-31.23-218.11-64.82-327.21-97.07-30.17-8.91-60.37-17.72-90.62-26.37,2.8-13.19,2.58-27.1,7.92-39.67,8.18-19.22,28.36-30.24,47.27-36.64,41.67-14.08,88.91-8.94,131.39-1.75,25.86,4.37,51.42,10.3,76.86,16.62,1.58.4,2.51-2.74,2.79-3.63,2.46-7.98,2.64-16.18,1.11-24.36-1.3-6.94-4.02-13.86-3.72-21.01.38-8.94,8.1-19.13,13.03-27.19,3.24-5.29,6.57-10.53,10-15.7,1.45-2.18,4.32-8.64,6.82-9.78,0,.1,1.49.74,2.54,1.02,1.83.47,3.76.69,5.62,1.08,4.96,1.07,9.86,2.4,14.66,4.02,7.84,2.65,15.38,6.15,23.13,9.05,4.52,1.7,9.06,3.34,13.6,5.03,7.88,3.32,15.74,6.65,23.61,9.99-.85,12.72-1.71,25.44-2.56,38.17-.12,1.71-.23,3.4-.35,5.11-.48,7.2-.97,14.39-1.44,21.59-.13,1.83-.3,3.67-.37,5.5-.25,6.07,1.23,8.31,5.43,12.16,1.34,1.22,2.68-1.06,3.15-1.89,2.05-3.71,4.11-7.43,6.16-11.13.01-.02.02-.05.03-.06.3.06.59.1.89.15,21.09,3.47,42.2,6.95,63.29,10.45,3.48.56,6.95,1.14,10.44,1.72-11.11,44.58-22.2,89.18-33.29,133.77ZM550.54,2341.57c-3.68-.3-7.37-.65-11.05-1.03-21.72-3.59-43.44-7.17-65.16-10.75-1.05-.24-1.87,1.08-2.35,2.25-.22.55-.38,1.08-.45,1.38-.33,1.51-1.82,11.36-4.37,11.45h-.06c-.25-.02-.43-.27-.56-.62-.17-.46-.27-1.12-.31-1.8-.01-.09-.01-.18-.02-.28-.03-.76-.01-1.51,0-1.93.17-4.73,1.25-9.55,2.17-14.29,0-.01,0-.02.01-.05,1.22-18.22,2.44-36.44,3.67-54.67.1-1.7.31-5.47-.84-7.63-.33-.65-.8-1.14-1.42-1.41-.1-.05-.2-.08-.3-.13h-.01c-8.48-3.6-16.95-7.18-25.43-10.77-8.76-3.71-17.53-7.42-26.28-11.13,10.91-24.26,21.81-48.52,32.72-72.77,39.68,34.82,79.38,69.61,119.06,104.41,4,3.51,7.99,7.01,11.98,10.51-10.33,19.74-20.67,39.49-30.99,59.24Z"/>
    <path class="cls-1" d="M1597.14,2393.06c-34.26-51.9-67.03-104.77-101.06-156.8-.43-.66-1.73-1.45-2.49-.75-.68.62-1.36,1.25-2.05,1.86,0,0,0,0,0,0-19.45-34.49-38.9-68.99-58.33-103.49,0,0,0,0,0,0,10.49-7.96,21-15.93,31.49-23.89,12.57-9.54,25.14-19.07,37.71-28.61,3.06-2.32,3.13-9.19,1.43-12.28-5.19-9.46-10.38-18.9-15.57-28.35-13.98-25.48-27.97-50.94-41.94-76.41-20.83-37.92-41.64-75.85-62.47-113.78-21.59-39.33-43.17-78.64-64.77-117.96-1.41-2.56-2.81-5.13-4.22-7.69-2.32-4.23-4.65-8.45-6.97-12.69-.17-.31-.33-.61-.51-.92-21.82-39.75-43.65-79.5-65.47-119.26-3.78-6.88-7.57-13.78-11.35-20.67-1.7-3.1-3.4-6.19-5.1-9.3-.99,2.15-1.98,4.3-2.98,6.45-.54,1.18-1.15,2.38-1.79,3.61,1.72,3.14,3.44,6.26,5.15,9.4,24.99,45.52,49.97,91.02,74.96,136.55.12.22.24.44.36.66,2.63,4.77,5.25,9.56,7.88,14.33h.01c2.43,4.43,4.87,8.87,7.3,13.3,15.19,27.65,30.36,55.32,45.55,82.98,22.05,40.18,44.11,80.35,66.17,120.52,15.87,28.9,31.73,57.8,47.59,86.7,6.38,11.61,12.34,23.65,19.03,35.15-22.55,17.1-45.09,34.21-67.64,51.32-2.43,1.85-4.88,3.69-7.31,5.55-7.38,5.59-14.77,11.2-22.15,16.8l-122.2,92.72c-2.5,1.89-5.01,3.79-7.5,5.69-11.53,8.74-23.05,17.49-34.59,26.24-12.05,9.15-24.1,18.29-36.15,27.45-27.88-53.71-61.73-104.26-92.72-156.16-100.22-167.84-117.26-248.95-123.43-264.63-2.86.06-5.71.12-8.57.18,1.94,4.99,22.82,67.97,23.12,68.73,21.69,54.51,47.61,107.04,76.4,158.15,32.95,58.45,69.68,114.62,103.27,172.67,6.57,11.36,12.94,22.83,18.94,34.5.39.75.81,1.28,1.23,1.58.55.66,1.2.85,1.91.31,25.66-19.47,51.33-38.93,76.99-58.41,6.47,10.72,12.94,21.45,19.41,32.18,1.11,1.82,2.2,3.64,3.3,5.47-.81.88-1.49,1.79-1.97,2.73-3.4,6.57,1.51,18.71,3.32,25.32,2.44,8.9,5.19,17.77,8.51,26.4,3.43,8.87,7.8,16.06,15.27,22.23,6.47,5.33,13.93,8.44,20.16,13.45-32.89,25.12-67.9,46.98-103.2,68.59-18.13,11.09-36.2,22.29-53.81,34.22-15.86,10.74-32.65,20.77-35.44,41.35-2.35,17.39,6.14,34.25,3.9,51.43-1.15,3.94-.59,10.07,1.97,10.96.13.05.24.08.37.13.03.01.06.02.09.02,26.02,9.02,53.23,14.1,80.83,12.79,25.84-1.23,51.1-7.95,74.98-17.69,59.46-24.26,112.01-64.13,164.68-100.12,39.23-26.79,78.85-53.01,119.65-77.37,3.72-2.23,2.77-10.41.77-13.44ZM1281.85,2248.73s0,0,0,0c6.19-4.7,12.39-9.4,18.58-14.1,41.82-31.73,83.64-63.46,125.47-95.2h0c17.6,31.25,35.21,62.49,52.83,93.74l5.85,10.38c.6,1.06,1.2,2.12,1.79,3.18-17.09,14.2-34.19,28.39-51.28,42.59-1,.83-2.02,1.67-3.02,2.5-1.38,1.15-2.76,2.29-4.14,3.45h0s0,0,0,0c-.08.07-.17.14-.25.21-3.51-3.4-7.04-6.8-10.55-10.21,0,0,0,0,0-.01-.01-.01-.02-.02-.03-.03-12.86-12.43-25.72-24.88-38.58-37.31-.38-.38-.73-.7-1.12-.88h-.01s0,0,0,0c-.39-.15-.82-.15-1.36.14-.4.21-.82.42-1.22.63h0s0,0,0,.01c0,0,0,0,0,0-19.55,10.15-39.07,20.32-58.62,30.49-.01,0-.01.01-.02.01,0,0,0,0,0,0-4.16,2.17-8.33,4.32-12.49,6.5-7.25-12.03-14.52-24.07-21.77-36.1ZM1400.43,2520.15c-46.26,30.11-96.5,60.13-152.51,66-29.62,3.1-59.23-1.14-87.36-10.55.36-13.17-3.62-25.69-4.57-38.97-1.37-19.32,18.96-29.3,32.73-38.58,33.29-22.43,68.25-42.25,101.92-64.08,21.01-13.62,41.46-28.07,61.13-43.57,3.46-2.73,2.99-10.09.77-13.44-9.98-15.06-30.7-17.86-38.51-34.77-5.45-11.82-9.66-25.09-12.37-38.06,6.75-5.53,13.95-10.05,21.39-14.36,0,0,0,0,.01,0,.01-.01.03-.01.05-.02,3.61-2.09,7.29-4.13,11-6.2,6.94-3.88,13.78-7.95,20.78-11.72,3.74-2.02,7.52-3.96,11.38-5.72,2.72-1.26,8.18-4.73,11.2-4.46,2.99.27,7.14,5.28,9.27,7.2,3.4,3.07,6.63,6.31,9.79,9.62,5.96,6.26,11.62,12.8,17.44,19.21.69.76,1.47,1.66,2.32,2.65t.02.02s0,0,.01,0c4.99,5.81,12.55,14.54,19.69,14.29,4.52-.16,5.24-6.17,5.16-9.65-.03-1.58-.28-3.1-.66-4.59,17.76-14.75,35.52-29.49,53.27-44.23.83-.69,1.44-1.71,1.86-2.89,0,0,0,0,0,0h0c23.99,36.77,47.36,73.92,71.13,110.84h0s0,0,0,0c-45.46,27.62-88.23,59.18-131.56,89.99-40.72,28.96-82.5,57.21-128.62,76.93-26.51,11.32-54.18,19.45-82.66,23.98-4.81.76-4.07,15.35,0,14.7,49.85-7.9,96.42-27.27,139.7-52.85,45.21-26.71,86.99-58.77,129.85-88.99,26.2-18.49,52.83-36.35,80.36-52.81,0,0,0,0,0,0,4.61,7.15,9.25,14.28,13.92,21.39-64.08,38.82-124.58,82.86-187.33,123.7Z"/>
    <path class="cls-1" d="M112.15,873.07c.58,4.82,2.22,9.5,5.29,13.27-1.37,3.34-1.76,7.2-1.27,10.88.94,7.25,9.28,12.4,15.07,15.88,8.78,5.29,19.01,8.36,29.26,8.81,2.92.13,5.02-.21,7.03.84,3.35,1.77,6.42,3.64,10.06,4.87,9.19,3.12,18.9,3.1,28.07-.12.52-.19,3.48-1.05,3.93-1.85.11.14.2.27.26.34.84,1,1.74,1.97,2.62,2.95,4.83,5.42,9.75,10.77,14.72,16.07,35.48,37.76,73.98,73.14,116.05,103.48,47.32,34.16,103.31,65.92,163.01,68.62,21.22.97,43.56-2.04,62.99-11.03,16.9-7.83,31.29-20.69,42.83-35.15,43.05-53.96,48.39-135.07,48.43-139.7.21-30.4-3.01-28.04-2.8-58.43-.54-3.3-1.16-6.6-1.85-9.88-.33-1.66-.68-3.31-1.06-4.96-.64-2.82-1.18-7.64-2.53-11.34-.24-.67-.51-1.3-.81-1.87-.25-.65-.55-1.21-.93-1.65-.27-.33-.59-.59-.94-.75h-.01c-.34-.26-.66-.32-.98-.24-27.17-2.04-54.36-4.08-81.53-6.13-32.32-2.43-64.73-5.79-97.11-7.3-.61-.04-1.59-.34-2.19-.17-3.38.94-3.48,5.87-3.42,8.68.04,2.02.15,4.03.29,6.05.27,3.78.66,7.58.93,11.34,1.46,20.62,2.91,41.22,4.37,61.85-3.4-1.67-8.48-4.19-9.07-4.44-3.96-1.76-7.93-3.49-11.92-5.21-8.78-3.81-17.61-7.54-26.45-11.21-18.65-7.71-37.42-15.11-56.31-22.19-18.06-6.77-36.24-13.24-54.51-19.4-8.81-2.97-17.62-5.87-26.47-8.7-4.34-1.39-8.68-2.76-13.01-4.11-1.99-.62-3.97-1.24-5.97-1.85-.31-.09-2.12-.51-3.54-.83-.26-15.14-3.98-30.33-11.2-43.62-2.78-5.12-6.01-9.97-9.74-14.45,0,0,0,0,0,0,3.52-18.92,7.04-37.84,10.56-56.76,1.2-6.47,2.4-12.94,3.61-19.42.08-.48.2-1.26.26-2.15,0-.01,0-.02,0-.04,1.31-2.64,1.64-6.09,1.94-9.14.55-5.45,2.25-12.36-1.04-17.22-3.3-4.87-13.01-4.08-18.14-4.6-24.93-2.52-49.87-5.04-74.8-7.57-7.01-.71-14.3-2.1-21.35-2.16-5.55-.05-7.84,4.09-8.58,9.09-.76,5.08-1.97,11.36-1.2,16.5.4,2.67,1.37,4.49,2.7,5.76h0c.19,27,.38,53.99.57,80.98h0c-2.39,5.74-2.05,13.08.14,19.55h0c0,.3.01.58.01.88h0c-10.42,4.93-14.53,17.48-12.29,29.05-5.07,2.13-8.59,6.02-9.91,12.45-1.49,7.21-.63,14.96,2.7,21.43-3.68,4.22-5.52,9.31-4.72,16.03ZM468.13,843.58c-.4.25-.42.08-.17-.01.07-.04.17-.06.28-.06-.05.02-.08.06-.12.07ZM237.78,775.98c-.34-.39-.71-.76-1.08-1.14-1.91-1.93-3.89-3.96-6.06-5.63-3.05-2.36-6.61-1.5-10.42-1.49-16.17.05-32.41.07-48.56-.93-4.06-.25-8.13-.53-12.14-1.17-4.56-.72-8.77-2.45-13.44-.98-2.16.67-3.97,1.69-5.48,2.97,0,0,0,0,0,0h0c-.14-19.26-.28-38.53-.41-57.79-.04-4.88-.07-9.76-.11-14.64.4.05.81.08,1.21.13h.02s.01,0,.02,0c2.48.48,5.24.56,7.88.83,11.47,1.16,22.94,2.32,34.42,3.48,21.92,2.22,43.85,4.44,65.77,6.65.06,0,.11-.01.17-.02.01,0,.02,0,.03,0h.02s.05.01.07.01h.02c.34.04.67.07,1.01.09-4.31,23.2-8.64,46.4-12.96,69.61ZM137.53,681.79c.24-2.38-.05-5.88.82-8.11,1.61-4.12,11.21-1.61,14.69-1.26,21.93,2.22,43.86,4.44,65.79,6.66,9.67.98,19.35,1.96,29.02,2.94,2.3.23,3.93.39,6.08,1.26.34.14.49-.12.55-.32-.03.21-.06.64-.07,1.43-.02,1.56-.32,3.19-.48,4.75-.38,3.71.4,6.87-4.33,7.12-32.41-3.28-64.79-6.55-97.21-9.83-4.15-.42-8.29-.85-12.44-1.26,0,0,0,0,0,0-1.14-1.23-1.96-1.34-2.43-.32-.18-.15-.23-.04-.22.09-.02-.07-.03-.13-.06-.24-.22-.79.21-2.08.29-2.9ZM129.61,817.3c.11.94-.18.66,0,0h0ZM119.67,869.94c.57-.54,1.12-1.08,1.69-1.63,1.27-1.08,2.83-1.73,4.21-2.64,3.76-2.49,3.25-11.87,0-14.5-1.83-1.47-3.41-3.24-4.41-5.38-.6-1.28-1-2.51-.98-3.93,2.06-4.3,6.59-4.92,10.8-5.49,4.88-.67,3.61-11.35,1.67-14-.53-.72-1.07-1.44-1.49-2.23-.07-.14-.9-2.51-1.34-3.35,0-.04.02-.07.05-.11.64-1.05,1.08-2.04,1.87-3.03,1.34-1.67,2.96-3.04,4.74-4.08,1.38-.8,2.85-1.41,4.4-1.84,1.74-.5,3.57-.74,5.42-.77,1.76-.01,2.46-2.43,2.85-3.71.02-.09.06-.2.08-.29.87-2.88.95-9.03-1.98-11.03-2.55-1.74-4.47-3.91-5.55-6.84-.22-.58-.35-.85-.44-.95.05,0,.12-.05.21-.27.94-2.33,3.64-3.82,5.91-4.42,4.14-1.12,8.05.55,12.13,1.2,9.29,1.47,18.87,1.58,28.26,1.82,7.98.2,15.96.27,23.95.29,4.62.01,9.54-.5,14.12-.04,1.74.18,1.57,0,3.03.98,1.26.85,2.45,2.13,3.54,3.17.95.92,1.9,1.87,2.8,2.84,0,0,0,0,0,0,1.36,1.45,2.66,2.95,3.91,4.5,0,0,0,0,0,0,0,0,0,0,0,0,8.24,10.21,14.03,22.48,16.07,35.44.93,5.98-.41,12.97,1.2,18.72,1.1,3.88,3.4,4,7.03,5.12,4.66,1.43,9.3,2.88,13.95,4.35,18.53,5.86,36.97,12.02,55.3,18.48,37.97,13.4,75.49,28.1,112.46,44.07,5.3,2.29,10.61,4.61,15.89,6.94,2.85,1.27,10.04,6.12,13.03,5.38,3.39-.84,3.05-7.13,2.96-9.53-.22-5.86-.83-11.73-1.24-17.58-1.46-20.56-2.91-41.13-4.37-61.7v-.02c.48,0,.94,0,1.32.02,4.3.32,8.61.65,12.91.97,14.36,1.08,28.73,2.16,43.09,3.24,32.47,2.44,64.94,4.88,97.42,7.32,6.93.52,13.86,1.04,20.79,1.57.37,1.39.72,2.78,1.05,4.18,1.18,4.79,2.19,9.61,3.05,14.44,4.17,23.38,4.82,47.33,1.76,70.95-.64,4.88-1.41,9.78-2.35,14.69-5.79,30.92-17.28,61.88-35,87.56-11.08,16.09-25.09,30.41-42.32,39.87-15.31,8.41-33,12.21-50.32,13.26-55.33,3.35-108.94-22.5-154.23-51.81-44.21-28.6-84.37-63.45-121.35-100.81-11-11.09-21.71-22.47-32.1-34.13-1.43-1.6-3.32-4.72-5.53-4.59-1.25.07-2.99,1.36-4.2,1.82-2.55.98-5.17,1.67-7.86,2.09-4.95.77-10.06.58-14.94-.53-3.89-.88-7.6-2.39-11.06-4.36-2.11-1.2-3.54-2.52-5.92-2.75-9.3-.88-17.45-.98-26.28-4.94-4.13-1.85-8.04-4.18-11.64-6.91-.68-.52-1.36-1.12-2.02-1.73.18-.08.37-.15.59-.21,4.92-1.46,4.04-12.04.87-14.77-2.32-2-4.99-3.01-6.91-5.62-.12-.17-.72-1.24-1.14-1.78.15-.26.34-.59.57-.99Z"/>
    <path class="cls-1" d="M860.45,306.73c2.76-1.19,2.48-7.12,2.33-9.32-.5-7.1.58-14.08,2.59-20.88.83-2.81,1.02-8.07-1.2-10.36-2.32-2.4-3.9.48-4.56,2.72-3.14,10.62-4.04,21.53-3.26,32.55.14,1.95,1.32,6.48,4.1,5.29Z"/>
    <path class="cls-1" d="M809.23,296.08c2.67-1.15,2.6-7.17,2.33-9.32-.83-6.57-.17-13.1,2.07-19.34,1.17-3.25,1.6-7.51,0-10.71-1.21-2.42-3.62-3.05-4.71,0-3.94,10.99-5.25,22.48-3.78,34.08.24,1.93,1.26,6.51,4.1,5.29Z"/>
    <path class="cls-1" d="M828.29,357.09c3.32-.63,2.72-10.62,0-10.1-6.36,1.21-20.81,2.05-21.57-7.06-.65-7.84,7.75-16.84,12.48-22.26,5.26-6.02,11.12-11.45,16.73-17.12,2.01-2.03.73-11.72-2.24-8.72-13.34,13.46-33.4,29.6-31.3,50.81,1.36,13.76,14.16,16.69,25.89,14.45Z"/>
    <path class="cls-1" d="M866.07,368.48c-1.57,1.13-1.16,5.06-.83,6.74,0-.01.01.05.03.15-.01-.05-.02-.1-.03-.15,0,.01,0,.06.03.16.04.23.12.7.15,1.28,0-.08.07.13.02,1.35-.04.93-.15,2.51-.73,4.31-1.5,4.67-4.88,8.64-9.13,11.33-7.21,4.56-16.06,5.72-24.43,5.82-15.24.18-30.41-3.26-45-7.33-2.44-.68-3.37,9.16,0,10.1,15.88,4.44,32.69,8.28,49.3,7.17,8.65-.58,17.89-2.68,24.61-8.48,8.6-7.42,11.35-19.79,9.03-30.63-.4-1.85-1.44-2.96-3.04-1.81Z"/>
    <path class="cls-1" d="M876.3,450.6c8.38-4.16,16.22-9.44,23.17-15.7,13.99-12.6,23.89-30.18,33.14-46.62.92,2.47,1.35,5.36,2.17,7.6,1.37,3.77,3.38,8.12,7.21,9.95,8.1,3.87,19.15-3.52,24.74-8.76,17.08-16.03,25.46-41.58,28.58-64.24,15.08-12.39,25.98-27.1,31.52-46.19,4.33-14.94,4.87-30.79,4.02-46.24-1.12-20.39-5.36-40.98-15.39-58.95-16.04-28.74-44.91-45-76.86-49.84-30.1-4.56-61.85-.23-90.25,10.43-18.4,6.9-44.6,19.27-47.55,41.44-1.18,8.86,1.23,15.75,5.74,21.17-20.54,20.99-33.1,48.95-41.73,76.69-9.66,31.05-14.88,64.18-14.55,96.73.12,12.31.95,24.89,4.05,36.86,3.11,12.02,9.65,21.56,19.56,29.2,5.83,4.5,12.48,8.07,19.59,10.77-3.44,17-6.88,34-10.32,51-.57,2.81-1.22,8.14,1.2,10.36,2.29,2.1,4.04-.17,4.56-2.72,3.8-18.79,7.6-37.57,11.41-56.36,1.64.48,3.3.92,4.97,1.31,21.36,5.78,43.82,4.93,64.74-2.6,1.73,20.06,3.43,40.12,5.17,60.18.17,1.94,1.31,6.49,4.1,5.29,2.73-1.17,2.52-7.14,2.33-9.32-1.78-20.48-3.51-40.97-5.28-61.45ZM807.18,187.71s0-.01,0-.02c.03-.38.03-.27,0,.02ZM807.22,187.95s-.02-.08-.03-.12c0,0,0-.02,0-.03.01.06.02.11.03.15ZM807.18,187.79s0,.01,0,.02c0,0,0,0,0,0,0,0,0-.01,0-.02ZM807.17,188.01c.06.09.12.18.2.31-.05-.09-.1-.2-.14-.33,0,0,0-.07-.04-.24,0-.03.01-.05.02-.08.09-.36.14-.58.17-.71.05-.09.11-.21.19-.4.33-.72.66-1.44,1.02-2.14.06-.06.82-1.32,1.06-1.65.6-.85,1.23-1.67,1.89-2.47,1.34-1.61,2.69-2.99,3.94-4.12,8.03-7.29,17.91-12.55,27.81-16.8,25.37-10.88,53.96-15.69,81.49-14.06,28.42,1.69,57.51,11.38,76.51,33.54,10.44,12.17,16.94,26.89,20.31,42.49,5.54,25.69,5.09,56.62-10.46,78.72-4.93,7.01-11.18,12.94-17.81,18.32-5.95-12.68-16.76-23.79-32.03-20.2-17.54,4.13-27.91,20.29-32.6,36.79-9.01-11.25-10.66-23.83-6.11-38.03,4.25-13.29,11.75-25.24,16.43-38.35,3.7-10.39,5.86-23.58-.92-33.26-4.15-5.93-10.85-7.74-17.68-8.78-17.13-2.61-34.63-3.11-51.85-5.11-15.84-1.9-32.5-4.41-47.02-11.4-3.88-1.87-8.61-4.78-11.03-7.34-.64-.67-1.2-1.39-1.77-2.11-.27-.34-.5-.71-.74-1.07-.04-.06-.06-.09-.09-.13-.02-.03-.02-.04-.04-.08-.16-.29-.5-.87-.72-1.25,0-.02,0-.04,0-.05ZM807.15,187.99s0,0,0,0c0,.02,0,.03,0,.05,0,0,0,0,0,0,0-.02,0-.03,0-.05ZM807.03,187.8s0,.03,0,.04c-.1-.17-.12-.22,0-.04ZM866.94,439.41c-23.72,9.44-53.07,8.92-76.54-1.28-11.68-5.07-24.01-13.89-28.69-25.59-3.13-7.8-4.11-17.63-4.57-26.45-1.48-28.53,2.66-57.64,9.97-85.17,8.44-31.78,22.18-65.34,47.36-87.6.38-.33.69-.72.97-1.13,10.99,6.84,25.93,10.06,37.39,12.1,5.22.93,10.48,1.67,15.74,2.3,15.6,1.82,31.28,2.76,46.89,4.48,6.14.68,14.36,1.16,18.57,6.39,5.18,6.43-3.06,18.75-6.02,25.05-6.07,12.91-12.23,25.96-14.25,40.22-2.52,17.73,2.04,35.75,14.62,48.82,3.04,3.16,4.5-2.31,4.89-4.53,2.69-15.19,14.08-31.69,30.35-34.15,12.23-1.85,20.39,6.52,25.14,16.58-2.74,18.99-10.3,40.47-24.63,53.75-4.4,4.07-15.52,11.9-21.66,7.26-5.15-3.89-3.96-13.37-8.17-18.3-1.67-1.96-3.07-.53-4.04,1.18-5.52,9.76-11.45,19.34-17.74,28.63-3.98,5.89-8.09,11.9-13.25,16.84-9.23,8.85-20.5,15.87-32.35,20.59Z"/>
  </g>
  <g>
    <path class="cls-2" d="M667.9,786.54c-2.55,27.78-3.48,55.68-2.44,83.55,0,.03,0,.05.01.07.03.92.06,1.87.1,2.79.01.16.02.33.02.52v.1c.03,1.25.03,3.02-.18,4.81-.2,1.56-.55,3.11-1.2,4.29-1.78-32.05-.24-64.22,3.69-96.13Z"/>
    <path class="cls-2" d="M694.39,641.19c-5.32,20.23-10.09,40.65-14.16,61.24-.08-.12-.17-.22-.29-.32-2.25-2.06-3.87.21-4.43,2.64-13.05,57.4-20.48,116.31-17.88,175.14-.17-.81-.28-1.57-.3-2.14-.05-1.25-.09-2.47-.13-3.71v-.12c-.15-3.58-.25-7.09-.33-10.67-.02-1.42-.05-2.83-.06-4.24-1.05-76.83,11.14-153.36,30.68-227.64.82-3.13,3.02-5.99,5.84-3.22,2.89,2.84,1.96,9.6,1.06,13.04Z"/>
  </g>
  <path class="cls-2" d="M681.1,712.16c-5.57,24.51-10.13,49.37-13.19,74.38-3.93,31.91-5.47,64.09-3.69,96.13-.39.7-.86,1.27-1.48,1.63-.16.1-.31.17-.47.24-1.78.69-2.98-.39-3.76-1.96-.39-.83-.68-1.8-.86-2.7-2.61-58.83,4.82-117.74,17.88-175.14.55-2.43,2.18-4.71,4.43-2.64.12.1.21.21.29.32,1.97,2.3,1.44,7.17.86,9.73Z"/>
  <path class="cls-2" d="M1193.43,1492.21c-2.04.09-4.09.2-6.13.29-3.33.16-6.68.32-10.02.48-12.59.59-25.19,1.19-37.79,1.79-.85.05-1.72.07-2.57.12-1.23.06-2.47.13-3.7.17h-.01c-41.29,1.95-82.54,3.91-123.82,5.87-9.16.43-18.31.86-27.47,1.3h-.01c-2.03.08-4.06.18-6.09.28-17.76.84-35.5,1.68-53.24,2.53-1.51.07-3.03.15-4.54.22-1.71,4.69-3.43,9.38-5.17,14.07,1.59-.08,3.17-.15,4.76-.23,25.56-1.21,51.12-2.42,76.68-3.63,42.52-2.01,85.04-4.02,127.54-6.03,20.95-.99,41.9-1.98,62.84-2.98,3.34-.15,6.69-.31,10.03-.47,2.04-.09,4.09-.2,6.14-.29-2.48-4.5-4.94-9-7.4-13.48ZM1193.43,1492.21c-2.04.09-4.09.2-6.13.29-3.33.16-6.68.32-10.02.48-12.59.59-25.19,1.19-37.79,1.79-.85.05-1.72.07-2.57.12-1.23.06-2.47.13-3.7.17h-.01c-41.29,1.95-82.54,3.91-123.82,5.87-9.16.43-18.31.86-27.47,1.3h-.01c-2.03.08-4.06.18-6.09.28-17.76.84-35.5,1.68-53.24,2.53-1.51.07-3.03.15-4.54.22-1.27.06-2.54.12-3.81.17-1.4.07-2.79.14-4.17.2-3.48.17-6.98.33-10.46.5-12.06.58-24.15,1.14-36.22,1.72-5.5.25-11.86-.31-17.28.81-.24.06-.53.03-.78.05-.55,0-1.03.25-1.41.66-.05.03-.08.08-.12.13l-.07.07c-1.42,1.65-1.88,5.34-1.46,8.36-.29,40.01-.58,79.99-.86,119.99-.12,16.83-.24,33.65-.37,50.49,2.06-5.51,4.13-11.02,6.2-16.53.27-37.36.54-74.73.81-112.09.09-12.47.18-24.92.28-37.39,13.67-.66,27.32-1.29,40.97-1.95,5.19-.24,10.37-.48,15.55-.74,1.48-.07,2.95-.14,4.42-.21,1.21-.05,2.41-.1,3.62-.16,1.59-.08,3.17-.15,4.76-.23,25.56-1.21,51.12-2.42,76.68-3.63,42.52-2.01,85.04-4.02,127.54-6.03,20.95-.99,41.9-1.98,62.84-2.98,3.34-.15,6.69-.31,10.03-.47,2.04-.09,4.09-.2,6.14-.29-2.48-4.5-4.94-9-7.4-13.48ZM1314.91,1863.12c-.86-12.32-1.73-24.62-2.61-36.93-2.06-29.37-4.13-58.75-6.19-88.12-.28-3.98-.56-7.96-.84-11.94-.51-7.17-1.02-14.35-1.52-21.51-.3-4.39-.61-8.79-.92-13.18-.48-6.74-.95-13.47-1.43-20.19-.93-13.45-1.89-26.88-2.84-40.32-2.17-30.75-4.32-61.49-6.49-92.22-1.05-15.02-1.53-30.2-3.18-45.16-.01-.22-.02-.44-.03-.66-.1-1.35-.91-5.17-2.94-5.07-14.66.69-29.32,1.38-43.97,2.09-13.02.61-26.05,1.23-39.07,1.85-3.15.16-6.3.3-9.43.45-2.04.09-4.09.2-6.13.29-3.33.16-6.68.32-10.02.48-12.59.59-25.19,1.19-37.79,1.79-.85.05-1.72.07-2.57.12-1.23.06-2.47.13-3.7.17h-.01c-41.29,1.95-82.54,3.91-123.82,5.87-9.16.43-18.31.86-27.47,1.3h-.01c-2.03.08-4.06.18-6.09.28-17.76.84-35.5,1.68-53.24,2.53-1.51.07-3.03.15-4.54.22-1.27.06-2.54.12-3.81.17-1.4.07-2.79.14-4.17.2-3.48.17-6.98.33-10.46.5-12.06.58-24.15,1.14-36.22,1.72-5.5.25-11.86-.31-17.28.81-.24.06-.53.03-.78.05-.55,0-1.03.25-1.41.66-.05.03-.08.08-.12.13l-.07.07c-1.42,1.65-1.88,5.34-1.46,8.36-.29,40.01-.58,79.99-.86,119.99-.12,16.83-.24,33.65-.37,50.49-.06,7.24-.09,14.48-.15,21.74-.29,40.36-.59,80.74-.88,121.1-.12,14.72-.22,29.44-.32,44.17-.01,1.66.4,6.97,3.04,6.91l46.74-1.04c27.99-.62,55.97-1.25,83.94-1.87h.01c2.86-.06,5.7-.13,8.56-.2,6.42-.14,12.84-.28,19.26-.43.15,0,.3-.01.46-.01,2.55-.05,5.12-.1,7.68-.17,42.51-.93,85-1.87,127.5-2.83,39.12-.86,78.24-1.74,117.35-2.61,12.89-.29,25.77-.58,38.67-.86,5.81-.13,12.51.63,18.27-.4.25-.05.58-.01.84-.02,3.27-.06,3.06-6.93,2.93-8.74ZM1265.24,1859.08c-37.42.83-74.83,1.66-112.24,2.49-45.06,1-90.13,2.01-135.18,3-4.65.1-9.3.21-13.94.32-2.69.05-5.36.1-8.05.17-31.78.7-63.57,1.41-95.36,2.12-12.89.28-25.77.57-38.67.85-4.92.11-10.89-.6-16.01.02.27-38.33.56-76.64.83-114.98.14-19.87.3-39.73.44-59.6.05-7.21.09-14.42.15-21.63.27-37.36.54-74.73.81-112.09.09-12.47.18-24.92.28-37.39,13.67-.66,27.32-1.29,40.97-1.95,5.19-.24,10.37-.48,15.55-.74,1.48-.07,2.95-.14,4.42-.21,1.21-.05,2.41-.1,3.62-.16,1.59-.08,3.17-.15,4.76-.23,25.56-1.21,51.12-2.42,76.68-3.63,42.52-2.01,85.04-4.02,127.54-6.03,20.95-.99,41.9-1.98,62.84-2.98,3.34-.15,6.69-.31,10.03-.47,2.04-.09,4.09-.2,6.14-.29,3.14-.16,6.28-.31,9.42-.46,7.13-.33,14.24-.67,21.37-1,12.09-.57,24.15-1.14,36.22-1.72,3.79-.17,7.6-.36,11.39-.54,1.19-.06,2.73.09,4.12.01.74,10.51,1.48,21.02,2.21,31.53,2.06,29.37,4.14,58.75,6.2,88.13.88,12.27,1.74,24.55,2.59,36.83.48,6.72.96,13.46,1.43,20.19.31,4.39.62,8.79.93,13.18h0c.5,7.17,1,14.35,1.51,21.51.36,5.13.73,10.28,1.08,15.41,2.16,30.75,4.32,61.48,6.48,92.22.73,10.24,1.45,20.48,2.17,30.71.15,2.12.22,4.27.31,6.44-14.35.31-28.69.65-43.05.96ZM1193.43,1492.21c-2.04.09-4.09.2-6.13.29-3.33.16-6.68.32-10.02.48-12.59.59-25.19,1.19-37.79,1.79-.85.05-1.72.07-2.57.12-1.23.06-2.47.13-3.7.17h-.01c-41.29,1.95-82.54,3.91-123.82,5.87-9.16.43-18.31.86-27.47,1.3h-.01c-2.03.08-4.06.18-6.09.28-17.76.84-35.5,1.68-53.24,2.53-1.51.07-3.03.15-4.54.22-1.27.06-2.54.12-3.81.17-1.4.07-2.79.14-4.17.2-3.48.17-6.98.33-10.46.5-12.06.58-24.15,1.14-36.22,1.72-5.5.25-11.86-.31-17.28.81-.24.06-.53.03-.78.05-.55,0-1.03.25-1.41.66-.05.03-.08.08-.12.13l-.07.07c-1.42,1.65-1.88,5.34-1.46,8.36-.29,40.01-.58,79.99-.86,119.99-.12,16.83-.24,33.65-.37,50.49,2.06-5.51,4.13-11.02,6.2-16.53.27-37.36.54-74.73.81-112.09.09-12.47.18-24.92.28-37.39,13.67-.66,27.32-1.29,40.97-1.95,5.19-.24,10.37-.48,15.55-.74,1.48-.07,2.95-.14,4.42-.21,1.21-.05,2.41-.1,3.62-.16,1.59-.08,3.17-.15,4.76-.23,25.56-1.21,51.12-2.42,76.68-3.63,42.52-2.01,85.04-4.02,127.54-6.03,20.95-.99,41.9-1.98,62.84-2.98,3.34-.15,6.69-.31,10.03-.47,2.04-.09,4.09-.2,6.14-.29-2.48-4.5-4.94-9-7.4-13.48ZM1193.43,1492.21c-2.04.09-4.09.2-6.13.29-3.33.16-6.68.32-10.02.48-12.59.59-25.19,1.19-37.79,1.79-.85.05-1.72.07-2.57.12-1.23.06-2.47.13-3.7.17h-.01c-41.29,1.95-82.54,3.91-123.82,5.87-9.16.43-18.31.86-27.47,1.3h-.01c-2.03.08-4.06.18-6.09.28-17.76.84-35.5,1.68-53.24,2.53-1.51.07-3.03.15-4.54.22-1.27.06-2.54.12-3.81.17-1.4.07-2.79.14-4.17.2-3.48.17-6.98.33-10.46.5-12.06.58-24.15,1.14-36.22,1.72-5.5.25-11.86-.31-17.28.81-.24.06-.53.03-.78.05-.55,0-1.03.25-1.41.66-.05.03-.08.08-.12.13l-.07.07c-1.42,1.65-1.88,5.34-1.46,8.36-.29,40.01-.58,79.99-.86,119.99-.12,16.83-.24,33.65-.37,50.49,2.06-5.51,4.13-11.02,6.2-16.53.27-37.36.54-74.73.81-112.09.09-12.47.18-24.92.28-37.39,13.67-.66,27.32-1.29,40.97-1.95,5.19-.24,10.37-.48,15.55-.74,1.48-.07,2.95-.14,4.42-.21,1.21-.05,2.41-.1,3.62-.16,1.59-.08,3.17-.15,4.76-.23,25.56-1.21,51.12-2.42,76.68-3.63,42.52-2.01,85.04-4.02,127.54-6.03,20.95-.99,41.9-1.98,62.84-2.98,3.34-.15,6.69-.31,10.03-.47,2.04-.09,4.09-.2,6.14-.29-2.48-4.5-4.94-9-7.4-13.48Z"/>
  <path class="cls-3" d="M1308.3,1858.13c-14.36.31-28.7.64-43.06.95-37.42.83-74.83,1.66-112.24,2.49-45.06,1-90.13,2.01-135.19,3-4.64.1-9.29.21-13.93.31-2.69.05-5.37.11-8.06.17-31.78.7-63.56,1.41-95.35,2.13-12.89.28-25.77.56-38.67.86-4.93.11-10.89-.61-16.02.02.27-38.33.56-76.65.83-114.98.14-19.86.29-39.73.43-59.59.05-7.21.1-14.42.15-21.64.27-37.37.54-74.73.81-112.1.09-12.46.18-24.92.27-37.39,13.66-.65,27.32-1.29,40.98-1.94,5.18-.25,10.37-.49,15.55-.74,2.68-.13,5.36-.25,8.03-.38,27.15-1.29,54.29-2.57,81.44-3.86,42.52-2.01,85.03-4.02,127.54-6.03,26.34-1.25,52.68-2.49,79-3.74,3.14-.15,6.29-.3,9.42-.46,7.12-.34,14.25-.67,21.37-1.01,12.08-.56,24.15-1.14,36.23-1.71,3.8-.17,7.59-.36,11.39-.54,1.19-.05,2.73.09,4.12.01.74,10.51,1.47,21.02,2.21,31.53,2.07,29.37,4.14,58.75,6.21,88.12.87,12.27,1.74,24.56,2.59,36.83.48,6.73.95,13.47,1.43,20.2,1.17,16.7,2.35,33.4,3.52,50.1,2.16,30.74,4.33,61.48,6.48,92.22.73,10.25,1.45,20.48,2.17,30.72.15,2.11.22,4.26.31,6.43Z"/>
  <g>
    <path class="cls-2" d="M1000.27,1455.54c-1.06,1.23-2.09,2.51-3.07,3.81-9.26,12.25-14.88,27.17-15.3,42.88-.02.95-.02,1.9-.01,2.86.02,1.61-.42,6.92-3.04,6.92s-3.01-5.14-3.03-6.92c-.01-.85-.01-1.73,0-2.58.23-19.16,5.88-38.09,17.18-53.71.13-.16.24-.32.36-.48.61-.84,1.23-1.66,1.88-2.46.48,1.27,1.01,2.51,1.59,3.72,1,2.09,2.13,4.09,3.45,5.96Z"/>
    <path class="cls-1" d="M1126.65,1343.88c31.96-69.19,62.9-139.33,84.47-212.49,19.29-65.45,30.16-134.47,20.75-202.58-4.75-34.35-14.55-67.76-28.69-99.4-1.29-2.92-2.63-5.82-4-8.71,0-.01,0-.02-.01-.03-.47-1.37-1.19-2.41-2.14-2.68-13.9,5.88-27.79,11.74-41.7,17.62-3.14,1.36-6.29,2.73-9.43,4.09-26.51,11.53-53.01,23.06-79.53,34.6-1.72.75-3.42,1.49-5.13,2.23-.93.4-1.87.82-2.8,1.22-3.45,1.5-6.9,3-10.33,4.5-1.95.84-2.21,4.98-2.23,6.65-.02,2.14-.05,4.29-.08,6.44h0c-.44,29.81-1.97,59.63-3.21,89.43-.2,4.64-.38,9.28-.54,13.91-.12,3.01-.22,6-.32,8.99-1.89,57.44-3.66,114.9-5.02,172.36-.13,5.64-.25,11.27-.38,16.88-.15,6.61-.29,13.22-.42,19.81-.72-1.29-1.43-2.59-2.15-3.9-6.97-12.71-13.95-25.42-20.93-38.13,7.97-40.44,14.87-81.1,20.75-121.91,1.44-10.03,2.81-20.07,4.14-30.11.07-.51.12-1.45.08-2.55-12.51,1.42-25.05,2.7-37.58,3.83-21.7,1.95-43.45,3.46-65.22,4.53,31.75-.14,63.49-.25,95.23-.38-6.2,45.91-13.74,91.64-22.6,137.11-.9,4.59-1.8,9.17-2.72,13.76-10.61,52.69-23.01,105.01-37.24,156.85-15.71,57.2-33.77,113.66-53.45,169.58,1.27-.06,2.54-.12,3.81-.17,1.51-.07,3.03-.15,4.54-.22,15.08-43.21,29.22-86.73,41.94-130.73,17.74-61.31,32.91-123.33,45.59-185.87,7.75,14.12,15.5,28.24,23.26,42.37.73,1.33,1.45,2.65,2.18,3.98-.56,31.38-1.11,62.79-.82,94.18-1.18.12-2.41.39-3.58.59-3.11.51-6.19,1.12-9.21,2.04-6.34,1.94-12.12,5.26-15.8,10.94-5.43,8.37-7.62,20.03-10,29.62-2.24,9.04-3.97,18.28-4.86,27.56-1.08,11.37-1.45,25.89,1.7,38.83.61,2.51,1.36,4.96,2.26,7.31.48,1.27,1.01,2.51,1.59,3.72,1,2.09,2.13,4.09,3.45,5.96,1.85,2.66,4.04,5.07,6.6,7.15,8.35,6.76,17.77,1.36,22.66-6.7,2.91,5.11,7.33,9.03,13.48,10.51,6.24,1.51,12.17-1.58,16.38-6.14,2.61,4.43,5.95,8.16,11.89,8.14,7.18-.03,13.44-5.13,16.85-11.23,4.42,3.36,9.47,6.04,15.25,2.69,3.34-1.96,5.79-5,7.46-8.46.02-.05.05-.09.07-.15.36-.72.68-1.48.96-2.24,2.06,1.6,4.74,2.66,7.22,2.41,1.11-.09,2.19-.47,3.17-1.18.16-.12.32-.25.48-.39,1.2-1.08,2.2-2.76,3.04-4.65,1.58-3.55,2.62-7.89,3.32-10.47,2.34-8.61,2.88-17.6,1.78-26.39,15.48,28.17,30.94,56.35,46.41,84.53,3.34-.16,6.69-.32,10.02-.48-15.51-28.24-31.01-56.48-46.52-84.74-3.71-6.76-7.43-13.53-11.14-20.29.22-3.78.03-7.58-.55-11.3-1.16-7.22-3.89-14.07-8.16-19.91.44-.95.88-1.89,1.31-2.84,1.48-3.18,2.94-6.37,4.42-9.55ZM1119.06,1341.19c-.51,1.11-1.08,2.24-1.68,3.4-2.44,4.73-5.2,9.85-4.53,15.05.62,4.73,4.72,7.53,7.02,11.51,1.63,2.81,2.79,5.87,3.37,9.03.46,2.62.53,5.3.12,7.98-.24,1.65-.66,3.21-1,4.76-.54,2.46-.93,4.89-.27,7.57,1.15,4.69,2.86,8.89,3.18,13.8.44,6.46-.78,12.93-3.25,18.89-.35.83-.72,1.65-1.1,2.47-.27.53-.52,1.05-.78,1.57-.09.2-.2.38-.29.56.01-.16.02-.32.03-.47-2.69,1.26-6.15-.72-7.6-2.86-1.27-1.88-3.03-.44-3.68,1.07-.48,1.11-.84,2.16-1.18,3.17-1.06,3.11-2,5.78-5.67,7.93-5.26,3.06-9.51-.63-13.56-3.9-1.26-1.01-2.58.82-2.95,1.78-2.14,5.48-7.83,10.23-13.97,10.17-5.13-.06-7.35-3.43-9.41-7.44-.76-1.52-2.32-2.95-3.68-1.08-2.92,3.99-7.69,7.45-12.84,6.95-5.4-.53-11.3-4.38-13.04-9.7-.37-1.15-.99-3.45-2.62-3.43h-.29c-1.61.03-2.26,2.24-2.62,3.43-2.61,8.7-12.59,11-18.69,5.62-2.1-1.84-3.81-4.09-5.2-6.56-1.84-3.26-3.15-6.9-4.08-10.4-.05-.15-.09-.31-.12-.46-2.78-10.87-2.4-22.4-.96-33.44,1.12-8.59,3.01-17.07,5.33-25.42,2.14-7.67,3.64-17.7,10.27-22.89,4.42-3.46,9.92-5.05,15.35-6.05,3.4-.63,9.57-.24,11.29-3.75,1.91-3.9.83-10.06.81-14.32-.03-4.32-.05-8.64-.03-12.96.01-20.63.25-41.27.6-61.91.23-14.43.51-28.85.82-43.28.12-5.64.24-11.28.37-16.92.7-30.47,1.53-60.93,2.42-91.39.97-33.77,2.03-67.53,3.17-101.3.14-4.62.3-9.26.47-13.88.25-8,.53-16.02.81-24.02.54-15.75,1.1-31.51,1.67-47.26.22-6.01.75-12.13.84-18.19,2.51-1.1,5.03-2.19,7.54-3.27,2.08-.91,4.16-1.81,6.24-2.72,30.36-13.2,60.73-26.42,91.09-39.61,7.45-3.23,14.9-6.47,22.35-9.7,5.43-2.35,10.87-5.2,16.46-7.27.08.16.15.32.23.48,16.39,34.94,27.35,72.12,31.47,110.57,4.17,38.83,1.4,78.09-5.66,116.42-16.71,90.79-54.74,176.94-92.84,260.46-2.31,5.05-4.62,10.11-6.94,15.16l-2.8,6.05Z"/>
    <path class="cls-2" d="M1137.47,1504.42c-2.55,1.1-3.59-3.06-3.74-4.83-.14-1.52-.31-3.03-.53-4.53-1.78-12.29-6.52-23.79-13.75-33.77-2.18-3-4.58-5.86-7.18-8.56-.45-.47-.91-.93-1.37-1.38.36-.72.68-1.48.96-2.24,2.06,1.6,4.74,2.66,7.22,2.41,1.11-.09,2.19-.47,3.17-1.18.16-.12.32-.25.48-.39,1.2,1.67,2.34,3.38,3.42,5.13,7.32,11.87,11.96,25.51,13.33,39.68.05.38.07.77.1,1.14.17,2.01.38,7.44-2.12,8.51Z"/>
  </g>
  <path class="cls-3" d="M1214.24,839.21c-3.82,1.61-7.62,3.22-11.44,4.83-14.78,6.25-29.57,12.49-44.35,18.74-33.78,14.27-67.56,28.53-101.32,42.81-.1.05-.21.09-.3.16h-.01c-.18.02-.39.07-.6.15-4.76,1.86-9.53,3.71-14.29,5.57-.48,31.68-2.09,78.67-3.39,109.95-35.1,4.02-70.32,6.91-105.6,8.64-60.59,3-121.34,2.64-181.9-1.14-13.56-.84-27.1-1.86-40.64-3.06-15.49-1.35-30.95-2.92-46.39-4.71.05-7.16.09-14.32.14-21.48.21-29.74.4-59.47.6-89.2.01-.39.01-.77.01-1.16.02-4.39.06-8.76.09-13.15.13-1.38.08-2.76.02-3.71v-.08c0-.67-.05-1.59-.18-2.56-.01-.01-.01-.02-.01-.05-.17-2.36-.32-4.72-.45-7.08-1.78-32.05-.24-64.22,3.69-96.13,3.07-25.01,7.62-49.88,13.19-74.38.58-2.56,1.11-7.44-.86-9.73-.08-.12-.17-.22-.29-.32-2.25-2.06-3.87.21-4.43,2.64-13.05,57.4-20.48,116.31-17.88,175.14.01.51.03,1.02.06,1.52-.27-.32-.58-.58-.92-.74h-.01c-.33-.25-.65-.31-.96-.23-26.58-2-53.18-3.99-79.76-6-31.62-2.38-63.32-5.66-95-7.14-.6-.03-1.56-.33-2.14-.16-10.89-1.1-21.77-2.21-32.65-3.38-.09-.83-.18-1.66-.25-2.49-.02-.24-.07-.92-.1-1.4,0-.13-.01-.23-.02-.32v-.05c0-.06-.01-.1-.01-.13-.03-.7-.07-1.41-.09-2.11-.05-1.29-.18-7.83-.18-8.12-.97-153.89,113.48-269.59,113.48-269.59,82.81-83.74,180.6-104.94,217.65-111.03-1.45,34.04,18.99,61.47,44.58,68.33,24.22,6.49,49.37-10.36,62.89-29.26,9.42-13.17,14.84-28.74,16.7-44.75,32.45,6.78,59.94,17.13,82.92,28.46,175.56,86.68,221.03,298.24,230.44,347.9Z"/>
  <path class="cls-2" d="M1040.84,911.62c-2.45,1.18-3.42-3.25-3.59-5.13-.06-.7-.12-1.42-.2-2.12-6.48-69.84-22.23-138.3-46.8-203.03-1.12-2.95-1.36-7.48,0-10.39,1.13-2.42,3.08-2.77,4.13,0,24.94,65.71,41.11,135.26,47.97,206.15.19,1.82.35,3.64.52,5.48.19,2.1.33,7.91-2.04,9.04Z"/>
</svg>