<?xml version="1.0" encoding="UTF-8"?>
<svg id="Camada_1" xmlns="http://www.w3.org/2000/svg" viewBox="0 0 1178.74 996.49">
  <defs>
    <style>
      .cls-1 {
        fill: #626665;
      }

      .cls-2 {
        fill: #fff6eb;
      }

      .cls-3 {
        fill: #01debb;
      }
    </style>
  </defs>
  <path class="cls-1" d="M590.12,946.67c-40.18.05-77.97-15.52-106.42-43.85-19.68-19.6-88.64-88.26-107.93-107.46l-227.5-226.52c-29.02-28.9-51.53-62.68-66.91-100.41-14.83-36.37-22.37-74.77-22.42-114.12-.05-39.35,7.4-77.77,22.13-114.17,15.29-37.77,37.72-71.61,66.66-100.58,28.95-28.97,62.79-51.44,100.59-66.8,36.44-14.8,74.9-22.33,114.32-22.38,39.44-.05,77.93,7.39,114.39,22.1,37.82,15.25,71.72,37.64,100.74,66.54l11.34,11.29,11.31-11.32c28.95-28.97,62.79-51.44,100.59-66.79,36.42-14.8,74.88-22.33,114.32-22.38,39.44-.05,77.93,7.39,114.39,22.1,37.82,15.25,71.72,37.64,100.74,66.54,29.02,28.9,51.53,62.68,66.91,100.41,14.83,36.38,22.37,74.77,22.42,114.12.05,39.35-7.4,77.76-22.13,114.17-15.29,37.77-37.72,71.61-66.66,100.58l-334.58,334.82c-28.38,28.4-66.13,44.06-106.31,44.11Z"/>
  <path class="cls-2" d="M589.89,941.16c-39.76,0-77.14-15.48-105.25-43.6-19.45-19.45-87.6-87.6-106.66-106.66l-224.83-224.83c-28.68-28.68-50.91-62.19-66.09-99.61-14.63-36.08-22.04-74.14-22.04-113.15s7.42-77.08,22.04-113.15c15.18-37.42,37.41-70.94,66.09-99.62,28.68-28.68,62.2-50.92,99.62-66.09,36.08-14.63,74.14-22.04,113.15-22.04s77.1,7.42,113.17,22.05c37.41,15.17,70.92,37.4,99.6,66.08l11.21,11.21,11.21-11.21c28.68-28.68,62.2-50.91,99.62-66.09,36.05-14.62,74.12-22.04,113.15-22.04s77.1,7.42,113.17,22.05c37.41,15.17,70.92,37.4,99.6,66.08,28.68,28.68,50.91,62.19,66.09,99.61,14.63,36.08,22.04,74.15,22.04,113.16s-7.42,77.07-22.04,113.15c-15.18,37.42-37.41,70.94-66.09,99.62l-331.48,331.49c-28.11,28.11-65.49,43.6-105.25,43.6Z"/>
  <path class="cls-3" d="M1024.76,353.31c0,27.36-5.2,54.05-15.45,79.33-10.62,26.2-26.21,49.68-46.32,69.79l-331.48,331.49c-22.98,22.98-60.24,22.98-83.23,0h0c-22.98-22.98-22.98-60.24,0-83.22l331.48-331.49c17.61-17.61,27.3-41.01,27.3-65.9s-9.69-48.3-27.3-65.9c-36.34-36.34-95.47-36.34-131.81,0l-180.57,180.57c-21.93,21.93-51.67,34.25-82.68,34.25h0c-31.2,0-60.55-12.14-82.63-34.2-16.03-16.02-34.55-34.47-50.79-50.62-23.02-22.91-23.13-60.13-.24-83.17h0c22.92-23.08,60.2-23.2,83.26-.26,16.1,16.02,34.44,34.29,50.41,50.24l21.96-21.96-74.85-74.85c-36.34-36.33-95.47-36.34-131.81,0-17.6,17.61-27.29,41.01-27.29,65.91s9.69,48.3,27.29,65.9l99.99,99.99c45.66,45.66,119.69,45.66,165.36,0l136.94-136.94c22.98-22.98,60.24-22.98,83.22,0h0c22.98,22.98,22.98,60.24,0,83.22l-261.77,261.77c-22.68,22.68-59.46,22.68-82.14,0l-224.82-224.82c-20.11-20.11-35.7-43.59-46.32-69.79-10.25-25.28-15.45-51.97-15.45-79.33s5.2-54.06,15.45-79.33c10.62-26.2,26.21-49.68,46.32-69.79,20.11-20.11,43.59-35.7,69.79-46.32,25.28-10.25,51.97-15.45,79.33-15.45s54.06,5.19,79.33,15.45c26.2,10.62,49.68,26.21,69.79,46.32l74.85,74.85,74.85-74.85c20.11-20.11,43.59-35.7,69.79-46.32,25.28-10.25,51.97-15.45,79.33-15.45s54.06,5.19,79.33,15.45c26.2,10.62,49.68,26.21,69.79,46.32,20.11,20.11,35.7,43.59,46.32,69.79,10.25,25.28,15.45,51.97,15.45,79.33Z"/>
</svg>