<?xml version="1.0" encoding="UTF-8"?>
<svg id="Camada_1" xmlns="http://www.w3.org/2000/svg" viewBox="0 0 772.04 1010.29">
  <defs>
    <style>
      .cls-1 {
        fill: #626665;
      }

      .cls-2 {
        fill: #fff6eb;
      }

      .cls-3 {
        fill: #ff9c19;
      }
    </style>
  </defs>
  <path class="cls-1" d="M631.14,124.47c-8.04-2.83-14.89-4.43-18.99-5.39l-254.59-59.77c-2.25-.53-4.5-1.07-6.74-1.61-5.35-1.29-10.89-2.62-16.9-3.93-9.94-2.17-20.09-3.26-30.17-3.26-65.76,0-123.34,46.48-140.02,113.04-2.86,11.4-5.21,22.26-7.48,32.75-1,4.64-2.01,9.27-3.05,13.89l-99.47,442.04c-1.18,5.24-2.37,10.49-3.56,15.73-2.43,10.72-4.95,21.81-7.39,32.92-6.95,31.72-5.18,65.11,4.99,94.02,15.94,45.34,51.08,78.41,96.49,90.85,1.08.3,2.18.59,3.27.86l2.25.57,1.4.28,276.81,62.43,1.78.41c8.2,1.88,21.92,5.03,38.99,5.03h0c17.37,0,34.35-3.25,50.48-9.66,25.34-10.08,70.18-37.29,85.77-106.24l112.27-496.47c.54-2.39,1.33-5.51,2.18-8.82,4.33-17.04,10.27-40.39,9.47-67.74-1.95-65.98-40.31-121.69-97.77-141.93Z"/>
  <g>
    <path class="cls-2" d="M148.7,890.21c1.08.3,2.18.59,3.27.86l2.25.57,1.4.28,276.81,62.43,1.78.41c8.2,1.88,21.92,5.03,38.99,5.03h0c17.37,0,34.35-3.25,50.47-9.66,25.34-10.08,70.18-37.29,85.77-106.24l112.27-496.47c.54-2.39,1.33-5.51,2.18-8.82,4.33-17.04,10.27-40.39,9.47-67.74-1.95-65.98-40.31-121.69-97.77-141.93-8.04-2.83-14.89-4.43-18.99-5.39l-254.59-59.77c-2.25-.53-4.5-1.07-6.74-1.61-5.35-1.29-10.89-2.62-16.9-3.93-9.94-2.17-20.09-3.26-30.17-3.26-65.76,0-123.34,46.48-140.02,113.04-2.86,11.4-5.21,22.26-7.48,32.75-1,4.64-2.01,9.27-3.05,13.89l-99.47,442.04c-1.18,5.24-2.37,10.49-3.56,15.73-2.43,10.72-4.95,21.81-7.39,32.92-6.95,31.72-5.18,65.11,4.99,94.02,15.94,45.34,51.08,78.41,96.49,90.85Z"/>
    <g>
      <path class="cls-3" d="M530.36,282.87c-16.52-3.39-32.42,6.32-39.8,20.88-8.6,16.98-7.41,40.86,4.23,56.17,11.27,14.83,31.52,18.7,47.5,9.45.16-.08.32-.17.49-.28,30.13-19.92,25.66-78.4-12.43-86.22ZM550.56,327.62c0,.42,0,.73,0,.91-.04.25-.06.45-.08.59-1.71,5.79-5.55,10.47-10.84,13.97-12,7.18-28.64,5.87-37.93-5.31-2.14-2.58-3.3-5.12-4.52-8.13-.15-.37-.25-1.49-.18-1.72,1.66-5.86,5.49-10.82,10.93-14.24,11.82-7.44,28.79-5.69,37.93,5.31,1.69,2.03,3.22,4.28,4.13,6.75.05.13.38,1.31.56,1.86Z"/>
      <path class="cls-3" d="M444.24,335.59c3.18,1.34,6.26,1.28,9.29-.14.32-.11.64-.26.97-.49.43-.24.82-.56,1.18-.93,3.5-2.96,5.46-7.21,6.6-11.64,2.09-8.17,1.92-18.1-1.56-25.88-1.57-3.52-4.04-7.21-7.8-8.63-3.38-1.28-6.8-1.25-9.98.73-4.24,2.65-6.69,7.9-7.78,12.57-1.92,8.21-2.05,18.07,1.56,25.88,1.58,3.42,3.91,7.01,7.52,8.53Z"/>
      <path class="cls-3" d="M627.68,273.97c-.54-18.34-8.58-38.76-27.2-45.32-2.87-1.01-5.82-1.66-8.77-2.35-10.32-2.42-20.63-4.84-30.95-7.27-38.35-9-76.7-18.01-115.05-27.01-35.96-8.44-71.92-16.88-107.87-25.33-7.32-1.72-14.63-3.56-21.98-5.16-22.07-4.81-39.99,11.68-45.13,32.17-3.66,14.62-6.63,29.45-9.94,44.15-7.24,32.19-14.49,64.38-21.73,96.57-9.24,41.05-18.47,82.1-27.71,123.15-9.26,41.14-18.51,82.27-27.77,123.41-7.42,32.97-14.84,65.94-22.26,98.92-3.6,16.02-7.3,32.02-10.81,48.06-5.16,23.56.27,53.72,26.89,60.48,20.1,4.53,40.2,9.07,60.3,13.6,40.71,9.18,81.43,18.36,122.14,27.55,31.95,7.2,63.9,14.41,95.84,21.61,9.98,2.25,18.66,4.75,28.91.68,13.1-5.21,18.83-18.48,21.74-31.31,4.33-19.13,8.65-38.26,12.98-57.39,7.88-34.84,15.76-69.68,23.64-104.52,9.46-41.82,18.91-83.64,28.37-125.46,9.03-39.96,18.07-79.91,27.11-119.87,6.73-29.74,13.45-59.49,20.18-89.24,3.59-15.89,9.57-33.7,9.08-50.11ZM163.92,747.17c.14-.37.24-.76.33-1.16-.06.47-.17.92-.37,1.35.03-.06.02-.13.04-.19ZM593.73,355.51c-8.17,36.15-16.35,72.29-24.52,108.44-9.38,41.49-18.77,82.99-28.15,124.48-8.63,38.16-17.26,76.33-25.89,114.49-6.06,26.82-12.13,53.63-18.19,80.45-1.5,6.61-2.99,13.22-4.48,19.83-.26,1.13-.52,2.26-.77,3.39-.06.29-.14.58-.22.86-.08.27-.11.64-.28.92-.96,1.57-2.13,3.2-3.48,4.46-4.97,4.65-12.04,6.26-18.63,5.34-5.91-.82-11.79-2.55-17.6-3.86-13.84-3.12-27.68-6.24-41.52-9.36-39.67-8.95-79.34-17.89-119.01-26.84-32.73-7.38-65.46-14.76-98.2-22.15-5.13-1.16-10.26-2.31-15.4-3.47-3.14-.8-6.28-2.48-8.76-4.58-1.78-1.5-3.01-3.23-3.84-4.64,1.49-6.62,2.98-13.24,4.47-19.86,6.06-26.92,12.12-53.85,18.18-80.77,8.63-38.37,17.27-76.73,25.9-115.1,9.31-41.36,18.62-82.72,27.92-124.09,8.19-36.39,16.38-72.78,24.57-109.18,5.25-23.32,10.49-46.64,15.74-69.95.95-4.22,1.83-8.46,2.85-12.66.03-.11.05-.22.07-.32,0-.02,0-.03.01-.05,0,0,.11-.38.21-.74.11-.14.65-1.39.89-1.85,2.32-4.34,8.37-9.11,14.12-10.96,5.73-1.84,11.72-1.28,17.48.05,24.91,5.77,49.78,11.69,74.67,17.53,40.36,9.48,80.71,18.95,121.07,28.43,26.46,6.21,52.92,12.43,79.38,18.64,3.3.77,6.28,1.6,9.32,3.32,2.85,1.6,5.28,3.5,7.31,6.06.33.41,1.96,2.86,1.91,2.67.22.41.42.83.61,1.27-1.06,3.21-1.35,7.23-2.04,10.29-5.24,23.17-10.48,46.34-15.72,69.51ZM611.9,276.68s0,.02,0,.03c0,0,0,0,0-.01,0,0,0-.01,0-.02ZM611.96,275.81c.01-.49.03-.71,0,0h0ZM611.9,276.71s0,0,0,.01c0,.06,0,.11,0,.18,0-.03,0-.1,0-.2ZM612.16,274.01c-.05.11-.09.23-.14.34.04-.34.11-.57.19-.57-.01,0-.05.22-.05.23Z"/>
      <path class="cls-3" d="M421.68,462.14c-10.38,4.44-20.27,10.37-30.06,15.97-.92.53-1.83,1.06-2.75,1.59-4.17-9.49-9.27-18.6-15.4-26.95-4.62-6.29-10.08-13.58-17.19-17.22-20.94-10.73-45.18,3.12-53.77,23.11-9.3,21.64-2.61,44.79,7.52,64.88,5.21,10.33,12.19,19.31,19.71,28.03,7.32,8.49,15.29,20.3,27.93,19.69,11.42-.54,21.86-9.16,30.87-15.45,11.64-8.12,22.79-16.9,33.57-26.12,4.44-3.8,4.81-11.17,4.14-16.58-.26-2.1-2.98-13.1-7.3-9.42-14.87,12.7-30.46,24.81-47.12,35.11-8.21,5.08-17.64,8.34-25.65,1.15-7.56-6.79-14.32-15.67-20.38-23.82-5.6-7.54-9.44-15.61-12.88-24.32-1.29-3.27-2.82-7.36-3.19-9.98.13.47.25-1.33.05-.82.14-.57.3-1.14.46-1.71.28-.69.54-1.38.84-2.06.46-1.04.98-2.08,1.55-3.04,2.34-3.89,5.53-7.12,9.31-9.61,8.3-5.45,19.74-7.71,29.2-3.95,6.76,2.68,11.36,8.77,15.59,14.41,3.08,4.11,5.82,8.4,8.3,12.83-5.28,3.2-10.52,6.46-15.73,9.77-4.66-7.06-9.31-14.12-13.97-21.18-3.4-5.15-7.28,1.68-8.11,4.84-1.54,5.81-1.27,13.29,2.13,18.44,5.32,8.06,10.63,16.12,15.95,24.17.96,1.45,2.97,2.39,4.57,1.36,16.54-10.6,33.43-20.63,50.72-29.96,14.06-7.59,30.19-15.55,45.78-7.24,3.35,1.78,6.39,4.16,8.31,7.49.69,1.2.95,2.19,1.32,3.47-.18-.65-.13-.14-.06.38-.08.3-.15,1.49-.09,1.3-.05.38-.09.75-.14,1.13-.22.89-.4,1.78-.67,2.66-.92,3.03-2.36,5.83-4.18,8.41-8.94,12.66-24.3,20.7-36.73,29.42-19.56,13.72-39.11,27.46-58.74,41.08-4.65,3.23-4.76,11.6-4.14,16.58.31,2.53,2.67,12.63,7.3,9.42,19.87-13.79,39.66-27.7,59.46-41.59,14.57-10.22,32.01-19.68,41.28-35.49,9.92-16.92,12.5-41.81,2.04-59-10.57-17.38-32.66-18.47-49.66-11.19ZM465.76,501.72s0,.04-.01.06c.12-.61.49-1.95.01-.06Z"/>
    </g>
  </g>
</svg>