<?xml version="1.0" encoding="UTF-8"?>
<svg id="Camada_1" xmlns="http://www.w3.org/2000/svg" viewBox="0 0 1298.13 1292.53">
  <defs>
    <style>
      .cls-1 {
        fill: #626665;
      }

      .cls-2 {
        fill: #fff6eb;
      }

      .cls-3 {
        fill: #ff9c19;
      }
    </style>
  </defs>
  <path class="cls-1" d="M1187.55,421.8c-29.23-69.11-71.04-131.14-124.27-184.37-53.23-53.23-115.26-95.04-184.37-124.27-71.65-30.3-147.65-45.67-225.9-45.67s-154.25,15.37-225.9,45.67c-69.11,29.23-131.14,71.04-184.37,124.27-53.23,53.23-95.04,115.26-124.27,184.37-30.3,71.65-45.67,147.65-45.67,225.9s15.37,154.25,45.67,225.9c29.23,69.11,71.04,131.14,124.27,184.37s115.26,95.04,184.37,124.27c71.65,30.3,147.65,45.67,225.9,45.67s154.25-15.37,225.9-45.67c69.11-29.23,131.14-71.04,184.37-124.27,53.23-53.23,95.04-115.26,124.27-184.37,30.3-71.65,45.67-147.65,45.67-225.9s-15.37-154.25-45.67-225.9Z"/>
  <g>
    <path class="cls-3" d="M645.11,1225.04c-78.25,0-154.25-15.37-225.9-45.67-69.11-29.23-131.14-71.04-184.37-124.27-53.23-53.23-95.04-115.26-124.27-184.37-30.3-71.65-45.67-147.65-45.67-225.9s15.37-154.25,45.67-225.9c29.23-69.11,71.04-131.14,124.27-184.37s115.26-95.04,184.37-124.27c71.65-30.3,147.65-45.67,225.9-45.67s154.25,15.37,225.9,45.67c69.11,29.23,131.14,71.04,184.37,124.27s95.04,115.26,124.27,184.37c30.3,71.65,45.67,147.65,45.67,225.9s-15.37,154.25-45.67,225.9c-29.23,69.11-71.04,131.14-124.27,184.37-53.23,53.23-115.26,95.04-184.37,124.27-71.65,30.3-147.65,45.67-225.9,45.67Z"/>
    <g>
      <g>
        <path class="cls-2" d="M355.29,386.13c-19.26,23.19-47.14,25.89-68.3,8.32-20.92-17.37-23.74-45.36-6.17-66.52,8.14-9.8,15.91-15.27,24.94-17.87l7.46,12.66c-7.36,1.56-14.99,6.13-21.04,13.43-12.21,14.7-10.56,33.64,4.74,46.35,14.82,12.31,34.71,10.24,47.92-5.66,6.65-8.01,11.05-17.69,11.51-25.78l11.77,9.17c-1,8.26-5.78,17.42-12.83,25.91Z"/>
        <path class="cls-2" d="M372.45,262.11l-32.69,27.03,16.34,19.76,27.18-22.47,8.42,10.18-27.18,22.47,16.83,20.36,34.25-28.31,8.61,10.42-45.86,37.92-58.81-71.13,45.27-37.42,7.66,11.21Z"/>
        <path class="cls-2" d="M452.5,262.7l40.42,20.07-15.5,8.58-36.24-18.3-14.55,8.05,16.26,29.36-13.19,7.3-44.7-80.75,26.1-14.45c19.71-10.91,37.06-8.44,46.32,8.28,6.47,11.69,3.5,23.64-4.92,31.85ZM416.51,233.96l-12.23,6.77,16.56,29.91,12.23-6.77c11.28-6.25,16.9-15.04,11.03-25.64-5.79-10.47-16.3-10.51-27.58-4.27Z"/>
        <path class="cls-2" d="M516.45,275.74l-24.72-74.64-26.85,8.89-4.3-12.98,68.59-22.72,3.27,13.32-26.4,8.75,24.72,74.64-14.31,4.74Z"/>
        <path class="cls-2" d="M578.5,259.5l-14.8,2.87-17.59-90.6,14.8-2.87,17.59,90.6Z"/>
        <path class="cls-2" d="M644.38,174.07l-42.32,2.85,1.95,28.99,36.28-2.44.89,13.18-36.28,2.44,2.45,36.43-15.04,1.01-6.2-92.09,58.6-3.95-.33,13.57Z"/>
        <path class="cls-2" d="M672.1,254.73l-15.05-.75,4.58-92.19,15.05.75-4.58,92.19Z"/>
        <path class="cls-2" d="M729.65,264.09c-29.59-5.76-45.34-28.93-40.08-55.93,5.2-26.69,28.4-42.59,55.39-37.34,12.51,2.43,21.03,6.63,27.65,13.3l-7.52,12.62c-4.91-5.7-12.58-10.2-21.88-12.02-18.76-3.65-34.58,6.88-38.38,26.4-3.68,18.91,7.68,35.37,27.96,39.32,10.22,1.99,20.82,1.2,28.15-2.28l-2.39,14.73c-7.72,3.09-18.05,3.29-28.88,1.18Z"/>
        <path class="cls-2" d="M823.51,296.31l1.16-27.42-33.67-14.52-19.14,19.67-14.13-6.09,68.93-70.79,15.84,6.83-4.15,98.72-14.84-6.4ZM826.96,225.88c.19-3.98.57-7.2,1.21-10.65l-.57-.25c-2.07,2.83-4.15,5.32-6.91,8.19l-21.26,21.46,26.4,11.38,1.15-30.13Z"/>
        <path class="cls-2" d="M864.75,322.2l-24.3-17.57,54.08-74.79,24.3,17.57c25.81,18.66,30.85,45.12,14.64,67.53-16.2,22.41-43.03,25.84-68.72,7.26ZM911.27,257.85l-12.21-8.83-38.96,53.89,12.21,8.83c17.75,12.84,36.12,10.77,48.32-6.1s8.27-35.05-9.35-47.79Z"/>
        <path class="cls-2" d="M1004.73,395.17c-20.65,17.7-48.81,15.64-66.91-5.48-18-21-15.72-49.15,4.92-66.84,20.65-17.7,48.81-15.64,66.81,5.36,18.1,21.12,15.82,49.26-4.82,66.96ZM994.52,383.25c14.51-12.44,17.11-31.85,4.77-46.25-12.24-14.28-31.58-14.88-46.33-2.24-14.51,12.44-17.11,31.85-4.87,46.13,12.34,14.39,31.68,15,46.43,2.36Z"/>
      </g>
      <g>
        <path class="cls-2" d="M190.99,825.45c-10.85-27.51.2-51.89,24.4-61.44,24.21-9.55,49.14,1.28,58.79,25.76,4.5,11.42,5.53,20.86,3.56,29.59l-18.84.6c2.17-6.58,1.99-14.29-1.16-22.27-5.7-14.44-19.31-21.15-34.99-14.97-14.72,5.8-20.94,20.65-14.65,36.61,3.8,9.63,9.72,16.99,15.77,20.64l-17.42,7.82c-6.24-4.53-11.74-12.85-15.49-22.34Z"/>
        <path class="cls-2" d="M295.93,917.97c-21.78,14.24-48.38,8.67-63.03-13.73-14.56-22.27-9.07-49,12.71-63.24,21.78-14.24,48.46-8.54,63.03,13.73,14.64,22.4,9.07,49-12.71,63.24ZM284.76,900.9c13.36-8.74,17.4-23.91,9.15-36.54-8.17-12.5-23.65-15.1-37.14-6.28-13.37,8.74-17.32,24.04-9.15,36.54,8.25,12.62,23.77,15.02,37.14,6.28Z"/>
        <path class="cls-2" d="M329.93,1013.42l-12.07-11.77,8.8-56.89c.68-4.3,1.57-8.59,2.67-12.27l-.53-.52-40.16,41.18-13.44-13.11,61.32-62.88,13.66,13.32-8.32,53.22c-.57,4.19-1.46,8.49-2.57,12.16l.53.52,37.99-38.95,13.44,13.11-61.32,62.88Z"/>
        <path class="cls-2" d="M365.31,1038.7l38.91-58.47-20.93-13.93,9.75-14.65,58.84,39.16-10.98,13.83-20.31-13.52-38.91,58.47-16.37-10.89Z"/>
        <path class="cls-2" d="M499.1,1030.75l-34.22-15.47-7.25,16.03,28.16,12.73-7,15.49-28.16-12.73-7.55,16.71,36.24,16.38-7.19,15.9-54.16-24.48,36.17-80.03,53.49,24.17-8.53,15.29Z"/>
        <path class="cls-2" d="M574.41,1084.97c-5.84,23.99-22.92,34.13-46.05,28.5-23.13-5.63-33.63-22.5-27.78-46.48l11.97-49.13,19.1,4.65-11.62,47.69c-3.29,13.5.39,22.77,13.03,25.85,12.5,3.04,20.02-3.49,23.31-16.99l11.62-47.69,18.39,4.48-11.97,49.13ZM556.03,1022.37l-14.51-3.53,7.07-10.91,21.84,5.93-14.4,8.51Z"/>
        <path class="cls-2" d="M624.48,1125.67l-31.33-.87,2.43-87.79,31.33.87c30,.83,48.12,19.38,47.41,45.24-.71,25.72-19.99,43.37-49.84,42.55ZM626.45,1054.44l-11.82-.33-1.51,54.68,11.82.33c17.44.48,28.51-9.56,28.99-26.56s-10.18-27.64-27.47-28.12Z"/>
        <path class="cls-2" d="M774.06,1065.77c4.85,25.57-10.46,48.03-36.75,53.02-26.15,4.96-48.76-10.32-53.61-35.88-4.85-25.57,10.6-48.06,36.75-53.02,26.29-4.99,48.76,10.32,53.61,35.88ZM754.02,1069.57c-2.98-15.69-15.47-25.21-30.28-22.4-14.67,2.78-22.98,16.1-19.98,31.93,2.98,15.69,15.61,25.18,30.28,22.4,14.82-2.81,22.95-16.24,19.98-31.93Z"/>
        <path class="cls-2" d="M887.78,1020.42c11.38,21.91,5.18,40.79-15.94,51.75-21.13,10.97-40.13,5.17-51.5-16.74l-23.3-44.88,17.45-9.06,22.61,43.56c6.4,12.33,15.27,16.9,26.81,10.9,11.42-5.93,12.79-15.8,6.38-28.13l-22.61-43.56,16.8-8.72,23.3,44.88ZM832.76,985.34l-13.25,6.88-1.85-12.87,20.35-9.9-5.25,15.88Z"/>
        <path class="cls-2" d="M987.07,989.36l-12.98,10.75-55.62-14.8c-4.2-1.13-8.38-2.47-11.91-3.96l-.57.47,36.67,44.3-14.46,11.97-56-67.65,14.69-12.16,52.03,13.93c4.1,1.02,8.28,2.36,11.82,3.84l.57-.47-34.69-41.91,14.46-11.97,56,67.65Z"/>
        <path class="cls-2" d="M1016.45,956.35l-13.17,14.6-65.22-58.81,13.17-14.6,65.22,58.81Z"/>
        <path class="cls-2" d="M1057.79,903.74c-16.67,24.42-43.05,28.97-64.54,14.3-21.49-14.67-26.53-41.38-11.69-63.12,6.92-10.14,14.16-16.29,22.48-19.56l11.07,15.25c-6.66,1.9-12.95,6.38-17.78,13.46-8.75,12.82-6.66,27.85,7.26,37.36,13.07,8.92,28.85,5.73,38.52-8.44,5.84-8.55,8.6-17.58,8.23-24.64l16.25,10.02c-.25,7.71-4.04,16.93-9.79,25.36Z"/>
        <path class="cls-2" d="M1075.36,764.91c24.01,10.02,34.35,35.16,24.04,59.86-10.25,24.56-35.45,35.03-59.46,25-24.01-10.02-34.29-35.3-24.04-59.86,10.31-24.69,35.45-35.03,59.46-25ZM1067.5,783.74c-14.73-6.15-29.56-.96-35.37,12.95-5.75,13.78.79,28.05,15.66,34.25,14.74,6.15,29.61.83,35.37-12.95,5.81-13.92-.93-28.1-15.66-34.25Z"/>
      </g>
    </g>
    <path class="cls-2" d="M893.6,566.34c0,15.63-2.97,30.88-8.83,45.33-6.07,14.97-14.98,28.39-26.47,39.88l-189.41,189.41c-13.13,13.13-34.42,13.13-47.55,0h0c-13.13-13.13-13.13-34.42,0-47.55l189.41-189.41c10.06-10.06,15.6-23.43,15.6-37.66s-5.54-27.6-15.6-37.66c-20.76-20.77-54.55-20.77-75.31,0l-103.18,103.18c-12.53,12.53-29.52,19.57-47.24,19.57h0c-17.83,0-34.6-6.94-47.22-19.54-9.16-9.15-19.74-19.69-29.02-28.92-13.15-13.09-13.22-34.36-.14-47.52h0c13.09-13.19,34.4-13.26,47.57-.15,9.2,9.15,19.68,19.59,28.81,28.71l12.55-12.55-42.77-42.77c-20.76-20.76-54.55-20.76-75.32,0-10.06,10.06-15.6,23.43-15.6,37.66s5.54,27.6,15.6,37.66l57.14,57.13c26.09,26.09,68.39,26.09,94.48,0l78.25-78.25c13.13-13.13,34.42-13.13,47.55,0h0c13.13,13.13,13.13,34.42,0,47.55l-149.57,149.58c-12.96,12.96-33.97,12.96-46.94,0l-128.46-128.46c-11.49-11.49-20.4-24.91-26.47-39.88-5.86-14.44-8.83-29.69-8.83-45.33s2.97-30.89,8.83-45.33c6.07-14.97,14.98-28.39,26.47-39.88,11.49-11.49,24.91-20.4,39.88-26.47,14.44-5.86,29.69-8.83,45.33-8.83s30.89,2.97,45.33,8.83c14.97,6.07,28.39,14.98,39.88,26.47l42.77,42.77,42.77-42.77c11.49-11.49,24.91-20.4,39.88-26.47,14.44-5.86,29.69-8.83,45.33-8.83s30.89,2.97,45.33,8.83c14.97,6.07,28.39,14.98,39.88,26.47,11.49,11.49,20.4,24.91,26.47,39.88,5.86,14.44,8.83,29.69,8.83,45.33Z"/>
  </g>
</svg>