<?xml version="1.0" encoding="UTF-8"?>
<svg id="Camada_1" xmlns="http://www.w3.org/2000/svg" viewBox="0 0 900.3 1178.14">
  <defs>
    <style>
      .cls-1 {
        fill: #626665;
      }

      .cls-2 {
        fill: #fff6eb;
      }

      .cls-3 {
        fill: #bf7513;
      }

      .cls-4 {
        fill: #ff9c19;
      }
    </style>
  </defs>
  <path class="cls-1" d="M736,145.15c-9.38-3.3-17.37-5.17-22.14-6.28l-296.89-69.7c-2.62-.61-5.24-1.25-7.86-1.88-6.24-1.5-12.7-3.05-19.71-4.58-11.59-2.53-23.43-3.81-35.18-3.81-76.69,0-143.83,54.2-163.29,131.82-3.33,13.3-6.07,25.95-8.72,38.19-1.17,5.41-2.34,10.81-3.55,16.2L62.65,760.6c-1.38,6.12-2.77,12.23-4.15,18.34-2.84,12.5-5.77,25.43-8.61,38.39-8.1,36.99-6.04,75.92,5.82,109.64,18.59,52.87,59.56,91.43,112.52,105.95,1.27.35,2.54.69,3.81,1l2.62.66,1.64.32,322.8,72.8,2.08.48c9.56,2.19,25.56,5.86,45.47,5.87h0c20.26,0,40.06-3.79,58.86-11.27,29.55-11.76,81.84-43.49,100.02-123.89l130.92-578.95c.63-2.78,1.56-6.43,2.54-10.28,5.05-19.88,11.98-47.1,11.04-78.99-2.27-76.94-47.01-141.9-114.02-165.51Z"/>
  <g>
    <path class="cls-2" d="M173.41,1038.11c1.26.35,2.54.69,3.81,1l2.62.66,1.64.32,322.8,72.8,2.08.48c9.56,2.19,25.56,5.86,45.47,5.87h0c20.26,0,40.06-3.79,58.86-11.27,29.55-11.76,81.84-43.49,100.02-123.89l130.92-578.95c.63-2.78,1.56-6.42,2.54-10.28,5.05-19.88,11.98-47.1,11.04-78.99-2.27-76.94-47.01-141.9-114.02-165.51-9.38-3.3-17.37-5.17-22.14-6.28l-296.89-69.7c-2.62-.62-5.24-1.25-7.86-1.88-6.24-1.5-12.7-3.05-19.71-4.58-11.59-2.53-23.43-3.81-35.18-3.81-76.69,0-143.83,54.2-163.29,131.82-3.33,13.3-6.07,25.95-8.72,38.19-1.17,5.41-2.34,10.81-3.55,16.2l-116,515.48c-1.38,6.12-2.77,12.23-4.15,18.34-2.84,12.5-5.77,25.43-8.61,38.39-8.1,36.99-6.04,75.92,5.82,109.64,18.59,52.87,59.56,91.43,112.52,105.95Z"/>
    <g>
      <path class="cls-3" d="M731.96,319.49c-.63-21.38-10-45.2-31.71-52.84-3.35-1.18-6.79-1.95-10.23-2.75-12.03-2.82-24.05-5.65-36.09-8.48-44.72-10.49-89.45-21-134.17-31.49-41.93-9.85-83.86-19.69-125.8-29.54-8.53-2-17.06-4.14-25.63-6.02-25.73-5.61-46.63,13.62-52.62,37.52-4.28,17.05-7.73,34.34-11.59,51.49-8.45,37.54-16.89,75.07-25.34,112.62-10.78,47.88-21.55,95.74-32.32,143.61-10.8,47.97-21.59,95.93-32.39,143.91-8.66,38.46-17.31,76.9-25.95,115.35-4.2,18.68-8.52,37.33-12.61,56.04-6.02,27.48.32,62.65,31.35,70.54,23.45,5.28,46.89,10.57,70.33,15.86,47.48,10.7,94.96,21.42,142.44,32.12,37.25,8.41,74.51,16.81,111.77,25.21,11.64,2.63,21.76,5.54,33.71.79,15.28-6.09,21.96-21.56,25.35-36.52,5.04-22.32,10.09-44.62,15.13-66.92,9.19-40.64,18.37-81.26,27.57-121.89,11.02-48.78,22.06-97.54,33.08-146.31,10.54-46.59,21.07-93.19,31.61-139.78,7.84-34.68,15.68-69.38,23.52-104.06,4.19-18.53,11.16-39.29,10.59-58.44ZM191.1,871.52c.02-.06.02-.15.05-.22.16-.43.27-.89.38-1.34-.07.54-.2,1.07-.43,1.57ZM710.7,333.52c-6.12,27.01-12.22,54.04-18.33,81.05-9.53,42.15-19.06,84.31-28.59,126.45-10.94,48.39-21.88,96.79-32.82,145.17-10.07,44.51-20.13,89.02-30.19,133.51-7.08,31.28-14.14,62.55-21.22,93.81-1.74,7.71-3.49,15.42-5.23,23.13-.3,1.32-.6,2.64-.89,3.96-.07.33-.17.68-.26,1-.09.31-.14.75-.33,1.07-1.11,1.84-2.48,3.72-4.06,5.2-5.79,5.43-14.03,7.3-21.71,6.23-6.9-.95-13.75-2.97-20.53-4.5-16.14-3.64-32.28-7.29-48.43-10.92-46.26-10.43-92.52-20.86-138.78-31.29-38.17-8.62-76.34-17.22-114.5-25.83-5.99-1.34-11.97-2.7-17.96-4.04-3.66-.94-7.31-2.9-10.21-5.34-2.08-1.75-3.51-3.76-4.48-5.41,1.74-7.72,3.48-15.44,5.22-23.17,7.06-31.39,14.13-62.79,21.19-94.18,10.06-44.74,20.13-89.49,30.19-134.22,10.86-48.24,21.71-96.48,32.56-144.71,9.56-42.44,19.1-84.88,28.65-127.31,6.12-27.19,12.24-54.38,18.36-81.57,1.11-4.92,2.13-9.86,3.32-14.76.04-.14.06-.26.09-.38.01-.02.01-.04.01-.06,0,0,.12-.44.25-.86.12-.17.76-1.63,1.05-2.16,2.71-5.07,9.76-10.63,16.46-12.79,6.68-2.14,13.67-1.49,20.38.06,29.05,6.73,58.06,13.64,87.08,20.44,47.06,11.06,94.12,22.11,141.18,33.15,30.86,7.25,61.72,14.49,92.57,21.74,3.86.9,7.32,1.87,10.87,3.87,3.33,1.87,6.16,4.08,8.53,7.06.37.47,2.14,3.13,2.22,3.13.26.48.49.96.72,1.47-1.23,3.74-1.58,8.43-2.38,12ZM713.56,322.9v-.22s.01.01.01.01c-.01.07-.01.14-.01.21ZM713.86,319.54c-.06.12-.1.27-.16.39.05-.38.12-.67.22-.67-.01,0-.05.26-.06.27Z"/>
      <path class="cls-4" d="M712.36,320.06c-.07,0-1.85-2.66-2.22-3.13-2.37-2.98-5.2-5.19-8.53-7.06-3.55-2-7.02-2.97-10.87-3.87-30.85-7.25-61.71-14.49-92.57-21.74-47.06-11.05-94.12-22.09-141.18-33.15-29.02-6.81-58.03-13.71-87.08-20.44-6.71-1.55-13.7-2.21-20.38-.06-6.69,2.16-13.75,7.72-16.46,12.79-.28.53-.92,1.98-1.05,2.16-.12.42-.25.86-.25.86,0,.02,0,.04-.01.06-.02.12-.05.25-.09.38-1.18,4.89-2.21,9.84-3.32,14.76-6.12,27.19-12.24,54.38-18.36,81.57-9.56,42.44-19.1,84.88-28.65,127.31-10.85,48.23-21.7,96.46-32.56,144.71-10.06,44.73-20.13,89.47-30.19,134.22-7.06,31.39-14.13,62.79-21.19,94.18-1.74,7.73-3.48,15.45-5.22,23.17.96,1.65,2.39,3.66,4.48,5.41,2.9,2.44,6.55,4.4,10.21,5.34,5.99,1.34,11.97,2.7,17.96,4.04,38.16,8.61,76.33,17.21,114.5,25.83,46.26,10.43,92.52,20.86,138.78,31.29,16.15,3.64,32.29,7.29,48.43,10.92,6.78,1.53,13.62,3.55,20.53,4.5,7.68,1.07,15.92-.8,21.71-6.23,1.58-1.48,2.95-3.37,4.06-5.2.2-.32.25-.76.33-1.07.09-.32.18-.67.26-1,.28-1.32.59-2.64.89-3.96,1.74-7.71,3.49-15.42,5.23-23.13,7.08-31.27,14.14-62.53,21.22-93.81,10.06-44.5,20.12-89.01,30.19-133.51,10.94-48.38,21.88-96.77,32.82-145.17,9.53-42.14,19.06-84.3,28.59-126.45,6.12-27.01,12.22-54.04,18.33-81.05.8-3.56,1.15-8.26,2.38-12-.22-.51-.46-.99-.72-1.47ZM507.45,351.21c1.28-5.44,4.13-11.56,9.07-14.66,3.71-2.31,7.69-2.34,11.64-.85,4.38,1.66,7.26,5.96,9.09,10.06,4.06,9.07,4.27,20.66,1.82,30.18-1.33,5.17-3.63,10.12-7.69,13.57-.43.43-.89.8-1.38,1.08-.38.26-.75.44-1.13.57-3.53,1.66-7.13,1.73-10.83.17-4.22-1.78-6.93-5.97-8.78-9.95-4.2-9.11-4.06-20.61-1.81-30.18ZM547.27,620.78c-10.8,18.43-31.14,29.47-48.13,41.38-23.09,16.2-46.17,32.43-69.34,48.5-5.4,3.75-8.15-8.03-8.51-10.97-.73-5.82-.6-15.57,4.82-19.34,22.9-15.88,45.69-31.91,68.5-47.9,14.5-10.17,32.4-19.55,42.83-34.31,2.12-3.01,3.8-6.28,4.87-9.8.31-1.02.52-2.07.78-3.11.06-.43.11-.88.17-1.32-.07.23.01-1.16.11-1.5-.04-.31-.07-.62-.07-.74,0-.05,0-.07.01-.05,0,.01.01.01.01.01h0c-.02-.12-.06-.23-.09-.34-.05-.21-.11-.41-.17-.6-.05-.16-.1-.31-.15-.47-.25-.75-.54-1.49-1.01-2.31-2.24-3.88-5.79-6.66-9.69-8.73-18.19-9.7-37-.42-53.4,8.43-20.16,10.89-39.86,22.58-59.14,34.94-1.87,1.2-4.22.1-5.33-1.59-6.2-9.39-12.4-18.79-18.6-28.18-3.96-6.02-4.28-14.75-2.48-21.51.97-3.69,5.5-11.64,9.46-5.63,5.44,8.22,10.86,16.46,16.3,24.7,6.07-3.87,12.18-7.67,18.33-11.39-2.89-5.18-6.08-10.17-9.68-14.97-4.93-6.57-10.3-13.67-18.17-16.79-11.02-4.38-24.38-1.75-34.05,4.61-4.4,2.88-8.14,6.66-10.86,11.2-.67,1.11-1.27,2.33-1.8,3.54-.36.79-.67,1.6-.99,2.4-.19.65-.37,1.32-.53,2,.22-.59.09,1.5-.06.95.43,3.06,2.21,7.82,3.72,11.64,4.01,10.16,8.48,19.57,15.02,28.36,7.06,9.51,14.94,19.86,23.77,27.78,9.33,8.38,20.33,4.57,29.91-1.34,19.42-12.01,37.6-26.13,54.94-40.95,5.03-4.29,8.2,8.53,8.51,10.99.79,6.3.35,14.91-4.83,19.33-12.58,10.75-25.57,20.98-39.15,30.45-10.5,7.34-22.69,17.38-36,18.03-14.75.7-24.03-13.07-32.57-22.97-8.77-10.17-16.92-20.64-22.99-32.69-11.81-23.43-19.6-50.43-8.77-75.65,10.02-23.32,38.3-39.47,62.71-26.95,8.3,4.25,14.66,12.76,20.05,20.08,7.15,9.74,13.11,20.37,17.96,31.44,1.06-.62,2.13-1.25,3.19-1.86,11.42-6.52,22.96-13.44,35.06-18.62,19.83-8.49,45.58-7.22,57.91,13.04,12.19,20.05,9.19,49.07-2.38,68.81ZM632.96,430.42c-.18.12-.38.23-.57.32-18.64,10.78-42.25,6.26-55.4-11.02-13.57-17.85-14.97-45.71-4.93-65.51,8.61-16.98,27.14-28.3,46.41-24.34,44.41,9.11,49.64,77.31,14.49,100.55Z"/>
      <path class="cls-4" d="M642.03,382.05v1.06c-.04.3-.07.53-.09.69-2,6.76-6.47,12.22-12.65,16.3-13.99,8.37-33.4,6.84-44.24-6.19-2.49-3.01-3.85-5.98-5.26-9.48-.17-.43-.28-1.74-.21-2,1.92-6.83,6.4-12.61,12.75-16.61,13.78-8.68,33.57-6.63,44.24,6.19,1.97,2.37,3.75,4.99,4.82,7.87.05.16.44,1.54.64,2.17Z"/>
      <path class="cls-4" d="M543.32,581.61s.01.01.01.01h-.01Z"/>
    </g>
  </g>
</svg>