<?xml version="1.0" encoding="UTF-8"?>
<svg id="Camada_1" xmlns="http://www.w3.org/2000/svg" viewBox="0 0 1421.02 1155.39">
  <defs>
    <style>
      .cls-1 {
        fill: #626665;
      }

      .cls-2 {
        fill: #fff6eb;
      }

      .cls-3 {
        fill: #ff5459;
      }
    </style>
  </defs>
  <path class="cls-1" d="M1340.72,585.12l-.03-.25c-3.57-26.09-15.81-50.17-34.77-68.78-1.73-1.88-3.47-3.77-5.2-5.66,0,0-1.57-27.98-32.43-35.42-39.1-9.42-340.14-10.11-340.14-10.11-17.63-2.45-32.12-2.79-38.71-2.79-12.06,0-23.78.95-35.08,2.79h-1.48v.25c-19.32,3.3-37.4,9.27-53.85,17.78-5.66-2.77-11.47-5.27-17.4-7.5-2.19-10.03-4.23-19.36-4.67-21.4,1.44-1.63,65.17-71.35,29.18-167.59-3.61-9.65-29.29-52.38-51.75-69.31-10.41-7.84-21.6-14.24-33.36-19.12-.35-1.62-.71-3.24-1.06-4.86-1-4.57-1.97-9.15-2.94-13.73-2.07-9.73-4.21-19.79-6.65-30.17-11.51-52.09-55.59-88.44-107.32-88.44-33.88,0-65.27,15.63-86.15,42.93l-34.97,45.8-134.72,89.23c-11.4,7.56-22.81,15.11-34.21,22.66l-139.72,11.33c-31.31,2.55-60.12,18.47-79.03,43.7-29.93,39.91-23.37,86.23-20.65,99.49,0,0,7.15,34.76,9.65,46.93,5.14,24.95,10.27,49.9,15.4,74.9l3.55,17.26c7.16,34.8,28.74,62.7,57.59,77.72,0,0,31.94,138.95,36.96,160.82,1.04,4.52,2.05,9.04,3.07,13.57,2.15,9.6,4.37,19.52,6.9,29.78,2.9,12.45,7.63,24.08,14.05,34.6,16.79,27.49,43.88,45.7,74.63,50.89-.19,1.09-.39,2.19-.57,3.28-5.13,31.65-11.27,63.98,32.55,108.72,1.88,1.92,3.83,3.98,5.81,6.12l6.26,6.79,7.34,5.6c6.98,5.32,12.82,9.36,18.36,12.7,17.33,10.44,37.18,15.95,57.43,15.95,11.78,0,23.61-1.9,34.97-5.58,17.11-4.9,32.64-13.86,45.53-26.06,5.07,4.33,10.45,8.25,16.14,11.77,19.8,12.25,43.01,19.1,67.45,19.97,18.45,10.46,39.8,15.98,62.16,15.98,1.15,0,2.33-.01,3.51-.04l4.55-.11,4.52-.5c18.23-2.03,35.22-6.25,50.52-12.53,12.73-5.22,25.36-12.16,38.52-21.16,12.47,9.7,31.94,21.22,58.42,23.81,0,0,.14.01.14.01,3.44.33,6.94.5,10.4.5,22.34,0,43.89-6.81,64.15-20.27,3.27-2,6.56-4.21,9.92-6.63,9.35,5.92,20.82,11.52,34.6,14.93,8.75,2.16,17.9,3.26,27.2,3.26s19.47-1.11,31.62-3.58c8.88-1.45,17.71-3.61,26.45-6.45,22.94,15.75,47.57,23.96,73.25,24.36.67.01,1.34.02,2.02.02,18.2,0,36.52-3.76,56.02-11.5l4.89-1.94,4.67-2.42c60.48-31.31,74.93-78.44,78.16-103.81,1.46-11.54,1.26-23.15-.54-34.5,2.84-5.4,5-10.58,6.64-15.31,5.06-14.62,6.22-27.78,7.16-43.36.06-.74.46-4.73,2.42-13.32,1.2-5.29,3.81-15.11,9.46-32.5,4.57-10.34,8.07-19.88,10.65-28.98.24-.85.48-1.7.71-2.56,2.02-4.13,3.79-8.39,5.31-12.76.92-2.64,1.76-5.31,2.53-8.01,1.22-2.67,2.58-5.61,4.1-8.83,1.74-3.72,2.81-5.67,3.18-6.33l3.79-6.69,2.78-7.17c1.25-3.22,1.85-4.53,1.91-4.64,2.9-6.19,5.26-12.32,7.11-18.43,2.9-5.58,5.88-11.43,8.87-17.46,5.66-10.9,10.81-20.9,15.35-29.78,11.74-23.04,18.03-46.28,18.67-69.07l.08-2.78-.07-2.78c-.2-8.31-.78-15.89-1.75-23.16Z"/>
  <g>
    <path class="cls-3" d="M1349.9,605.25c-.2-8.31-.78-15.89-1.75-23.16l-.03-.25c-3.57-26.09-15.81-50.17-34.77-68.78-1.73-1.88-3.47-3.77-5.2-5.66,0,0-1.57-27.98-32.43-35.42-39.1-9.42-340.14-10.11-340.14-10.11-17.63-2.45-32.12-2.79-38.71-2.79-12.06,0-23.78.95-35.08,2.79h-1.48v.25c-19.32,3.3-37.4,9.27-53.85,17.78-5.66-2.77-11.47-5.27-17.4-7.5-2.19-10.03-4.23-19.36-4.67-21.4,1.44-1.63,65.17-71.35,29.18-167.59-3.61-9.65-29.29-52.38-51.75-69.31-10.41-7.84-21.6-14.24-33.36-19.12-.35-1.62-.71-3.24-1.06-4.86-1-4.57-1.97-9.15-2.94-13.73-2.07-9.73-4.21-19.79-6.65-30.17-11.51-52.09-55.59-88.44-107.32-88.44-33.88,0-65.27,15.63-86.15,42.93l-34.97,45.8-134.72,89.23c-11.4,7.56-22.81,15.11-34.21,22.66l-139.72,11.33c-31.31,2.55-60.12,18.47-79.03,43.7-29.93,39.91-23.37,86.23-20.65,99.49,0,0,7.15,34.76,9.65,46.93,5.14,24.95,10.27,49.9,15.4,74.9l3.55,17.26c7.16,34.8,28.74,62.7,57.59,77.72,0,0,31.94,138.95,36.96,160.82,1.04,4.52,2.05,9.04,3.07,13.57,2.15,9.6,4.37,19.52,6.9,29.78,2.9,12.45,7.63,24.08,14.05,34.6,16.79,27.49,43.88,45.7,74.63,50.89-.19,1.09-.39,2.19-.57,3.28-5.13,31.65-11.27,63.98,32.55,108.72,1.88,1.92,3.83,3.98,5.81,6.12l6.26,6.79,7.34,5.6c6.98,5.32,12.82,9.36,18.36,12.7,17.33,10.44,37.18,15.95,57.43,15.95,11.78,0,23.61-1.9,34.97-5.58,17.11-4.9,32.64-13.86,45.53-26.06,5.07,4.33,10.45,8.25,16.14,11.77,19.8,12.25,43.01,19.1,67.45,19.97,18.45,10.46,39.8,15.98,62.16,15.98,1.15,0,2.33-.01,3.51-.04l4.55-.11,4.52-.5c18.23-2.03,35.22-6.25,50.52-12.53,12.73-5.22,25.36-12.16,38.52-21.16,12.47,9.7,31.94,21.22,58.42,23.81,0,0,.14.01.14.01,3.44.33,6.94.5,10.4.5,22.34,0,43.89-6.81,64.15-20.27,3.27-2,6.56-4.21,9.92-6.63,9.35,5.92,20.82,11.52,34.6,14.93,8.75,2.16,17.9,3.26,27.2,3.26s19.47-1.11,31.62-3.58c8.88-1.45,17.71-3.61,26.45-6.45,22.94,15.75,47.57,23.96,73.25,24.36.67.01,1.34.02,2.02.02,18.2,0,36.52-3.76,56.02-11.5l4.89-1.94,4.67-2.42c60.48-31.31,74.93-78.44,78.16-103.81,1.46-11.54,1.26-23.15-.54-34.5,2.84-5.4,5-10.58,6.64-15.31,5.06-14.62,6.22-27.78,7.16-43.36.06-.74.46-4.73,2.42-13.32,1.2-5.29,3.81-15.11,9.46-32.5,4.57-10.34,8.07-19.88,10.65-28.98.24-.85.48-1.7.71-2.56,2.02-4.13,3.79-8.39,5.31-12.76.92-2.64,1.76-5.31,2.53-8.01,1.22-2.67,2.58-5.61,4.1-8.83,1.74-3.72,2.81-5.67,3.18-6.33l3.79-6.69,2.78-7.17c1.25-3.22,1.85-4.53,1.91-4.64,2.9-6.19,5.26-12.32,7.11-18.43,2.9-5.58,5.88-11.43,8.87-17.46,5.66-10.9,10.81-20.9,15.35-29.78,11.74-23.04,18.03-46.28,18.67-69.07l.08-2.78-.07-2.78Z"/>
    <g>
      <g>
        <path class="cls-2" d="M529.72,693.93h-21.72v57.7h-41.26v-184.27h63.29c48.71,0,77.25,22.34,77.25,63.29s-28.85,63.29-77.56,63.29ZM529.1,601.17h-21.1v58.94h21.1c22.96,0,36.92-9,36.92-29.47s-13.96-29.47-36.92-29.47Z"/>
        <path class="cls-2" d="M811.15,659.5c0,54.6-40.33,94.93-96.48,94.93s-96.48-40.33-96.48-94.93,40.64-94.93,96.48-94.93,96.48,40.33,96.48,94.93ZM768.34,659.5c0-33.5-22.03-58.01-53.67-58.01s-53.67,24.2-53.67,58.01,22.34,58.01,53.67,58.01,53.67-24.51,53.67-58.01Z"/>
        <path class="cls-2" d="M944.33,611.1c-10.24-6.21-31.64-10.24-46.53-10.24-19.85,0-30.4,5.89-30.4,17.37,0,29.16,92.45,12.72,92.45,77.87,0,35.68-26.99,58.32-76.01,58.32-22.65,0-44.67-4.65-57.7-11.48l3.41-38.47c11.79,7.44,35.06,13.65,55.53,13.65,22.34,0,32.57-5.89,32.57-18.3,0-30.09-92.45-13.34-92.45-77.87,0-34.13,27.3-57.39,71.66-57.39,17.99,0,41.57,3.41,55.22,9.93l-7.76,36.61Z"/>
        <path class="cls-2" d="M1018.54,751.63v-147.36h-52.74v-36.92h148.29l-3.1,36.92h-51.19v147.36h-41.26Z"/>
      </g>
      <g>
        <path class="cls-2" d="M600.66,973.2c-7.43.18-13.6-1.24-18.5-4.28-4.91-3.03-9.12-8.22-12.65-15.57-1.62-5.16-2.97-10.98-4.05-17.46-1.09-6.47-1.7-12.59-1.85-18.35-.14-5.75.32-9.57,1.39-11.46,1.44-1.52,2.03-4.23,1.75-8.12-.29-3.9-.48-8.07-.59-12.53-.56-7.42-2.43-11.55-5.6-12.4-3.18-.84-7.71.47-13.56,3.96-6.58,4.25-15.18,9.95-25.78,17.08-10.61,7.14-21.65,14.94-33.15,23.39-11.5,8.46-22.34,17.27-32.51,26.44-7.95,9.12-12.7,16.02-14.26,20.7-1.56,4.69-3.82,7.06-6.79,7.14-2.94,1.56-5.44,1.72-7.51.46-2.08-1.25-5.01-3.31-8.79-6.19-2.68-2.9-5.35-5.72-8.01-8.44-2.67-2.72-4.39-4.81-5.17-6.28-.05-1.85.42-5.77,1.38-11.74.97-5.96,2.21-11.94,3.74-17.93,1.52-5.98,2.63-9.91,3.33-11.79,1.85-.05,3.38-1.94,4.6-5.69,1.21-3.74,3.24-7.88,6.1-12.41.63-4.48,2.43-10.56,5.4-18.25,2.96-7.69,5.68-14.54,8.13-20.55,4.98-9.04,8.41-16.56,10.31-22.55,1.89-5.99,3.1-13.46,3.63-22.39-.41-1.47-.07-2.87,1.01-4.21,1.08-1.32,2.36-2.01,3.85-2.05,2.89-3.04,6.4-3.96,10.52-2.77,4.11,1.21,7.9,3.99,11.36,8.36,6.9,8.75,9.82,17.87,8.76,27.38-1.07,9.5-6.77,23.12-17.11,40.84-2.46,6.01-4.29,10.61-5.51,13.79-1.23,3.19-1.81,5.71-1.76,7.57,7.67-5.39,13.97-9.91,18.9-13.56,4.93-3.65,8.85-6.44,11.78-8.37,1.81-1.9,6-5.35,12.57-10.34,6.57-4.99,13.6-9.9,21.1-14.73,7.49-4.83,13.09-7.66,16.79-8.5,2.93-1.55,6.06-3.02,9.37-4.41,3.31-1.38,5.71-2.09,7.19-2.13,2.97-.07,6.81,1.42,11.54,4.45,4.72,3.05,9.17,6.65,13.37,10.82,4.19,4.17,6.69,7.73,7.51,10.68.04,1.49.16,2.98.39,4.45.22,1.48.53,2.96.95,4.44,1.6,4.79,2.59,11.27,2.99,19.44.38,8.17.29,15.6-.29,22.3-.58,6.7-1.78,10.63-3.61,11.79.41,1.85,1.37,2.75,2.85,2.72.04,1.49.06,2.42.07,2.79-1.86.05-2.56,1.65-2.11,4.79.44,3.15,1.74,6.56,3.88,10.22,2.13,3.67,4.34,6.58,6.63,8.76,4.57,4.35,6.52,8.48,5.88,12.4-.65,3.92-3.93,6.7-9.83,8.33Z"/>
        <path class="cls-2" d="M657.18,989.08c-4.83.12-8.66-.71-11.49-2.5-2.83-1.79-6.33-4.3-10.5-7.55-7.24-7.25-12.43-14.27-15.57-21.08-3.15-6.8-4.23-13.36-3.27-19.71,1.04-3,1.3-7.28.8-12.84-1.91-1.81-2.5-3-1.76-3.58.73-.58,1.44-1.61,2.15-3.12,2.23-.06,2.92-2.11,2.08-6.18-.82-2.95.51-9.49,3.98-19.61,3.46-10.12,7.88-19.7,13.23-28.75,2.14-3.76,5.36-8.77,9.66-15.01,4.31-6.24,9.07-12.49,14.31-18.75,5.23-6.26,10.03-11.3,14.4-15.13,9.09-8.03,17.12-13.98,24.09-17.87,6.96-3.88,14.51-6.86,22.63-8.92,8.12-2.05,13.76-3.13,16.92-3.2,3.15-.08,7.59,2.79,13.31,8.59,8.63,3.5,14.96,7.81,18.99,12.91,4.03,5.11,6.72,12.65,8.08,22.65,1.39,11.11.87,23.86-1.57,38.22-2.43,14.37-10.82,32.32-25.15,53.85-8.96,13.6-17.25,23.75-24.89,30.43-7.64,6.7-16.77,13.33-27.38,19.91-7.67,5.4-14.64,9.38-20.89,11.94-6.26,2.58-13.65,4.34-22.17,5.29ZM709.2,928.72c8.67-10.25,15.58-19.89,20.75-28.94,5.16-9.05,9.99-20.5,14.48-34.36,1.38-4.12,2.19-9.25,2.41-15.39.21-6.14-.02-11.89-.7-17.26-.69-5.37-2.16-8.39-4.41-9.09-4.52-2.48-9.93-3.19-16.22-2.11-6.3,1.09-13.08,4.88-20.34,11.37-11.28,9.95-21.01,22.17-29.2,36.67-8.19,14.51-16.15,30.97-23.87,49.36-5.24,13.51-6.19,24.22-2.83,32.12,3.35,7.91,10.29,10.53,20.82,7.85,10.52-2.67,23.56-12.75,39.11-30.23Z"/>
        <path class="cls-2" d="M834.32,975.24c-3.65,2.7-6.22,3.97-7.71,3.81-1.49-.14-4.33-2.21-8.51-6.2-7.22-6.51-12.46-19.11-15.7-37.79-3.25-18.68-5.29-45.11-6.13-79.28,1.1-15.26,1.62-28.28,1.55-39.06-.08-10.77-.14-16.9-.17-18.39,1.08-1.51,3.38-2.31,6.91-2.4,3.53-.09,6.61.59,9.25,2,3.75,1.77,6.33,4.49,7.73,8.17,1.39,3.68,2.39,10.25,2.99,19.72.6,9.46,1.15,23.85,1.62,43.16-.75,14.89-.99,27.81-.72,38.76.27,10.96.98,17.17,2.13,18.62,1.54,2.57,3.33,3.18,5.34,1.82,2-1.35,5.73-4.88,11.17-10.59,2.87-4.16,6.45-9.72,10.74-16.71,4.29-6.98,7.68-12.54,10.18-16.7,3.95-5.3,7.63-10.4,11.05-15.32,3.41-4.91,5.84-8.13,7.29-9.66,1.41-3,3.2-5.84,5.36-8.49,2.16-2.65,3.96-5.3,5.38-7.93,3.91-7.15,8.04-13.11,12.38-17.87,4.34-4.75,7.25-7.15,8.74-7.18,1.51,1.08,2.91,1.32,4.2.73,1.28-.59,2.67-.9,4.16-.94,2.53-2.66,6.06-2.74,10.58-.26,1.51,1.08,2.84,2.26,3.99,3.53,1.15,1.28,1.74,2.66,1.77,4.14.05,1.86-1.25,5.8-3.89,11.8-2.64,6.01-5.66,11.76-9.05,17.22-3.4,5.47-6.01,8.79-7.84,9.95-2.17,2.28-3.99,4.19-5.43,5.71-.68,2.62-2.98,7.23-6.91,13.83-3.93,6.6-8.76,14.06-14.5,22.37-5.74,8.32-11.67,16.64-17.78,24.96-6.12,8.33-11.51,15.71-16.18,22.14-3.59,5.3-7.75,9.95-12.48,13.97-4.73,4.02-8.57,6.81-11.5,8.37Z"/>
        <path class="cls-2" d="M975.56,968.42c-7.76,1.68-12.68,2.26-14.73,1.76-2.06-.51-5.18-2.56-9.35-6.18-6.02-2.82-11.03-6.42-15.04-10.78-4.01-4.36-6.91-9.03-8.71-14-1.79-4.97-2.55-9.13-2.26-12.49.79-13.02,3.6-27.03,8.44-42.01,4.83-14.98,10.79-29.43,17.88-43.36,7.09-13.92,14.87-25.91,23.36-35.97,8.48-10.05,16.77-16.66,24.87-19.84,7.35-3.15,14.38-4.44,21.09-3.87,6.7.58,11.61,3.99,14.74,10.23,5.84,10.64,4.7,17.54-3.39,20.71-1.11.03-2.41.53-3.87,1.49-1.46.97-2.18,2.2-2.14,3.68,1.5.71,5.59.7,12.26-.02,6.67-.72,13.42-2,20.25-3.84,6.83-1.84,11.34-3.71,13.52-5.63,2.2-1.17,3.86-1.77,4.97-1.8,1.11-.03,3.91.28,8.38.91,6.36,1.71,9.57,3.86,9.64,6.45.04,1.49.63,2.87,1.77,4.14,1.15,1.28,2.46,1.89,3.95,1.85,2.6.31,2.37,1.99-.71,5.04-3.09,3.05-8.28,7.27-15.57,12.64-6.95,4.63-11.24,7.62-12.88,8.96-1.64,1.35-1.85,4.04-.64,8.1,3.14,6.99,3.53,15.15,1.16,24.5-2.37,9.35-6.78,18.94-13.23,28.76-6.45,9.83-14.3,19.03-23.57,27.62-9.26,8.59-19.12,15.9-29.56,21.91-10.44,6.02-20.66,9.71-30.66,11.07ZM965.49,944.14c1.48-.04,4.06-.94,7.74-2.7,3.67-1.76,6.61-3.23,8.81-4.4,1.44-1.52,3.35-3.33,5.72-5.44,2.36-2.1,4.28-3.35,5.76-3.76,1.48-.04,3.33-.73,5.52-2.09,2.2-1.35,5.28-4.21,9.26-8.59,3.98-4.36,9.21-10.9,15.68-19.62,7.22-8.35,12.79-16.01,16.71-22.99,3.91-6.97,4.87-13.4,2.87-19.3-.41-1.47-1.45-2.38-3.13-2.71-1.68-.33-3.84-1.2-6.47-2.63-3.72.09-7.18-.84-10.38-2.81-3.21-1.96-6.9-4.57-11.06-7.81l-9.19-10.92-9.24,9.7c-5.8,6.09-11.8,15.06-18.01,26.92-6.21,11.86-11.4,23.88-15.56,36.06-4.16,12.18-6.53,21.81-7.09,28.88-.24,5.58.79,9.27,3.06,11.07,2.27,1.81,5.27,2.85,9,3.12Z"/>
        <path class="cls-2" d="M1113.16,980.63c-7,2.78-12.81,4.13-17.46,4.05-4.65-.07-9.81-2.08-15.48-6.03-7.22-6.51-9.71-13.23-7.46-20.16,2.24-6.93,8.11-13.86,17.6-20.78,6.58-4.25,11.45-6.6,14.6-7.05,3.14-.45,8.1.73,14.86,3.53,11.32,6.79,16.43,14.46,15.34,23.03-1.09,8.58-8.43,16.37-22,23.4ZM1141.04,890.76c-10.36,2.12-17.35-2.72-20.98-14.53-3.63-11.8-3.12-28.16,1.58-49.09,2.12-4.51,3.87-8.92,5.25-13.23,1.38-4.3,2.04-7.76,1.97-10.36,1.36-4.86,3.17-10.57,5.43-17.14,2.25-6.55,4.61-12.74,7.07-18.57,2.45-5.82,4.22-9.67,5.29-11.56,1.48-.04,3.03-1.37,4.64-4.02,1.61-2.64,2.38-5.26,2.31-7.86-.07-2.97.49-6.33,1.7-10.08,1.21-3.74,2.53-6.38,3.99-7.9-.05-1.85.64-3.91,2.08-6.18,1.42-2.26,2.13-4.14,2.09-5.63-.04-1.48.39-2.8,1.3-3.94.9-1.14,1.33-2.44,1.3-3.93,3.2-6.02,7.34-14.95,12.44-26.78,5.09-11.83,10.17-24.31,15.24-37.44,5.06-13.13,9.33-24.75,12.8-34.87,3.46-10.12,5.17-16.29,5.12-18.52.67-2.99,1.73-5.24,3.18-6.77,1.44-1.52,3.66-1.95,6.66-1.28,1.45-1.15,2.92-1.83,4.41-2.06,1.48-.22,2.96-.35,4.45-.39,2.67,2.91,5.34,5.82,8.02,8.72,3.03,2.53,4.78,5.46,5.23,8.79.45,3.33.74,7.23.85,11.68-.2,7.07-2.61,15.12-7.21,24.15-4.61,9.03-9.76,19.01-15.43,29.92-3.54,7.15-7,13.92-10.37,20.32-3.38,6.41-5.04,10.35-5,11.83.04,1.49-.66,3.74-2.06,6.74-1.41,3.01-2.99,6.76-4.74,11.26-2.14,3.77-4.45,8.29-6.91,13.55-2.47,5.27-4.68,10.06-6.61,14.38-1.94,4.32-2.89,7.04-2.87,8.15-.34,1.5-.76,3-1.28,4.49-.52,1.5-1.51,3.01-2.95,4.53-1.49.04-2.37,2.11-2.63,6.2.04,1.49-.71,4.95-2.25,10.37-1.54,5.43-4.08,11.9-7.6,19.42-6.57,19.86-11.2,35.67-13.88,47.44-2.69,11.77-4.3,21.76-4.84,29.94-.53,8.93-1.04,14.15-1.56,15.64-.52,1.5-2.25,3.04-5.18,4.59Z"/>
      </g>
      <path class="cls-2" d="M714.75,320.35c-6.59-17.63-23.14-30.66-42.2-31.25-10.47-.32-20.98,3.17-29.25,9.55-.05.04-.09.08-.14.12h0c-6.27-28.72-12.55-57.44-18.82-86.16-3.13-14.32-6.02-28.71-9.39-42.98-.05-.21-.09-.41-.14-.62-.6-2.73-3.45-8.44-6.62-4.29-13.49,17.67-26.99,35.34-40.48,53.01-1.75,2.3-3.51,4.59-5.26,6.89-17.19,11.38-34.38,22.78-51.58,34.16-32.65,21.63-65.3,43.25-97.95,64.87-13.02,8.62-26.03,17.24-39.05,25.86-4.1,2.72-8.2,5.44-12.3,8.15-1.26.84-2.51,1.66-3.76,2.49-.43.29-1.4.69-1.81,1.13-1.07.02-2.18.21-3.24.29-5.25.42-10.5.85-15.75,1.28-17.67,1.43-35.34,2.87-53.02,4.3-30.99,2.51-61.97,5.03-92.96,7.54-.58.04-1.18.1-1.76.14-6.18.5-5.7,12.86-4.9,16.78,3.22,15.64,6.44,31.28,9.65,46.92,5.14,24.96,10.27,49.91,15.4,74.87,1.19,5.76,2.37,11.54,3.56,17.31.53,2.57,2.12,6.65,5.4,5.38,10.23-3.99,20.45-7.98,30.68-11.97.66-.26,1.32-.51,1.98-.78,4.23,18.41,8.46,36.82,12.69,55.23,7.72,33.61,15.45,67.23,23.18,100.85,6.7,29.15,13.4,58.3,20.1,87.45,3.24,14.1,6.25,28.28,9.73,42.33.05.19.09.39.14.59.61,2.68,2.05,6.55,5.4,5.38,21.69-7.54,43.4-15.08,65.09-22.62,3.04-1.06,6.09-2.12,9.13-3.17,2.17-.76,3.02-4.52,3.45-6.4.72-3.24.89-6.76.12-10.03-2.78-11.63-5.56-23.27-8.33-34.9-6.67-27.93-13.34-55.86-20.01-83.79-8.04-33.66-16.07-67.33-24.11-100.99-4.93-20.62-9.84-41.23-14.77-61.85,12.27-4.79,24.53-9.57,36.81-14.36,3.99-1.56,8.16-2.92,12.07-4.7.02.01.04.02.07.03.99.34,2.42.21,3.46.3,13.63,1.19,27.26,2.38,40.9,3.57,22.35,1.95,44.7,3.89,67.05,5.84,23.39,2.04,46.77,4.07,70.16,6.11,17.07,1.49,34.15,2.98,51.22,4.47,3.73.32,7.52.89,11.26.98.03,0,.07,0,.13.02,1.54,1.85,4.42,3.34,6.31,4.78,16.59,12.67,33.17,25.33,49.75,38,1.32,1.01,2.64,2.02,3.96,3.02,2.51,1.91,4.7-2.15,5.36-3.84,1.49-3.84,1.72-8.48.84-12.48-2.57-11.77-5.14-23.54-7.71-35.31-6.17-28.26-12.34-56.51-18.52-84.77-.44-2.03-.89-4.07-1.33-6.1h0c16.02,2.04,31.96-4.8,42.11-17.5.1-.12.21-.24.31-.38,12.32-16.49,14.9-39.57,7.73-58.74ZM335.83,552.57c8.03,33.66,16.07,67.33,24.11,100.99,6.95,29.1,13.9,58.2,20.84,87.3,2.32,9.7,4.48,19.47,6.81,29.18-19.34,6.73-38.69,13.44-58.03,20.17-1.75.61-3.51,1.22-5.26,1.83-2.16-9.39-4.32-18.77-6.47-28.15-6.39-27.8-12.78-55.6-19.17-83.4-7.72-33.61-15.45-67.23-23.18-100.85-4.63-20.13-9.25-40.26-13.88-60.39,17.16-6.7,34.32-13.39,51.49-20.09,3.05-1.19,6.1-2.38,9.15-3.57,4.53,19,9.07,38,13.61,56.99ZM673.67,490.61c1.32,6.04,2.57,12.12,3.83,18.19-10.28-7.85-20.56-15.7-30.84-23.56-3.82-2.92-7.65-5.84-11.48-8.77-1.94-1.48-3.86-3.3-5.97-4.56-1.87-1.12-4.49-.92-6.61-1.1-14.24-1.24-28.49-2.48-42.73-3.73-22.7-1.98-45.39-3.96-68.09-5.94-23.33-2.03-46.65-4.06-69.98-6.1-16.47-1.44-32.93-2.87-49.39-4.3-3.22-.28-6.63-.95-9.87-.87-2.18.05-4.58,1.42-6.58,2.2l-48.02,18.74s-.01,0-.02,0c-3.54,1.38-7.07,2.76-10.61,4.15-18.54,7.23-37.08,14.46-55.62,21.71-1.61.63-3.23,1.26-4.85,1.89-3.52,1.38-7.04,2.75-10.57,4.12-8.59,3.36-17.18,6.71-25.77,10.06-2.74-13.33-5.49-26.66-8.23-39.99-5.13-24.95-10.26-49.91-15.39-74.87-.08-.4-.16-.79-.25-1.2,24-1.94,48.01-3.9,72.01-5.84,18.94-1.53,37.88-3.07,56.81-4.61,10.03-.81,20.29-1.06,30.25-2.45,1.67-.24,2.55-.92,3.92-1.83,3.06-2.02,6.11-4.04,9.17-6.07,11.6-7.68,23.2-15.36,34.8-23.05,32.7-21.66,65.4-43.31,98.09-64.97,20.78-13.76,41.82-27.18,62.36-41.3.22-.15.46-.3.68-.45.46-.19.92-.54,1.4-1.12h0c.38-.4.71-.84,1.01-1.32,13.21-17.29,26.42-34.58,39.63-51.88.42-.56.85-1.12,1.28-1.68,1.84,8.41,3.67,16.82,5.51,25.23,6.18,28.26,12.35,56.51,18.52,84.77,7.44,34.05,14.88,68.11,22.32,102.16,6.43,29.44,12.86,58.87,19.28,88.3ZM664.04,374.28c-4.21-19.28-8.42-38.55-12.63-57.83,15.42-8.02,34.79-5.89,47.59,6.86,2.65,2.64,5.55,6.8,6.79,9.44.44.93.85,1.88,1.22,2.85.1.26.78,2.44.8,2.37.24.97.45,1.95.67,2.94.01.08.02.14.03.2.04.33.08.67.11,1,.03.55.05,2.97.09,1.89-.01.48-.03.95-.05,1.43-.03-.24-.29,2.1-.36,2.55-.01.05-.02.09-.03.13-.09.37-.19.73-.3,1.09-.25.86-.52,1.72-.82,2.56-.04,0-.96,2.11-1.08,2.34-1.05,2.13-1.84,3.36-3.34,5.37-9.31,11.9-24.05,17.14-38.69,14.8Z"/>
    </g>
  </g>
</svg>