<?xml version="1.0" encoding="UTF-8"?>
<svg id="Camada_1" xmlns="http://www.w3.org/2000/svg" viewBox="0 0 1206.89 933.11">
  <defs>
    <style>
      .cls-1 {
        fill: #626665;
      }

      .cls-2 {
        fill: #fff6eb;
      }

      .cls-3 {
        fill: #a840f1;
      }
    </style>
  </defs>
  <path class="cls-1" d="M1144.55,625.34c-5.13-17.02-29.55-64.69-29.55-64.69l16.24-304.36c.4-7.51.86-14.99,1.34-22.92.95-15.68,1.94-31.88,2.48-48.65.89-17.06-.59-60.25-33.11-94.54-20.89-22.01-50.18-34.64-80.35-34.64l-22.33.09c-19.75.1-39.49.18-59.24.26l-540.8,2.4-93.69.42c-22.37.1-44.72.19-67.02.3h-.77c-2.58,0-5.18-.04-7.77-.07-3.29-.05-7.01-.11-10.9-.11-5.6,0-10.55.11-15.32.35-29.53.54-57.07,12.59-77.71,34.02-32.17,33.41-34.35,76.27-33.79,93.1l1.84,56.37c1.42,43.82,2.84,87.63,4.27,131.44l.61,19.04c1.61,49.13,3.2,98.26,4.8,147.4.16,5.14.33,10.27.5,15.4-2.13,2.02-30.47,54.09-36.39,73.79-7.42,24.67-.36,50.88,9.4,73.75,0,0,40.77,95.65,41.72,97.87,14.84,41.53,50.33,70.62,93.2,75.48,3.77.43,7.6.68,11.41.71,6.81.08,13.62.16,20.36.23l561.17,6.41c29.04.34,58.1.67,87.1.99,21.01.24,42.02.49,62.94.72,2.14.03,4.78.12,7.57.2,4.67.16,9.97.33,15.82.33,3.27,0,6.38-.05,9.41-.16,15.03-.07,29.69-3.22,43.22-9.14,66.61-29.12,127.21-205.8,113.34-251.82Z"/>
  <g>
    <path class="cls-2" d="M1026.76,868.27c-13.53,5.91-28.19,9.06-43.22,9.14-3.03.11-6.14.16-9.41.16-5.85,0-11.14-.17-15.82-.33-2.79-.08-5.43-.17-7.57-.2-20.92-.23-41.93-.48-62.94-.72-29-.33-58.06-.66-87.1-.99l-561.17-6.41c-6.75-.07-13.55-.15-20.36-.23-3.81-.03-7.63-.27-11.41-.71-42.87-4.86-78.36-33.95-93.2-75.48-.95-2.22-41.72-97.87-41.72-97.87-9.76-22.87-16.82-49.08-9.4-73.75,5.92-19.7,34.27-71.77,36.39-73.79-.17-5.14-.34-10.27-.5-15.4-1.6-49.13-3.19-98.26-4.8-147.4l-.61-19.04c-1.43-43.81-2.85-87.62-4.27-131.44l-1.84-56.37c-.56-16.83,1.62-59.69,33.79-93.1,20.64-21.43,48.18-33.48,77.71-34.02,4.77-.24,9.72-.35,15.32-.35,3.89,0,7.61.05,10.9.11,2.59.03,5.19.07,7.77.07h.77c22.3-.11,44.65-.2,67.02-.3l93.69-.42,540.8-2.4c19.75-.08,39.49-.17,59.24-.26l22.33-.09c30.17,0,59.46,12.62,80.35,34.64,32.52,34.29,34,77.48,33.11,94.54-.55,16.77-1.53,32.97-2.48,48.65-.49,7.93-.94,15.42-1.34,22.92l-16.24,304.36s24.42,47.66,29.55,64.68c13.87,46.02-46.73,222.71-113.34,251.82Z"/>
    <g>
      <path class="cls-3" d="M1035.49,631.84c-.63-3.44-2.46-11.06-7.23-11.05-7.58.01-15.16.03-22.74.04-1.51,0-3.03.01-4.55.01,1.17-21.84,2.34-43.68,3.5-65.52,2.99-56.07,5.98-112.14,8.98-168.2,2.59-48.44,5.17-96.89,7.76-145.33,1.25-23.46,3.02-46.94,3.76-70.43.01-.34.03-.67.05-1,.23-4.42-1.19-18.01-7.91-17.97-7.26.03-14.53.06-21.79.09-19.77.09-39.53.18-59.29.26-29.24.13-58.48.26-87.71.39-35.68.16-71.36.32-107.03.48-39.09.17-78.18.35-117.25.52-39.47.18-78.93.35-118.38.53-36.8.16-73.61.33-110.41.49-31.23.14-62.46.29-93.71.42-22.35.09-44.69.19-67.04.3-10.53.04-21.25-.51-31.76.14-.44.03-.9.01-1.35.01-6.82.03-8.05,13.82-7.91,17.97.61,18.8,1.23,37.61,1.84,56.41,1.45,44.8,2.91,89.58,4.37,134.37,1.78,54.5,3.55,109.01,5.32,163.51,1.01,31.37,2.04,62.75,3.07,94.12-10.28-.03-20.69-.5-30.94.08-.49.02-.97,0-1.45,0-4.77.01-6.62,7.78-7.23,11.05-1.18,6.39-.94,13.59,1.64,19.63,12.98,30.45,25.96,60.9,38.94,91.35,1.51,3.56,3.03,7.13,4.56,10.69,1,3.91,2.84,7.39,6.15,7.74.17.02.34.03.51.03,6.83.08,13.66.16,20.49.23,18.47.21,36.94.42,55.42.63,27.29.32,54.59.62,81.88.94,33.46.38,66.93.76,100.4,1.14,36.48.41,72.96.83,109.45,1.25,37,.42,74.01.85,111.01,1.27,34.34.39,68.68.78,103.03,1.17,29.03.34,58.07.67,87.1.99,20.99.24,41.97.49,62.95.72,9.83.12,19.89.87,29.71.34.43-.02.87.01,1.3.02,1.12.01,2.16-.57,3.03-1.41h.03c6.75.13,7.63-12.88,7.88-17.46,11.42-28.97,22.83-57.94,34.25-86.91,1.89-4.81,3.79-9.62,5.68-14.43,2.44-6.2,2.84-13.12,1.64-19.63ZM223.17,191.86c19.76-.09,39.53-.18,59.29-.26,29.23-.14,58.48-.26,87.71-.39,35.67-.16,71.36-.32,107.03-.48,39.09-.18,78.16-.35,117.25-.52,39.46-.18,78.92-.36,118.37-.53,36.8-.17,73.61-.33,110.41-.49,31.24-.15,62.47-.29,93.71-.42,22.35-.1,44.7-.2,67.05-.3,8.02-.03,16.17.28,24.23.14-.71,13.33-1.43,26.67-2.14,39.99-2.47,46.25-4.94,92.48-7.41,138.73-2.99,56.07-5.98,112.14-8.98,168.2-1.51,28.45-3.03,56.89-4.56,85.34-.63,11.98-1.28,23.97-1.92,35.95-.42,8.01-.85,16.03-1.28,24.04-.94,17.75-2.29,35.55-3.13,53.33-.02.5-.04.99-.06,1.48-5.42-.06-10.84-.12-16.26-.18-18.47-.21-36.94-.42-55.42-.63-27.29-.32-54.59-.62-81.88-.94-33.46-.38-66.93-.76-100.4-1.14-36.48-.41-72.96-.84-109.45-1.25-37-.42-74.01-.85-111.01-1.27-34.34-.39-68.68-.78-103.03-1.17-29.03-.34-58.07-.67-87.1-.99-20.99-.24-41.97-.49-62.95-.72-7.93-.09-16-.6-23.97-.52-.07-2.2-.15-4.4-.22-6.6-.41-12.78-.84-25.57-1.25-38.34-.25-7.87-.51-15.73-.77-23.6-.38-11.99-.77-23.98-1.16-35.96-.81-24.94-1.62-49.88-2.43-74.81l-5.33-163.51c-1.52-46.82-3.05-93.63-4.57-140.46-.56-17.17-.63-34.46-1.32-51.67,4.31-.01,8.63-.03,12.94-.05Z"/>
      <path class="cls-3" d="M520.83,478.67c8.66,10.1,19.18,18.35,29.7,26.4,10.47,8,20.79,16.92,34.72,12.36,12.48-4.08,22.14-16.18,30.95-25.44,11.76-12.38,22.78-25.42,33.26-38.89,3.7-4.76,3.6-12.91,2.14-18.44-.94-3.55-4.36-9.67-8.12-4.84-14.46,18.6-29.92,37.54-47.63,53.2-8.21,7.25-18.1,11.97-28.38,6.01-10.62-6.17-20.65-14.8-29.89-22.86-8.36-7.3-15.07-15.76-21.19-24.98-3.18-4.79-6.56-9.62-8.71-14.98-.86-2.12-.3-.42-.91-2.6-.01-.04-.17-.78-.26-1.16v-.02c-.02-.38-.05-1.07-.07-1.65.05-.6.14-1.56.2-2.29.08,0,.81-3.52,1-4.12,1.25-3.81,4.67-9.39,8.27-12.95,8.54-8.46,21.22-13.06,33.17-11.3,4.05.59,5.39,1.13,9.15,3.3,5.32,3.07,10.14,7.08,14.71,11.15,5.74,5.13,10.99,10.78,15.79,16.79-5.46,5.05-10.85,10.17-16.2,15.33-7.18-7.18-14.37-14.37-21.55-21.55-4.07-4.07-7.03.73-8.12,4.83-1.27,4.79-1.87,14.44,2.14,18.44,8.16,8.17,16.33,16.34,24.5,24.51,2.27,2.26,3.72,2.21,5.98,0,16.85-16.41,34.32-32.17,52.39-47.23,14.9-12.41,33.05-25.65,53.45-18.1,4.62,1.71,8.85,4.53,11.87,8.44,2.24,2.91,3.62,6.72,4.08,8.93h0c0,.2.28,2.26.28,2.26.01.03.01.07.02.11.01,1.11-.02,2.22,0,3.32-.04.47-.05.92-.11,1.31-.26,2.23-.76,4.39-1.52,6.51-2.87,8.01-8.36,14.88-14.05,21.08-7.24,7.92-14.75,15.61-22.12,23.4-19.93,21.1-39.85,42.23-59.88,63.23-4,4.19-3.49,13.33-2.13,18.45,1.08,4.07,4.04,9.1,8.11,4.83,20.05-21,39.95-42.12,59.88-63.23,15.52-16.43,33.62-31.98,40.48-54.27,6.02-19.52,5.16-47.28-10.03-62.54-16.61-16.68-42.1-11.79-59.44.7-10.89,7.84-21,16.99-31.05,25.86-1.05.92-2.08,1.84-3.12,2.77-7.26-10.58-15.61-20.24-25.1-28.93-7.08-6.47-14.91-13.3-24.37-15.84-13.05-3.5-27.83,1.03-38.1,9.43-10.65,8.72-16.76,21.07-19.24,34.45-2.2,11.87-1.43,24.05,2.77,35.43,4.66,12.65,13.58,25.21,22.31,35.39Z"/>
    </g>
  </g>
</svg>