<?xml version="1.0" encoding="UTF-8"?>
<svg id="Camada_1" xmlns="http://www.w3.org/2000/svg" viewBox="0 0 1634.44 961.98">
  <defs>
    <style>
      .cls-1 {
        fill: #626665;
      }

      .cls-2 {
        fill: #fff6eb;
      }

      .cls-3 {
        fill: #ff9c19;
      }
    </style>
  </defs>
  <path class="cls-1" d="M1497.14,433.36c-37.1-37.72-80.99-30.57-101.37-31.51v-180.51c0-25.31-20.52-45.83-45.83-45.83h-695.77c-18.02-59.92-65.86-102.6-123.78-109.61-8.46-1.02-15.49-1.1-19.68-1.15l-260.92-3.21c-2.31-.03-4.62-.07-6.93-.11-4.93-.09-10.03-.18-15.5-.18h-1.8c-41.53.16-80.66,18.6-107.35,50.6-21.45,25.71-33.78,58.78-34.71,93.11-.32,11.72-.26,22.8-.21,33.51.02,4.74.05,9.47.03,14.2l-1.37,452.1c-.02,5.39-.04,10.78-.07,16.16-.05,10.95-.11,22.26-.08,33.59.23,87.78,61.08,155.82,141.55,158.27l1.42.04,286.07,1h1.82c1.26.02,2.51.03,3.75.03,20.31,0,50.94-2.47,82.4-23.86,18.86-12.82,48.45-40.32,57.72-90.39h17.49c27.36,0,53.45-4.32,77.54-12.84,9.71-3.43,19.02-7.51,27.89-12.21,30.97,18.15,66.91,27.84,104.75,27.84,11.82,0,23.44-.95,34.79-2.79h413.42c12.65,1.83,25.71,2.79,38.82,2.79,47.63,0,89.68-13.26,121.58-38.34,19.65-15.45,34.86-34.66,45.22-57.09,9.75-21.12,14.7-44.13,14.7-68.38,0-25.56-5.58-49.42-16.22-70.58,0,0,17.57-76.77-39.36-134.65Z"/>
  <g>
    <path class="cls-3" d="M1497.08,420.2c-37.1-37.72-80.99-30.57-101.37-31.51v-180.51c0-25.31-20.52-45.83-45.83-45.83h-695.77c-18.02-59.92-65.86-102.6-123.78-109.61-8.46-1.02-15.49-1.1-19.68-1.15l-260.92-3.21c-2.31-.03-4.62-.07-6.93-.11-4.93-.09-10.03-.18-15.5-.18h-1.8c-41.53.16-80.66,18.6-107.35,50.6-21.45,25.71-33.78,58.78-34.71,93.11-.32,11.72-.26,22.8-.21,33.51.02,4.74.05,9.47.03,14.2l-1.37,452.1c-.02,5.39-.04,10.78-.07,16.16-.05,10.95-.11,22.26-.08,33.59.23,87.78,61.08,155.82,141.55,158.27l1.42.04,286.07,1h1.82c1.26.02,2.51.03,3.75.03,20.31,0,50.94-2.47,82.4-23.86,18.86-12.82,48.45-40.32,57.72-90.39h17.49c27.36,0,53.45-4.32,77.54-12.84,9.71-3.43,19.02-7.51,27.89-12.21,30.97,18.15,66.91,27.84,104.75,27.84,11.82,0,23.44-.95,34.79-2.79h413.42c12.65,1.83,25.71,2.79,38.82,2.79,47.63,0,89.68-13.26,121.58-38.34,19.65-15.45,34.86-34.66,45.22-57.09,9.75-21.12,14.7-44.13,14.7-68.38,0-25.56-5.58-49.42-16.22-70.58,0,0,17.57-76.78-39.36-134.65Z"/>
    <g>
      <g>
        <path class="cls-2" d="M461.07,225.44c-16.83.27-30.21,13.16-34.25,28.94-4.71,18.4,1.62,41.4,16.26,53.8,14.19,12.01,34.74,11.4,48.32-1.06.14-.11.28-.23.42-.38,25.05-25.92,8.05-81.92-30.74-81.3ZM490.41,264.67c.09.41.15.71.19.89.02.25.04.45.05.59-.41,6.01-3.14,11.4-7.54,15.95-10.14,9.59-26.63,11.9-38.1,3.03-2.64-2.05-4.32-4.28-6.16-6.94-.22-.32-.56-1.4-.55-1.63.35-6.06,3.01-11.72,7.57-16.23,9.91-9.8,26.81-11.76,38.1-3.03,2.09,1.62,4.06,3.47,5.48,5.68.08.12.66,1.2.95,1.7Z"/>
        <path class="cls-2" d="M388.56,295.4c3.38.62,6.37-.1,9.02-2.15.29-.17.57-.39.84-.69.36-.33.67-.72.95-1.16,2.77-3.64,3.76-8.2,3.91-12.76.28-8.41-2.05-18.05-7.11-24.87-2.29-3.09-5.5-6.15-9.46-6.72-3.57-.52-6.9.25-9.56,2.87-3.56,3.5-4.81,9.14-4.86,13.93-.1,8.41,1.91,18.04,7.11,24.87,2.28,2.99,5.32,5.98,9.17,6.68Z"/>
        <path class="cls-2" d="M553.94,195.74c-4.49-17.75-16.73-35.9-36.29-38.27-3.01-.36-6.03-.36-9.05-.4-10.57-.13-21.15-.26-31.72-.39-39.3-.48-78.6-.97-117.91-1.45-36.85-.45-73.7-.91-110.55-1.36-7.51-.09-15.02-.31-22.53-.28-22.53.09-36.43,20.02-37.01,41.09-.41,15.03-.09,30.12-.14,45.16-.1,32.92-.2,65.85-.3,98.77-.13,41.98-.26,83.97-.38,125.95-.13,42.07-.26,84.15-.38,126.22-.1,33.72-.2,67.44-.31,101.16-.05,16.38-.19,32.77-.15,49.15.06,24.07,11.88,52.27,39.27,53.1,20.56.07,41.12.14,61.68.22,41.65.15,83.29.29,124.94.44,32.68.11,65.36.23,98.03.34,10.21.04,19.2.6,28.3-5.59,11.64-7.91,14.35-22.07,14.41-35.2.08-19.57.16-39.14.24-58.71.15-35.64.29-71.28.44-106.93.17-42.78.35-85.56.52-128.35.17-40.87.33-81.75.5-122.62.12-30.43.25-60.86.37-91.29.07-16.25,2.04-34.89-1.98-50.78ZM204.45,756.91c.05-.39.07-.79.07-1.2.04.47.03.94-.07,1.39.01-.06,0-.13,0-.19ZM538.49,282.5c-.15,36.98-.3,73.95-.45,110.93-.17,42.45-.35,84.9-.52,127.34-.16,39.04-.32,78.08-.48,117.12-.11,27.43-.22,54.86-.34,82.3-.03,6.76-.06,13.53-.08,20.29,0,1.16-.02,2.31-.01,3.47,0,.29,0,.6-.02.88-.01.28.03.65-.08.96-.59,1.74-1.38,3.57-2.43,5.1-3.84,5.6-10.37,8.7-16.99,9.23-5.94.48-12.04.06-17.98.04-14.16-.05-28.31-.1-42.47-.15-40.58-.14-81.15-.28-121.73-.43-33.48-.12-66.96-.23-100.44-.35-5.25-.02-10.5-.04-15.75-.06-3.23-.1-6.65-1.06-9.52-2.56-2.06-1.08-3.63-2.49-4.74-3.69.02-6.77.04-13.54.06-20.31.08-27.54.17-55.07.25-82.61.12-39.24.24-78.48.36-117.72.13-42.3.26-84.6.39-126.91.11-37.22.23-74.44.34-111.66.07-23.85.14-47.7.22-71.55.01-4.31-.05-8.63.04-12.94,0-.11,0-.22,0-.33,0-.02,0-.04,0-.05,0,0,.02-.39.04-.77.07-.16.33-1.5.47-2,1.33-4.73,6.19-10.68,11.39-13.72,5.18-3.03,11.14-3.78,17.03-3.73,25.51.23,51.02.63,76.53.94,41.36.51,82.72,1.02,124.08,1.53,27.12.33,54.24.67,81.36,1,3.38.04,6.46.21,9.8,1.22,3.12.95,5.9,2.27,8.43,4.32.41.33,2.53,2.36,2.44,2.19.3.35.59.72.87,1.1-.34,3.35.25,7.34.24,10.46-.1,23.7-.19,47.4-.29,71.1ZM539.16,201.79v.03s0,0,0-.01c0,0,0-.01,0-.02ZM539.02,200.93c-.09-.48-.12-.7,0,0h0ZM539.17,201.82s0,0,0,.01c.01.06.02.11.03.18,0-.03-.02-.1-.04-.19ZM538.83,199.14c-.03.12-.04.24-.07.36-.03-.34-.02-.58.07-.6-.01,0,0,.22,0,.24Z"/>
        <path class="cls-2" d="M393.94,423.56c-9.15,6.57-17.51,14.49-25.83,22.05-.78.71-1.55,1.43-2.33,2.15-6.11-8.34-13.05-16.12-20.83-22.93-5.86-5.12-12.75-11.05-20.47-13.06-22.71-5.93-43.34,12.8-47.39,34.13-4.38,23.09,7.13,44.19,21.34,61.57,7.3,8.94,16.05,16.17,25.26,23.04,8.97,6.69,19.28,16.47,31.46,13.15,11-3,19.32-13.65,26.74-21.72,9.58-10.42,18.54-21.39,27.06-32.7,3.51-4.66,2.28-11.92.45-17.05-.71-1.99-5.74-12.12-9.14-7.59-11.74,15.59-24.31,30.75-38.31,44.38-6.9,6.72-15.38,11.94-24.74,6.66-8.83-4.98-17.34-12.17-25-18.8-7.09-6.13-12.56-13.16-17.8-20.9-1.97-2.91-4.34-6.56-5.27-9.03.23.43-.05-1.34-.12-.81.02-.59.05-1.18.08-1.77.12-.73.23-1.46.37-2.18.23-1.11.5-2.24.85-3.29,1.44-4.29,3.85-8.13,7-11.37,6.91-7.1,17.57-11.77,27.59-10.16,7.17,1.15,12.96,6.09,18.3,10.67,3.89,3.34,7.49,6.92,10.86,10.7-4.45,4.25-8.85,8.56-13.21,12.91-6.06-5.87-12.12-11.74-18.19-17.61-4.42-4.28-6.73,3.21-6.86,6.46-.24,5.99,1.63,13.22,6.06,17.51,6.92,6.7,13.84,13.4,20.76,20.1,1.25,1.21,3.41,1.68,4.75.34,13.82-13.9,28.11-27.32,42.93-40.14,12.05-10.43,26.05-21.68,43.04-16.94,3.64,1.02,7.13,2.67,9.71,5.5.93,1.02,1.4,1.93,2.03,3.1-.32-.59-.16-.11.02.38-.01.3.18,1.49.19,1.28.03.38.07.75.11,1.13-.02.91,0,1.82-.08,2.73-.24,3.15-1.04,6.18-2.26,9.09-5.97,14.26-19.19,25.41-29.42,36.59-16.09,17.59-32.16,35.2-48.34,52.71-3.83,4.15-2.13,12.33-.45,17.05.85,2.4,5.33,11.72,9.14,7.59,16.38-17.73,32.65-35.56,48.94-53.37,11.98-13.1,26.93-26.09,32.54-43.49,6-18.63,3.14-43.43-10.76-57.92-14.05-14.65-35.8-10.94-50.8-.17ZM445.43,452.58s0,.04,0,.06c-.01-.62.06-2,0-.06Z"/>
      </g>
      <g>
        <path class="cls-2" d="M687.91,452.12h-79.73v-184.27h72.59c43.12,0,63.6,19.23,63.6,48.08,0,19.23-10.24,33.5-25.44,39.71,20.79,5.89,34.13,21.41,34.13,43.43,0,31.02-22.03,53.05-65.15,53.05ZM676.74,301.04h-27.92v43.43h28.85c17.99,0,26.68-8.69,26.68-22.03s-8.69-21.41-27.61-21.41ZM683.26,374.26h-34.43v44.36h34.43c18.92,0,28.54-8.38,28.54-22.96,0-13.34-9-21.4-28.54-21.4Z"/>
        <path class="cls-2" d="M893.06,452.12l-15.82-44.98h-64.84l-15.82,44.98h-41.88l67.32-184.27h47.78l67.01,184.27h-43.74ZM851.8,332.38c-2.79-8.07-4.65-14.89-6.2-22.34h-1.55c-1.55,7.45-3.41,14.27-6.2,22.34l-15.2,42.19h44.05l-14.89-42.19Z"/>
        <path class="cls-2" d="M1065.4,311.59c-10.24-6.2-31.64-10.24-46.53-10.24-19.85,0-30.4,5.89-30.4,17.37,0,29.16,92.45,12.72,92.45,77.87,0,35.68-26.99,58.32-76.01,58.32-22.65,0-44.67-4.65-57.7-11.48l3.41-38.47c11.79,7.45,35.06,13.65,55.53,13.65,22.34,0,32.57-5.89,32.57-18.3,0-30.09-92.45-13.34-92.45-77.87,0-34.13,27.3-57.39,71.66-57.39,17.99,0,41.57,3.41,55.22,9.93l-7.76,36.61Z"/>
        <path class="cls-2" d="M1139.6,452.12v-147.36h-52.74v-36.92h148.29l-3.1,36.92h-51.19v147.36h-41.26Z"/>
        <path class="cls-2" d="M1290.22,452.12h-41.26v-184.27h41.26v184.27Z"/>
        <path class="cls-2" d="M673.95,680.97h-65.77v-184.27h65.77c62.98,0,102.06,37.85,102.06,92.14s-39.4,92.14-102.06,92.14ZM673.95,531.44h-24.82v114.78h24.82c36.61,0,59.25-21.72,59.25-57.39s-22.96-57.39-59.25-57.39Z"/>
        <path class="cls-2" d="M980.61,588.83c0,54.6-40.33,94.93-96.48,94.93s-96.48-40.33-96.48-94.93,40.64-94.93,96.48-94.93,96.48,40.33,96.48,94.93ZM937.8,588.83c0-33.5-22.03-58.01-53.67-58.01s-53.67,24.2-53.67,58.01,22.34,58.01,53.67,58.01,53.67-24.51,53.67-58.01Z"/>
        <path class="cls-2" d="M1107.83,608.68l48.4,72.28h-47.78l-40.64-62.36h-23.58v62.36h-41.26v-184.27h63.91c48.39,0,76.32,22.34,76.32,62.05,0,24.2-14.89,42.81-35.37,49.95ZM1065.64,530.51h-21.41v56.15h21.41c22.03,0,35.99-8.69,35.99-27.92s-13.96-28.23-35.99-28.23Z"/>
        <path class="cls-2" d="M1291.46,533.3h-78.8v36.92h64.84v35.68h-64.84v38.47h83.45v36.61h-124.71v-184.27h123.16l-3.1,36.61Z"/>
        <path class="cls-2" d="M1431.65,540.43c-10.24-6.2-31.64-10.24-46.53-10.24-19.85,0-30.4,5.89-30.4,17.37,0,29.16,92.45,12.72,92.45,77.87,0,35.68-26.99,58.32-76.01,58.32-22.65,0-44.67-4.65-57.7-11.48l3.41-38.47c11.79,7.45,35.06,13.65,55.53,13.65,22.34,0,32.57-5.89,32.57-18.3,0-30.09-92.45-13.34-92.45-77.87,0-34.12,27.3-57.39,71.66-57.39,17.99,0,41.57,3.41,55.22,9.93l-7.76,36.61Z"/>
      </g>
    </g>
  </g>
</svg>