<?xml version="1.0" encoding="UTF-8"?>
<svg id="Camada_1" xmlns="http://www.w3.org/2000/svg" viewBox="0 0 1292.1 1289.35">
  <defs>
    <style>
      .cls-1 {
        fill: #626665;
      }

      .cls-2 {
        fill: #fff6eb;
      }

      .cls-3 {
        fill: #ff5459;
      }
    </style>
  </defs>
  <path class="cls-1" d="M1181.83,418.78c-29.23-69.11-71.04-131.14-124.27-184.37s-115.26-95.04-184.37-124.27c-71.65-30.3-147.65-45.67-225.9-45.67s-154.25,15.37-225.9,45.67c-69.11,29.23-131.14,71.04-184.37,124.27-53.23,53.23-95.04,115.26-124.27,184.37-30.3,71.65-45.67,147.65-45.67,225.9s15.37,154.25,45.67,225.9c29.23,69.11,71.04,131.14,124.27,184.37,53.23,53.23,115.26,95.04,184.37,124.27,71.65,30.3,147.65,45.67,225.9,45.67s154.25-15.37,225.9-45.67c69.11-29.23,131.14-71.04,184.37-124.27s95.04-115.26,124.27-184.37c30.3-71.65,45.67-147.65,45.67-225.9s-15.37-154.25-45.67-225.9Z"/>
  <g>
    <path class="cls-3" d="M641.25,1218.44c-77.77,0-153.3-15.27-224.51-45.39-68.69-29.05-130.34-70.61-183.24-123.51-52.9-52.9-94.45-114.55-123.51-183.24-30.12-71.21-45.39-146.74-45.39-224.51s15.27-153.3,45.39-224.51c29.05-68.69,70.61-130.34,123.51-183.24,52.9-52.9,114.55-94.45,183.24-123.51,71.21-30.12,146.74-45.39,224.51-45.39s153.3,15.27,224.51,45.39c68.69,29.05,130.34,70.61,183.24,123.51,52.9,52.9,94.45,114.55,123.5,183.24,30.12,71.21,45.39,146.74,45.39,224.51s-15.27,153.3-45.39,224.51c-29.05,68.69-70.6,130.34-123.5,183.24-52.9,52.9-114.55,94.45-183.24,123.51-71.21,30.12-146.74,45.39-224.51,45.39Z"/>
    <g>
      <g>
        <path class="cls-2" d="M353.73,384.09c-19.18,23.01-46.9,25.64-67.9,8.13-20.76-17.3-23.5-45.12-6-66.12,8.11-9.73,15.84-15.14,24.82-17.71l7.39,12.6c-7.32,1.54-14.91,6.07-20.94,13.3-12.16,14.59-10.56,33.41,4.62,46.07,14.71,12.26,34.48,10.25,47.63-5.53,6.63-7.95,11.02-17.56,11.49-25.6l11.68,9.14c-1.01,8.21-5.78,17.3-12.8,25.72Z"/>
        <path class="cls-2" d="M371,260.88l-32.55,26.8,16.2,19.67,27.06-22.28,8.34,10.13-27.06,22.28,16.69,20.27,34.1-28.07,8.54,10.37-45.66,37.59-58.3-70.81,45.06-37.1,7.59,11.16Z"/>
        <path class="cls-2" d="M450.56,261.64l40.13,20.03-15.42,8.49-35.98-18.26-14.47,7.97,16.09,29.22-13.12,7.23-44.26-80.35,25.97-14.31c19.61-10.81,36.85-8.31,46.02,8.32,6.41,11.63,3.43,23.5-4.96,31.65ZM414.86,233l-12.17,6.71,16.39,29.76,12.17-6.71c11.23-6.18,16.82-14.91,11.01-25.46-5.74-10.41-16.18-10.48-27.4-4.3Z"/>
        <path class="cls-2" d="M514.08,274.72l-24.42-74.23-26.7,8.78-4.25-12.91,68.21-22.44,3.22,13.25-26.26,8.64,24.42,74.23-14.23,4.68Z"/>
        <path class="cls-2" d="M575.79,258.7l-14.71,2.83-17.3-90.08,14.71-2.83,17.3,90.08Z"/>
        <path class="cls-2" d="M641.42,173.93l-42.07,2.75,1.88,28.81,36.06-2.36.86,13.1-36.06,2.36,2.37,36.21-14.95.98-5.99-91.53,58.25-3.81-.36,13.49Z"/>
        <path class="cls-2" d="M668.84,254.14l-14.96-.77,4.73-91.61,14.96.77-4.73,91.6Z"/>
        <path class="cls-2" d="M726,263.57c-29.4-5.79-45-28.85-39.72-55.67,5.22-26.52,28.31-42.28,55.13-37,12.43,2.45,20.89,6.63,27.45,13.27l-7.5,12.53c-4.86-5.68-12.48-10.17-21.72-11.99-18.64-3.67-34.38,6.77-38.2,26.16-3.7,18.79,7.56,35.17,27.71,39.14,10.15,2,20.69,1.24,27.98-2.21l-2.41,14.64c-7.68,3.05-17.95,3.23-28.71,1.12Z"/>
        <path class="cls-2" d="M819.22,295.77l1.21-27.25-33.44-14.49-19.06,19.51-14.03-6.08,68.64-70.22,15.73,6.82-4.31,98.1-14.74-6.39ZM822.79,225.79c.2-3.95.58-7.16,1.22-10.58l-.57-.25c-2.06,2.81-4.14,5.28-6.89,8.12l-21.17,21.29,26.21,11.36,1.2-29.94Z"/>
        <path class="cls-2" d="M860.16,321.58l-24.12-17.51,53.89-74.23,24.12,17.51c25.62,18.6,30.57,44.9,14.42,67.15-16.15,22.24-42.82,25.59-68.31,7.08ZM906.52,257.72l-12.12-8.8-38.83,53.49,12.12,8.8c17.62,12.79,35.88,10.78,48.03-5.97,12.16-16.74,8.29-34.82-9.2-47.52Z"/>
        <path class="cls-2" d="M999.14,394.38c-20.55,17.55-48.54,15.45-66.49-5.58-17.85-20.91-15.53-48.88,5.03-66.42,20.55-17.55,48.54-15.45,66.39,5.46,17.95,21.03,15.63,48.99-4.93,66.54ZM989.01,382.51c14.45-12.33,17.07-31.62,4.83-45.95-12.13-14.21-31.36-14.85-46.04-2.32-14.45,12.33-17.07,31.62-4.93,45.84,12.23,14.33,31.46,14.97,46.14,2.44Z"/>
      </g>
      <g>
        <path class="cls-2" d="M156.45,687.37l69.19-9.16-3.28-24.77,17.33-2.29,9.22,69.63-17.53.84-3.18-24.04-69.19,9.16-2.57-19.38Z"/>
        <path class="cls-2" d="M234.63,816.91c-24.51,8.24-48.71-3.78-57.18-28.99-8.43-25.07,3.54-49.41,28.06-57.65,24.51-8.24,48.76,3.92,57.18,28.99,8.48,25.21-3.54,49.4-28.06,57.65ZM228.16,797.69c15.04-5.06,22.72-18.65,17.95-32.85-4.73-14.07-18.96-20.44-34.15-15.34-15.04,5.06-22.68,18.78-17.95,32.85,4.78,14.21,19.1,20.4,34.15,15.34Z"/>
        <path class="cls-2" d="M286.5,903.49c-19.28,11.84-38.92,6.83-49-2.84-.73,7.52.24,15.55,3.6,28.31l-20.32-7.52c-2.83-14.99-2.03-29.97.93-38.34-9.32-19.11-5.35-43.79,16.94-57.49,22.04-13.54,48.39-7.13,62.23,15.4,13.92,22.66,7.64,48.94-14.39,62.47ZM275.88,886.21c13.52-8.31,17.95-23.27,10.11-36.04-7.77-12.65-23.07-15.66-36.72-7.28-13.52,8.31-17.88,23.4-10.11,36.04,7.85,12.77,23.2,15.58,36.72,7.28Z"/>
        <path class="cls-2" d="M343.15,972.46c-17.65,17.05-37.39,16.49-53.82-.52-16.43-17.02-16.3-36.76,1.36-53.81l36.15-34.91,13.58,14.06-35.09,33.89c-9.94,9.59-11.77,19.33-2.79,28.63,8.88,9.2,18.68,7.7,28.61-1.89l35.09-33.89,13.07,13.53-36.15,34.91Z"/>
        <path class="cls-2" d="M423.68,990.35l-30.43-21.62-10.13,14.25,25.04,17.79-9.79,13.78-25.04-17.79-10.55,14.85,32.22,22.89-10.04,14.14-48.15-34.21,50.55-71.15,47.56,33.79-11.24,13.28Z"/>
        <path class="cls-2" d="M506.34,1102.72l-18.31-6.84,12.34-33.04-34.55-12.91-12.34,33.04-18.31-6.84,30.54-81.76,18.31,6.84-12.08,32.35,34.55,12.91,12.08-32.35,18.31,6.84-30.54,81.77Z"/>
        <path class="cls-2" d="M613.3,1083.77c-3.52,24.29-19.46,35.93-42.87,32.54-23.41-3.39-35.39-19.08-31.88-43.37l7.2-49.74,19.34,2.8-6.99,48.28c-1.98,13.67,2.53,22.49,15.33,24.34,12.65,1.83,19.48-5.34,21.46-19.01l6.99-48.28,18.61,2.7-7.2,49.74Z"/>
        <path class="cls-2" d="M730.6,1114.22l-19.47,1.67-4.58-53.29-.59.05c-.55,3.88-1.54,7.8-3.19,12.66l-11.46,29.74-18.3,1.57-16.21-27.37c-2.28-4.23-4.1-8.2-5.3-11.93l-.73.06,4.58,53.29-18.59,1.6-7.47-86.96,20.64-1.77,24.54,41.84c2.27,4.08,4.93,9.31,6.24,12.59l.73-.06c.74-3.46,2.47-9.06,4-13.47l17.04-45.41,20.64-1.77,7.47,86.96Z"/>
        <path class="cls-2" d="M812.84,1089.56l-13.7-17.96-29.22,9.47-.56,22.58-18.87,6.12,3.42-92.86,21.53-6.98,57.1,73.25-19.71,6.39ZM776.77,1041.63c-2.44-3.23-4.27-6.03-6.06-9.16l-.7.23c.39,3.58.55,6.93.47,10.97l-.69,21.23,19.85-6.43-12.87-16.84Z"/>
        <path class="cls-2" d="M915.66,1037.45l-14.55,8.29-51.91-24.03c-3.92-1.83-7.78-3.86-10.98-5.92l-.64.36,28.3,49.67-16.21,9.24-43.21-75.84,16.47-9.38,48.54,22.57c3.84,1.7,7.7,3.73,10.91,5.79l.64-.36-26.77-46.98,16.21-9.24,43.21,75.84Z"/>
        <path class="cls-2" d="M950.11,1009.98l-15.36,12.09-53.98-68.59,15.36-12.09,53.98,68.59Z"/>
        <path class="cls-2" d="M1013,949.84l-47.84,48.79-11.75-11.52-7.12-68.92-29.83,30.43-12.49-12.24,45.88-46.8,11.75,11.52,7.12,68.72,32.71-33.37,11.56,13.39Z"/>
        <path class="cls-2" d="M1060.64,882.56l-21.9-5.51-16.95,25.61,13.63,18.01-10.95,16.54-55.19-74.76,12.49-18.87,90.3,21.7-11.44,17.28ZM1002.55,867.55c-3.92-1.01-7.1-2.05-10.44-3.39l-.41.61c2.54,2.56,4.74,5.08,7.2,8.29l12.69,17.03,11.52-17.4-20.56-5.15Z"/>
        <path class="cls-2" d="M1091.87,819.4l-11.58,28.92-81.03-32.46,11.58-28.92c11.09-27.69,34.62-38.21,58.49-28.65,23.74,9.51,33.57,33.55,22.54,61.11ZM1026.12,793.06l-4.37,10.91,50.47,20.22,4.37-10.91c6.45-16.1.89-29.88-14.8-36.16-15.69-6.28-29.28-.01-35.67,15.95Z"/>
        <path class="cls-2" d="M1086.92,659.15c25.53,4.14,41.32,26.06,37.06,52.31-4.24,26.11-26.18,42.05-51.7,37.9s-41.3-26.2-37.06-52.31c4.26-26.25,26.18-42.05,51.7-37.9ZM1083.67,679.16c-15.66-2.54-28.79,5.9-31.19,20.69-2.38,14.65,7.24,26.93,23.05,29.49,15.66,2.54,28.82-6.04,31.19-20.69,2.4-14.79-7.38-26.95-23.05-29.49Z"/>
      </g>
    </g>
    <path class="cls-2" d="M888.2,563.79c0,15.54-2.95,30.69-8.77,45.05-6.03,14.88-14.88,28.21-26.31,39.64l-188.24,188.25c-13.05,13.05-34.21,13.05-47.26,0h0c-13.05-13.05-13.05-34.21,0-47.26l188.24-188.25c10-10,15.5-23.29,15.5-37.43s-5.5-27.43-15.5-37.43c-20.64-20.64-54.22-20.64-74.85,0l-102.54,102.54c-12.45,12.45-29.34,19.45-46.95,19.45h0c-17.72,0-34.39-6.9-46.93-19.42-9.11-9.1-19.62-19.57-28.84-28.75-13.07-13.01-13.13-34.15-.14-47.23h0c13.01-13.11,34.19-13.17,47.28-.15,9.14,9.1,19.56,19.47,28.63,28.53l12.47-12.47-42.5-42.5c-20.64-20.63-54.22-20.64-74.85,0-10,10-15.5,23.29-15.5,37.43s5.5,27.43,15.5,37.43l56.79,56.78c25.93,25.93,67.97,25.93,93.9,0l77.77-77.77c13.05-13.05,34.21-13.05,47.26,0h0c13.05,13.05,13.05,34.21,0,47.26l-148.65,148.66c-12.88,12.88-33.76,12.88-46.65,0l-127.67-127.67c-11.42-11.42-20.27-24.76-26.31-39.64-5.82-14.36-8.77-29.51-8.77-45.05s2.95-30.7,8.77-45.05c6.03-14.88,14.88-28.21,26.31-39.64,11.42-11.42,24.76-20.27,39.64-26.31,14.36-5.82,29.51-8.77,45.05-8.77s30.7,2.95,45.05,8.77c14.88,6.03,28.21,14.88,39.64,26.31l42.5,42.5,42.5-42.5c11.42-11.42,24.76-20.27,39.64-26.31,14.36-5.82,29.51-8.77,45.05-8.77s30.7,2.95,45.05,8.77c14.88,6.03,28.21,14.88,39.64,26.31,11.42,11.42,20.27,24.76,26.31,39.64,5.82,14.36,8.77,29.51,8.77,45.05Z"/>
  </g>
</svg>