<?xml version="1.0" encoding="UTF-8"?>
<svg id="Camada_1" xmlns="http://www.w3.org/2000/svg" viewBox="0 0 1407.39 1088.14">
  <defs>
    <style>
      .cls-1 {
        fill: #626665;
      }

      .cls-2 {
        fill: #fff6eb;
      }

      .cls-3 {
        fill: #a840f1;
      }

      .cls-4 {
        fill: #7e30b5;
      }
    </style>
  </defs>
  <path class="cls-1" d="M1334.7,729.23c-5.98-19.85-34.46-75.43-34.46-75.43l18.94-354.92c.47-8.75,1-17.48,1.57-26.73,1.11-18.28,2.26-37.17,2.9-56.73,1.04-19.9-.69-70.26-38.62-110.25-24.36-25.67-58.51-40.39-93.7-40.39l-26.04.11c-23.03.11-46.05.21-69.08.31l-630.65,2.8-109.25.49c-26.09.11-52.15.22-78.16.35h-.9c-3.01,0-6.04-.05-9.06-.09-3.83-.06-8.17-.12-12.71-.12-6.53,0-12.3.12-17.86.41-34.44.63-66.55,14.68-90.62,39.68-37.52,38.96-40.06,88.94-39.4,108.57l2.15,65.74c1.65,51.11,3.32,102.19,4.98,153.28l.72,22.2c1.87,57.29,3.74,114.59,5.6,171.88.18,5.99.38,11.97.58,17.96-2.48,2.36-35.53,63.08-42.44,86.05-8.66,28.76-.42,59.33,10.96,86,0,0,47.54,111.54,48.65,114.13,17.31,48.43,58.69,82.35,108.68,88.02,4.4.51,8.86.79,13.3.83,7.94.1,15.88.19,23.75.27l654.4,7.47c33.87.39,67.75.78,101.57,1.16,24.5.28,49,.57,73.4.84,2.49.04,5.57.14,8.83.23,5.45.18,11.63.38,18.44.38,3.81,0,7.43-.06,10.97-.18,17.53-.09,34.62-3.76,50.4-10.65,77.67-33.95,148.35-239.99,132.17-293.66Z"/>
  <g>
    <path class="cls-2" d="M1197.34,1012.52c-15.78,6.89-32.87,10.57-50.4,10.65-3.54.12-7.16.18-10.97.18-6.82,0-13-.2-18.44-.38-3.26-.1-6.34-.2-8.83-.23-24.4-.27-48.9-.55-73.4-.84-33.82-.38-67.7-.76-101.57-1.16l-654.41-7.47c-7.87-.09-15.81-.17-23.75-.27-4.44-.04-8.9-.32-13.3-.83-50-5.67-91.37-39.59-108.68-88.02-1.11-2.59-48.65-114.13-48.65-114.13-11.38-26.67-19.62-57.23-10.96-86,6.9-22.97,39.96-83.69,42.44-86.05-.2-5.99-.39-11.97-.58-17.96-1.86-57.29-3.72-114.59-5.6-171.88l-.72-22.2c-1.66-51.09-3.33-102.17-4.98-153.28l-2.15-65.74c-.65-19.63,1.89-69.61,39.4-108.57,24.07-24.99,56.18-39.05,90.62-39.68,5.56-.28,11.33-.41,17.87-.41,4.54,0,8.88.06,12.71.12,3.02.04,6.05.09,9.06.09h.9c26-.12,52.07-.23,78.16-.35l109.25-.49,630.65-2.8c23.03-.1,46.05-.2,69.08-.31l26.04-.11c35.19,0,69.34,14.72,93.7,40.39,37.93,39.98,39.65,90.35,38.62,110.25-.64,19.55-1.79,38.44-2.9,56.73-.57,9.25-1.1,17.98-1.57,26.73l-18.94,354.92s28.48,55.58,34.46,75.43c16.18,53.67-54.5,259.71-132.17,293.66Z"/>
    <g>
      <path class="cls-4" d="M1207.53,736.81c-.74-4.01-2.87-12.9-8.43-12.88-8.84.01-17.68.04-26.52.05-1.76,0-3.54.01-5.3.01,1.37-25.47,2.72-50.93,4.08-76.41,3.49-65.38,6.98-130.77,10.47-196.15,3.02-56.49,6.03-112.99,9.05-169.48,1.46-27.36,3.53-54.74,4.39-82.13.01-.39.04-.78.06-1.17.27-5.15-1.39-21-9.22-20.96-8.47.04-16.94.07-25.41.11-23.06.11-46.1.21-69.14.31-34.1.15-68.19.31-102.28.46-41.61.18-83.21.37-124.81.55-45.58.2-91.16.41-136.73.6-46.03.21-92.04.41-138.05.62-42.92.18-85.84.38-128.76.57-36.42.16-72.84.33-109.27.49-26.06.11-52.12.22-78.18.35-12.28.05-24.78-.59-37.04.16-.52.04-1.05.01-1.58.01-7.95.04-9.38,16.11-9.22,20.96.71,21.92,1.43,43.86,2.14,65.78,1.69,52.24,3.39,104.47,5.09,156.69,2.07,63.56,4.14,127.12,6.2,190.67,1.18,36.58,2.38,73.17,3.58,109.76-11.98-.04-24.13-.58-36.08.1-.57.02-1.13,0-1.69,0-5.56.01-7.72,9.07-8.43,12.88-1.38,7.45-1.1,15.84,1.91,22.9,15.14,35.51,30.27,71.02,45.41,106.53,1.76,4.16,3.54,8.31,5.31,12.47,1.17,4.56,3.32,8.62,7.18,9.02.2.02.39.04.59.04,7.96.1,15.93.18,23.89.27,21.54.25,43.08.49,64.63.74,31.82.37,63.66.73,95.48,1.1,39.02.44,78.05.89,117.08,1.33,42.54.48,85.09.97,127.63,1.45,43.15.49,86.31.99,129.46,1.48,40.05.46,80.09.91,120.15,1.37,33.86.39,67.71.78,101.57,1.16,24.47.28,48.95.57,73.41.84,11.47.14,23.19,1.01,34.65.39.51-.02,1.01.01,1.52.02,1.31.01,2.52-.67,3.54-1.64h.04c7.87.15,8.9-15.02,9.19-20.36,13.32-33.78,26.62-67.56,39.93-101.35,2.21-5.61,4.41-11.22,6.62-16.83,2.85-7.22,3.32-15.3,1.91-22.9ZM1154.14,624.5c-1.76,33.18-3.54,66.34-5.31,99.52-.74,13.97-1.49,27.95-2.24,41.92-.49,9.35-.99,18.69-1.49,28.04-1.1,20.7-2.68,41.45-3.65,62.19-.02.58-.05,1.16-.07,1.73-6.32-.07-12.64-.14-18.96-.21-21.54-.25-43.08-.49-64.63-.74-31.82-.37-63.66-.73-95.48-1.1-39.02-.44-78.05-.89-117.08-1.33-42.54-.48-85.09-.97-127.63-1.45-43.15-.49-86.31-.99-129.46-1.48-40.05-.46-80.09-.91-120.15-1.37-33.86-.39-67.71-.78-101.57-1.16-24.47-.28-48.95-.57-73.41-.84-9.25-.11-18.65-.7-27.95-.6-.09-2.56-.17-5.13-.26-7.69-.48-14.91-.97-29.81-1.45-44.71-.3-9.17-.59-18.35-.9-27.52-.44-13.98-.9-27.96-1.36-41.93-.95-29.09-1.89-58.17-2.84-87.24l-6.21-190.67c-1.78-54.59-3.55-109.19-5.33-163.8-.65-20.02-.74-40.18-1.54-60.25,5.03-.01,10.06-.04,15.09-.06,23.04-.11,46.1-.21,69.14-.31,34.09-.16,68.19-.31,102.28-.46,41.6-.18,83.21-.37,124.81-.55,45.58-.21,91.15-.41,136.73-.6,46.01-.21,92.03-.42,138.04-.62,42.92-.2,85.84-.38,128.76-.57,36.43-.17,72.85-.33,109.27-.49,26.06-.11,52.13-.23,78.19-.35,9.36-.04,18.85.32,28.26.16-.83,15.55-1.66,31.09-2.49,46.63-2.88,53.93-5.76,107.84-8.64,161.77-3.49,65.38-6.98,130.77-10.47,196.15Z"/>
      <path class="cls-3" d="M1147.49,219.79c-26.06.11-52.13.23-78.19.35-36.42.16-72.84.32-109.27.49-42.92.18-85.84.37-128.76.57-46.01.2-92.03.41-138.04.62-45.58.2-91.15.39-136.73.6-41.6.18-83.21.37-124.81.55-34.09.15-68.19.3-102.28.46-23.04.1-46.1.2-69.14.31-5.03.02-10.06.05-15.09.06.8,20.07.89,40.23,1.54,60.25,1.78,54.61,3.55,109.2,5.33,163.8l6.21,190.67c.95,29.07,1.89,58.16,2.84,87.24.46,13.97.91,27.95,1.36,41.93.31,9.17.6,18.35.9,27.52.48,14.89.97,29.8,1.45,44.71.09,2.56.17,5.13.26,7.69,9.3-.1,18.7.49,27.95.6,24.46.27,48.94.55,73.41.84,33.86.38,67.71.76,101.57,1.16,40.06.46,80.1.91,120.15,1.37,43.15.49,86.31.99,129.46,1.48,42.55.48,85.1.97,127.63,1.45,39.03.44,78.06.89,117.08,1.33,31.82.37,63.66.73,95.48,1.1,21.55.25,43.09.49,64.63.74,6.32.07,12.64.14,18.96.21.02-.57.05-1.15.07-1.73.97-20.74,2.55-41.49,3.65-62.19.51-9.35,1-18.69,1.49-28.04.75-13.97,1.5-27.95,2.24-41.92,1.77-33.18,3.55-66.34,5.31-99.52,3.49-65.38,6.98-130.77,10.47-196.15,2.88-53.93,5.76-107.84,8.64-161.77.83-15.54,1.66-31.08,2.49-46.63-9.41.16-18.9-.2-28.26-.16ZM823.54,515.38c-8,25.99-29.11,44.13-47.21,63.29-23.24,24.61-46.46,49.24-69.83,73.73-4.75,4.98-8.2-.89-9.46-5.63-1.59-5.97-2.18-16.63,2.48-21.51,23.36-24.49,46.59-49.12,69.83-73.73,8.59-9.09,17.35-18.05,25.79-27.29,6.63-7.24,13.04-15.24,16.39-24.58.89-2.48,1.47-4.99,1.78-7.59.06-.46.07-.99.12-1.53-.02-1.28.01-2.58,0-3.87-.01-.04-.01-.09-.02-.12,0,0-.32-2.4-.32-2.63h0c-.54-2.59-2.14-7.04-4.76-10.43-3.53-4.56-8.46-7.84-13.85-9.84-23.78-8.8-44.95,6.63-62.32,21.11-21.07,17.56-41.44,35.94-61.09,55.08-2.64,2.58-4.33,2.64-6.98,0-9.52-9.53-19.05-19.05-28.57-28.58-4.67-4.66-3.97-15.92-2.49-21.5,1.27-4.78,4.72-10.38,9.47-5.63,8.37,8.37,16.76,16.76,25.13,25.13,6.24-6.02,12.53-11.98,18.89-17.88-5.6-7-11.71-13.6-18.41-19.58-5.33-4.75-10.95-9.43-17.15-13.01-4.38-2.53-5.94-3.16-10.66-3.85-13.93-2.05-28.71,3.32-38.68,13.18-4.19,4.16-8.19,10.67-9.64,15.1-.22.7-1.07,4.81-1.17,4.81-.07.85-.17,1.97-.23,2.68.02.68.06,1.48.09,1.92v.02c.11.44.3,1.31.31,1.36.72,2.54.06.56,1.06,3.03,2.52,6.25,6.45,11.89,10.16,17.47,7.14,10.75,14.96,20.63,24.71,29.13,10.78,9.4,22.48,19.46,34.85,26.66,11.98,6.95,23.51,1.45,33.09-7,20.65-18.26,38.68-40.35,55.54-62.04,4.39-5.63,8.37,1.5,9.47,5.65,1.71,6.45,1.82,15.95-2.49,21.5-12.22,15.71-25.08,30.91-38.79,45.35-10.27,10.8-21.54,24.91-36.09,29.66-16.25,5.31-28.28-5.08-40.49-14.41-12.27-9.38-24.54-19.01-34.63-30.79-10.18-11.87-20.58-26.52-26.02-41.27-4.89-13.27-5.79-27.47-3.23-41.32,2.9-15.6,10.02-30,22.44-40.17,11.98-9.8,29.22-15.08,44.44-11,11.04,2.96,20.16,10.92,28.42,18.47,11.07,10.13,20.8,21.39,29.27,33.73,1.21-1.08,2.42-2.16,3.64-3.23,11.72-10.34,23.51-21.01,36.21-30.16,20.22-14.56,49.95-20.27,69.32-.81,17.72,17.79,18.72,50.17,11.7,72.93Z"/>
    </g>
  </g>
</svg>