<?xml version="1.0" encoding="UTF-8"?>
<svg id="Camada_1" xmlns="http://www.w3.org/2000/svg" viewBox="0 0 1334.92 813.85">
  <defs>
    <style>
      .cls-1 {
        fill: #626665;
      }

      .cls-2 {
        fill: #fff6eb;
      }

      .cls-3 {
        fill: #a840f1;
      }
    </style>
  </defs>
  <path class="cls-1" d="M1255.15,149.28c-7.76-24-20.65-44.38-38.31-60.56-17.11-15.68-38.42-26.99-63.36-33.62-20.61-5.47-43.84-8.13-71-8.13s-50.4,2.66-71,8.13c-3.01.8-5.97,1.67-8.87,2.6v-6.7h-192.42l-12.25,21.17-11.26-21.17H66.75v406.63h27.08c-7.73,9.27-13.94,19.61-18.51,30.88-5.69,14.03-8.57,28.83-8.57,43.99s2.88,29.96,8.57,43.99c5.91,14.56,14.55,27.6,25.7,38.75l58.52,58.52c4.76,4.75,22.97,22.97,27.76,27.76,14.63,14.63,34.07,22.68,54.76,22.68s40.13-8.06,54.76-22.68l20.44-20.44v92.08h217.03v-4.1c9.17,2.7,18.76,4.1,28.52,4.1h20.18c13.95,0,27.19-3.05,39.11-8.52,10.9,5.45,23.19,8.52,36.19,8.52h605.75v-195.24h.81V218.02c0-26.14-3.16-48.63-9.67-68.74Z"/>
  <path class="cls-2" d="M1258.5,143c-7.76-24-20.65-44.38-38.31-60.56-17.11-15.68-38.42-26.99-63.36-33.62-20.61-5.47-43.84-8.13-71-8.13s-50.4,2.66-71,8.13c-3.01.8-5.97,1.67-8.87,2.6v-6.7h-192.42l-12.25,21.17-11.26-21.17H70.1v406.63h27.08c-7.73,9.27-13.94,19.61-18.51,30.88-5.69,14.03-8.57,28.83-8.57,43.99s2.88,29.96,8.57,43.99c5.91,14.56,14.55,27.6,25.7,38.75l58.52,58.52c4.76,4.75,22.97,22.97,27.76,27.76,14.63,14.63,34.07,22.68,54.76,22.68s40.13-8.06,54.76-22.68l20.44-20.44v92.08h217.03v-4.1c9.17,2.7,18.76,4.1,28.52,4.1h20.18c13.95,0,27.19-3.05,39.11-8.52,10.9,5.45,23.19,8.52,36.19,8.52h605.75v-195.24h.81V211.74c0-26.14-3.16-48.63-9.67-68.74Z"/>
  <g>
    <g>
      <path class="cls-3" d="M414.71,422.37h20.83c9.38,0,18.44,3.41,25.5,9.6l56.19,49.28c3.23,2.84,8.3.54,8.3-3.76v-55.12h92.78v250.4c0,17.66-14.32,31.98-31.98,31.98h-20.18c-9.77,0-19.19-3.7-26.34-10.36l-55.89-52.01c-3.2-2.98-8.41-.71-8.41,3.66v58.7h-92.78v-250.4c0-17.66,14.32-31.98,31.98-31.98Z"/>
      <path class="cls-3" d="M661.62,422.37h54.56c10.55,0,19.11,8.56,19.11,19.11v244.16c0,10.55-8.56,19.11-19.11,19.11h-54.56c-10.55,0-19.11-8.56-19.11-19.11v-244.16c0-10.55,8.56-19.11,19.11-19.11Z"/>
      <path class="cls-3" d="M768.18,422.37c-7.02,0-12.71,5.69-12.71,12.71v100.24l113.3-14.01s-113.3,55.09-113.3,158.02v25.42h198.67c7.02,0,12.71-5.69,12.71-12.71v-100.24l-108.46,14.01s110.88-55.05,110.88-156.56v-26.87h-201.09Z"/>
      <path class="cls-3" d="M989.43,422.37h216.62v87.13h-117.79c-4.46,0-8.07,3.61-8.07,8.07h0c0,4.46,3.61,8.07,8.07,8.07h75.64c20.61,0,37.31,16.71,37.31,37.31h0c0,20.61-16.71,37.31-37.31,37.31h-75.64c-4.46,0-8.07,3.61-8.07,8.07v1.21c0,4.46,3.61,8.07,8.07,8.07h116.99v87.13h-215.82v-282.38Z"/>
    </g>
    <g>
      <path class="cls-3" d="M253.24,319.85h0c-15.6,0-28.24,12.64-28.24,28.24v41.15h-92.78V106.85h92.78v48c0,15.6,12.64,28.24,28.24,28.24h0c15.6,0,28.24-12.64,28.24-28.24v-48h92.78v282.38h-92.78v-41.15c0-15.6-12.64-28.24-28.24-28.24Z"/>
      <path class="cls-3" d="M636.46,284.35c0,19.36-2.22,35.9-6.66,49.62-4.44,13.72-11.5,25.01-21.18,33.89-9.68,8.87-22.12,15.33-37.31,19.36-15.2,4.03-33.55,6.05-55.06,6.05s-39.87-2.02-55.06-6.05c-15.2-4.03-27.57-10.42-37.11-19.16-9.55-8.74-16.54-20.03-20.98-33.88-4.44-13.85-6.66-30.46-6.66-49.82V106.85h92.78v121.62c0,15.04,12.19,27.23,27.23,27.23h0c15.04,0,27.23-12.19,27.23-27.23v-121.62h92.78v177.49Z"/>
      <path class="cls-3" d="M1206.05,211.74v177.49h-79.4c-7.39,0-13.38-5.99-13.38-13.38v-16.06h-54.46v16.06c0,7.39-5.99,13.38-13.38,13.38h-79.4v-177.49c0-19.36,2.22-35.97,6.66-49.82,4.44-13.85,11.43-25.14,20.98-33.89,9.54-8.74,21.92-15.13,37.11-19.16,15.19-4.03,33.54-6.05,55.06-6.05s39.87,2.02,55.06,6.05c15.19,4.03,27.63,10.49,37.31,19.36,9.68,8.87,16.74,20.17,21.18,33.89,4.44,13.72,6.66,30.25,6.66,49.62ZM1073.74,254.9h24.61c8.24,0,14.93-6.68,14.93-14.93h0c0-8.24-6.68-14.93-14.93-14.93h-24.61c-8.24,0-14.93,6.68-14.93,14.93h0c0,8.24,6.68,14.93,14.93,14.93Z"/>
      <path class="cls-3" d="M943.84,106.85v282.38h-92.78v-96.02l-29.25,41.59c-4.42,6.3-11.64,10.04-19.33,10.04h-4.48c-7.7,0-14.92-3.75-19.34-10.05l-27.23-38.75v93.19h-92.77V106.85h94.08c4.99,9.39,27,48.69,45.27,48.69h4.48c17.44,0,40.57-37.74,46.9-48.69h94.46Z"/>
    </g>
    <path class="cls-3" d="M358.58,526.22c0,7.12-1.35,14.07-4.02,20.65-2.76,6.82-6.82,12.93-12.06,18.16l-86.27,86.27c-5.98,5.98-15.68,5.98-21.66,0h0c-5.98-5.98-5.98-15.68,0-21.66l86.27-86.27c4.58-4.58,7.1-10.67,7.1-17.15s-2.52-12.57-7.1-17.15c-9.46-9.46-24.85-9.46-34.3,0l-46.99,46.99c-5.71,5.71-13.45,8.91-21.52,8.91h0c-8.12,0-15.76-3.16-21.51-8.9-4.17-4.17-8.99-8.97-13.22-13.17-5.99-5.96-6.02-15.65-.06-21.65h0c5.96-6.01,15.67-6.04,21.67-.07,4.19,4.17,8.96,8.92,13.12,13.07l5.71-5.71-19.48-19.48c-9.46-9.46-24.85-9.46-34.31,0-4.58,4.58-7.1,10.67-7.1,17.15s2.52,12.57,7.1,17.15l26.02,26.02c11.88,11.88,31.15,11.88,43.04,0l35.64-35.64c5.98-5.98,15.68-5.98,21.66,0h0c5.98,5.98,5.98,15.68,0,21.66l-68.13,68.13c-5.9,5.9-15.47,5.9-21.38,0l-58.51-58.51c-5.23-5.23-9.29-11.35-12.06-18.16-2.67-6.58-4.02-13.53-4.02-20.65s1.35-14.07,4.02-20.65c2.76-6.82,6.82-12.93,12.06-18.16,5.23-5.23,11.35-9.29,18.16-12.06,6.58-2.67,13.53-4.02,20.65-4.02s14.07,1.35,20.65,4.02c6.82,2.76,12.93,6.82,18.16,12.06l19.48,19.48,19.48-19.48c5.23-5.23,11.35-9.29,18.16-12.06,6.58-2.67,13.53-4.02,20.65-4.02s14.07,1.35,20.65,4.02c6.82,2.76,12.93,6.82,18.16,12.06,5.23,5.23,9.29,11.35,12.06,18.16,2.67,6.58,4.02,13.53,4.02,20.65Z"/>
  </g>
</svg>