<?xml version="1.0" encoding="UTF-8"?>
<svg id="Camada_1" xmlns="http://www.w3.org/2000/svg" viewBox="0 0 1276.58 1083.35">
  <defs>
    <style>
      .cls-1 {
        fill: #626665;
      }

      .cls-2 {
        fill: #01debb;
      }

      .cls-3 {
        fill: #04725d;
      }
    </style>
  </defs>
  <path class="cls-1" d="M1188.95,256.92c-16.38-40.4-40.39-76.59-71.37-107.58-30.97-30.97-67.17-54.98-107.58-71.37-38.95-15.8-80.06-23.81-122.2-23.81s-83.25,8.01-122.2,23.8c-40.4,16.38-76.59,40.39-107.58,71.37l-19.74,19.74-19.74-19.74c-30.97-30.97-67.17-54.99-107.58-71.37-38.96-15.79-80.07-23.8-122.2-23.8s-83.24,8.01-122.19,23.8c-40.41,16.39-76.61,40.4-107.57,71.37-30.96,30.96-54.98,67.15-71.38,107.58-15.8,38.95-23.8,80.06-23.8,122.2s8.01,83.25,23.81,122.21c16.4,40.42,40.41,76.62,71.37,107.57l378.57,378.57c26.9,26.91,62.67,41.72,100.72,41.72s73.82-14.82,100.73-41.72l378.56-378.57c30.97-30.97,54.98-67.17,71.37-107.58,15.8-38.95,23.81-80.06,23.81-122.2s-8.01-83.25-23.8-122.2Z"/>
  <g>
    <g>
      <path class="cls-3" d="M640.17,1017.17c-37.53,0-72.82-14.62-99.36-41.16l-373.44-373.44c-30.54-30.53-54.22-66.23-70.4-106.11-15.59-38.43-23.49-78.99-23.49-120.55s7.9-82.12,23.48-120.54c16.18-39.88,39.87-75.58,70.41-106.12,30.54-30.54,66.24-54.24,106.11-70.4,38.43-15.58,78.98-23.48,120.54-23.48s82.11,7.9,120.54,23.48c39.86,16.16,75.56,39.85,106.12,70.4l19.47,19.47,19.47-19.47c30.57-30.56,66.27-54.25,106.12-70.4,38.42-15.58,78.98-23.48,120.54-23.48s82.12,7.9,120.54,23.48c39.86,16.16,75.57,39.85,106.12,70.4,30.56,30.57,54.24,66.27,70.4,106.12,15.58,38.42,23.48,78.98,23.48,120.54s-7.9,82.12-23.48,120.54c-16.16,39.86-39.85,75.57-70.4,106.12l-373.43,373.44c-26.54,26.54-61.83,41.16-99.36,41.16Z"/>
      <path class="cls-2" d="M1118.06,375.92c0,30.07-5.71,59.41-16.97,87.18-11.67,28.79-28.8,54.6-50.91,76.71l-373.43,373.44c-20.2,20.2-52.96,20.2-73.16,0l-373.44-373.44c-22.11-22.1-39.23-47.91-50.91-76.71-11.26-27.77-16.97-57.1-16.97-87.18s5.71-59.4,16.97-87.18c11.68-28.79,28.8-54.6,50.91-76.7,22.1-22.11,47.91-39.24,76.7-50.91,27.78-11.26,57.11-16.97,87.18-16.97s59.4,5.71,87.18,16.97c28.79,11.67,54.6,28.8,76.7,50.91l82.25,82.25,82.25-82.25c22.11-22.1,47.91-39.23,76.71-50.91,27.77-11.26,57.11-16.97,87.18-16.97s59.4,5.71,87.18,16.97c28.79,11.67,54.6,28.8,76.71,50.91,22.1,22.11,39.23,47.91,50.91,76.71,11.26,27.77,16.97,57.11,16.97,87.18Z"/>
    </g>
    <g>
      <g>
        <path class="cls-3" d="M494.69,411.21h-13v-56.1h-.53c-.8,3.18-2.12,6.23-3.98,10.21l-17.77,34.61h-12.47l-17.77-34.61c-1.86-3.85-3.18-7.03-3.98-10.21h-.53v56.1h-12.33v-78.78h13.66l22.55,44.69c1.72,3.71,3.58,7.96,4.64,10.74h.53c1.06-2.79,2.92-7.16,4.64-10.74l22.55-44.69h13.79v78.78Z"/>
        <path class="cls-3" d="M562.56,411.21l-8.36-21.88h-31.3l-8.36,21.88h-13.13l30.11-78.78h14.72l30.11,78.78h-13.79ZM541.48,354.85c-1.19-3.18-1.99-5.84-2.65-8.75h-.53c-.66,2.92-1.46,5.57-2.65,8.75l-9.42,24h24.54l-9.28-24Z"/>
        <path class="cls-3" d="M608.69,411.21h-25.6v-78.78h25.6c27.19,0,43.9,15.78,43.9,39.39s-16.84,39.39-43.9,39.39ZM608.69,343.44h-12.86v56.76h12.86c18.7,0,30.37-10.61,30.37-28.38s-11.8-28.38-30.37-28.38Z"/>
        <path class="cls-3" d="M711.76,343.97h-36.21v21.88h30.11v11.27h-30.11v22.55h37.93v11.54h-50.79v-78.78h50.13l-1.06,11.54Z"/>
        <path class="cls-3" d="M764.94,411.21h-12.86v-78.78h12.86v78.78Z"/>
        <path class="cls-3" d="M845.47,411.21h-11.41l-35.94-50c-2.25-3.05-4.24-6.23-5.7-8.89h-.53v58.88h-12.33v-78.78h12.6l34.61,48.27c2.25,3.05,4.24,6.1,5.7,8.75h.53v-57.03h12.47v78.78Z"/>
      </g>
      <g>
        <g>
          <path class="cls-3" d="M526.27,558.62h8.4c3.78,0,7.44,1.38,10.29,3.87l22.67,19.88c1.3,1.14,3.35.22,3.35-1.52v-22.23h37.42v101c0,7.12-5.77,12.9-12.9,12.9h-8.14c-3.94,0-7.74-1.49-10.63-4.18l-22.54-20.98c-1.29-1.2-3.39-.29-3.39,1.48v23.68h-37.42v-101c0-7.12,5.77-12.9,12.9-12.9Z"/>
          <path class="cls-3" d="M625.87,558.62h22.01c4.26,0,7.71,3.45,7.71,7.71v98.48c0,4.26-3.45,7.71-7.71,7.71h-22.01c-4.26,0-7.71-3.45-7.71-7.71v-98.48c0-4.26,3.45-7.71,7.71-7.71Z"/>
          <path class="cls-3" d="M668.85,558.62c-2.83,0-5.13,2.3-5.13,5.13v40.43l45.7-5.65s-45.7,22.22-45.7,63.74v10.25h80.13c2.83,0,5.13-2.3,5.13-5.13v-40.43l-43.75,5.65s44.72-22.21,44.72-63.15v-10.84h-81.11Z"/>
          <path class="cls-3" d="M758.09,558.62h87.38v35.15h-47.51c-1.8,0-3.25,1.46-3.25,3.25h0c0,1.8,1.46,3.25,3.25,3.25h30.51c8.31,0,15.05,6.74,15.05,15.05h0c0,8.31-6.74,15.05-15.05,15.05h-30.51c-1.8,0-3.25,1.46-3.25,3.25v.49c0,1.8,1.46,3.25,3.25,3.25h47.19v35.15h-87.05v-113.9Z"/>
        </g>
        <g>
          <path class="cls-3" d="M461.15,517.26h0c-6.29,0-11.39,5.1-11.39,11.39v16.6h-37.42v-113.9h37.42v19.36c0,6.29,5.1,11.39,11.39,11.39h0c6.29,0,11.39-5.1,11.39-11.39v-19.36h37.42v113.9h-37.42v-16.6c0-6.29-5.1-11.39-11.39-11.39Z"/>
          <path class="cls-3" d="M615.72,502.95c0,7.81-.89,14.48-2.68,20.01-1.79,5.53-4.64,10.09-8.54,13.67-3.9,3.58-8.92,6.18-15.05,7.81-6.13,1.63-13.53,2.44-22.21,2.44s-16.08-.81-22.21-2.44c-6.13-1.63-11.12-4.2-14.97-7.73-3.85-3.52-6.67-8.08-8.46-13.67-1.79-5.59-2.68-12.28-2.68-20.1v-71.59h37.42v49.06c0,6.07,4.92,10.98,10.98,10.98h0c6.07,0,10.98-4.92,10.98-10.98v-49.06h37.42v71.59Z"/>
          <path class="cls-3" d="M845.47,473.66v71.59h-32.03c-2.98,0-5.4-2.42-5.4-5.4v-6.48h-21.97v6.48c0,2.98-2.42,5.4-5.4,5.4h-32.03v-71.59c0-7.81.9-14.51,2.68-20.09,1.79-5.59,4.61-10.14,8.46-13.67,3.85-3.52,8.84-6.1,14.97-7.73,6.13-1.63,13.53-2.44,22.21-2.44s16.08.81,22.21,2.44c6.13,1.63,11.15,4.23,15.05,7.81,3.91,3.58,6.75,8.14,8.54,13.67,1.79,5.53,2.68,12.2,2.68,20.01ZM792.1,491.07h9.93c3.32,0,6.02-2.7,6.02-6.02h0c0-3.32-2.7-6.02-6.02-6.02h-9.93c-3.32,0-6.02,2.7-6.02,6.02h0c0,3.32,2.7,6.02,6.02,6.02Z"/>
          <path class="cls-3" d="M739.71,431.35v113.9h-37.43v-38.73l-11.8,16.78c-1.78,2.54-4.7,4.05-7.8,4.05h-1.81c-3.11,0-6.02-1.51-7.8-4.06l-10.98-15.63v37.59h-37.42v-113.9h37.95c2.01,3.79,10.89,19.64,18.26,19.64h1.81c7.03,0,16.36-15.22,18.92-19.64h38.1Z"/>
        </g>
        <path class="cls-3" d="M503.63,600.51c0,2.87-.55,5.67-1.62,8.33-1.12,2.75-2.75,5.22-4.86,7.33l-34.8,34.8c-2.41,2.41-6.32,2.41-8.74,0h0c-2.41-2.41-2.41-6.32,0-8.74l34.8-34.8c1.85-1.85,2.87-4.31,2.87-6.92s-1.02-5.07-2.87-6.92c-3.81-3.82-10.02-3.82-13.84,0l-18.96,18.96c-2.3,2.3-5.42,3.6-8.68,3.6h0c-3.28,0-6.36-1.27-8.67-3.59-1.68-1.68-3.63-3.62-5.33-5.31-2.42-2.4-2.43-6.31-.03-8.73h0c2.41-2.42,6.32-2.44,8.74-.03,1.69,1.68,3.62,3.6,5.29,5.27l2.3-2.3-7.86-7.86c-3.81-3.81-10.02-3.81-13.84,0-1.85,1.85-2.87,4.31-2.87,6.92s1.02,5.07,2.87,6.92l10.5,10.5c4.79,4.79,12.57,4.79,17.36,0l14.38-14.38c2.41-2.41,6.32-2.41,8.74,0h0c2.41,2.41,2.41,6.32,0,8.74l-27.48,27.48c-2.38,2.38-6.24,2.38-8.62,0l-23.6-23.6c-2.11-2.11-3.75-4.58-4.86-7.33-1.08-2.65-1.62-5.46-1.62-8.33s.55-5.67,1.62-8.33c1.12-2.75,2.75-5.22,4.86-7.33,2.11-2.11,4.58-3.75,7.33-4.86,2.65-1.08,5.46-1.62,8.33-1.62s5.67.55,8.33,1.62c2.75,1.12,5.22,2.75,7.33,4.86l7.86,7.86,7.86-7.86c2.11-2.11,4.58-3.75,7.33-4.86,2.65-1.08,5.46-1.62,8.33-1.62s5.67.55,8.33,1.62c2.75,1.12,5.22,2.75,7.33,4.86,2.11,2.11,3.75,4.58,4.86,7.33,1.08,2.65,1.62,5.46,1.62,8.33Z"/>
      </g>
    </g>
  </g>
</svg>