<?xml version="1.0" encoding="UTF-8"?>
<svg id="Camada_1" xmlns="http://www.w3.org/2000/svg" viewBox="0 0 1185.87 1414.38">
  <defs>
    <style>
      .cls-1 {
        fill: #626665;
      }

      .cls-2 {
        fill: #fff6eb;
      }

      .cls-3 {
        fill: #ff5459;
      }
    </style>
  </defs>
  <path class="cls-1" d="M1057.27,611.54c28.37-24.87,96.05-111.96,48.24-226.81-13.43-32.27-35.63-59.92-64.21-79.96-21.46-15.06-45.43-25.09-70.55-29.66-3.65-14.21-7.31-28.42-10.96-42.63-1.89-7.36-3.74-14.74-5.59-22.12-3.82-15.18-7.76-30.87-12.12-46.77l-.08-.29c-3.53-13.65-9.61-27.03-17.6-38.75-21.11-30.92-55.44-49.39-91.85-49.39s-69.1,17.61-90.03,47.15l-59.2,83.69-218.23,156.33c-20.25,14.51-40.49,29.01-60.74,43.51,0,0-3.77,2.72-5.61,4.03l-87.55,10.34-150.64,17.79c-31.98,3.78-60.93,21.21-79.4,47.82-30.48,43.9-21.27,94.74-17.72,109.3l4.22,17.3c4.64,18.98,9.27,37.96,13.91,56.98,9.65,39.5,19.3,78.99,28.94,118.54,2.23,9.11,4.46,18.24,6.69,27.37,3.37,13.8,8.86,26.62,16.32,38.13,16.65,25.65,42.27,43.03,71.08,48.97l45.86,170.64c10.37,38.58,20.73,77.16,31.11,115.77,1.96,7.26,3.87,14.54,5.78,21.82,3.93,14.99,8,30.48,12.51,46.18,3.51,13.05,8.83,25.1,15.81,35.81,20.8,31.95,55.62,51.01,93.16,51.01,13.81,0,27.38-2.55,40.4-7.61,25.73-10.02,51.47-20.04,77.21-30.05l25.39-9.87c3.86-1.5,7.72-3,11.57-4.5l2.75-1.07c29.61-11.55,52.35-34.77,64.02-65.43,3.66-9.61,5.45-17.8,6.6-23.87l.07-.42c3.94-21.37,3.09-43.28-2.47-63.38l-.04-.15c-5.11-18.37-10.21-36.74-15.32-55.16-10.6-38.13-21.2-76.26-31.78-114.39l-47.75-171.86,11.94.6c35.75,1.8,71.49,3.59,107.28,5.4l112.21,5.65c23.19,1.17,46.38,2.34,69.62,3.51,22.26,15.74,73.27,51.83,73.27,51.83,18.62,13.16,40.44,20.12,63.1,20.12,47.9,0,89.54-30.64,106.09-78.05l.04-.14c8.88-25.54,10-54.29,3.14-81.01,0,0-24.03-93.46-28.86-112.27Z"/>
  <g>
    <path class="cls-2" d="M1090.58,719.36c6.86,26.72,5.74,55.47-3.14,81.01l-.04.14c-16.55,47.41-58.19,78.05-106.09,78.05-22.66,0-44.48-6.96-63.1-20.12,0,0-51.01-36.09-73.27-51.83-23.24-1.17-46.44-2.34-69.62-3.51l-112.21-5.65c-35.79-1.81-71.54-3.61-107.28-5.4l-11.94-.6,47.75,171.86c10.58,38.13,21.18,76.26,31.78,114.39,5.11,18.42,10.21,36.79,15.32,55.16l.04.15c5.56,20.1,6.42,42.02,2.47,63.38l-.07.42c-1.15,6.07-2.94,14.26-6.6,23.87-11.67,30.65-34.4,53.88-64.02,65.42l-2.75,1.07c-3.85,1.5-7.71,3-11.57,4.5l-25.39,9.87c-25.74,10.01-51.48,20.03-77.21,30.05-13.02,5.06-26.59,7.61-40.4,7.61-37.53,0-72.36-19.06-93.16-51.01-6.98-10.71-12.3-22.76-15.81-35.81-4.5-15.7-8.57-31.19-12.51-46.18-1.91-7.28-3.83-14.56-5.78-21.82-10.37-38.61-20.73-77.19-31.11-115.77l-45.87-170.63c-28.81-5.94-54.43-23.32-71.08-48.97-7.46-11.5-12.95-24.33-16.32-38.13-2.23-9.14-4.46-18.26-6.69-27.37-9.64-39.55-19.28-79.04-28.94-118.54-4.64-19.02-9.27-38-13.91-56.98l-4.22-17.3c-3.55-14.56-12.76-65.4,17.72-109.3,18.47-26.61,47.42-44.04,79.4-47.82l150.64-17.79,87.55-10.34c1.84-1.31,5.61-4.03,5.61-4.03,20.25-14.5,40.49-29,60.74-43.51l218.23-156.33,59.2-83.69c20.92-29.54,54.57-47.15,90.03-47.15s70.73,18.47,91.85,49.39c7.99,11.71,14.07,25.1,17.6,38.75l.08.29c4.36,15.9,8.3,31.59,12.12,46.77,1.85,7.38,3.7,14.76,5.59,22.12,3.66,14.21,7.32,28.42,10.96,42.63,25.12,4.57,49.09,14.6,70.55,29.66,28.58,20.05,50.78,47.69,64.21,79.96,47.81,114.85-19.88,201.94-48.24,226.81,4.83,18.81,28.86,112.27,28.86,112.27Z"/>
    <path class="cls-3" d="M1012.35,420.91c-11.55-27.73-38.7-47.55-69.14-47.37-16.72.1-33.28,6.28-46.1,16.94-.07.06-.14.14-.21.2h0c-11.68-45.44-23.37-90.88-35.06-136.32-5.83-22.66-11.28-45.44-17.49-68-.08-.33-.17-.66-.25-.98-1.11-4.32-5.99-13.26-10.82-6.45-20.49,28.97-40.98,57.94-61.47,86.91-2.66,3.76-5.33,7.53-7.98,11.3-26.75,19.16-53.51,38.34-80.27,57.51-50.81,36.4-101.63,72.79-152.44,109.2-20.26,14.52-40.52,29.02-60.77,43.53-6.38,4.58-12.76,9.16-19.15,13.72-1.96,1.41-3.9,2.8-5.86,4.2-.68.49-2.2,1.18-2.82,1.91-1.7.1-3.47.45-5.15.66-8.34.98-16.69,1.98-25.05,2.96-28.1,3.32-56.21,6.64-84.31,9.96-49.28,5.82-98.55,11.64-147.82,17.46-.93.11-1.87.22-2.8.33-9.83,1.16-8.34,20.85-6.83,27.05,6.05,24.76,12.1,49.51,18.13,74.26,9.65,39.51,19.3,79.01,28.94,118.52,2.23,9.12,4.46,18.26,6.69,27.39.99,4.07,3.77,10.49,8.92,8.26,16.08-6.97,32.15-13.92,48.23-20.89,1.04-.45,2.08-.9,3.12-1.35,7.82,29.12,15.65,58.22,23.47,87.34,14.28,53.16,28.58,106.33,42.86,159.49,12.39,46.11,24.78,92.21,37.16,138.3,5.99,22.3,11.62,44.74,17.99,66.95.08.31.17.62.25.93,1.13,4.24,3.66,10.32,8.93,8.27,34.16-13.3,68.33-26.59,102.49-39.88,4.79-1.87,9.59-3.73,14.38-5.59,3.42-1.33,4.56-7.39,5.13-10.41.96-5.21,1.03-10.84-.4-16-5.12-18.39-10.22-36.78-15.33-55.18-12.28-44.15-24.54-88.31-36.8-132.47-14.79-53.22-29.57-106.45-44.36-159.67-9.06-32.6-18.11-65.19-27.17-97.79,19.28-8.35,38.57-16.71,57.87-25.06,6.28-2.72,12.85-5.14,18.98-8.19.03.02.06.03.11.04,1.6.49,3.87.19,5.54.28,21.81,1.1,43.62,2.2,65.44,3.3,35.76,1.8,71.51,3.59,107.28,5.4,37.42,1.88,74.83,3.76,112.25,5.65,27.32,1.39,54.64,2.76,81.96,4.13,5.96.3,12.05.97,18.02.91.04,0,.12,0,.2.02,2.57,2.85,7.24,5.08,10.34,7.25,27.19,19.23,54.39,38.46,81.57,57.7,2.17,1.53,4.33,3.07,6.49,4.59,4.11,2.91,7.37-3.71,8.32-6.44,2.16-6.21,2.24-13.62.61-19.96-4.79-18.62-9.58-37.25-14.37-55.87-11.49-44.71-22.99-89.41-34.49-134.13-.82-3.21-1.65-6.44-2.48-9.65h0c25.68,2.33,50.69-9.52,66.14-30.37.16-.19.32-.4.47-.63,18.68-27.03,21.46-63.98,8.9-94.15ZM421.56,813.42c14.78,53.22,29.57,106.45,44.35,159.67,12.78,46,25.57,92.02,38.35,138.02,4.26,15.34,8.28,30.79,12.56,46.15-30.46,11.86-60.92,23.7-91.38,35.56-2.76,1.08-5.53,2.15-8.29,3.22-4-14.84-7.98-29.68-11.97-44.52-11.82-43.97-23.63-87.93-35.45-131.91-14.28-53.16-28.58-106.33-42.86-159.49-8.55-31.83-17.11-63.67-25.67-95.52,26.98-11.68,53.96-23.37,80.95-35.06,4.79-2.07,9.59-4.16,14.38-6.23,8.34,30.04,16.68,60.07,25.04,90.1ZM956.78,694.86c2.46,9.56,4.8,19.18,7.17,28.79-16.85-11.93-33.72-23.84-50.57-35.77-6.27-4.44-12.55-8.87-18.82-13.31-3.18-2.25-6.35-5.04-9.79-6.93-3.04-1.67-7.22-1.21-10.6-1.37-22.78-1.15-45.58-2.29-68.37-3.45-36.32-1.83-72.62-3.66-108.94-5.49-37.32-1.88-74.64-3.75-111.97-5.64-26.35-1.33-52.68-2.65-79.03-3.98-5.15-.26-10.64-1.12-15.8-.8-3.48.21-7.22,2.54-10.36,3.89l-75.49,32.7s-.02.01-.03.01c-5.56,2.41-11.12,4.82-16.68,7.23-29.15,12.61-58.29,25.24-87.44,37.87-2.54,1.1-5.09,2.2-7.62,3.3-5.54,2.4-11.07,4.8-16.61,7.19-13.5,5.86-27.01,11.7-40.52,17.55-5.15-21.1-10.31-42.2-15.46-63.3-9.64-39.5-19.28-79.01-28.93-118.51-.16-.63-.31-1.26-.47-1.89,38.17-4.5,76.35-9.02,114.5-13.52,30.12-3.55,60.23-7.12,90.34-10.67,15.94-1.88,32.3-2.88,48.11-5.68,2.65-.48,4.01-1.62,6.14-3.15,4.76-3.4,9.52-6.81,14.27-10.22,18.05-12.93,36.11-25.86,54.15-38.79,50.89-36.46,101.77-72.9,152.65-109.35,32.33-23.15,65.12-45.8,97.05-69.52.35-.25.71-.51,1.06-.75.72-.33,1.44-.92,2.17-1.87h0c.58-.66,1.09-1.37,1.53-2.16,20.06-28.35,40.11-56.7,60.17-85.06.64-.92,1.29-1.84,1.95-2.75,3.43,13.31,6.84,26.61,10.26,39.91,11.5,44.71,23,89.41,34.49,134.13,13.86,53.88,27.71,107.76,41.57,161.64,11.97,46.57,23.95,93.14,35.92,139.71ZM934.62,509.88c-7.84-30.5-15.69-61-23.53-91.5,24.13-13.69,55.14-11.43,76.31,8.17,4.39,4.06,9.25,10.53,11.38,14.66.76,1.46,1.46,2.95,2.11,4.47.17.4,1.39,3.85,1.41,3.73.45,1.54.83,3.09,1.23,4.65.03.12.05.22.07.32.08.53.16,1.06.23,1.59.08.87.25,4.73.26,3.01,0,.76,0,1.52,0,2.28-.06-.38-.34,3.37-.43,4.08-.01.08-.02.14-.03.21-.13.59-.26,1.18-.41,1.76-.34,1.39-.72,2.77-1.16,4.13-.06,0-1.41,3.42-1.58,3.79-1.55,3.46-2.74,5.47-5.01,8.76-14.16,19.53-37.35,28.74-60.85,25.87Z"/>
  </g>
</svg>