<?xml version="1.0" encoding="UTF-8"?>
<svg id="Camada_1" xmlns="http://www.w3.org/2000/svg" viewBox="0 0 1382.89 1649.36">
  <defs>
    <style>
      .cls-1 {
        fill: #626665;
      }

      .cls-2 {
        fill: #fff6eb;
      }

      .cls-3 {
        fill: #b2363a;
      }

      .cls-4 {
        fill: #ff5459;
      }
    </style>
  </defs>
  <path class="cls-1" d="M1232.92,713.14c33.08-29,112.01-130.56,56.26-264.49-15.66-37.63-41.55-69.87-74.88-93.25-25.03-17.56-52.98-29.26-82.27-34.58-4.25-16.57-8.52-33.14-12.79-49.71-2.21-8.58-4.36-17.19-6.52-25.79-4.45-17.71-9.05-36-14.13-54.55l-.1-.33c-4.12-15.92-11.21-31.53-20.53-45.19-24.62-36.05-64.66-57.59-107.1-57.59s-80.58,20.54-104.98,54.99l-69.03,97.6-254.49,182.3c-23.61,16.92-47.22,33.83-70.83,50.74,0,0-4.4,3.17-6.55,4.7l-102.1,12.06-175.67,20.75c-37.3,4.41-71.05,24.73-92.59,55.77-35.55,51.19-24.81,110.48-20.66,127.46l4.92,20.17c5.41,22.13,10.81,44.26,16.23,66.44,11.26,46.06,22.5,92.11,33.75,138.24,2.6,10.63,5.2,21.27,7.8,31.92,3.93,16.09,10.33,31.05,19.04,44.46,19.42,29.91,49.29,50.18,82.89,57.11l53.48,198.98c12.1,44.99,24.18,89.98,36.27,135.01,2.28,8.47,4.51,16.95,6.74,25.45,4.59,17.48,9.33,35.55,14.59,53.85,4.09,15.21,10.3,29.27,18.43,41.76,24.25,37.26,64.86,59.49,108.63,59.49,16.1,0,31.93-2.97,47.11-8.88,30.01-11.69,60.02-23.36,90.04-35.04l29.6-11.51c4.5-1.75,9-3.5,13.49-5.25l3.21-1.24c34.53-13.46,61.04-40.55,74.65-76.29,4.27-11.21,6.35-20.76,7.69-27.84l.09-.49c4.6-24.92,3.6-50.48-2.88-73.91l-.05-.17c-5.96-21.42-11.91-42.85-17.87-64.32-12.37-44.46-24.72-88.93-37.06-133.39l-55.68-200.41,13.92.7c41.69,2.1,83.37,4.19,125.11,6.3l130.85,6.58c27.04,1.37,54.09,2.72,81.19,4.09,25.95,18.36,85.44,60.44,85.44,60.44,21.71,15.35,47.16,23.46,73.58,23.46,55.85,0,104.42-35.73,123.71-91.02l.05-.16c10.36-29.79,11.66-63.31,3.66-94.47,0,0-28.02-108.99-33.66-130.93Z"/>
  <g>
    <path class="cls-2" d="M1271.76,838.87c8,31.16,6.7,64.68-3.66,94.47l-.05.16c-19.3,55.28-67.86,91.02-123.71,91.02-26.42,0-51.87-8.11-73.58-23.46,0,0-59.49-42.08-85.44-60.44-27.1-1.37-54.15-2.72-81.19-4.09l-130.85-6.58c-41.74-2.11-83.42-4.2-125.11-6.3l-13.92-.7,55.68,200.41c12.34,44.46,24.7,88.93,37.06,133.39,5.96,21.48,11.91,42.91,17.87,64.32l.05.17c6.48,23.44,7.48,49,2.88,73.91l-.09.49c-1.34,7.08-3.43,16.63-7.69,27.84-13.61,35.74-40.12,62.83-74.65,76.29l-3.21,1.25c-4.49,1.75-8.99,3.5-13.49,5.25l-29.6,11.52c-30.02,11.68-60.03,23.35-90.04,35.04-15.18,5.91-31.01,8.88-47.11,8.88-43.77,0-84.38-22.23-108.63-59.49-8.14-12.49-14.34-26.55-18.43-41.76-5.25-18.31-10-36.37-14.59-53.85-2.23-8.5-4.46-16.98-6.74-25.45-12.09-45.03-24.18-90.02-36.27-135.01l-53.48-198.98c-33.6-6.93-63.47-27.2-82.89-57.11-8.7-13.41-15.1-28.37-19.04-44.46-2.6-10.65-5.2-21.29-7.8-31.92-11.24-46.12-22.49-92.17-33.75-138.24-5.41-22.18-10.81-44.31-16.23-66.44l-4.92-20.17c-4.14-16.98-14.88-76.27,20.66-127.46,21.54-31.03,55.3-51.35,92.59-55.77l175.67-20.75,102.1-12.06c2.15-1.53,6.55-4.7,6.55-4.7,23.61-16.9,47.22-33.82,70.83-50.74l254.49-182.3,69.03-97.6c24.4-34.45,63.63-54.99,104.98-54.99,42.45,0,82.48,21.54,107.11,57.59,9.32,13.66,16.41,29.27,20.53,45.19l.1.33c5.08,18.54,9.68,36.84,14.13,54.55,2.16,8.61,4.32,17.21,6.52,25.79,4.27,16.57,8.53,33.14,12.79,49.71,29.29,5.33,57.24,17.03,82.27,34.58,33.33,23.38,59.22,55.62,74.88,93.25,55.75,133.93-23.18,235.49-56.26,264.49,5.63,21.93,33.66,130.93,33.66,130.93Z"/>
    <path class="cls-3" d="M1180.54,490.83c-13.46-32.34-45.14-55.45-80.63-55.24-19.49.11-38.81,7.32-53.76,19.76-.09.07-.16.16-.25.23h0c-13.62-52.99-27.25-105.98-40.88-158.97-6.79-26.42-13.16-52.99-20.39-79.3-.1-.38-.2-.76-.3-1.15-1.29-5.04-6.99-15.46-12.61-7.52-23.89,33.78-47.79,67.56-71.68,101.35-3.11,4.39-6.21,8.78-9.31,13.18-31.19,22.34-62.4,44.71-93.6,67.06-59.25,42.45-118.51,84.89-177.76,127.34-23.62,16.93-47.25,33.84-70.87,50.76-7.43,5.34-14.88,10.68-22.33,16-2.28,1.64-4.55,3.27-6.83,4.9-.79.57-2.56,1.38-3.29,2.23-1.99.11-4.04.53-6,.76-9.73,1.15-19.47,2.31-29.21,3.45-32.77,3.87-65.54,7.74-98.31,11.61-57.47,6.78-114.92,13.57-172.38,20.36-1.08.12-2.18.26-3.27.38-11.47,1.36-9.73,24.31-7.97,31.54,7.05,28.88,14.11,57.74,21.15,86.6,11.26,46.07,22.5,92.14,33.75,138.21,2.6,10.64,5.2,21.29,7.8,31.95,1.16,4.75,4.4,12.23,10.41,9.63,18.75-8.12,37.49-16.24,56.25-24.36,1.21-.53,2.43-1.05,3.64-1.58,9.12,33.96,18.25,67.9,27.37,101.85,16.66,61.99,33.33,124,49.98,185.99,14.45,53.77,28.9,107.52,43.34,161.28,6.99,26,13.55,52.18,20.98,78.07.1.36.2.73.3,1.09,1.32,4.94,4.27,12.03,10.42,9.64,39.84-15.51,79.68-31.01,119.52-46.51,5.59-2.18,11.18-4.35,16.77-6.52,3.98-1.55,5.31-8.62,5.98-12.14,1.12-6.08,1.2-12.64-.47-18.65-5.97-21.44-11.92-42.89-17.88-64.35-14.31-51.49-28.62-102.99-42.92-154.47-17.25-62.07-34.49-124.13-51.73-186.2-10.57-38.01-21.12-76.02-31.69-114.03,22.49-9.74,44.98-19.48,67.48-29.22,7.32-3.17,14.98-5.99,22.13-9.56.04.02.07.04.12.05,1.86.57,4.51.22,6.46.32,25.44,1.28,50.87,2.56,76.31,3.85,41.7,2.1,83.4,4.19,125.11,6.3,43.63,2.19,87.27,4.39,130.9,6.58,31.86,1.62,63.72,3.22,95.58,4.82,6.95.34,14.06,1.13,21.01,1.06.05,0,.14,0,.23.02,3,3.33,8.45,5.92,12.06,8.46,31.71,22.43,63.42,44.85,95.12,67.28,2.53,1.79,5.05,3.58,7.57,5.35,4.8,3.39,8.59-4.33,9.7-7.51,2.52-7.24,2.61-15.88.71-23.28-5.59-21.71-11.17-43.44-16.76-65.15-13.4-52.14-26.8-104.27-40.22-156.41-.96-3.75-1.92-7.51-2.9-11.26,2.49.22,4.98.33,7.47.33,27.26,0,53.15-13.45,69.66-35.76.19-.22.36-.47.54-.73,21.79-31.51,25.03-74.6,10.38-109.79ZM491.6,948.56c17.24,62.07,34.49,124.13,51.72,186.2,14.91,53.65,29.81,107.3,44.72,160.95,4.97,17.89,9.65,35.9,14.65,53.82-35.52,13.83-71.04,27.64-106.56,41.46-3.22,1.26-6.45,2.5-9.67,3.76-4.66-17.31-9.31-34.61-13.96-51.92-13.78-51.28-27.56-102.54-41.34-153.82-16.66-61.99-33.33-124-49.98-185.99-9.97-37.12-19.95-74.25-29.94-111.38,31.46-13.62,62.93-27.25,94.39-40.88,5.59-2.42,11.18-4.85,16.77-7.26,9.73,35.03,19.46,70.06,29.2,105.07ZM1115.73,810.3c2.87,11.15,5.6,22.37,8.36,33.57-19.65-13.91-39.32-27.8-58.97-41.71-7.31-5.18-14.63-10.34-21.95-15.52-3.71-2.63-7.41-5.88-11.42-8.08-3.55-1.95-8.42-1.41-12.37-1.6-26.57-1.34-53.15-2.68-79.73-4.02-42.35-2.13-84.69-4.27-127.04-6.4-43.52-2.19-87.05-4.38-130.57-6.57-30.72-1.55-61.44-3.09-92.16-4.64-6-.31-12.4-1.31-18.42-.94-4.06.25-8.42,2.96-12.08,4.54l-88.03,38.13s-.02.01-.04.01c-6.49,2.81-12.97,5.62-19.46,8.43-33.99,14.71-67.97,29.43-101.96,44.16-2.96,1.28-5.93,2.56-8.89,3.85-6.46,2.8-12.91,5.6-19.37,8.38-15.74,6.83-31.5,13.65-47.25,20.47-6-24.61-12.02-49.21-18.03-73.82-11.24-46.06-22.49-92.14-33.73-138.2-.18-.74-.36-1.47-.54-2.21,44.51-5.25,89.03-10.52,133.53-15.77,35.13-4.14,70.24-8.3,105.35-12.44,18.59-2.19,37.67-3.35,56.1-6.62,3.09-.55,4.67-1.89,7.16-3.67,5.55-3.97,11.1-7.94,16.64-11.92,21.05-15.08,42.1-30.16,63.15-45.24,59.34-42.51,118.68-85.01,178.01-127.52,37.7-27,75.94-53.41,113.17-81.07.41-.3.83-.59,1.23-.88.84-.38,1.68-1.07,2.53-2.18h0c.68-.76,1.27-1.6,1.79-2.51,23.39-33.06,46.78-66.12,70.17-99.19.75-1.07,1.5-2.15,2.27-3.21,3.99,15.52,7.98,31.03,11.96,46.54,13.41,52.14,26.82,104.27,40.22,156.41,16.16,62.83,32.32,125.66,48.48,188.49,13.96,54.31,27.93,108.61,41.88,162.92ZM1170.91,537.9c-.06-.43-.39,3.93-.49,4.77-.01.1-.02.16-.05.25-.15.69-.3,1.37-.47,2.06-.39,1.62-.84,3.23-1.36,4.82-.07,0-1.65,3.98-1.85,4.41-1.8,4.04-3.18,6.39-5.84,10.22-16.51,22.77-43.55,33.51-70.96,30.17-9.15-35.57-18.3-71.14-27.45-106.7,28.15-15.98,64.31-13.33,88.99,9.52,5.12,4.73,10.79,12.28,13.28,17.1.88,1.7,1.7,3.44,2.45,5.2.21.46,1.58,4.35,1.65,4.35.52,1.8.97,3.6,1.44,5.41.02.15.05.26.07.38.1.62.2,1.23.27,1.86.09,1.01.3,5.51.3,3.5.01.89.01,1.78,0,2.66Z"/>
    <path class="cls-4" d="M1170.91,535.23c.01.89.01,1.78,0,2.66-.06-.43-.39,3.93-.49,4.77-.01.1-.02.16-.05.25-.15.69-.3,1.37-.47,2.06-.39,1.62-.84,3.23-1.36,4.82-.07,0-1.65,3.98-1.85,4.41-1.8,4.04-3.18,6.39-5.84,10.22-16.51,22.77-43.55,33.51-70.96,30.17-9.15-35.57-18.3-71.14-27.45-106.7,28.15-15.98,64.31-13.33,88.99,9.52,5.12,4.73,10.79,12.28,13.28,17.1.88,1.7,1.7,3.44,2.45,5.2.21.46,1.58,4.35,1.65,4.35.52,1.8.97,3.6,1.44,5.41.02.15.05.26.07.38.1.62.2,1.23.27,1.86.09,1.01.3,5.51.3,3.5Z"/>
    <path class="cls-4" d="M602.69,1349.53c-35.52,13.83-71.04,27.64-106.56,41.46-3.22,1.26-6.45,2.5-9.67,3.76-4.66-17.31-9.31-34.61-13.96-51.92-13.78-51.28-27.56-102.54-41.34-153.82-16.66-61.99-33.33-124-49.98-185.99-9.97-37.12-19.95-74.25-29.94-111.38,31.46-13.62,62.93-27.25,94.39-40.88,5.59-2.42,11.18-4.85,16.77-7.26,9.73,35.03,19.46,70.06,29.2,105.07,17.24,62.07,34.49,124.13,51.72,186.2,14.91,53.65,29.81,107.3,44.72,160.95,4.97,17.89,9.65,35.9,14.65,53.82Z"/>
    <path class="cls-4" d="M1124.09,843.87c-19.65-13.91-39.32-27.8-58.97-41.71-7.31-5.18-14.63-10.34-21.95-15.52-3.71-2.63-7.41-5.88-11.42-8.08-3.55-1.95-8.42-1.41-12.37-1.6-26.57-1.34-53.15-2.68-79.73-4.02-42.35-2.13-84.69-4.27-127.04-6.4-43.52-2.19-87.05-4.38-130.57-6.57-30.72-1.55-61.44-3.09-92.16-4.64-6-.31-12.4-1.31-18.42-.94-4.06.25-8.42,2.96-12.08,4.54l-88.03,38.13s-.02.01-.04.01c-6.49,2.81-12.97,5.62-19.46,8.43-33.99,14.71-67.97,29.43-101.96,44.16-2.96,1.28-5.93,2.56-8.89,3.85-6.46,2.8-12.91,5.6-19.37,8.38-15.74,6.83-31.5,13.65-47.25,20.47-6-24.61-12.02-49.21-18.03-73.82-11.24-46.06-22.49-92.14-33.73-138.2-.18-.74-.36-1.47-.54-2.21,44.51-5.25,89.03-10.52,133.53-15.77,35.13-4.14,70.24-8.3,105.35-12.44,18.59-2.19,37.67-3.35,56.1-6.62,3.09-.55,4.67-1.89,7.16-3.67,5.55-3.97,11.1-7.94,16.64-11.92,21.05-15.08,42.1-30.16,63.15-45.24,59.34-42.51,118.68-85.01,178.01-127.52,37.7-27,75.94-53.41,113.17-81.07.41-.3.83-.59,1.23-.88.84-.38,1.68-1.07,2.53-2.18h0c.68-.76,1.27-1.6,1.79-2.51,23.39-33.06,46.78-66.12,70.17-99.19.75-1.07,1.5-2.15,2.27-3.21,3.99,15.52,7.98,31.03,11.96,46.54,13.41,52.14,26.82,104.27,40.22,156.41,16.16,62.83,32.32,125.66,48.48,188.49,13.96,54.31,27.93,108.61,41.88,162.92,2.87,11.15,5.6,22.37,8.36,33.57Z"/>
  </g>
</svg>