<?xml version="1.0" encoding="UTF-8"?>
<svg id="Camada_1" xmlns="http://www.w3.org/2000/svg" viewBox="0 0 1542.81 1347.74">
  <defs>
    <style>
      .cls-1 {
        fill: #626665;
      }

      .cls-2 {
        fill: #fff6eb;
      }

      .cls-3 {
        fill: #01debb;
      }
    </style>
  </defs>
  <path class="cls-1" d="M1455.71,175.13c4.59-54.15-37.57-100.89-91.91-101.87-246.68-4.45-882.9-13.38-1164.48,6.67-73.96,5.27-122.18,84.64-122.18,163.13,0,90.29,61.67,133.22,79.66,144.15-4.63,15.51-5.29,46.45-4.59,52.21-11.58,28.02-9.56,57.83-6.87,70.79,14.77,71.13,107.87,91.33,107.88,91.33.34.04.69.08,1.02.14,0,0,11.04,339.44,11.26,345.96-9.9,9.39-18.24,20.73-24.49,33.67-4.89,10.15-8.5,21.29-10.73,33.11l-.04.23c-5.13,27.67-2.26,55.41,8.32,80.21,0,0,40.69,95.46,41.63,97.66,14.83,41.47,50.29,70.51,93.12,75.32,3.81.43,780.06,16.43,817.04.29,59.15-25.81,69.4-84.11,70.25-88.77,0,0,84.36-147.64,13.38-226.87,0,0,19.23-353.67,19.89-371.61,53.1-32.05,60.74-81.21,60.59-104.11.45-1.12,16.1-59.9,18.26-65.89h0c45.94,0,83.17-37.26,83.13-83.2l-.13-152.55h0Z"/>
  <g>
    <path class="cls-3" d="M1465.32,180.17l.13,152.55c.04,45.94-37.19,83.2-83.13,83.2h0c-2.16,5.99-17.81,64.77-18.26,65.89.16,22.9-7.48,72.07-60.59,104.11-.65,17.94-19.89,371.6-19.89,371.61,70.98,79.23-13.38,226.87-13.38,226.87-.85,4.67-11.1,62.97-70.25,88.77-36.98,16.13-813.23.13-817.04-.3-42.83-4.81-78.29-33.85-93.12-75.32-.94-2.19-41.63-97.66-41.63-97.66-10.58-24.8-13.45-52.54-8.32-80.21l.04-.23c2.23-11.83,5.83-22.97,10.73-33.11,6.25-12.94,14.59-24.28,24.49-33.67-.21-6.52-11.26-345.96-11.26-345.96-.34-.05-.69-.09-1.02-.14,0,0-93.1-20.19-107.88-91.33-2.69-12.96-4.71-42.77,6.87-70.79-.71-5.76-.05-36.7,4.59-52.21-17.99-10.92-79.66-53.86-79.66-144.15,0-78.49,48.23-157.86,122.18-163.13,281.59-20.05,917.81-11.12,1164.48-6.67,54.34.98,96.5,47.72,91.91,101.87h0Z"/>
    <g>
      <g>
        <path class="cls-2" d="M260.65,312.31c-41.97,0-68.41-27.28-68.41-64.21s27.28-64.21,64.63-64.21c17.42,0,30.43,3.57,40.92,10.7l-9.02,25.18c-7.55-6.3-17.84-10.07-30.01-10.07-22.03,0-37.98,14.48-37.98,38.4,0,22.45,16.37,38.4,40.71,38.4,14.69,0,27.49-3.99,35.46-10.07l1.26,27.07c-9.23,5.88-23.08,8.81-37.56,8.81Z"/>
        <path class="cls-2" d="M385.36,261.53l32.74,48.89h-32.32l-27.49-42.18h-15.95v42.18h-27.91v-124.65h43.23c32.74,0,51.62,15.11,51.62,41.97,0,16.37-10.07,28.96-23.92,33.79ZM356.82,208.65h-14.48v37.98h14.48c14.9,0,24.34-5.88,24.34-18.89s-9.44-19.1-24.34-19.1Z"/>
        <path class="cls-2" d="M456.16,310.42h-27.91v-124.65h27.91v124.65Z"/>
        <path class="cls-2" d="M558.59,310.42l-10.7-30.43h-43.86l-10.7,30.43h-28.33l45.54-124.65h32.32l45.33,124.65h-29.59ZM530.68,229.42c-1.89-5.46-3.15-10.07-4.2-15.11h-1.05c-1.05,5.04-2.31,9.65-4.2,15.11l-10.28,28.54h29.8l-10.07-28.54Z"/>
        <path class="cls-2" d="M611.07,310.42v-99.68h-35.67v-24.97h100.31l-2.1,24.97h-34.62v99.68h-27.91Z"/>
        <path class="cls-2" d="M712.94,310.42h-27.91v-124.65h27.91v124.65Z"/>
        <path class="cls-2" d="M799.23,310.42h-32.32l-44.49-124.65h29.8l26.86,78.69c1.68,5.46,3.15,11.54,4.2,16.37h.84c1.05-4.83,2.52-10.91,4.2-16.37l26.86-78.69h28.54l-44.49,124.65Z"/>
        <path class="cls-2" d="M881.46,310.42h-27.91v-124.65h27.91v124.65Z"/>
        <path class="cls-2" d="M947.73,310.42h-44.49v-124.65h44.49c42.6,0,69.04,25.6,69.04,62.32s-26.65,62.32-69.04,62.32ZM947.73,209.28h-16.79v77.64h16.79c24.76,0,40.08-14.69,40.08-38.82s-15.53-38.82-40.08-38.82Z"/>
        <path class="cls-2" d="M1108.34,310.42l-10.7-30.43h-43.86l-10.7,30.43h-28.33l45.54-124.65h32.32l45.33,124.65h-29.59ZM1080.44,229.42c-1.89-5.46-3.15-10.07-4.2-15.11h-1.05c-1.05,5.04-2.31,9.65-4.2,15.11l-10.28,28.54h29.8l-10.07-28.54Z"/>
        <path class="cls-2" d="M1191.61,310.42h-44.49v-124.65h44.49c42.6,0,69.04,25.6,69.04,62.32s-26.65,62.32-69.04,62.32ZM1191.61,209.28h-16.79v77.64h16.79c24.76,0,40.08-14.69,40.08-38.82s-15.53-38.82-40.08-38.82Z"/>
        <path class="cls-2" d="M1356.88,210.54h-53.3v24.97h43.86v24.13h-43.86v26.02h56.45v24.76h-84.36v-124.65h83.31l-2.1,24.76Z"/>
      </g>
      <g>
        <path class="cls-2" d="M277.69,502.12c-4.1-1.72-7.99-4.05-11.65-6.96-3.67-2.91-6.04-5.34-7.12-7.28,0-1.94.32-3.29.97-4.05.65-.75,2.53-1.08,5.67-.97,3.13.11,8.26.6,15.38,1.46,2.59,0,5.83-.21,9.71-.65,3.88-.43,7.5-1.08,10.84-1.94,3.34-.86,5.23-1.94,5.67-3.24,1.08,0,1.29-.37.65-1.13-.65-.75-1.41-1.56-2.27-2.43-.86,0-1.84-.38-2.91-1.13-1.08-.75-2.05-1.13-2.91-1.13,0-1.08-1.03-2.32-3.08-3.72-2.05-1.4-4.16-2.53-6.31-3.4-4.75-3.88-8.85-7.39-12.3-10.52-3.45-3.13-4.75-5.23-3.88-6.31v-1.62c-1.51,0-3.19-2.16-5.02-6.47-1.84-4.31-2.75-8.2-2.75-11.65,0-2.59.75-5.88,2.27-9.87,1.51-3.99,3.56-8.14,6.15-12.46,2.59-4.31,5.29-7.88,8.09-10.68,3.88-3.67,8.74-7.61,14.57-11.82,5.83-4.21,11.6-7.98,17.32-11.33,5.72-3.34,10.52-5.55,14.41-6.64,3.88-1.51,7.5-2.27,10.84-2.27s6.31.76,8.9,2.27c2.15,1.08,4.15,2.65,5.99,4.69,1.83,2.05,3.45,4.1,4.86,6.15,1.4,2.05,2.32,3.83,2.75,5.34,0,2.59-.22,5.45-.65,8.58-.43,3.13-1.03,5.88-1.78,8.26-.76,2.38-1.89,3.56-3.4,3.56-1.08.22-1.62.87-1.62,1.94,0,2.16-1.62,4.64-4.86,7.45-4.1,2.81-7.66,4.48-10.68,5.02-3.02.54-4.86-.59-5.5-3.4-.65-.86-1.08-1.62-1.29-2.27-.22-.65-.76-.97-1.62-.97-1.29-1.29-1.94-2.7-1.94-4.21,0-.86.65-2.05,1.94-3.56,1.08,0,2.48-1.24,4.21-3.72,1.73-2.48,3.29-5.18,4.69-8.09,1.4-2.91,2.1-4.91,2.1-5.99,0-1.29-.16-2.05-.49-2.27-.32-.21-1.35-.32-3.08-.32-3.02,1.29-6.69,3.02-11.01,5.18-4.32,2.16-8.37,4.26-12.14,6.31-3.78,2.05-6.53,3.94-8.26,5.67-.86,1.51-1.41,2.43-1.62,2.75-.22.32-.76.49-1.62.49,0-.86-.7-.49-2.1,1.13-1.41,1.62-3.13,3.83-5.18,6.64-2.05,2.81-4,5.56-5.83,8.26-1.84,2.7-3.19,4.69-4.05,5.99-.43.43-.92,1.67-1.46,3.72-.54,2.05-.81,3.94-.81,5.67-.86,2.59-.76,4.37.32,5.34,1.08.97,3.45,2.97,7.12,5.99,7.55,5.61,13.49,10.25,17.8,13.92,4.31,3.67,7.55,6.69,9.71,9.06,2.15,2.38,3.45,4.53,3.88,6.47,3.88,6.47,5.07,11.44,3.56,14.89-1.51,3.46-5.18,6.47-11.01,9.06-2.16,1.08-5.72,1.94-10.68,2.59-4.97.65-10.04,1.02-15.22,1.13-5.18.11-9.28-.06-12.3-.49Z"/>
        <path class="cls-2" d="M366.91,495.97c-2.81,0-5.02-.54-6.64-1.62-1.62-1.08-3.62-2.59-5.99-4.53-4.1-4.31-7.02-8.47-8.74-12.46-1.73-3.99-2.27-7.82-1.62-11.49.65-1.72.86-4.21.65-7.45-1.08-1.08-1.41-1.78-.97-2.1.43-.32.86-.91,1.29-1.78,1.29,0,1.72-1.18,1.29-3.56-.43-1.72.43-5.5,2.59-11.33,2.15-5.83,4.86-11.33,8.09-16.51,1.29-2.16,3.24-5.02,5.83-8.58,2.59-3.56,5.45-7.12,8.58-10.68,3.13-3.56,5.99-6.42,8.58-8.58,5.39-4.53,10.14-7.88,14.24-10.04,4.1-2.16,8.52-3.77,13.27-4.86,4.74-1.08,8.04-1.62,9.87-1.62s4.37,1.73,7.61,5.18c4.96,2.16,8.58,4.75,10.84,7.77,2.27,3.02,3.72,7.45,4.37,13.27.65,6.47.16,13.87-1.46,22.18-1.62,8.31-6.75,18.61-15.38,30.92-5.4,7.77-10.36,13.55-14.89,17.32-4.53,3.78-9.93,7.5-16.19,11.17-4.53,3.02-8.63,5.24-12.3,6.64-3.67,1.41-7.99,2.32-12.95,2.75ZM397.99,461.66c5.18-5.83,9.33-11.33,12.46-16.51,3.13-5.18,6.1-11.76,8.9-19.75.86-2.37,1.4-5.34,1.62-8.9.21-3.56.16-6.9-.16-10.04-.32-3.13-1.13-4.91-2.43-5.34-2.59-1.51-5.72-1.99-9.39-1.46-3.67.54-7.66,2.65-11.98,6.31-6.69,5.61-12.52,12.57-17.48,20.88-4.97,8.31-9.82,17.75-14.57,28.33-3.24,7.77-3.94,13.98-2.1,18.62,1.83,4.64,5.83,6.26,11.98,4.86,6.15-1.4,13.86-7.07,23.15-17Z"/>
        <path class="cls-2" d="M459.79,491.11c-2.81.65-5.4.65-7.77,0-2.38-.65-4.53-1.72-6.47-3.24-1.94-1.51-3.67-3.02-5.18-4.53-1.51-1.73-1.94-3.29-1.29-4.69.65-1.4,1.72-2.1,3.24-2.1.86,0,1.46-.92,1.78-2.75.32-1.83.7-5.23,1.13-10.2.43-3.02,1.02-5.67,1.78-7.93.75-2.27,1.13-3.83,1.13-4.69.21-.65.49-2.43.81-5.34.32-2.91.92-5.45,1.78-7.61.86-3.88,2.15-8.9,3.88-15.05,1.72-6.15,3.51-12.19,5.34-18.13,1.83-5.93,3.29-10.52,4.37-13.76.43-2.37,1.4-5.39,2.91-9.06,1.51-3.67,2.8-6.58,3.88-8.74,2.16-6.04,5.02-13.27,8.58-21.69,3.56-8.42,7.17-16.83,10.84-25.25,3.67-8.42,6.96-15.59,9.87-21.53,2.91-5.93,4.8-9.55,5.67-10.84,1.73-1.73,3.83-2.48,6.31-2.27,2.48.22,4.91,1.51,7.28,3.88,1.94,2.38,2.8,4.91,2.59,7.61-.22,2.7-1.62,5.56-4.21,8.58-.86,1.51-1.84,3.4-2.91,5.67-1.08,2.27-2.16,4.16-3.24,5.67-1.73,5.18-3.83,10.25-6.31,15.22-2.48,4.97-5.13,10.52-7.93,16.67-2.81,6.15-5.83,13.76-9.06,22.82-1.94,4.1-3.56,8.15-4.86,12.14-1.29,4-2.38,6.53-3.24,7.61-1.29,4.75-2.91,9.66-4.86,14.73-1.94,5.07-3.35,10.2-4.21,15.38,4.53-4.31,8.42-8.09,11.65-11.33,8.42-9.06,16.88-16.51,25.41-22.34,8.52-5.83,15.59-8.85,21.2-9.06,3.02-.21,6.31.54,9.87,2.27,3.56,1.73,6.85,3.83,9.87,6.31,3.02,2.48,5.07,5.13,6.15,7.93,1.72,3.88,2.43,8.04,2.1,12.46-.32,4.43-1.62,9.06-3.88,13.92-2.27,4.86-5.34,9.77-9.23,14.73-2.38,4.1-5.24,8.04-8.58,11.82-3.35,3.78-6.21,6.53-8.58,8.26-2.16,1.94-4.26,3.83-6.31,5.67-2.05,1.84-3.72,3.29-5.02,4.37-2.81,1.94-5.07,3.4-6.8,4.37-1.73.97-4.1,2-7.12,3.08-4.53,3.24-10.79,5.61-18.78,7.12-7.99,1.51-15.86,2.81-23.63,3.88ZM468.2,474.6c1.51,0,4.26-.32,8.26-.97,3.99-.65,7.71-2.27,11.17-4.86,10.14-5.18,18.88-11.6,26.22-19.26,7.33-7.66,12.89-15.32,16.67-22.98,3.77-7.66,5.45-13.97,5.02-18.94-.43-4.96-4.21-6.04-11.33-3.24-7.12,2.81-15.76,9.28-25.9,19.42-4.75,4.32-9.23,8.9-13.43,13.76-4.21,4.86-8.15,9.44-11.82,13.76-1.51,2.38-2.75,4.43-3.72,6.15-.97,1.73-1.57,3.46-1.78,5.18-1.73,7.99-1.51,11.98.65,11.98Z"/>
        <path class="cls-2" d="M640.42,484.96c-2.38-1.51-4.53-3.51-6.47-5.99-1.94-2.48-2.91-5.67-2.91-9.55,0-2.16.43-5.83,1.29-11.01.86-5.18,2.05-11.01,3.56-17.48,1.51-6.47,3.02-12.51,4.53-18.13,2.15-3.88,3.99-7.77,5.5-11.65,1.51-3.88,2.27-6.26,2.27-7.12.43-2.59,1.02-5.61,1.78-9.06.75-3.45,1.56-6.58,2.43-9.39.86-2.8,1.51-4.42,1.94-4.86,1.08-1.08,2.37-1.78,3.88-2.1,1.51-.32,3.08-.11,4.69.65,1.62.76,2.86,2.22,3.72,4.37,2.37,2.59,3.56,5.67,3.56,9.23s-1.19,8.8-3.56,15.7c-1.94,4.32-3.88,9.39-5.83,15.22-1.94,5.83-3.62,11.17-5.02,16.03-1.41,4.86-2.22,8.15-2.43,9.87l-6.47,1.94c3.67-3.45,7.12-7.07,10.36-10.85,3.24-3.77,5.61-6.74,7.12-8.9,3.67-4.96,6.85-9.12,9.55-12.46,2.7-3.34,6.2-7.39,10.52-12.14,4.31-4.96,8.58-8.04,12.79-9.23,4.21-1.18,7.5-1.78,9.87-1.78,4.74.87,8.58,3.29,11.49,7.28,2.91,4,4.8,9.87,5.67,17.64,0,3.02-.54,8.63-1.62,16.83,7.12-9.06,13.7-16.29,19.75-21.69,4.1-3.02,8.09-4.8,11.98-5.34,3.88-.54,7.33.81,10.36,4.05,5.61,3.02,9.28,7.61,11.01,13.76,1.72,6.15,2.15,13.98,1.29,23.47-.65,5.61-.76,9.77-.32,12.46.43,2.7,1.08,5.34,1.94,7.93,1.72.87,2.05,2.65.97,5.34-1.08,2.7-2.38,4.05-3.88,4.05-2.16,0-4.59-.43-7.28-1.29-2.7-.86-5.07-2.32-7.12-4.37-2.05-2.05-3.08-4.91-3.08-8.58v-20.07c0-4.74-.16-8.63-.49-11.65-.32-3.02-.92-4.86-1.78-5.5-2.38-1.29-5.83.11-10.36,4.21-4.53,4.1-9.39,9.61-14.57,16.51-5.18,6.91-10.04,14.03-14.57,21.37-4.1,6.69-6.64,10.52-7.61,11.49-.97.97-2.65.7-5.02-.81-4.75-1.51-7.72-3.61-8.9-6.31-1.19-2.7-1.35-5.77-.49-9.23,1.08-3.67,2.43-8.63,4.05-14.89,1.62-6.26,3.18-12.35,4.69-18.29,1.51-5.93,2.48-10.2,2.91-12.79-.87-1.73-2.32-2.32-4.37-1.78-2.05.54-4.16,1.57-6.31,3.08-2.59,1.73-5.72,4.97-9.39,9.71-3.67,4.75-7.45,10.25-11.33,16.51-2.59,4.1-5.29,8.15-8.09,12.14-2.81,4-5.4,7.5-7.77,10.52-2.38,3.03-4.43,5.29-6.15,6.8-3.02,4.75-5.07,7.34-6.15,7.77-1.08.43-3.13-.11-6.15-1.62Z"/>
        <path class="cls-2" d="M812.58,501.8c-9.5,0-17.27-3.61-23.31-10.85-6.04-7.23-8.96-16.24-8.74-27.03.43-7.77,1.99-16.13,4.69-25.09,2.7-8.95,6.31-17.59,10.85-25.9,4.53-8.31,9.49-15.59,14.89-21.85,5.39-6.26,11.01-10.68,16.83-13.27,2.15-1.08,4.48-1.94,6.96-2.59,2.48-.65,5.02-.97,7.61-.97,2.37,0,4.86.38,7.45,1.13,2.59.76,4.74,1.57,6.47,2.43,3.67,1.51,6.47,3.35,8.42,5.5,1.94,2.16,3.67,5.5,5.18,10.04.65,4.1.97,7.02.97,8.74s-.54,4.32-1.62,7.77c-2.59,7.77-5.94,14.46-10.04,20.07-4.1,5.61-9.61,10.36-16.51,14.24-1.73,1.08-3.72,1.89-5.99,2.43-2.27.54-4.59.81-6.96.81-4.32,0-8.47-.81-12.46-2.43-4-1.62-7.18-4.05-9.55-7.28l-2.27-2.59-.97,2.59c-2.16,5.83-3.83,11.22-5.02,16.19-1.19,4.97-1.78,9.5-1.78,13.6,0,2.59.27,5.07.81,7.45.54,2.38,1.35,4.43,2.43,6.15.86,1.29,2.32,2.21,4.37,2.75,2.05.54,4.26.81,6.64.81,1.51,0,3.08-.05,4.69-.16,1.62-.11,3.18-.49,4.69-1.13,3.67-1.29,6.64-2.7,8.9-4.21,2.27-1.51,4.58-3.13,6.96-4.86l1.29-.65h-.32c2.59-1.29,5.93-3.24,10.04-5.83.86,0,1.73-.54,2.59-1.62,1.72-.86,3.94-.54,6.64.97,2.7,1.51,4.05,3.45,4.05,5.83-.22,1.08-1.19,2.75-2.91,5.02-1.73,2.27-3.62,4.37-5.67,6.31-2.05,1.94-3.72,3.02-5.02,3.24-.22.22-.97.6-2.27,1.13-1.29.54-2.16,1.03-2.59,1.46h.32c-1.94,2.59-3.88,3.88-5.83,3.88h-2.59c-.86,1.51-3.67,3.19-8.42,5.02-4.75,1.83-9.39,2.75-13.92,2.75ZM827.15,430.58c3.88,0,7.28-1.13,10.2-3.4,2.91-2.27,5.45-4.8,7.61-7.61,4.31-5.83,6.85-11.49,7.61-17,.75-5.5.05-9.33-2.1-11.49-1.29-.65-2.43-1.02-3.4-1.13-.97-.11-2.86.27-5.67,1.13-1.94.43-4.64,2.05-8.09,4.86-3.45,2.81-6.85,5.94-10.2,9.39-3.35,3.45-5.88,6.37-7.61,8.74l-4.21,6.8c1.72-.65,3.4-1.02,5.02-1.13,1.62-.11,2.53.06,2.75.49,0,1.94.37,3.72,1.13,5.34.75,1.62,1.73,2.86,2.91,3.72,1.18.87,2.53,1.29,4.05,1.29Z"/>
        <path class="cls-2" d="M950.49,506.98c-2.81.65-5.13.27-6.96-1.13-1.84-1.41-3.19-3.4-4.05-5.99-1.73-4.96-2.97-10.41-3.72-16.35-.76-5.93-.92-11.17-.49-15.7l.65-6.8-12.63,10.04c-7.34,6.47-14.41,11.12-21.2,13.92-6.8,2.81-12.79,4.21-17.97,4.21-2.38-.43-4.75-1.29-7.12-2.59-2.38-1.29-4.48-2.91-6.31-4.86-1.84-1.94-3.29-3.99-4.37-6.15-1.29-3.02-1.67-7.12-1.13-12.3.54-5.18,1.83-10.84,3.88-17,2.05-6.15,4.64-12.19,7.77-18.13,3.13-5.93,6.74-11.17,10.85-15.7,7.12-10.79,14.78-17.37,22.98-19.75,8.2-2.37,16.29-1.18,24.28,3.56,5.61,2.38,9.11,3.46,10.52,3.24,1.4-.21,2.64-2.7,3.72-7.45.86-3.45,1.73-6.96,2.59-10.52.86-3.56,2.27-8.36,4.21-14.41,5.39-16.4,10.09-29.24,14.08-38.52,3.99-9.28,7.61-17.37,10.84-24.28,2.37-4.96,4.37-8.04,5.99-9.23,1.62-1.18,3.29-1.67,5.02-1.46,2.37,0,4.53.87,6.47,2.59,1.94,1.73,3.45,4.1,4.53,7.12.86,1.94,1.24,3.62,1.13,5.02-.11,1.41-.81,3.29-2.1,5.67-2.81,5.18-6.1,12.03-9.87,20.56-3.78,8.53-7.56,17.86-11.33,28-3.78,10.15-7.28,20.18-10.52,30.11-3.24,9.93-5.94,18.67-8.09,26.22-1.29,4.75-2.43,10.79-3.4,18.13-.97,7.34-1.78,14.84-2.43,22.5-.65,7.66-1.03,14.46-1.13,20.39-.11,5.94.05,9.77.49,11.49,1.29,4.32,1.89,7.56,1.78,9.71-.11,2.16-.7,3.61-1.78,4.37-1.08.75-2.81,1.24-5.18,1.46ZM895.78,471.04c3.02-.65,5.99-1.83,8.9-3.56,2.91-1.72,5.99-3.77,9.23-6.15,6.47-4.96,12.08-9.49,16.83-13.6,4.74-4.1,7.88-10.36,9.39-18.78.43-4.1.05-7.39-1.13-9.87-1.19-2.48-3.08-4.8-5.67-6.96-2.59-1.72-6.1-2.43-10.52-2.1-4.43.32-9.01,2.65-13.76,6.96-5.18,4.75-10.2,11.12-15.05,19.1-4.86,7.99-8.47,17.81-10.85,29.46-.43,2.16.21,3.88,1.94,5.18,1.72,1.29,5.29,1.41,10.68.32Z"/>
        <path class="cls-2" d="M976.41,484.96c-.86,0-2.48-.54-4.86-1.62,0-.86-.27-1.94-.81-3.24-.54-1.29-.81-2.37-.81-3.24-1.51-.86-2.38-1.78-2.59-2.75-.22-.97.11-2.64.97-5.02,1.29-2.15,3.02-5.67,5.18-10.52,2.15-4.86,4.42-10.14,6.8-15.86,2.37-5.72,4.64-11.38,6.8-17,2.15-5.61,3.99-10.41,5.5-14.41,1.51-3.99,2.37-6.42,2.59-7.28,0-.86.32-1.94.97-3.24.65-1.29,1.4-2.37,2.27-3.24,1.73-1.51,3.56-1.67,5.5-.49,1.94,1.19,3.61,3.13,5.02,5.83,1.4,2.7,2.1,5.67,2.1,8.9,0,1.51-1.08,5.34-3.24,11.49-2.16,6.15-5.02,13.43-8.58,21.85-3.56,8.42-7.5,16.95-11.82,25.58-3.24,6.26-5.29,10.2-6.15,11.82-.86,1.62-2.48,2.43-4.86,2.43ZM1024,362.27c-2.59,0-5.34-1.02-8.26-3.08-2.91-2.05-5.4-4.64-7.45-7.77-2.05-3.13-3.08-6.31-3.08-9.55,0-1.08.65-2.59,1.94-4.53,1.29-1.94,2.59-3.88,3.88-5.83,1.29-1.94,1.94-3.13,1.94-3.56,1.73,0,3.08.06,4.05.16.97.11,2.21.6,3.72,1.46,2.37,5.4,5.34,9.82,8.9,13.27,3.56,3.46,5.34,6.37,5.34,8.74,0,4.75-.43,7.72-1.29,8.9-.87,1.19-4.1,1.78-9.71,1.78Z"/>
        <path class="cls-2" d="M1083.28,497.59c-.86,0-2.1-.16-3.72-.49-1.62-.32-2.97-1.24-4.05-2.75-3.24-3.88-5.29-7.12-6.15-9.71-.86-2.59-.97-6.36-.32-11.33.43-3.24.7-6.09.81-8.58.11-2.48.27-4.58.49-6.31-.86-.86-2.43-.27-4.69,1.78-2.27,2.05-5.34,4.59-9.23,7.61-7.34,8.42-13.87,14.84-19.59,19.26-5.72,4.43-10.84,7.34-15.38,8.74-4.53,1.41-8.85,1.89-12.95,1.46-3.67-.43-6.59-1.99-8.74-4.69-2.16-2.7-3.51-6.2-4.05-10.52-.54-4.31-.6-8.95-.16-13.92.86-7.12,2.43-13.92,4.69-20.4,2.27-6.47,5.99-13.7,11.17-21.69,2.37-4.31,5.55-8.58,9.55-12.79,3.99-4.21,8.42-7.98,13.27-11.33,4.86-3.34,9.55-5.77,14.08-7.28,4.96-1.94,10.04-3.08,15.22-3.4,5.18-.32,9.82.16,13.92,1.46,2.59,1.29,4.69,1.94,6.31,1.94s2.86-1.08,3.72-3.24c1.08-1.72,2.15-4.37,3.24-7.93,1.08-3.56,2.37-6.64,3.88-9.23l7.12-21.04c2.37-5.83,4.96-11.98,7.77-18.45,2.8-6.47,6.15-14.35,10.04-23.63,3.67-6.9,6.69-10.95,9.06-12.14,2.37-1.18,5.07-.27,8.09,2.75,2.37,2.81,3.24,5.99,2.59,9.55-.65,3.56-2.59,9.23-5.83,17-1.51,2.38-2.81,4.59-3.88,6.64-1.08,2.05-2.59,5.23-4.53,9.55-2.81,6.69-5.4,12.68-7.77,17.97-2.38,5.29-4.86,11.28-7.45,17.97-.86,3.46-2,7.45-3.4,11.98-1.41,4.53-2.54,8.63-3.4,12.3-.65,3.46-1.35,6.64-2.1,9.55-.76,2.91-1.57,4.37-2.43,4.37-1.73,1.94-3.35,5.34-4.86,10.2-1.51,4.86-2.75,9.87-3.72,15.05-.97,5.18-1.78,9.5-2.43,12.95-.43,2.59-.76,5.94-.97,10.04-.22,4.1-.32,8.04-.32,11.82v7.93c0,4.75-.11,7.77-.32,9.06-.22,1.29-1.08,1.94-2.59,1.94ZM1014.32,477.19c4.53,0,9.33-1.94,14.41-5.83,5.07-3.88,10.2-8.2,15.38-12.95,3.24-3.02,6.74-7.01,10.52-11.98,3.77-4.96,7.45-9.92,11.01-14.89,3.56-4.96,6.42-9.33,8.58-13.11,2.16-3.77,3.24-6.09,3.24-6.96,0-1.08-.97-1.83-2.91-2.27-1.94-.43-4.16-.7-6.64-.81-2.48-.11-4.48.06-5.99.49-4.75,1.08-9.44,3.24-14.08,6.47-4.64,3.24-9.66,8.09-15.05,14.57-5.61,6.91-10.2,14.03-13.76,21.37-3.56,7.34-5.78,13.49-6.64,18.45-.86,4.97-.22,7.45,1.94,7.45Z"/>
        <path class="cls-2" d="M1106.16,489.17c-.86-1.73-1.94-3.08-3.24-4.05-1.29-.97-1.94-1.89-1.94-2.75s-.06-1.78-.16-2.75c-.11-.97-.6-1.89-1.46-2.75-1.08-1.29-.97-4.26.32-8.9,1.29-4.64,3.45-10.36,6.47-17.16,3.02-6.8,6.58-13.97,10.68-21.53,1.72-1.72,3.45-3.99,5.18-6.8,1.73-2.8,3.02-4.64,3.88-5.5,0-.86.32-1.67.97-2.43.65-.75,1.4-1.13,2.27-1.13v-1.94c0-1.08,1.02-2.91,3.08-5.5,2.05-2.59,4.58-5.45,7.61-8.58,3.02-3.13,6.15-6.15,9.39-9.06,3.24-2.91,5.93-5.02,8.09-6.31,4.53-3.02,9.23-4.86,14.08-5.5,4.86-.65,9.01.44,12.46,3.24.65.65,1.73,1.73,3.24,3.24,1.51,1.51,3.29,3.19,5.34,5.02,2.05,1.84,4.15,3.72,6.31,5.67l11.98,10.68-5.83,16.19c-2.81,8.63-3.51,16.19-2.1,22.66,1.4,6.47,3.51,12.09,6.31,16.83,1.08,2.38,3.29,4.64,6.64,6.8,3.34,2.16,6.52,3.45,9.55,3.88,1.73.22,3.34.86,4.86,1.94,1.51,1.08,2.27,2.81,2.27,5.18,0,2.16-.43,3.88-1.29,5.18-.87,1.29-2.38,2.16-4.53,2.59-7.12.87-13.76-.86-19.91-5.18-6.15-4.31-11.82-11.44-17-21.37-.86-1.29-2-3.72-3.4-7.28-1.41-3.56-2.22-5.88-2.43-6.96-.86,1.08-2.48,3.08-4.86,5.99-2.38,2.91-4.21,5.02-5.5,6.31-15.33,15.54-28.54,25.95-39.66,31.24-11.12,5.29-20.34,5.56-27.68.81ZM1124.77,470.88c4.64-1.62,9.66-4.58,15.05-8.9,7.33-6.26,14.73-13.16,22.18-20.72,7.45-7.55,13.43-14.57,17.97-21.04l7.12-11.65c-2.16-4.96-4.48-8.36-6.96-10.2-2.48-1.83-4.59-2.75-6.31-2.75-2.81,0-6.96,2.59-12.46,7.77-5.5,5.18-11.39,12.09-17.64,20.72-6.26,8.63-12.2,18.13-17.8,28.49-2.16,4.32-4.86,10.47-8.09,18.45,0,1.51,2.32,1.46,6.96-.16Z"/>
        <path class="cls-2" d="M1245.33,497.59c-4.1,1.51-7.5,2.21-10.2,2.1-2.7-.11-5.67-1.35-8.9-3.72-4.1-3.88-5.45-7.82-4.05-11.82,1.4-3.99,4.91-7.93,10.52-11.82,3.88-2.37,6.74-3.67,8.58-3.88,1.83-.21,4.69.54,8.58,2.27,6.47,4.1,9.33,8.63,8.58,13.6-.76,4.97-5.13,9.39-13.11,13.27ZM1262.81,445.79c-6.04,1.08-10.04-1.83-11.98-8.74-1.94-6.9-1.41-16.4,1.62-28.49,1.29-2.59,2.37-5.12,3.24-7.61.86-2.48,1.29-4.48,1.29-5.99.86-2.8,1.99-6.1,3.4-9.87,1.4-3.77,2.86-7.34,4.37-10.68,1.51-3.34,2.59-5.55,3.24-6.64.86,0,1.78-.75,2.75-2.27.97-1.51,1.46-3.02,1.46-4.53,0-1.72.37-3.67,1.13-5.83.75-2.15,1.56-3.67,2.43-4.53,0-1.08.43-2.27,1.29-3.56.86-1.29,1.29-2.37,1.29-3.24s.27-1.62.81-2.27c.54-.65.81-1.4.81-2.27,1.94-3.45,4.48-8.58,7.61-15.38,3.13-6.8,6.26-13.97,9.39-21.53,3.13-7.55,5.77-14.24,7.93-20.07,2.15-5.83,3.24-9.39,3.24-10.68.43-1.73,1.08-3.02,1.94-3.88.86-.86,2.15-1.08,3.88-.65.86-.65,1.72-1.02,2.59-1.13.86-.11,1.72-.16,2.59-.16,1.51,1.73,3.02,3.46,4.53,5.18,1.72,1.51,2.7,3.24,2.91,5.18.21,1.94.32,4.21.32,6.8-.22,4.1-1.73,8.74-4.53,13.92-2.81,5.18-5.94,10.9-9.39,17.16-2.16,4.1-4.26,7.99-6.31,11.65-2.05,3.67-3.08,5.94-3.08,6.8s-.43,2.16-1.29,3.88c-.86,1.73-1.84,3.88-2.91,6.47-1.29,2.16-2.7,4.75-4.21,7.77-1.51,3.02-2.86,5.78-4.05,8.26-1.19,2.48-1.78,4.05-1.78,4.69-.22.87-.49,1.73-.81,2.59-.32.87-.92,1.73-1.78,2.59-.86,0-1.41,1.19-1.62,3.56,0,.87-.49,2.86-1.46,5.99-.97,3.13-2.54,6.85-4.69,11.17-4.1,11.44-7.02,20.56-8.74,27.35-1.73,6.8-2.81,12.57-3.24,17.32-.44,5.18-.81,8.2-1.13,9.06-.32.87-1.35,1.73-3.08,2.59Z"/>
      </g>
    </g>
    <path class="cls-2" d="M1208.71,1037.24c-.63-3.43-2.46-11.04-7.22-11.02-7.56.01-15.13.03-22.69.04-1.51,0-3.03.01-4.54.01,1.17-21.79,2.33-43.58,3.49-65.37,2.99-55.94,5.97-111.89,8.96-167.83,2.58-48.34,5.16-96.68,7.74-145.01,1.24-23.41,3.02-46.84,3.76-70.27.01-.34.03-.66.05-1,.23-4.41-1.19-17.97-7.89-17.93-7.25.03-14.49.06-21.74.09-19.73.09-39.44.18-59.16.26-29.18.13-58.35.26-87.52.39-35.6.16-71.2.32-106.79.47-39,.17-78,.35-116.99.52-39.38.18-78.75.35-118.12.53-36.72.16-73.45.33-110.17.49-31.16.14-62.33.28-93.5.42-22.3.09-44.59.19-66.89.3-10.51.04-21.2-.51-31.69.14-.44.03-.9.01-1.35.01-6.8.03-8.03,13.79-7.89,17.93.61,18.76,1.22,37.52,1.84,56.28,1.45,44.7,2.9,89.39,4.36,134.07,1.77,54.38,3.54,108.77,5.31,163.15,1.01,31.3,2.04,62.61,3.06,93.91-10.25-.03-20.65-.5-30.87.08-.49.02-.97,0-1.45,0-4.76.01-6.6,7.76-7.22,11.02-1.18,6.37-.94,13.56,1.64,19.59,12.95,30.38,25.9,60.77,38.85,91.15,1.51,3.55,3.03,7.11,4.55,10.67,1,3.9,2.84,7.37,6.14,7.72.17.02.34.03.51.03,6.82.08,13.63.16,20.44.23,18.43.21,36.86.42,55.3.63,27.23.32,54.47.62,81.7.94,33.39.38,66.78.76,100.18,1.14,36.4.41,72.8.83,109.21,1.24,36.92.42,73.85.84,110.77,1.27,34.26.39,68.53.78,102.8,1.17,28.97.34,57.94.66,86.91.99,20.94.24,41.88.49,62.81.72,9.81.12,19.84.86,29.64.34.43-.02.87.01,1.3.02,1.12.01,2.15-.57,3.03-1.4h.03c6.73.13,7.62-12.85,7.86-17.42,11.39-28.91,22.78-57.81,34.17-86.72,1.89-4.8,3.78-9.6,5.67-14.4,2.44-6.18,2.84-13.09,1.64-19.59ZM398.19,598.24c19.72-.09,39.44-.18,59.16-.26,29.17-.14,58.35-.26,87.52-.39,35.59-.16,71.2-.32,106.79-.47,39-.18,77.99-.35,116.99-.52,39.37-.18,78.74-.36,118.11-.53,36.72-.17,73.45-.33,110.17-.49,31.17-.15,62.34-.28,93.5-.42,22.3-.1,44.6-.2,66.9-.3,8.01-.03,16.13.27,24.18.14-.71,13.3-1.42,26.61-2.13,39.9-2.47,46.14-4.93,92.28-7.4,138.42-2.99,55.94-5.97,111.89-8.96,167.83-1.51,28.39-3.03,56.77-4.55,85.16-.63,11.95-1.28,23.92-1.92,35.87-.42,8-.84,15.99-1.28,23.99-.94,17.71-2.29,35.47-3.12,53.21-.02.5-.04.99-.06,1.48-5.41-.06-10.81-.12-16.23-.18-18.43-.21-36.86-.42-55.3-.63-27.23-.32-54.47-.62-81.7-.94-33.39-.38-66.78-.76-100.18-1.14-36.4-.41-72.8-.83-109.21-1.25-36.92-.42-73.85-.84-110.77-1.27-34.26-.39-68.53-.78-102.8-1.17-28.97-.34-57.94-.67-86.91-.99-20.94-.24-41.88-.49-62.81-.72-7.91-.09-15.96-.6-23.92-.52-.07-2.19-.15-4.39-.22-6.58-.41-12.75-.83-25.51-1.24-38.25-.25-7.85-.51-15.7-.77-23.55-.38-11.96-.77-23.93-1.16-35.88-.81-24.89-1.61-49.77-2.43-74.65l-5.32-163.15c-1.52-46.71-3.04-93.43-4.56-140.15-.56-17.13-.63-34.38-1.32-51.56,4.3-.01,8.61-.03,12.91-.05Z"/>
    <path class="cls-2" d="M695.19,884.41c8.64,10.07,19.14,18.31,29.63,26.34,10.44,7.99,20.74,16.88,34.64,12.33,12.45-4.07,22.09-16.14,30.88-25.38,11.73-12.35,22.73-25.36,33.19-38.8,3.69-4.75,3.6-12.88,2.13-18.4-.94-3.54-4.35-9.65-8.1-4.83-14.43,18.56-29.86,37.46-47.53,53.09-8.2,7.24-18.06,11.94-28.31,5.99-10.59-6.16-20.6-14.77-29.82-22.81-8.34-7.28-15.03-15.73-21.14-24.93-3.18-4.78-6.54-9.6-8.69-14.95-.85-2.12-.3-.42-.91-2.6-.01-.04-.17-.78-.26-1.16v-.02c-.02-.38-.05-1.07-.07-1.65.05-.6.14-1.56.2-2.29.08,0,.81-3.51,1-4.11,1.24-3.8,4.66-9.37,8.25-12.92,8.52-8.44,21.17-13.03,33.09-11.28,4.04.59,5.38,1.13,9.13,3.29,5.31,3.06,10.12,7.07,14.67,11.13,5.73,5.12,10.96,10.76,15.75,16.75-5.44,5.04-10.82,10.15-16.16,15.3-7.16-7.16-14.34-14.34-21.5-21.5-4.06-4.06-7.02.73-8.1,4.82-1.27,4.78-1.87,14.41,2.13,18.4,8.14,8.16,16.3,16.3,24.44,24.45,2.27,2.26,3.71,2.21,5.97,0,16.82-16.37,34.24-32.1,52.27-47.12,14.86-12.38,32.98-25.59,53.33-18.06,4.61,1.71,8.83,4.52,11.85,8.42,2.24,2.9,3.61,6.71,4.07,8.91h0c0,.2.27,2.26.27,2.26.01.03.01.07.02.11.01,1.11-.02,2.22,0,3.31-.04.46-.05.92-.11,1.31-.26,2.23-.76,4.38-1.52,6.5-2.86,8-8.34,14.84-14.02,21.04-7.23,7.9-14.72,15.57-22.07,23.35-19.89,21.06-39.76,42.13-59.75,63.09-3.99,4.18-3.48,13.3-2.12,18.41,1.08,4.06,4.03,9.08,8.09,4.82,20-20.95,39.87-42.03,59.75-63.09,15.49-16.39,33.55-31.91,40.39-54.15,6-19.47,5.15-47.18-10.01-62.4-16.57-16.65-42.01-11.76-59.31.7-10.87,7.83-20.95,16.95-30.98,25.8-1.04.92-2.08,1.84-3.11,2.76-7.25-10.56-15.57-20.19-25.04-28.86-7.07-6.46-14.87-13.27-24.32-15.8-13.02-3.49-27.77,1.02-38.02,9.41-10.62,8.7-16.72,21.03-19.2,34.37-2.19,11.85-1.42,24,2.76,35.35,4.65,12.62,13.55,25.15,22.26,35.31Z"/>
  </g>
</svg>