<?xml version="1.0" encoding="UTF-8"?>
<svg id="Camada_1" xmlns="http://www.w3.org/2000/svg" viewBox="0 0 1569.53 1777.02">
  <defs>
    <style>
      .cls-1 {
        fill: #ff9c19;
      }
    </style>
  </defs>
  <path class="cls-1" d="M892.98,473.16c-32.85-32.62-71.09-58.2-113.66-76.03-43.71-18.31-90.03-27.59-137.7-27.59-.43,0-.88,0-1.31,0-48.13.17-94.84,9.79-138.82,28.58-42.44,18.13-80.5,43.98-113.11,76.83-32.62,32.85-58.2,71.09-76.03,113.66-18.48,44.11-27.76,90.89-27.58,139.02.17,48.13,9.79,94.83,28.58,138.81,18.13,42.44,43.98,80.5,76.84,113.12l.44.43c8.34,8.25,14.87,17.88,19.4,28.62,4.52,10.73,6.84,22.04,6.88,33.63l.55,154.22c.1,28.91,23.63,52.27,52.54,52.17l143.1-.51,77.14.7,3.04-335.77c.1-11.48-3.82-22.63-11.09-31.5l-73.54-89.8,172.16-1.15c27.07-.18,48.87-22.27,48.69-49.35h0c-.18-27.07-22.27-48.87-49.35-48.69l-274.78,1.84c-18.88.13-36.02,11.09-44.05,28.19-8.03,17.1-5.52,37.28,6.45,51.89l88.43,107.98c25.11,30.67,38.67,69.17,38.31,108.8l-1.44,158.89-25.4.09c-28.91.1-52.44-23.25-52.54-52.17l-.2-56.17c-.09-24.64-5-48.66-14.6-71.41-9.55-22.62-23.26-42.87-40.77-60.19l-.33-.32c-23.85-23.67-42.61-51.28-55.75-82.06-13.61-31.85-20.57-65.71-20.69-100.65-.13-34.94,6.59-68.85,19.97-100.8,12.92-30.87,31.48-58.6,55.16-82.46,23.68-23.85,51.28-42.61,82.06-55.75,31.85-13.61,65.71-20.57,100.65-20.69,34.92-.13,68.85,6.59,100.8,19.97,30.86,12.92,58.6,31.48,82.45,55.16,23.85,23.67,42.61,51.28,55.75,82.06,13.6,31.85,20.57,65.71,20.69,100.65.13,34.94-6.59,68.85-19.97,100.79-12.93,30.87-31.49,58.61-55.16,82.45l-.32.33c-17.38,17.44-30.95,37.79-40.34,60.48-9.44,22.81-14.18,46.87-14.09,71.51l.57,157.55c.1,27.07,22.12,48.94,49.2,48.84h0c27.07-.1,48.94-22.12,48.84-49.19l-.56-157.55c-.04-11.59,2.2-22.92,6.64-33.68,4.46-10.77,10.91-20.45,19.22-28.78l.42-.42c32.62-32.85,58.2-71.09,76.03-113.66,18.47-44.11,27.76-90.89,27.58-139.02-.17-48.13-9.79-94.84-28.58-138.82-18.13-42.44-43.98-80.5-76.83-113.11Z"/>
  <path class="cls-1" d="M805.81,1276.42l-327.24-2.19c-11.24-.08-20.42,8.94-20.56,20.18l-.7,57.19c-.14,11.32,8.96,20.6,20.29,20.68l327.94,2.2c11.33.08,20.56-9.09,20.56-20.43v-57.19c0-11.23-9.06-20.35-20.29-20.43Z"/>
  <path class="cls-1" d="M1282.86,460.55l-24.1-51.87c-4.75-10.23-16.9-14.67-27.13-9.92l-231.41,107.51c-10.23,4.75-14.67,16.9-9.92,27.13l24.1,51.87c4.75,10.23,16.9,14.67,27.13,9.92l231.41-107.51c10.23-4.75,14.67-16.9,9.92-27.13Z"/>
  <path class="cls-1" d="M911.5,332.98h156.06c11.27,0,20.43,9.15,20.43,20.43v57.19c0,11.27-9.15,20.43-20.43,20.43h-156.06c-11.27,0-20.43-9.15-20.43-20.43v-57.19c0-11.27,9.15-20.43,20.43-20.43Z" transform="translate(38.77 852.26) rotate(-47.43)"/>
  <path class="cls-1" d="M1188.37,651.85c-.98-11.24-10.89-19.55-22.13-18.57l-116.76,10.2c-11.24.98-19.55,10.89-18.57,22.13l4.98,56.97c.98,11.24,10.89,19.55,22.13,18.57l116.76-10.2c11.24-.98,19.55-10.89,18.57-22.13l-4.98-56.97Z"/>
  <rect class="cls-1" x="491.31" y="1393.45" width="300.71" height="98.8" rx="20.43" ry="20.43"/>
</svg>